# Blender 4.5.2 LTS
# www.blender.org
mtllib PONT.mtl
o PONT
v -11.395441 -2.096905 -1.930116
v -11.735937 -2.096905 1.275908
v -11.395441 -1.096905 -1.930116
v -11.735937 -1.096905 1.275908
v 12.276264 -1.096905 -1.233703
v 11.935753 -1.096905 1.972405
v 12.276264 -2.096905 -1.233703
v 11.935753 -2.096905 1.972405
v -0.713149 2.037807 1.600281
v 6.453958 0.421528 -1.653908
v 6.453958 1.421528 -1.653908
v 6.060288 1.421528 1.594689
v 6.060288 0.421528 1.594689
v -6.978298 1.253803 -1.774262
v -6.978298 0.253803 -1.774262
v -7.371967 0.253803 1.431762
v -7.371967 1.253803 1.431762
v -11.702422 -2.096905 0.960326
v -11.702422 -1.096905 0.960326
v -7.318531 1.253803 0.857322
v -0.679638 1.753620 1.284699
v 6.099029 1.421528 1.458069
v 11.969271 -1.096905 1.656823
v 11.969271 -2.096905 1.656823
v 6.099018 0.421528 1.458061
v -7.333227 0.253803 1.116263
v -11.425710 -2.096905 -1.645059
v -11.425710 -1.096905 -1.645059
v -7.027986 1.253803 -1.508782
v 6.418946 1.421528 -1.147400
v 12.245991 -1.096905 -0.948730
v 12.245991 -2.096905 -0.948730
v 6.418946 0.421528 -1.147400
v -7.013291 0.253803 -1.489205
v -11.395441 -0.334560 -1.930116
v -11.425710 -0.334560 -1.645059
v -7.013290 2.016140 -1.489205
v -6.978298 2.016140 -1.774262
v 6.453958 2.183872 -1.653908
v 6.418946 2.183872 -1.147400
v 12.245991 -0.334560 -0.948729
v 12.046274 -0.334560 -1.192359
v -11.702422 -0.334560 0.960326
v -7.333227 2.016140 1.116263
v -11.735937 -0.334560 1.275908
v -7.371967 2.016140 1.431762
v -0.679638 2.892712 1.284699
v -0.713149 2.892711 1.600281
v 6.099029 2.183872 1.458069
v 6.060288 2.183872 1.594689
v 11.655874 -0.334561 1.716264
v 11.935753 -0.334561 1.972405
v 1.722944 1.848629 -1.552605
v 1.908370 0.848629 -1.552605
v 1.598630 0.848621 -1.264542
v 1.208917 0.848629 1.337921
v 1.366118 0.848629 1.653473
v 1.366118 1.848629 1.653473
v 1.366118 2.610965 1.653473
v 1.401238 2.610966 1.337921
v 1.380080 1.848629 1.463387
v 1.697991 1.848629 -1.393013
v 1.691221 2.610966 -1.267547
v 1.722944 2.610966 -1.552604
v -1.955453 0.849949 -1.581161
v -1.955453 1.849949 -1.646187
v -1.955453 2.612293 -1.646187
v -1.986857 2.612293 -1.361130
v -1.986857 1.849949 -1.361130
v -2.273927 1.849949 1.244339
v -2.273927 2.612286 1.244339
v -2.308692 2.612286 1.559845
v -2.308692 1.849949 1.559845
v -2.149943 0.849949 1.559845
v -2.357720 0.849949 1.244339
v -1.816928 0.849949 -1.361130
v 0.663234 -4.262093 -1.596817
v -0.224052 -0.641487 -1.517868
v 1.634494 -4.024071 -1.596817
v 1.023684 -0.761558 -1.517868
v 2.085860 -4.052849 1.581543
v 0.521428 -0.682663 0.922935
v 0.640573 -4.169624 1.443733
v -0.246712 -0.549019 1.465538
v 1.148864 -4.143082 -1.596817
v 0.219591 -2.451790 -1.557343
v 0.261578 -0.522476 -1.517868
v 1.190851 -2.213768 -1.557343
v 1.623164 -3.977837 -0.076538
v 0.735877 -0.357231 -0.026169
v 1.168190 -2.121300 1.454636
v 1.126203 -3.965267 1.274253
v 0.238918 -0.430008 1.465538
v 0.385163 -2.359322 0.893631
v 0.651904 -4.215858 -0.076538
v -0.235382 -0.595253 -0.026169
v 1.290396 -4.333897 -0.076538
v 0.250248 -0.476242 -0.026169
v -0.043355 -2.405556 -0.051354
v 0.682560 -2.240311 1.302727
v 1.406897 -2.167534 -0.051354
v 0.705221 -2.332779 -1.802155
v 0.153616 -1.546638 -1.370545
v 0.969030 -1.308617 -1.537605
v 0.946369 -1.216148 1.460083
v -0.024890 -1.454170 1.460083
v -0.013560 -1.500404 -0.038757
v 0.313824 -1.335159 1.600151
v 0.957699 -1.262383 -0.038757
v 0.483400 -1.427627 -1.537605
v 0.441412 -3.356941 -1.577080
v 1.412672 -3.118919 -1.577080
v 1.390011 -3.026451 1.449188
v 0.418752 -3.264473 1.449188
v 0.430082 -3.310707 -0.063950
v 0.904382 -3.145462 1.665748
v 1.401342 -3.072685 -0.063950
v 0.927042 -3.237930 -1.577080
v 9.365110 -0.837688 -1.333083
v 9.365110 0.162312 -1.333083
v 9.332468 -0.837688 -1.048064
v 8.998020 0.162311 1.872941
v 8.998020 -0.837689 1.872941
v 9.353270 1.156132 -1.333083
v 9.332468 1.072315 -1.048064
v 9.034149 0.924656 1.557450
v 8.998020 0.740818 1.900994
v 9.034143 -0.837689 1.557443
v 9.332468 0.162315 -0.722182
v 9.034149 0.162311 1.231561
v -11.564066 -1.096905 -0.342363
v -11.670340 -2.096905 -0.342363
v -7.173259 1.253803 -0.325730
v -7.173259 0.253803 -0.186471
v -2.130392 1.759975 -0.058395
v -1.916949 0.849949 -0.058395
v 12.107630 -1.096905 0.354051
v 6.258988 1.421528 0.155335
v 12.107630 -2.096905 0.354051
v 6.258982 0.421528 0.155336
v 1.249733 0.848621 0.036690
v 1.784707 1.848629 0.035187
v 9.056664 -1.152042 0.254685
v 9.183310 0.333401 0.254693
v -9.186870 0.840794 -1.852189
v -9.219500 0.840794 -1.567132
v -9.186870 -0.921551 -1.852189
v -9.219500 -0.921551 -1.567132
v -9.553952 -0.921551 1.353835
v -9.553952 0.078449 1.353835
v -9.186870 0.078449 -1.852189
v -9.517825 0.840794 1.038299
v -9.553952 0.840793 1.353835
v -9.517825 -0.921551 1.038298
v -9.226848 0.078449 -1.576921
v -9.510476 0.078449 0.908828
v -9.421799 -0.531441 -0.264421
v -9.454338 0.298946 -0.334046
v 4.088451 1.635075 -1.603256
v 4.181164 0.635075 -1.603256
v 4.008788 0.635075 -1.205971
v 3.653967 0.635074 1.397995
v 3.713203 0.635074 1.624084
v 3.713203 1.635074 1.624085
v 3.713203 2.397419 1.624085
v 3.750134 2.397419 1.397995
v 3.739555 1.635074 1.460724
v 4.058468 1.635075 -1.270203
v 4.055084 2.397419 -1.207474
v 4.088451 2.397419 -1.603256
v 4.021847 1.356327 0.095261
v 3.754358 0.635075 0.096008
v -4.479390 1.550388 -1.710541
v -4.479390 0.550388 -1.678192
v -4.479390 2.312733 -1.710542
v -4.512598 2.312733 -1.425492
v -4.519982 1.550388 -1.435318
v -4.808798 1.550388 1.049865
v -4.816183 2.312733 1.179977
v -4.852945 2.312733 1.495483
v -4.852945 1.550388 1.495483
v -4.773967 0.550388 1.495483
v -4.857871 0.550388 1.179977
v -4.428057 0.550388 -1.425491
v -4.558201 0.550388 -0.122757
v -4.664390 1.728954 -0.192727
vn -0.9944 -0.0000 -0.1056
vn -0.4677 0.8821 -0.0555
vn 0.9944 -0.0000 0.1056
vn 0.4679 -0.8822 0.0516
vn -0.0357 -0.0000 0.9994
vn 0.0353 -0.0000 -0.9994
vn 0.1095 -0.0000 -0.9940
vn -0.3946 -0.9182 -0.0337
vn -0.0338 -0.0000 0.9994
vn 0.4596 0.8880 -0.0147
vn -0.4719 0.8801 -0.0521
vn -0.1727 0.9848 -0.0187
vn 0.1338 0.9909 0.0146
vn 0.3644 0.8493 0.3820
vn -0.3925 -0.9187 -0.0433
vn 0.4717 -0.8800 0.0560
vn -0.9965 0.0529 -0.0652
vn -0.5125 0.8580 0.0352
vn 0.3714 0.9207 0.1195
vn -0.3467 -0.9335 0.0912
vn 0.4054 -0.9090 -0.0963
vn -0.0230 -0.0189 0.9996
vn 0.1083 0.1901 0.9758
vn 0.9415 0.1502 -0.3018
vn 0.1101 0.0007 -0.9939
vn -0.0393 0.0844 -0.9957
vn 0.0253 -0.0000 -0.9997
vn -0.0253 -0.0000 0.9997
vn 0.0528 -0.0663 -0.9964
vn -0.0256 -0.0000 0.9997
vn 0.0683 0.2085 -0.9756
vn -0.0374 -0.0209 0.9991
vn 0.8998 0.2001 -0.3877
vn -0.0221 -0.0031 -0.9998
vn -0.0905 -0.9939 -0.0637
vn -0.0862 -0.9962 -0.0137
vn -0.0888 -0.9960 0.0050
vn 0.0125 -0.0000 0.9999
vn 0.0905 0.9958 0.0120
vn 0.0010 -0.1225 -0.9925
vn 0.1522 0.9865 -0.0610
vn -0.0424 -0.0412 0.9983
vn 0.0899 0.9959 0.0068
vn -0.0214 -0.0000 -0.9998
vn 0.0339 -0.0162 -0.9993
vn 0.0255 -0.0000 -0.9997
vn -0.1175 0.9930 -0.0133
vn -0.0266 -0.0063 0.9996
vn -0.1478 0.9849 -0.0902
vn 0.0202 0.2475 -0.9687
vn -0.1166 0.9931 -0.0140
vn -0.0246 -0.0029 0.9997
vn 0.1173 -0.9916 -0.0542
vn 0.1149 -0.9928 0.0326
vn 0.1160 -0.9932 -0.0035
vn 0.0157 -0.9111 0.4120
vn -0.0471 -0.8727 0.4860
vn -0.9920 0.0060 -0.1264
vn -0.7988 -0.0727 -0.5972
vn -0.9601 0.0651 0.2720
vn -0.9291 0.3374 -0.1516
vn 0.9638 0.0361 -0.2642
vn 0.9940 -0.0000 0.1095
vn 0.9754 0.0761 -0.2069
vn 0.9741 0.0661 0.2162
vn 0.0026 0.0275 -0.9996
vn 0.8851 0.4462 0.1325
vn -0.1788 0.0408 0.9830
vn -0.9470 -0.3173 -0.0495
vn 0.2606 0.9562 0.1335
vn 0.5011 -0.8632 -0.0625
vn 0.1851 -0.9797 0.0772
vn 0.0979 -0.9841 0.1482
vn 0.0009 -0.9989 -0.0475
vn 0.0949 0.9857 -0.1394
vn -0.2379 0.9708 -0.0319
vn -0.9314 -0.3564 -0.0737
vn -0.9609 -0.2177 0.1713
vn -0.9713 -0.2380 -0.0000
vn -0.6498 0.2690 0.7109
vn 0.0168 0.1977 0.9801
vn 0.5630 0.5021 0.6564
vn 0.9900 0.1175 0.0784
vn 0.9903 0.1196 -0.0708
vn 0.9903 0.1122 0.0822
vn 0.2550 -0.0471 -0.9658
vn -0.2043 -0.1596 -0.9658
vn -0.1645 -0.1234 -0.9786
vn -0.4787 0.1400 -0.8668
vn 0.9346 0.3478 -0.0744
vn 0.0231 -0.1576 0.9872
vn -0.9515 -0.2549 0.1721
vn -0.9887 -0.0033 -0.1498
vn -0.4299 -0.5328 0.7289
vn 0.9358 0.3462 0.0672
vn 0.1936 0.1983 -0.9608
vn -0.0050 0.0206 -0.9998
vn 0.9713 0.2380 -0.0000
vn 0.8992 0.4195 -0.1242
vn -0.0582 -0.1671 0.9842
vn 0.0253 -0.2180 0.9756
vn -0.1084 -0.0208 0.9939
vn 0.2258 0.2821 -0.9324
vn 0.0582 0.0315 -0.9978
vn -0.0105 0.1913 0.9815
vn -0.4438 -0.8928 0.0766
vn 0.4054 0.9064 0.1191
vn -0.3898 -0.9186 -0.0645
vn 0.3796 0.9164 0.1266
vn 0.3350 0.9342 0.1225
vn -0.0943 -0.0000 0.9955
vn -0.3952 -0.9175 -0.0436
vn 0.0341 -0.0000 -0.9994
vn 0.9757 0.1958 0.0980
vn 0.1131 -0.9935 0.0100
vn -0.1552 0.9864 0.0541
vn 0.3900 -0.9012 0.1892
vn -0.5050 0.8506 -0.1463
vn -0.9880 0.0525 -0.1452
vn 0.4181 0.9083 -0.0154
vn -0.4322 -0.8839 -0.1789
vn -0.9509 0.2957 -0.0913
vn 0.1473 0.9845 0.0956
vn -0.0858 -0.9963 -0.0086
vn -0.3370 -0.9269 -0.1654
vn 0.3744 0.9271 -0.0188
vn -0.4228 0.8944 -0.1463
vn 0.5067 -0.8356 0.2120
vn -0.1248 0.2432 -0.9619
vn -0.0298 -0.0063 0.9995
vn 0.5258 -0.8447 -0.1006
vn -0.4291 0.9020 0.0464
vn 0.4719 -0.8801 0.0521
vn -0.4717 0.8800 -0.0560
vn 0.4677 -0.8821 0.0555
vn -0.4679 0.8822 -0.0516
vn -0.0859 -0.9963 -0.0047
vn 0.0279 0.9940 0.1059
vn 0.0899 0.9959 0.0086
vn -0.0495 -0.1227 0.9912
vn 0.0333 0.9946 -0.0984
vn 0.0085 -0.0412 -0.9991
vn 0.0904 0.9957 0.0189
vn -0.0889 -0.9954 0.0355
vn -0.0861 -0.9961 -0.0200
vn -0.0908 -0.9957 -0.0208
vn -0.0219 -0.0010 -0.9998
vn -0.0668 0.9974 0.0272
vn 0.1130 -0.9935 0.0126
vn 0.1172 -0.9920 -0.0471
vn 0.1152 -0.9931 0.0203
vn 0.1163 -0.9932 -0.0083
vn -0.0248 -0.0010 0.9997
vn -0.1166 0.9931 -0.0132
vn 0.0407 0.0852 -0.9955
vn -0.0633 0.9971 -0.0419
vn -0.0251 -0.0189 0.9995
vn -0.1175 0.9930 -0.0141
vn 0.0377 -0.0486 -0.9981
vt 0.086050 0.880138
vt 0.100645 0.882060
vt 0.093300 0.933592
vt 0.078590 0.931453
vt 0.050405 0.124993
vt 0.060212 0.123869
vt 0.061568 0.208882
vt 0.051743 0.210081
vt 0.899576 0.100533
vt 0.898190 0.112926
vt 0.855186 0.109000
vt 0.856247 0.096879
vt 0.088972 0.753112
vt 0.102629 0.754321
vt 0.254792 0.768351
vt 0.255176 0.636836
vt 0.302370 0.617915
vt 0.300522 0.743704
vt 0.045451 0.729077
vt 0.042188 0.854814
vt 0.719283 0.093020
vt 0.578833 0.082764
vt 0.568211 0.040255
vt 0.704318 0.052494
vt 0.718188 0.105296
vt 0.578225 0.106137
vt 0.691077 0.272223
vt 0.708129 0.233522
vt 0.844085 0.234383
vt 0.826949 0.273269
vt 0.509253 0.350308
vt 0.508827 0.363054
vt 0.368862 0.366903
vt 0.376668 0.355780
vt 0.229243 0.949602
vt 0.234436 0.897128
vt 0.251318 0.899604
vt 0.245678 0.951392
vt 0.194331 0.106681
vt 0.190037 0.020675
vt 0.200935 0.019467
vt 0.205105 0.105035
vt 0.354297 0.979463
vt 0.362914 0.910618
vt 0.376503 0.911181
vt 0.367882 0.980078
vt 0.458181 0.891310
vt 0.444604 0.890437
vt 0.457937 0.801426
vt 0.471502 0.802366
vt 0.679264 0.310823
vt 0.547782 0.312397
vt 0.546438 0.306791
vt 0.681735 0.294658
vt 0.845251 0.220904
vt 0.887817 0.224687
vt 0.886611 0.238183
vt 0.708957 0.220861
vt 0.239061 0.766743
vt 0.236850 0.636638
vt 0.160820 0.943325
vt 0.167374 0.892343
vt 0.126793 0.103992
vt 0.121173 0.016237
vt 0.166191 0.009129
vt 0.170085 0.095617
vt 0.503648 0.445909
vt 0.640964 0.442188
vt 0.647896 0.499674
vt 0.507001 0.489877
vt 0.850019 0.165027
vt 0.892795 0.168920
vt 0.713600 0.163944
vt 0.171196 0.753659
vt 0.169881 0.633379
vt 0.087613 0.972711
vt 0.072902 0.970573
vt 0.082373 0.109638
vt 0.087184 0.199451
vt 0.009129 0.835746
vt 0.012717 0.711488
vt 0.494175 0.402631
vt 0.354298 0.396394
vt 0.934167 0.103240
vt 0.931157 0.116614
vt 0.560400 0.009129
vt 0.689656 0.012815
vt 0.241378 0.990871
vt 0.224943 0.989082
vt 0.336040 0.603396
vt 0.335152 0.725097
vt 0.422631 0.980078
vt 0.422573 0.911620
vt 0.455176 0.909623
vt 0.471347 0.977095
vt 0.409128 0.912985
vt 0.404468 0.978269
vt 0.411505 0.889384
vt 0.409134 0.800736
vt 0.390884 0.801093
vt 0.403344 0.889710
vt 0.370719 0.891310
vt 0.354297 0.802886
vt 0.654948 0.531608
vt 0.520704 0.522998
vt 0.813909 0.302796
vt 0.923093 0.225399
vt 0.919030 0.241080
vt 0.468511 0.049670
vt 0.479208 0.090601
vt 0.383494 0.094953
vt 0.369977 0.055143
vt 0.472498 0.107534
vt 0.370630 0.106701
vt 0.462593 0.163371
vt 0.573065 0.164774
vt 0.460353 0.228146
vt 0.458063 0.219068
vt 0.567362 0.224280
vt 0.565756 0.232697
vt 0.455177 0.269918
vt 0.554459 0.275950
vt 0.451207 0.301059
vt 0.452510 0.310311
vt 0.355812 0.313333
vt 0.354297 0.300391
vt 0.750228 0.498760
vt 0.849817 0.499282
vt 0.851643 0.531608
vt 0.752809 0.530642
vt 0.736918 0.440494
vt 0.834628 0.437763
vt 0.738733 0.350252
vt 0.736907 0.382063
vt 0.634674 0.384815
vt 0.640280 0.352699
vt 0.737203 0.333838
vt 0.638424 0.331590
vt 0.365395 0.024024
vt 0.463262 0.018522
vt 0.062022 0.497038
vt 0.101110 0.508667
vt 0.088046 0.624924
vt 0.042140 0.607692
vt 0.032588 0.486446
vt 0.009475 0.594525
vt 0.056133 0.298541
vt 0.066360 0.297138
vt 0.067388 0.387305
vt 0.060325 0.391331
vt 0.093217 0.292394
vt 0.095845 0.388888
vt 0.139025 0.286396
vt 0.131252 0.192694
vt 0.212494 0.279156
vt 0.184563 0.278822
vt 0.175435 0.185497
vt 0.203964 0.190466
vt 0.223690 0.276892
vt 0.214715 0.188374
vt 0.277765 0.502136
vt 0.256458 0.401218
vt 0.286372 0.387439
vt 0.309206 0.491380
vt 0.234720 0.511491
vt 0.215282 0.404857
vt 0.222375 0.516963
vt 0.202412 0.412296
vt 0.164696 0.511198
vt 0.150941 0.411453
vt 0.111174 0.507777
vt 0.104418 0.627009
vt 0.836054 0.376989
vt 0.836691 0.345747
vt 0.847196 0.348412
vt 0.838901 0.374382
vt 0.874682 0.365981
vt 0.875713 0.382006
vt 0.889707 0.487425
vt 0.891187 0.501699
vt 0.850822 0.506975
vt 0.882439 0.435280
vt 0.195772 0.372870
vt 0.206298 0.374466
vt 0.086286 0.401536
vt 0.110827 0.415262
vt 0.110637 0.417905
vt 0.146508 0.380030
vt 0.685216 0.751267
vt 0.724546 0.757165
vt 0.703921 0.782479
vt 0.685402 0.772305
vt 0.393395 0.696440
vt 0.354297 0.704316
vt 0.355837 0.661130
vt 0.380037 0.633666
vt 0.690201 0.591060
vt 0.728648 0.581531
vt 0.730946 0.603335
vt 0.691567 0.605783
vt 0.688621 0.671101
vt 0.731311 0.669982
vt 0.729494 0.737171
vt 0.684605 0.732418
vt 0.755041 0.670206
vt 0.753206 0.602559
vt 0.770126 0.626609
vt 0.778717 0.672092
vt 0.537652 0.676180
vt 0.546759 0.740545
vt 0.526215 0.741812
vt 0.515909 0.674666
vt 0.545893 0.617895
vt 0.507457 0.598450
vt 0.567796 0.611566
vt 0.566257 0.675362
vt 0.567614 0.740209
vt 0.751984 0.738362
vt 0.787966 0.742863
vt 0.606759 0.673299
vt 0.649726 0.672516
vt 0.644750 0.735415
vt 0.606814 0.737616
vt 0.604169 0.611649
vt 0.645696 0.627426
vt 0.607307 0.593818
vt 0.645837 0.601672
vt 0.609616 0.574942
vt 0.643578 0.579767
vt 0.677678 0.566655
vt 0.713585 0.557314
vt 0.474431 0.682236
vt 0.435952 0.688931
vt 0.418857 0.626648
vt 0.457620 0.618991
vt 0.486812 0.746586
vt 0.447653 0.752341
vt 0.408668 0.758804
vt 0.385930 0.762928
vt 0.608739 0.758645
vt 0.646719 0.756047
vt 0.648764 0.777275
vt 0.610048 0.779640
vt 0.569210 0.761391
vt 0.570733 0.782479
vt 0.567091 0.549865
vt 0.573174 0.589441
vt 0.367578 0.509414
vt 0.395982 0.531003
vt 0.840251 0.057329
vt 0.819225 0.030722
vt 0.361399 0.452956
vt 0.801851 0.313333
vt 0.076075 0.023015
vt 0.299869 0.877315
vt 0.336040 0.857585
vt 0.053696 0.037240
vt 0.043868 0.038608
vt 0.354443 0.215491
vt 0.356385 0.161148
vt 0.835161 0.334031
vt 0.357337 0.269215
vt 0.361174 0.228148
vt 0.235247 0.370343
vt 0.223828 0.372743
s 0
usemtl PONT
f 1/1/1 27/2/1 28/3/1 3/4/1
f 145/5/2 146/6/2 37/7/2 38/8/2
f 5/9/3 31/10/3 32/11/3 7/12/3
f 147/13/4 148/14/4 27/2/4 1/1/4
f 149/15/5 16/16/5 17/17/5 150/18/5
f 151/19/6 147/13/6 1/1/6 3/20/6
f 119/21/7 10/22/7 11/23/7 120/24/7
f 119/21/8 121/25/8 33/26/8 10/22/8
f 122/27/9 123/28/9 8/29/9 6/30/9
f 124/31/10 125/32/10 41/33/10 42/34/10
f 19/35/1 18/36/1 2/37/1 4/38/1
f 152/39/11 43/40/11 45/41/11 153/42/11
f 47/43/12 71/44/12 72/45/12 48/46/12
f 59/47/13 60/48/13 47/49/13 48/50/13
f 126/51/14 49/52/14 50/53/14 127/54/14
f 24/55/3 23/56/3 6/57/3 8/29/3
f 128/58/15 24/55/15 8/29/15 123/28/15
f 154/59/16 26/60/16 16/16/16 149/15/16
f 131/61/17 132/62/17 18/36/17 19/35/17
f 158/63/18 131/64/18 19/65/18 156/66/18
f 144/67/19 138/68/19 22/69/19 130/70/19
f 139/71/3 137/72/3 23/56/3 24/55/3
f 143/73/20 139/71/20 24/55/20 128/58/20
f 157/74/21 134/75/21 26/60/21 154/59/21
f 3/4/1 28/3/1 36/76/1 35/77/1
f 155/78/22 29/79/22 37/7/22 146/6/22
f 151/19/6 3/20/6 35/80/6 145/81/6
f 129/82/23 31/83/23 41/33/23 125/32/23
f 31/10/24 5/9/24 42/84/24 41/85/24
f 120/24/25 11/23/25 39/86/25 124/87/25
f 156/66/26 19/65/26 43/40/26 152/39/26
f 19/35/1 4/38/1 45/88/1 43/89/1
f 150/18/5 17/17/5 46/90/5 153/91/5
f 21/92/27 70/93/27 71/94/27 47/95/27
f 72/45/28 73/96/28 9/97/28 48/46/28
f 60/48/29 61/98/29 21/99/29 47/49/29
f 9/100/30 58/101/30 59/102/30 48/103/30
f 130/70/31 22/69/31 49/104/31 126/105/31
f 122/27/32 6/30/32 52/106/32 127/54/32
f 6/57/33 23/56/33 51/107/33 52/108/33
f 159/109/34 160/110/34 54/111/34 53/112/34
f 160/110/35 161/113/35 55/114/35 54/111/35
f 172/115/36 161/113/36 33/26/36 140/116/36
f 163/117/37 162/118/37 25/119/37 13/120/37
f 164/121/38 163/117/38 13/120/38 12/122/38
f 165/123/38 164/121/38 12/122/38 50/53/38
f 166/124/39 60/125/39 59/126/39 165/123/39
f 167/127/40 61/128/40 60/129/40 166/130/40
f 171/131/41 142/132/41 61/128/41 167/127/41
f 169/133/42 168/134/42 30/135/42 40/136/42
f 170/137/43 169/133/43 40/136/43 39/138/43
f 159/109/44 53/112/44 64/139/44 170/140/44
f 173/141/45 174/142/45 15/143/45 14/144/45
f 175/145/46 173/141/46 14/144/46 38/146/46
f 175/147/47 176/148/47 68/149/47 67/150/47
f 177/151/48 69/152/48 68/149/48 176/148/48
f 186/153/49 177/151/49 29/79/49 133/154/49
f 179/155/50 178/156/50 20/157/50 44/158/50
f 180/159/51 179/155/51 44/158/51 46/160/51
f 181/161/28 73/162/28 72/163/28 180/164/28
f 181/161/52 182/165/52 74/166/52 73/162/52
f 183/167/53 75/168/53 74/166/53 182/165/53
f 185/169/54 136/170/54 75/168/54 183/167/54
f 174/142/55 184/171/55 34/172/55 15/143/55
f 70/93/56 21/92/56 9/97/56 73/96/56
f 58/101/57 9/100/57 21/99/57 61/98/57
f 62/173/58 63/174/58 64/175/58 53/176/58
f 54/177/59 55/178/59 62/173/59 53/176/59
f 56/179/60 57/180/60 58/181/60 61/128/60
f 141/182/61 56/179/61 61/128/61 142/132/61
f 74/166/62 75/168/62 70/183/62 73/184/62
f 66/185/63 67/150/63 68/149/63 69/152/63
f 76/186/64 65/187/64 66/185/64 69/152/64
f 135/188/65 70/183/65 75/168/65 136/170/65
f 110/189/66 87/190/66 80/191/66 104/192/66
f 109/193/67 90/194/67 82/195/67 105/196/67
f 108/197/68 93/198/68 84/199/68 106/200/68
f 107/201/69 96/202/69 78/203/69 103/204/69
f 98/205/70 93/206/70 82/207/70 90/208/70
f 97/209/71 85/210/71 79/211/71 89/212/71
f 92/213/72 97/209/72 89/212/72 81/214/72
f 83/215/73 95/216/73 97/209/73 92/213/73
f 95/216/74 77/217/74 85/210/74 97/209/74
f 87/218/75 98/205/75 90/208/75 80/219/75
f 78/203/76 96/202/76 98/205/76 87/218/76
f 96/202/76 84/199/76 93/206/76 98/205/76
f 115/220/77 99/221/77 86/222/77 111/223/77
f 114/224/78 94/225/78 99/221/78 115/220/78
f 106/200/79 84/199/79 96/202/79 107/201/79
f 116/226/80 100/227/80 94/225/80 114/224/80
f 113/228/81 91/229/81 100/227/81 116/226/81
f 105/230/82 82/231/82 93/198/82 108/197/82
f 117/232/83 101/233/83 91/234/83 113/235/83
f 112/236/84 88/237/84 101/233/84 117/232/84
f 104/238/85 80/239/85 90/194/85 109/193/85
f 118/240/86 102/241/86 88/242/86 112/243/86
f 111/223/87 86/222/87 102/241/87 118/240/87
f 103/204/88 78/203/88 87/190/88 110/189/88
f 86/222/89 103/204/89 110/189/89 102/241/89
f 88/237/90 104/238/90 109/193/90 101/233/90
f 91/229/91 105/230/91 108/197/91 100/227/91
f 94/225/92 106/200/92 107/201/92 99/221/92
f 99/221/93 107/201/93 103/204/93 86/222/93
f 100/227/94 108/197/94 106/200/94 94/225/94
f 101/233/95 109/193/95 105/196/95 91/234/95
f 102/241/96 110/189/96 104/192/96 88/242/96
f 77/217/97 111/223/97 118/240/97 85/244/97
f 85/244/97 118/240/97 112/243/97 79/245/97
f 79/211/98 112/236/98 117/232/98 89/212/98
f 89/212/99 117/232/99 113/235/99 81/214/99
f 81/246/100 113/228/100 116/226/100 92/247/100
f 92/247/101 116/226/101 114/224/101 83/215/101
f 83/215/79 114/224/79 115/220/79 95/216/79
f 95/216/79 115/220/79 111/223/79 77/217/79
f 12/122/102 122/27/102 127/54/102 50/53/102
f 23/248/103 130/70/103 126/105/103 51/249/103
f 5/250/104 120/24/104 124/87/104 42/251/104
f 30/135/105 129/82/105 125/32/105 40/136/105
f 140/116/106 143/73/106 128/58/106 25/119/106
f 137/252/107 144/67/107 130/70/107 23/248/107
f 25/119/108 128/58/108 123/28/108 13/120/108
f 51/253/109 126/51/109 127/54/109 52/106/109
f 39/138/110 40/136/110 125/32/110 124/31/110
f 12/122/111 13/120/111 123/28/111 122/27/111
f 7/12/112 32/11/112 121/25/112 119/21/112
f 7/12/113 119/21/113 120/24/113 5/250/113
f 69/152/114 135/188/114 136/170/114 76/186/114
f 184/171/115 76/186/115 136/170/115 185/169/115
f 178/156/116 186/153/116 133/154/116 20/157/116
f 148/14/117 34/172/117 134/75/117 157/74/117
f 155/78/118 28/254/118 131/64/118 158/63/118
f 28/3/119 27/2/119 132/62/119 131/61/119
f 31/83/120 129/82/120 144/67/120 137/252/120
f 33/26/121 121/25/121 143/73/121 140/116/121
f 55/178/122 141/182/122 142/132/122 62/173/122
f 168/134/123 62/173/123 142/132/123 171/131/123
f 162/118/124 172/115/124 140/116/124 25/119/124
f 121/25/125 32/11/125 139/71/125 143/73/125
f 32/11/3 31/10/3 137/72/3 139/71/3
f 129/82/126 30/135/126 138/68/126 144/67/126
f 29/79/127 155/78/127 158/63/127 133/154/127
f 27/2/128 148/14/128 157/74/128 132/62/128
f 4/255/5 150/18/5 153/91/5 45/256/5
f 20/157/129 156/66/129 152/39/129 44/158/129
f 14/144/6 151/19/6 145/81/6 38/146/6
f 28/254/130 155/78/130 146/6/130 36/257/130
f 132/62/131 157/74/131 154/59/131 18/36/131
f 133/154/132 158/63/132 156/66/132 20/157/132
f 18/36/133 154/59/133 149/15/133 2/37/133
f 44/158/134 152/39/134 153/42/134 46/160/134
f 14/144/6 15/143/6 147/13/6 151/19/6
f 2/37/5 149/15/5 150/18/5 4/255/5
f 15/143/135 34/172/135 148/14/135 147/13/135
f 35/258/136 36/257/136 146/6/136 145/5/136
f 56/259/137 141/260/137 172/115/137 162/118/137
f 30/135/138 168/134/138 171/131/138 138/68/138
f 11/23/44 159/109/44 170/140/44 39/86/44
f 64/261/139 63/174/139 169/133/139 170/137/139
f 63/174/140 62/173/140 168/134/140 169/133/140
f 138/68/141 171/131/141 167/127/141 22/69/141
f 22/69/142 167/127/142 166/130/142 49/104/142
f 49/52/143 166/124/143 165/123/143 50/53/143
f 59/126/38 58/262/38 164/121/38 165/123/38
f 58/262/38 57/263/38 163/117/38 164/121/38
f 57/263/144 56/259/144 162/118/144 163/117/144
f 141/260/145 55/114/145 161/113/145 172/115/145
f 10/22/146 33/26/146 161/113/146 160/110/146
f 11/23/147 10/22/147 160/110/147 159/109/147
f 70/183/148 135/188/148 186/153/148 178/156/148
f 34/172/149 184/171/149 185/169/149 134/75/149
f 65/187/150 76/186/150 184/171/150 174/142/150
f 134/75/151 185/169/151 183/167/151 26/60/151
f 26/60/152 183/167/152 182/165/152 16/16/152
f 17/17/153 16/16/153 182/165/153 181/161/153
f 17/17/28 181/161/28 180/164/28 46/90/28
f 72/264/154 71/265/154 179/155/154 180/159/154
f 71/265/155 70/183/155 178/156/155 179/155/155
f 135/188/156 69/152/156 177/151/156 186/153/156
f 29/79/157 177/151/157 176/148/157 37/7/157
f 38/8/158 37/7/158 176/148/158 175/147/158
f 67/150/46 66/185/46 173/141/46 175/145/46
f 66/185/159 65/187/159 174/142/159 173/141/159
