# Blender 4.5.3 LTS
# www.blender.org
mtllib Wall_Broken.mtl
o Wall_Broken
v -0.445847 -3.794142 3.106461
v 0.448399 -3.794142 3.106461
v -0.445847 3.594085 3.106461
v 0.448399 3.594085 3.106461
v -0.445847 3.594084 -3.106953
v 0.448399 3.594084 -3.106953
v -0.445847 -3.794143 -3.106953
v 0.448399 -3.794143 -3.106953
v -0.445847 -3.269863 3.106461
v -0.445847 -3.269867 -3.106953
v 0.448399 -3.269867 -3.106953
v 0.448399 -3.269863 3.106461
v -0.445847 2.805444 -3.106953
v -0.445847 2.805445 3.106461
v 0.448399 2.805445 3.106461
v 0.448399 2.805444 -3.106953
v -0.445847 3.594086 2.609001
v -0.445847 2.805445 2.609001
v -0.445847 -3.269863 2.609001
v -0.445847 -3.794142 2.609001
v 0.448399 -3.794142 2.609001
v 0.448399 -3.269863 2.609001
v 0.448399 2.805445 2.609001
v 0.448399 3.594086 2.609001
v -0.445847 -3.794143 -2.618378
v -0.445847 -3.269866 -2.618378
v -0.445847 2.805444 -2.618378
v -0.445847 3.594085 -2.618378
v 0.448399 3.594085 -2.618378
v 0.448399 2.805444 -2.618378
v 0.448399 -3.269866 -2.618378
v 0.448399 -3.794143 -2.618378
v -0.116619 -2.836086 -2.245140
v -0.116619 2.371665 -2.245140
v -0.116619 -2.836083 2.235764
v -0.116619 2.371665 2.235764
v 0.119167 -2.836083 2.235764
v 0.119167 2.371665 2.235764
v 0.119167 -2.836086 -2.245140
v 0.119167 2.371665 -2.245140
v -0.445847 3.594086 2.311466
v -0.445847 2.805445 1.918365
v -0.116619 2.371665 1.598656
v -0.116619 -2.836084 -0.997150
v -0.445847 -3.269866 -1.109879
v -0.445847 -3.794142 -1.371208
v 0.448399 -3.794142 -1.526070
v 0.448399 -3.269866 -1.264744
v 0.119167 -2.836086 -1.358879
v 0.119167 2.371665 0.937683
v 0.448399 2.805445 1.763504
v 0.448399 3.594086 2.156605
v -0.445847 -3.794142 -1.789444
v -0.445847 -3.269866 -1.615749
v -0.116619 -2.836086 -1.415661
v -0.116619 2.371665 0.309654
v -0.445847 2.805444 0.396988
v -0.445847 3.594085 0.658264
v 0.448399 3.594085 0.555336
v 0.448399 2.805444 0.294056
v 0.119167 2.371665 0.282516
v 0.119167 -2.836086 -1.442799
v 0.448399 -3.269866 -1.718678
v 0.448399 -3.794142 -1.892368
v -0.445847 -1.641958 3.106461
v -0.445847 -1.329972 2.609001
v -0.116619 -1.159101 2.235764
v -0.116619 -0.085473 0.373890
v -0.116619 0.485505 -0.315224
v -0.116619 1.651135 -2.245140
v -0.445847 1.948421 -2.618378
v -0.445847 2.254838 -3.106953
v 0.448399 2.247313 -3.106953
v 0.448399 1.940897 -2.618378
v 0.119167 1.649151 -2.245140
v 0.119167 0.503364 -0.336449
v 0.119167 -0.059565 0.345974
v 0.119167 -1.161085 2.235764
v 0.448399 -1.337498 2.609001
v 0.448399 -1.649482 3.106461
v -0.445847 2.371373 -3.106953
v -0.445847 2.129811 -2.618378
v -0.116619 1.803637 -2.245140
v -0.116619 0.884711 -0.182972
v -0.116619 0.434582 0.633118
v -0.116619 -0.411811 2.235764
v -0.445847 -0.454707 2.609001
v -0.445847 -0.700661 3.106461
v 0.448399 -0.706592 3.106461
v 0.448399 -0.460640 2.609001
v 0.119167 -0.413375 2.235764
v 0.119167 0.455008 0.602463
v 0.119167 0.898790 -0.205444
v 0.119167 1.802072 -2.245140
v 0.448399 2.123879 -2.618378
v 0.448399 2.365442 -3.106953
v -0.014809 0.511337 -0.098038
v -0.014809 0.040456 0.151806
v -0.014809 -1.952403 -0.908493
v -0.014809 -1.924307 -0.985973
v -0.014809 0.409792 0.328175
v -0.014809 1.785480 0.644505
v -0.014809 0.799745 0.007103
v -0.014809 1.873992 0.398731
v 0.030022 -0.326255 1.884766
v -0.033707 0.406084 0.507343
v 0.030022 -0.876964 1.884766
v -0.033707 0.051988 0.291039
v -0.014809 0.367951 0.276028
v -0.014809 0.696813 0.005257
v -0.014809 0.222846 0.212551
v -0.014809 0.573796 -0.068386
v -0.033707 0.744238 -0.190907
v 0.030022 1.578214 -1.877228
v -0.033707 0.538567 -0.284473
v 0.030022 1.504851 -1.894142
vn -0.0000 -0.0000 1.0000
vn -0.0000 1.0000 -0.0000
vn -0.0000 -0.0000 -1.0000
vn -0.0000 -1.0000 -0.0000
vn 1.0000 -0.0000 -0.0000
vn -1.0000 -0.0000 -0.0000
vn -0.7499 -0.0000 0.6615
vn -0.7966 0.6046 -0.0000
vn -0.7499 -0.0000 -0.6615
vn -0.7966 -0.6046 -0.0000
vn 0.7499 -0.0000 -0.6615
vn 0.7966 0.6046 -0.0000
vn 0.7499 -0.0000 0.6615
vn 0.7966 -0.6046 -0.0000
vn 0.9992 0.0090 -0.0378
vn 0.9994 -0.0126 0.0318
vn 0.7121 0.3522 -0.6074
vn 0.9904 0.1359 0.0236
vn 0.7997 -0.1960 0.5675
vn 0.8509 0.1020 -0.5153
vn 0.8836 -0.1529 0.4427
vn 0.9714 -0.2364 -0.0232
vn 0.9937 -0.0548 0.0978
vn 0.9949 0.0457 -0.0898
vn 0.5999 -0.7011 -0.3855
vn 0.9692 -0.0000 -0.2462
vn 0.5075 0.7484 0.4270
vn 0.6123 -0.7205 -0.3255
vn 0.4349 0.7686 0.4692
vn 0.9725 -0.0174 0.2323
vn 0.8849 0.4586 0.0821
vn 0.4864 -0.8731 0.0332
vn 0.8596 -0.5074 0.0602
vn 0.5612 0.8252 0.0636
vt 0.042462 0.493651
vt 0.058350 0.422759
vt 0.096927 0.428047
vt 0.094675 0.496161
vt 0.627343 0.447457
vt 0.565045 0.445168
vt 0.566413 0.410901
vt 0.628606 0.412803
vt 0.093015 0.934256
vt 0.092790 0.994925
vt 0.057637 0.995091
vt 0.057377 0.935136
vt 0.003952 0.386177
vt 0.063396 0.389750
vt 0.001261 0.417934
vt 0.099443 0.391828
vt 0.092003 0.534443
vt 0.053298 0.534392
vt 0.564760 0.539390
vt 0.508544 0.539621
vt 0.509383 0.505292
vt 0.563990 0.505605
vt 0.561613 0.935305
vt 0.561284 0.998008
vt 0.505980 0.997715
vt 0.506417 0.935072
vt 0.510362 0.444053
vt 0.510511 0.409920
vt 0.208432 0.497716
vt 0.229672 0.531619
vt 0.209838 0.436022
vt 0.232738 0.403848
vt 0.467444 0.936466
vt 0.466824 0.997287
vt 0.507086 0.899358
vt 0.561685 0.901052
vt 0.093185 0.900844
vt 0.446360 0.903568
vt 0.055700 0.902748
vt 0.025465 0.001992
vt 0.087105 0.007205
vt 0.084342 0.040407
vt 0.022623 0.035677
vt 0.121291 0.042747
vt 0.122370 0.010828
vt 0.479205 0.022066
vt 0.457875 0.053056
vt 0.571343 0.058981
vt 0.518276 0.059334
vt 0.519039 0.025143
vt 0.571671 0.026235
vt 0.631125 0.058890
vt 0.631219 0.026354
vt 0.085337 0.792952
vt 0.048548 0.811056
vt 0.240461 0.565772
vt 0.310812 0.692999
vt 0.123165 0.784969
vt 0.126845 0.564131
vt 0.565976 0.560258
vt 0.512675 0.589462
vt 0.568019 0.379526
vt 0.629291 0.391992
vt 0.516250 0.350115
vt 0.317766 0.250067
vt 0.245341 0.370334
vt 0.135206 0.365717
vt 0.146537 0.131780
vt 0.077060 0.115334
vt 0.110641 0.135040
vt 0.016922 0.122200
vt 0.425965 0.870175
vt 0.123711 0.868305
vt 0.476686 0.612574
vt 0.477097 0.571025
vt 0.437002 0.084366
vt 0.149354 0.074773
vt 0.482002 0.294024
vt 0.480215 0.377854
vt 0.513728 0.693558
vt 0.568139 0.676317
vt 0.476536 0.699089
vt 0.472603 0.871064
vt 0.348796 0.739805
vt 0.123271 0.813137
vt 0.085942 0.828282
vt 0.049577 0.843026
vt 0.079332 0.090271
vt 0.018156 0.093201
vt 0.112845 0.104879
vt 0.147503 0.125322
vt 0.359095 0.201570
vt 0.519460 0.251744
vt 0.483714 0.249847
vt 0.484059 0.085910
vt 0.571627 0.270127
vt 0.631684 0.277731
vt 0.359332 0.220021
vt 0.327393 0.236368
vt 0.203260 0.161203
vt 0.204792 0.157225
vt 0.288711 0.533183
vt 0.272964 0.499320
vt 0.290907 0.566803
vt 0.346114 0.675849
vt 0.375845 0.731145
vt 0.435895 0.870344
vt 0.458572 0.903372
vt 0.475703 0.936112
vt 0.475079 0.997473
vt 0.470125 0.053767
vt 0.488001 0.022437
vt 0.448504 0.085858
vt 0.391266 0.215150
vt 0.444667 0.272331
vt 0.354305 0.250492
vt 0.381613 0.229355
vt 0.450704 0.257187
vt 0.296621 0.373655
vt 0.357974 0.270684
vt 0.291962 0.406520
vt 0.274302 0.439208
vt 0.350909 0.261987
vt 0.301578 0.349933
vt 0.266369 0.349235
vt 0.329541 0.248285
vt 0.374045 0.228640
vt 0.351098 0.246663
vt 0.340669 0.241823
vt 0.364440 0.222578
vt 0.432350 0.108376
vt 0.378120 0.214696
vt 0.365994 0.208498
vt 0.428409 0.107517
s 1
usemtl Wall_Broken
f 1/1/1 2/2/1 12/3/1 9/4/1
f 3/5/2 4/6/2 24/7/2 17/8/2
f 10/9/3 11/10/3 8/11/3 7/12/3
f 20/13/4 21/14/4 2/2/4 1/15/4
f 2/2/5 21/14/5 22/16/5 12/3/5
f 19/17/6 20/18/6 1/1/6 9/4/6
f 17/19/6 18/20/6 14/21/6 3/22/6
f 5/23/3 6/24/3 16/25/3 13/26/3
f 15/27/5 23/28/5 24/7/5 4/6/5
f 14/21/1 15/27/1 4/6/1 3/22/1
f 65/29/6 66/30/6 19/17/6 9/4/6
f 9/4/1 12/3/1 80/31/1 65/29/1
f 12/3/5 22/16/5 79/32/5 80/31/5
f 72/33/3 73/34/3 11/10/3 10/9/3
f 13/26/6 27/35/6 28/36/6 5/23/6
f 10/9/6 26/37/6 71/38/6 72/33/6
f 7/12/6 25/39/6 26/37/6 10/9/6
f 7/40/4 8/41/4 32/42/4 25/43/4
f 31/44/5 32/42/5 8/41/5 11/45/5
f 73/46/5 74/47/5 31/44/5 11/45/5
f 29/48/5 30/49/5 16/50/5 6/51/5
f 28/52/2 29/48/2 6/51/2 5/53/2
f 45/54/6 46/55/6 20/18/6 19/17/6
f 67/56/6 68/57/6 44/58/6 35/59/6
f 41/60/6 42/61/6 18/20/6 17/19/6
f 17/8/2 24/7/2 52/62/2 41/63/2
f 24/7/5 23/28/5 51/64/5 52/62/5
f 77/65/5 78/66/5 37/67/5 49/68/5
f 22/16/5 21/14/5 47/69/5 48/70/5
f 46/71/4 47/69/4 21/14/4 20/13/4
f 70/72/7 71/38/7 26/37/7 33/73/7
f 44/58/8 45/54/8 19/17/8 35/59/8
f 19/17/9 66/30/9 67/56/9 35/59/9
f 18/20/10 42/61/10 43/74/10 36/75/10
f 78/66/11 79/32/11 22/16/11 37/67/11
f 22/16/12 48/70/12 49/68/12 37/67/12
f 31/44/13 74/47/13 75/76/13 39/77/13
f 50/78/14 51/64/14 23/28/14 38/79/14
f 28/36/6 27/35/6 57/80/6 58/81/6
f 56/82/10 57/80/10 27/35/10 34/83/10
f 69/84/6 70/72/6 33/73/6 55/85/6
f 26/37/8 54/86/8 55/85/8 33/73/8
f 26/37/6 25/39/6 53/87/6 54/86/6
f 25/43/4 32/42/4 64/88/4 53/89/4
f 63/90/5 64/88/5 32/42/5 31/44/5
f 62/91/12 63/90/12 31/44/12 39/77/12
f 75/76/5 76/92/5 62/91/5 39/77/5
f 30/49/14 60/93/14 61/94/14 40/95/14
f 59/96/5 60/93/5 30/49/5 29/48/5
f 58/97/2 59/96/2 29/48/2 28/52/2
f 54/86/6 53/87/6 46/55/6 45/54/6
f 55/85/8 54/86/8 45/54/8 44/58/8
f 68/57/6 69/84/6 55/85/6 44/58/6
f 43/74/10 42/61/10 57/80/10 56/82/10
f 58/81/6 57/80/6 42/61/6 41/60/6
f 41/63/2 52/62/2 59/96/2 58/97/2
f 52/62/5 51/64/5 60/93/5 59/96/5
f 61/94/14 60/93/14 51/64/14 50/78/14
f 97/98/5 98/99/5 99/100/5 100/101/5
f 49/68/12 48/70/12 63/90/12 62/91/12
f 48/70/5 47/69/5 64/88/5 63/90/5
f 53/89/4 64/88/4 47/69/4 46/71/4
f 18/20/6 87/102/6 88/103/6 14/21/6
f 86/104/9 87/102/9 18/20/9 36/75/9
f 43/74/6 85/105/6 86/104/6 36/75/6
f 56/82/6 84/106/6 85/105/6 43/74/6
f 34/83/6 83/107/6 84/106/6 56/82/6
f 27/35/7 82/108/7 83/107/7 34/83/7
f 81/109/6 82/108/6 27/35/6 13/26/6
f 13/26/3 16/25/3 96/110/3 81/109/3
f 30/49/5 95/111/5 96/112/5 16/50/5
f 94/113/13 95/111/13 30/49/13 40/95/13
f 61/94/5 93/114/5 94/113/5 40/95/5
f 102/115/5 101/116/5 103/117/5 104/118/5
f 38/79/5 91/119/5 92/120/5 50/78/5
f 23/28/11 90/121/11 91/119/11 38/79/11
f 89/122/5 90/121/5 23/28/5 15/27/5
f 88/103/1 89/122/1 15/27/1 14/21/1
f 72/33/6 71/38/6 82/108/6 81/109/6
f 83/107/7 82/108/7 71/38/7 70/72/7
f 84/106/6 83/107/6 70/72/6 69/84/6
f 85/105/6 84/106/6 69/84/6 68/57/6
f 86/104/6 85/105/6 68/57/6 67/56/6
f 67/56/9 66/30/9 87/102/9 86/104/9
f 88/103/6 87/102/6 66/30/6 65/29/6
f 65/29/1 80/31/1 89/122/1 88/103/1
f 80/31/5 79/32/5 90/121/5 89/122/5
f 91/119/11 90/121/11 79/32/11 78/66/11
f 106/123/15 105/124/15 107/125/15 108/126/15
f 110/127/5 109/128/5 111/129/5 112/130/5
f 114/131/16 113/132/16 115/133/16 116/134/16
f 75/76/13 74/47/13 95/111/13 94/113/13
f 96/112/5 95/111/5 74/47/5 73/46/5
f 81/109/3 96/110/3 73/34/3 72/33/3
f 77/65/17 49/68/17 99/100/17 98/99/17
f 49/68/18 62/91/18 100/101/18 99/100/18
f 62/91/19 76/92/19 97/98/19 100/101/19
f 50/78/20 92/120/20 101/116/20 102/115/20
f 93/114/21 61/94/21 104/118/21 103/117/21
f 61/94/22 50/78/22 102/115/22 104/118/22
f 106/123/23 108/126/23 111/129/23 109/128/23
f 115/133/24 113/132/24 110/127/24 112/130/24
f 92/120/25 91/119/25 105/124/25 106/123/25
f 91/119/26 78/66/26 107/125/26 105/124/26
f 78/66/27 77/65/27 108/126/27 107/125/27
f 103/117/5 101/116/5 109/128/5 110/127/5
f 98/99/5 97/98/5 112/130/5 111/129/5
f 94/113/28 93/114/28 113/132/28 114/131/28
f 76/92/29 75/76/29 116/134/29 115/133/29
f 75/76/30 94/113/30 114/131/30 116/134/30
f 77/65/31 98/99/31 111/129/31 108/126/31
f 101/116/32 92/120/32 106/123/32 109/128/32
f 93/114/33 103/117/33 110/127/33 113/132/33
f 97/98/34 76/92/34 115/133/34 112/130/34
