# Blender 4.5.3 LTS
# www.blender.org
mtllib Wall.mtl
o Wall
v -0.447124 -3.798019 3.103214
v 0.447121 -3.798019 3.103214
v -0.447124 3.590208 3.103214
v 0.447121 3.590208 3.103214
v -0.447124 3.590208 -3.110199
v 0.447121 3.590208 -3.110199
v -0.447124 -3.798019 -3.110199
v 0.447121 -3.798019 -3.110199
v -0.447124 -3.273740 3.103214
v -0.447124 -3.273743 -3.110199
v 0.447121 -3.273743 -3.110199
v 0.447121 -3.273740 3.103214
v -0.447124 2.801568 -3.110199
v -0.447124 2.801568 3.103214
v 0.447121 2.801568 3.103214
v 0.447121 2.801568 -3.110199
v -0.447124 3.590209 2.605755
v -0.447124 2.801568 2.605755
v -0.447124 -3.273740 2.605755
v -0.447124 -3.798019 2.605755
v 0.447121 -3.798019 2.605755
v 0.447121 -3.273740 2.605755
v 0.447121 2.801568 2.605755
v 0.447121 3.590209 2.605755
v -0.447124 -3.798019 -2.621624
v -0.447124 -3.273743 -2.621624
v -0.447124 2.801568 -2.621624
v -0.447124 3.590209 -2.621624
v 0.447121 3.590209 -2.621624
v 0.447121 2.801568 -2.621624
v 0.447121 -3.273743 -2.621624
v 0.447121 -3.798019 -2.621624
v -0.117893 -2.839962 -2.248386
v -0.117893 2.367788 -2.248386
v -0.117893 -2.839960 2.232517
v -0.117893 2.367788 2.232513
v 0.117893 -2.839960 2.232513
v 0.117893 2.367788 2.232517
v 0.117893 -2.839962 -2.248386
v 0.117893 2.367788 -2.248386
vn -0.0000 -0.0000 1.0000
vn -0.0000 1.0000 -0.0000
vn -0.0000 -0.0000 -1.0000
vn -0.0000 -1.0000 -0.0000
vn 1.0000 -0.0000 -0.0000
vn -1.0000 -0.0000 -0.0000
vn -0.7499 -0.0000 0.6615
vn -0.7966 0.6046 -0.0000
vn -0.7499 -0.0000 -0.6615
vn -0.7966 -0.6046 -0.0000
vn 0.7499 -0.0000 -0.6615
vn 0.7966 0.6046 -0.0000
vn 0.7499 -0.0000 0.6615
vn 0.7966 -0.6046 -0.0000
vt 0.052413 0.499723
vt 0.055292 0.464256
vt 0.094106 0.465384
vt 0.094181 0.501731
vt 0.633033 0.463806
vt 0.596909 0.463946
vt 0.596747 0.427455
vt 0.632873 0.427297
vt 0.095761 0.958864
vt 0.095917 0.994940
vt 0.057455 0.995147
vt 0.057280 0.959069
vt 0.019673 0.428721
vt 0.055662 0.428685
vt 0.019903 0.464477
vt 0.094091 0.428815
vt 0.093978 0.538300
vt 0.054962 0.538514
vt 0.597271 0.536514
vt 0.539296 0.536739
vt 0.539159 0.500257
vt 0.597066 0.500016
vt 0.599011 0.956722
vt 0.599145 0.992840
vt 0.541230 0.993017
vt 0.541073 0.956934
vt 0.539008 0.464177
vt 0.538843 0.427712
vt 0.540906 0.921101
vt 0.598887 0.920853
vt 0.095614 0.923039
vt 0.057044 0.923241
vt 0.018660 0.009844
vt 0.054757 0.009784
vt 0.054838 0.045582
vt 0.018773 0.045669
vt 0.093265 0.045488
vt 0.093151 0.009774
vt 0.537223 0.044078
vt 0.537103 0.008361
vt 0.595046 0.043817
vt 0.594825 0.008019
vt 0.631145 0.043642
vt 0.630871 0.007779
vt 0.507903 0.892227
vt 0.128373 0.893856
vt 0.126983 0.567226
vt 0.506535 0.565873
vt 0.505883 0.398835
vt 0.126861 0.399792
vt 0.126117 0.074326
vt 0.504554 0.073139
s 1
usemtl Wall.001
f 1/1/1 2/2/1 12/3/1 9/4/1
f 3/5/2 4/6/2 24/7/2 17/8/2
f 10/9/3 11/10/3 8/11/3 7/12/3
f 20/13/4 21/14/4 2/2/4 1/15/4
f 2/2/5 21/14/5 22/16/5 12/3/5
f 19/17/6 20/18/6 1/1/6 9/4/6
f 17/19/6 18/20/6 14/21/6 3/22/6
f 5/23/3 6/24/3 16/25/3 13/26/3
f 15/27/5 23/28/5 24/7/5 4/6/5
f 14/21/1 15/27/1 4/6/1 3/22/1
f 18/20/6 19/17/6 9/4/6 14/21/6
f 9/4/1 12/3/1 15/27/1 14/21/1
f 12/3/5 22/16/5 23/28/5 15/27/5
f 13/26/3 16/25/3 11/10/3 10/9/3
f 13/26/6 27/29/6 28/30/6 5/23/6
f 10/9/6 26/31/6 27/29/6 13/26/6
f 7/12/6 25/32/6 26/31/6 10/9/6
f 7/33/4 8/34/4 32/35/4 25/36/4
f 31/37/5 32/35/5 8/34/5 11/38/5
f 30/39/5 31/37/5 11/38/5 16/40/5
f 29/41/5 30/39/5 16/40/5 6/42/5
f 28/43/2 29/41/2 6/42/2 5/44/2
f 26/31/6 25/32/6 20/18/6 19/17/6
f 34/45/6 33/46/6 35/47/6 36/48/6
f 28/30/6 27/29/6 18/20/6 17/19/6
f 17/8/2 24/7/2 29/41/2 28/43/2
f 24/7/5 23/28/5 30/39/5 29/41/5
f 38/49/5 37/50/5 39/51/5 40/52/5
f 22/16/5 21/14/5 32/35/5 31/37/5
f 25/36/4 32/35/4 21/14/4 20/13/4
f 27/29/7 26/31/7 33/46/7 34/45/7
f 26/31/8 19/17/8 35/47/8 33/46/8
f 19/17/9 18/20/9 36/48/9 35/47/9
f 18/20/10 27/29/10 34/45/10 36/48/10
f 23/28/11 22/16/11 37/50/11 38/49/11
f 22/16/12 31/37/12 39/51/12 37/50/12
f 31/37/13 30/39/13 40/52/13 39/51/13
f 30/39/14 23/28/14 38/49/14 40/52/14
