# This file uses centimeters as units for non-parametric coordinates.

mtllib Wall_Doorway.mtl
g default
v -41.781815 0.008033 50.141404
v -40.887571 0.008033 50.141404
v -41.781815 7.405378 50.141404
v -40.887571 7.405378 50.141404
v -41.781815 7.405378 43.927989
v -40.887571 7.405378 43.927989
v -41.781815 0.008033 43.927989
v -40.887571 0.008033 43.927989
v -41.781815 6.616738 43.927989
v -41.781815 6.616738 50.141404
v -40.887571 6.616738 50.141404
v -40.887571 6.616738 43.927989
v -41.781815 7.405379 49.643947
v -41.781815 6.616738 49.643944
v -41.781815 0.008033 49.643945
v -40.887571 0.008033 49.643944
v -40.887571 6.616738 49.643947
v -40.887571 7.405379 49.643947
v -41.781815 0.008033 44.416566
v -41.781815 6.616738 44.416568
v -41.781815 7.405379 44.416566
v -40.887571 7.405379 44.416566
v -40.887571 6.616738 44.416566
v -40.887571 0.008033 44.416568
v -41.452586 0.467446 44.789804
v -41.452586 6.182958 44.789806
v -41.452586 0.467449 49.270708
v -41.452586 6.182958 49.270706
v -41.216800 0.467448 49.270706
v -41.216800 6.182958 49.270708
v -41.216800 0.467446 44.789806
v -41.216800 6.182958 44.789804
v -41.781815 7.405379 45.684388
v -41.781815 6.616738 45.684390
v -41.452586 6.182958 45.876580
v -41.452586 0.467447 45.488982
v -41.781815 0.008033 45.528394
v -40.887571 0.008033 45.528394
v -41.216800 0.467447 45.488982
v -41.216800 6.182958 45.876580
v -40.887571 6.616738 45.684388
v -40.887571 7.405379 45.684388
v -41.781815 7.405378 48.480652
v -41.781815 6.616738 48.480650
v -41.452586 6.182958 48.273533
v -41.452586 0.467448 48.661131
v -41.781815 0.008033 48.634034
v -40.887571 0.008033 48.634033
v -41.216800 0.467448 48.661130
v -41.216800 6.182958 48.273534
v -40.887571 6.616738 48.480652
v -40.887571 7.405378 48.480652
v -41.781815 4.881625 50.141404
v -41.781815 4.881625 49.643944
v -41.452586 4.579186 49.270706
v -41.452586 4.579186 48.419219
v -41.452586 4.579186 45.730895
v -41.452586 4.579186 44.789806
v -41.781815 4.881625 44.416568
v -41.781815 4.881625 43.927989
v -40.887571 4.881625 43.927989
v -40.887571 4.881625 44.416566
v -41.216800 4.579186 44.789804
v -41.216800 4.579186 45.730895
v -41.216800 4.579186 48.419220
v -41.216800 4.579186 49.270708
v -40.887571 4.881625 49.643946
v -40.887571 4.881625 50.141404
v -41.781815 6.616738 47.710486
v -41.781815 7.405378 47.710487
v -40.887571 7.405378 47.710487
v -40.887571 6.616738 47.710487
v -41.216800 6.182958 47.603261
v -41.216800 5.199087 47.554329
v -41.452586 5.199087 47.554328
v -41.452586 6.182958 47.603260
v -41.781815 6.616738 46.441359
v -41.781815 7.405378 46.441359
v -40.887571 7.405378 46.441359
v -40.887571 6.616738 46.441359
v -41.216800 6.182958 46.515366
v -41.216800 5.199087 46.564112
v -41.452586 5.199087 46.564112
v -41.452586 6.182958 46.515366
v -41.781815 3.950522 50.141404
v -41.781815 3.950522 49.643944
v -41.452586 3.950519 49.270706
v -41.452586 3.950519 48.670652
v -41.216800 3.950519 48.670653
v -41.216800 3.950519 49.270708
v -40.887571 3.950521 49.643946
v -40.887571 3.950522 50.141404
v -41.781815 3.950522 44.416568
v -41.781815 3.950522 43.927989
v -40.887571 3.950522 43.927989
v -40.887571 3.950522 44.416566
v -41.216800 3.950519 44.789804
v -41.216800 3.950519 45.479461
v -41.452586 3.950519 45.479461
v -41.452586 3.950519 44.789806
vt 0.461383 0.534086
vt 0.533046 0.532906
vt 0.426491 0.593246
vt 0.427533 0.532686
vt 0.414753 0.059979
vt 0.413707 0.002351
vt 0.445039 0.001992
vt 0.445664 0.058311
vt 0.427948 0.476994
vt 0.462774 0.477101
vt 0.057079 0.521279
vt 0.053556 0.577398
vt 0.913375 0.936691
vt 0.058442 0.472002
vt 0.526435 0.474761
vt 0.543787 0.945376
vt 0.459778 0.301018
vt 0.428853 0.302458
vt 0.515638 0.297814
vt 0.532498 0.779879
vt 0.056766 0.307053
vt 0.908669 0.760565
vt 0.005081 0.069008
vt 0.058988 0.069576
vt 0.089637 0.471990
vt 0.087535 0.522682
vt 0.088716 0.069604
vt 0.086277 0.307130
vt 0.861799 0.519434
vt 0.878231 0.762573
vt 0.084224 0.579349
vt 0.880773 0.936643
vt 0.398047 0.303626
vt 0.361405 0.304867
vt 0.351072 0.092429
vt 0.387247 0.091002
vt 0.349103 0.532712
vt 0.348849 0.480772
vt 0.348202 0.592261
vt 0.618096 0.947766
vt 0.599514 0.776720
vt 0.562928 0.778499
vt 0.553942 0.567597
vt 0.351496 0.106772
vt 0.349305 0.057896
vt 0.588948 0.528927
vt 0.116315 0.307043
vt 0.117162 0.098612
vt 0.335009 0.445790
vt 0.397989 0.445094
vt 0.847174 0.764358
vt 0.834089 0.550565
vt 0.630904 0.913436
vt 0.570457 0.914700
vt 0.170363 0.477812
vt 0.167909 0.527531
vt 0.183605 0.444173
vt 0.117756 0.442482
vt 0.157623 0.306837
vt 0.158164 0.098171
vt 0.158885 0.063601
vt 0.787829 0.516007
vt 0.172287 0.098206
vt 0.169308 0.300880
vt 0.796939 0.943332
vt 0.782861 0.908861
vt 0.850962 0.905892
vt 0.164778 0.584616
vt 0.217933 0.479428
vt 0.216284 0.529720
vt 0.223369 0.445137
vt 0.748099 0.945288
vt 0.742149 0.910404
vt 0.749710 0.996478
vt 0.430009 0.361281
vt 0.462099 0.360584
vt 0.398018 0.342656
vt 0.343252 0.342552
vt 0.175779 0.343986
vt 0.226803 0.383712
vt 0.117168 0.344964
vt 0.086771 0.363673
vt 0.056881 0.364016
vt 0.913288 0.820642
vt 0.881467 0.821858
vt 0.848852 0.803976
vt 0.186355 0.334467
vt 0.226825 0.368867
vt 0.564980 0.817033
vt 0.617504 0.814302
vt 0.535258 0.837245
vt 0.520769 0.357844
vt 0.298369 0.532045
vt 0.298980 0.480885
vt 0.667396 0.998008
vt 0.666798 0.947330
vt 0.672826 0.912492
vt 0.289226 0.368921
vt 0.289204 0.383771
vt 0.292310 0.445956
vt 0.804365 0.766498
vt 0.789099 0.806116
vt 0.349604 0.298926
vt 0.332554 0.332789
vt 0.736806 0.847600
vt 0.673509 0.850210
vt 0.590309 0.565227
vt 0.791792 0.552232
vt 0.002579 0.306688
vt 0.502101 0.781106
vt 0.504491 0.839159
vt 0.213793 0.587511
vt 0.799740 0.994786
vt 0.296804 0.590764
vt 0.512457 0.946963
vt 0.001827 0.364161
vt 0.617565 0.997865
vt 0.348530 0.002363
vt 0.883507 0.989202
vt 0.156358 0.008394
vt 0.915276 0.987996
vt 0.543424 0.995911
vt 0.002627 0.471934
vt 0.512526 0.995930
vt 0.523431 0.540096
vt 0.493165 0.541221
vt 0.891936 0.517356
vt 0.086113 0.013111
vt 0.171748 0.306868
vt 0.347023 0.305572
vt 0.235458 0.372575
vt 0.280471 0.372235
vt 0.158594 0.112515
vt 0.336698 0.093124
vt 0.056129 0.014685
vt 0.001996 0.520557
vt 0.459882 0.594091
vt 0.500748 0.054935
vn 0.000000 1.000000 0.000001
vn 0.000000 1.000000 0.000001
vn 0.000000 1.000000 0.000001
vn 0.000000 1.000000 0.000001
vn -0.000000 -1.000000 -0.000001
vn -0.000000 -1.000000 -0.000001
vn -0.000000 -1.000000 -0.000001
vn -0.000000 -1.000000 -0.000001
vn -1.000000 0.000000 0.000000
vn -1.000000 0.000000 0.000000
vn -1.000000 0.000000 0.000000
vn -1.000000 0.000000 0.000000
vn 0.000000 0.000000 -1.000000
vn 0.000000 0.000000 -1.000000
vn 0.000000 0.000000 -1.000000
vn 0.000000 0.000000 -1.000000
vn 1.000000 0.000000 0.000000
vn 1.000000 0.000000 0.000000
vn 1.000000 0.000000 0.000000
vn 1.000000 0.000000 0.000000
vn 0.000000 0.000000 1.000000
vn 0.000000 0.000000 1.000000
vn 0.000000 0.000000 1.000000
vn 0.000000 0.000000 1.000000
vn -1.000000 0.000000 0.000000
vn -1.000000 0.000000 0.000000
vn -1.000000 0.000000 0.000000
vn -1.000000 0.000000 0.000000
vn 0.000000 0.000000 1.000000
vn 0.000000 0.000000 1.000000
vn 0.000000 0.000000 1.000000
vn 0.000000 0.000000 1.000000
vn 1.000000 0.000000 -0.000000
vn 1.000000 0.000000 -0.000000
vn 1.000000 0.000000 -0.000000
vn 1.000000 0.000000 -0.000000
vn 0.000000 0.000000 -1.000000
vn 0.000000 0.000000 -1.000000
vn 0.000000 0.000000 -1.000000
vn 0.000000 0.000000 -1.000000
vn -1.000000 0.000000 0.000000
vn -1.000000 0.000000 0.000000
vn -1.000000 0.000000 0.000000
vn -1.000000 0.000000 0.000000
vn -1.000000 -0.000000 0.000000
vn -1.000000 -0.000000 0.000000
vn -1.000000 -0.000000 0.000000
vn -1.000000 -0.000000 0.000000
vn -0.000000 -1.000000 0.000001
vn -0.000000 -1.000000 0.000001
vn -0.000000 -1.000000 0.000001
vn -0.000000 -1.000000 0.000001
vn 1.000000 -0.000000 0.000000
vn 1.000000 -0.000000 0.000000
vn 1.000000 -0.000000 0.000000
vn 1.000000 -0.000000 0.000000
vn 1.000000 0.000000 0.000000
vn 1.000000 0.000000 0.000000
vn 1.000000 0.000000 0.000000
vn 1.000000 0.000000 0.000000
vn 0.000000 1.000000 -0.000001
vn 0.000000 1.000000 -0.000001
vn 0.000000 1.000000 -0.000001
vn 0.000000 1.000000 -0.000001
vn -1.000000 0.000000 -0.000000
vn -1.000000 0.000000 -0.000000
vn -1.000000 0.000000 -0.000000
vn -1.000000 0.000000 -0.000000
vn -1.000000 0.000000 0.000000
vn -1.000000 0.000000 0.000000
vn -1.000000 0.000000 0.000000
vn -1.000000 0.000000 0.000000
vn 0.000000 1.000000 -0.000000
vn 0.000000 1.000000 -0.000000
vn 0.000000 1.000000 -0.000000
vn 0.000000 1.000000 -0.000000
vn 1.000000 0.000000 0.000000
vn 1.000000 0.000000 0.000000
vn 1.000000 0.000000 0.000000
vn 1.000000 0.000000 0.000000
vn 1.000000 0.000000 -0.000000
vn 1.000000 0.000000 -0.000000
vn 1.000000 0.000000 -0.000000
vn 1.000000 0.000000 -0.000000
vn 0.000000 -1.000000 -0.000000
vn 0.000000 -1.000000 -0.000000
vn 0.000000 -1.000000 -0.000000
vn 0.000000 -1.000000 -0.000000
vn -0.749936 -0.000000 0.661510
vn -0.749936 -0.000000 0.661510
vn -0.749936 -0.000000 0.661510
vn -0.749936 -0.000000 0.661510
vn -0.812833 0.582496 0.000000
vn -0.812833 0.582496 0.000000
vn -0.812833 0.582496 0.000000
vn -0.812833 0.582496 0.000000
vn -0.749936 -0.000000 -0.661510
vn -0.749936 -0.000000 -0.661510
vn -0.749936 -0.000000 -0.661510
vn -0.749936 -0.000000 -0.661510
vn -0.796556 -0.604565 0.000000
vn -0.796556 -0.604565 0.000000
vn -0.796556 -0.604565 0.000000
vn -0.796556 -0.604565 0.000000
vn 0.749937 0.000000 -0.661510
vn 0.749937 0.000000 -0.661510
vn 0.749937 0.000000 -0.661510
vn 0.749937 0.000000 -0.661510
vn 0.812833 0.582497 -0.000000
vn 0.812833 0.582497 -0.000000
vn 0.812833 0.582497 -0.000000
vn 0.812833 0.582497 -0.000000
vn 0.749936 0.000000 0.661510
vn 0.749937 0.000000 0.661510
vn 0.749936 0.000000 0.661510
vn 0.749936 0.000000 0.661510
vn 0.796556 -0.604565 0.000000
vn 0.796556 -0.604565 0.000000
vn 0.796556 -0.604565 0.000000
vn 0.796556 -0.604565 0.000000
vn -1.000000 0.000000 0.000000
vn -1.000000 0.000000 0.000000
vn -1.000000 0.000000 0.000000
vn -1.000000 0.000000 0.000000
vn -0.796556 -0.604565 0.000000
vn -0.796556 -0.604565 0.000000
vn -0.796556 -0.604565 0.000000
vn -0.796556 -0.604565 0.000000
vn -1.000000 -0.000000 0.000000
vn -1.000000 -0.000000 0.000000
vn -1.000000 -0.000000 0.000000
vn -1.000000 -0.000000 0.000000
vn -0.812832 0.582498 -0.000000
vn -0.812832 0.582498 -0.000000
vn -0.812832 0.582498 -0.000000
vn -0.812832 0.582498 -0.000000
vn -0.000000 -1.000000 0.000000
vn -0.000000 -1.000000 0.000000
vn -0.000000 -1.000000 0.000000
vn -0.000000 -1.000000 0.000000
vn 0.812832 0.582498 0.000000
vn 0.812832 0.582498 0.000000
vn 0.812832 0.582498 0.000000
vn 0.812832 0.582498 0.000000
vn 1.000000 0.000000 0.000000
vn 1.000000 0.000000 0.000000
vn 1.000000 0.000000 0.000000
vn 1.000000 0.000000 0.000000
vn 0.796556 -0.604565 0.000000
vn 0.796556 -0.604565 0.000000
vn 0.796556 -0.604565 0.000000
vn 0.796556 -0.604565 0.000000
vn 1.000000 0.000000 0.000000
vn 1.000000 0.000000 0.000000
vn 1.000000 0.000000 0.000000
vn 1.000000 0.000000 0.000000
vn 0.000000 1.000000 0.000000
vn 0.000000 1.000000 0.000000
vn 0.000000 1.000000 0.000000
vn 0.000000 1.000000 0.000000
vn -1.000000 0.000000 0.000000
vn -1.000000 0.000000 0.000000
vn -1.000000 0.000000 0.000000
vn -1.000000 0.000000 0.000000
vn -0.796556 -0.604565 0.000000
vn -0.796556 -0.604565 0.000000
vn -0.796556 -0.604565 0.000000
vn -0.796556 -0.604565 0.000000
vn -0.812833 0.582497 -0.000000
vn -0.812833 0.582497 -0.000000
vn -0.812833 0.582497 -0.000000
vn -0.812833 0.582497 -0.000000
vn -0.000000 -1.000000 0.000000
vn -0.000000 -1.000000 0.000000
vn -0.000000 -1.000000 0.000000
vn -0.000000 -1.000000 0.000000
vn 0.812833 0.582497 -0.000000
vn 0.812833 0.582497 -0.000000
vn 0.812833 0.582497 -0.000000
vn 0.812833 0.582497 -0.000000
vn 0.796556 -0.604565 0.000000
vn 0.796556 -0.604565 0.000000
vn 0.796556 -0.604565 0.000000
vn 0.796556 -0.604565 0.000000
vn 1.000000 0.000000 0.000000
vn 1.000000 0.000000 0.000000
vn 1.000000 0.000000 0.000000
vn 1.000000 0.000000 0.000000
vn 0.000000 1.000000 0.000001
vn 0.000000 1.000000 0.000001
vn 0.000000 1.000000 0.000001
vn 0.000000 1.000000 0.000001
vn -1.000000 0.000000 0.000000
vn -1.000000 0.000000 0.000000
vn -1.000000 0.000000 0.000000
vn -1.000000 0.000000 0.000000
vn -0.749936 0.000000 -0.661510
vn -0.749936 0.000000 -0.661510
vn -0.749936 0.000000 -0.661510
vn -0.749936 0.000000 -0.661510
vn -1.000000 0.000000 -0.000000
vn -1.000000 0.000000 -0.000000
vn -1.000000 0.000000 -0.000000
vn -1.000000 0.000000 -0.000000
vn -1.000000 0.000000 0.000000
vn -1.000000 0.000000 0.000000
vn -1.000000 0.000000 0.000000
vn -1.000000 0.000000 0.000000
vn -1.000000 0.000000 -0.000000
vn -1.000000 0.000000 -0.000000
vn -1.000000 0.000000 -0.000000
vn -1.000000 0.000000 -0.000000
vn -0.749937 0.000000 0.661510
vn -0.749937 0.000000 0.661510
vn -0.749937 0.000000 0.661510
vn -0.749937 0.000000 0.661510
vn -1.000000 0.000000 0.000000
vn -1.000000 0.000000 0.000000
vn -1.000000 0.000000 0.000000
vn -1.000000 0.000000 0.000000
vn 0.000000 0.000000 -1.000000
vn 0.000000 0.000000 -1.000000
vn 0.000000 0.000000 -1.000000
vn 0.000000 0.000000 -1.000000
vn 1.000000 0.000000 0.000000
vn 1.000000 0.000000 0.000000
vn 1.000000 0.000000 0.000000
vn 1.000000 0.000000 0.000000
vn 0.749936 0.000000 0.661510
vn 0.749936 0.000000 0.661510
vn 0.749936 0.000000 0.661510
vn 0.749936 0.000000 0.661510
vn 1.000000 0.000000 0.000000
vn 1.000000 0.000000 0.000000
vn 1.000000 0.000000 0.000000
vn 1.000000 0.000000 0.000000
vn 1.000000 0.000000 0.000000
vn 1.000000 0.000000 0.000000
vn 1.000000 0.000000 0.000000
vn 1.000000 0.000000 0.000000
vn 1.000000 -0.000000 0.000000
vn 1.000000 -0.000000 0.000000
vn 1.000000 -0.000000 0.000000
vn 1.000000 -0.000000 0.000000
vn 0.749937 0.000000 -0.661510
vn 0.749937 0.000000 -0.661510
vn 0.749937 0.000000 -0.661510
vn 0.749937 0.000000 -0.661510
vn 1.000000 0.000000 -0.000000
vn 1.000000 0.000000 -0.000000
vn 1.000000 0.000000 -0.000000
vn 1.000000 0.000000 -0.000000
vn 0.000000 0.000000 1.000000
vn 0.000000 0.000000 1.000000
vn 0.000000 0.000000 1.000000
vn 0.000000 0.000000 1.000000
vn 0.000001 1.000000 -0.000000
vn 0.000001 1.000000 -0.000000
vn 0.000001 1.000000 -0.000000
vn 0.000001 1.000000 -0.000000
vn 0.000000 0.002734 0.999996
vn 0.000000 0.002734 0.999996
vn 0.000000 0.002734 0.999996
vn 0.000000 0.002734 0.999996
vn 0.000000 -0.802310 0.596907
vn 0.000000 -0.802310 0.596907
vn 0.000000 -0.802310 0.596907
vn 0.000000 -0.802310 0.596907
vn 0.000000 0.002734 -0.999996
vn 0.000000 0.002734 -0.999996
vn 0.000000 0.002734 -0.999996
vn 0.000000 0.002734 -0.999996
vn -1.000000 0.000000 0.000000
vn -1.000000 0.000000 0.000000
vn -1.000000 0.000000 0.000000
vn -1.000000 0.000000 0.000000
vn 0.000000 1.000000 0.000000
vn 0.000000 1.000000 0.000000
vn 0.000000 1.000000 0.000000
vn 0.000000 1.000000 0.000000
vn 1.000000 0.000000 0.000000
vn 1.000000 0.000000 0.000000
vn 1.000000 0.000000 0.000000
vn 1.000000 0.000000 0.000000
vn 0.796556 -0.604565 0.000000
vn 0.796556 -0.604565 0.000000
vn 0.796556 -0.604565 0.000000
vn 0.796556 -0.604565 0.000000
vn 1.000000 0.000000 -0.000000
vn 1.000000 0.000000 -0.000000
vn 1.000000 0.000000 -0.000000
vn 1.000000 0.000000 -0.000000
vn 0.000002 -0.812790 -0.582557
vn 0.000002 -0.812789 -0.582557
vn 0.000002 -0.812790 -0.582557
vn 0.000002 -0.812789 -0.582557
vn -1.000000 0.000000 0.000000
vn -1.000000 0.000000 0.000000
vn -1.000000 0.000000 0.000000
vn -1.000000 0.000000 0.000000
vn -0.796556 -0.604565 0.000000
vn -0.796556 -0.604565 0.000000
vn -0.796556 -0.604565 0.000000
vn -0.796556 -0.604565 0.000000
vn -1.000000 0.000000 0.000000
vn -1.000000 0.000000 0.000000
vn -1.000000 0.000000 0.000000
vn -1.000000 0.000000 0.000000
vn 0.000000 1.000000 0.000000
vn 0.000000 1.000000 0.000000
vn 0.000000 1.000000 0.000000
vn 0.000000 1.000000 0.000000
vn 1.000000 0.000000 0.000000
vn 1.000000 0.000000 0.000000
vn 1.000000 0.000000 0.000000
vn 1.000000 0.000000 0.000000
vn 0.796556 -0.604565 0.000000
vn 0.796556 -0.604565 0.000000
vn 0.796556 -0.604565 0.000000
vn 0.796556 -0.604565 0.000000
vn 1.000000 -0.000000 0.000000
vn 1.000000 -0.000000 0.000000
vn 1.000000 -0.000000 0.000000
vn 1.000000 -0.000000 0.000000
vn 0.000000 -1.000000 0.000000
vn 0.000000 -1.000000 0.000000
vn 0.000000 -1.000000 0.000000
vn 0.000000 -1.000000 0.000000
vn -1.000000 0.000000 0.000000
vn -1.000000 0.000000 0.000000
vn -1.000000 0.000000 0.000000
vn -1.000000 0.000000 0.000000
vn -0.796556 -0.604565 0.000000
vn -0.796556 -0.604565 0.000000
vn -0.796556 -0.604565 0.000000
vn -0.796556 -0.604565 0.000000
vn -1.000000 0.000000 0.000000
vn -1.000000 0.000000 0.000000
vn -1.000000 0.000000 0.000000
vn -1.000000 0.000000 0.000000
vn -0.749937 0.000000 -0.661510
vn -0.749937 0.000000 -0.661510
vn -0.749937 0.000000 -0.661510
vn -0.749937 0.000000 -0.661510
vn -1.000000 -0.000000 -0.000000
vn -1.000000 -0.000000 -0.000000
vn -1.000000 -0.000000 -0.000000
vn -1.000000 -0.000000 -0.000000
vn 0.000004 -0.371347 -0.928494
vn 0.000004 -0.371347 -0.928494
vn 0.000004 -0.371347 -0.928494
vn 0.000004 -0.371347 -0.928494
vn 1.000000 -0.000000 0.000000
vn 1.000000 -0.000000 0.000000
vn 1.000000 -0.000000 0.000000
vn 1.000000 -0.000000 0.000000
vn 0.749937 0.000000 -0.661510
vn 0.749936 0.000000 -0.661510
vn 0.749937 0.000000 -0.661510
vn 0.749937 0.000000 -0.661510
vn 1.000000 0.000000 -0.000000
vn 1.000000 0.000000 -0.000000
vn 1.000000 0.000000 -0.000000
vn 1.000000 0.000000 -0.000000
vn 0.000000 0.000000 1.000000
vn 0.000000 0.000000 1.000000
vn 0.000000 0.000000 1.000000
vn 0.000000 0.000000 1.000000
vn -1.000000 0.000000 0.000000
vn -1.000000 0.000000 0.000000
vn -1.000000 0.000000 0.000000
vn -1.000000 0.000000 0.000000
vn 0.000000 0.000000 -1.000000
vn 0.000000 0.000000 -1.000000
vn 0.000000 0.000000 -1.000000
vn 0.000000 0.000000 -1.000000
vn 1.000000 0.000000 0.000000
vn 1.000000 0.000000 0.000000
vn 1.000000 0.000000 0.000000
vn 1.000000 0.000000 0.000000
vn 0.749937 0.000000 0.661510
vn 0.749937 0.000000 0.661510
vn 0.749937 0.000000 0.661510
vn 0.749937 0.000000 0.661510
vn 1.000000 0.000000 0.000000
vn 1.000000 0.000000 0.000000
vn 1.000000 0.000000 0.000000
vn 1.000000 0.000000 0.000000
vn 0.000000 -0.371350 0.928493
vn 0.000000 -0.371350 0.928493
vn 0.000000 -0.371350 0.928493
vn 0.000000 -0.371350 0.928493
vn -1.000000 0.000000 -0.000000
vn -1.000000 0.000000 -0.000000
vn -1.000000 0.000000 -0.000000
vn -1.000000 0.000000 -0.000000
vn -0.749937 0.000000 0.661510
vn -0.749937 0.000000 0.661510
vn -0.749937 0.000000 0.661510
vn -0.749937 0.000000 0.661510
s off
g Entry pan Baseextra Tenple
usemtl Wall_Doorway
f 3/1/1 4/137/2 18/3/3 13/4/4
f 15/5/5 16/6/6 2/7/7 1/8/8
f 13/4/9 14/9/10 10/10/11 3/1/12
f 5/11/13 6/136/14 12/123/15 9/14/16
f 11/115/17 17/16/18 18/122/19 4/124/20
f 10/10/21 11/15/22 4/2/23 3/1/24
f 85/17/25 86/18/26 15/5/27 1/8/28
f 1/8/29 2/138/30 92/19/31 85/17/32
f 2/126/33 16/125/34 91/20/35 92/110/36
f 94/21/37 95/109/38 8/23/39 7/24/40
f 9/14/41 20/25/42 21/26/43 5/11/44
f 7/24/45 19/27/46 93/28/47 94/21/48
f 7/24/49 8/135/50 24/128/51 19/27/52
f 95/22/53 96/30/54 24/29/55 8/127/56
f 22/119/57 23/32/58 12/13/59 6/121/60
f 21/26/61 22/31/62 6/12/63 5/11/64
f 87/33/65 88/34/66 46/35/67 27/36/68
f 43/37/69 44/38/70 14/9/71 13/4/72
f 13/4/73 18/3/74 52/39/75 43/37/76
f 18/122/77 17/16/78 51/40/79 52/117/80
f 89/41/81 90/42/82 29/43/83 49/107/84
f 47/45/85 48/118/86 16/6/87 15/5/88
f 100/47/89 93/28/90 19/27/91 25/48/92
f 46/35/93 47/45/94 15/5/95 27/36/96
f 15/5/97 86/18/98 87/33/99 27/36/100
f 14/9/101 44/38/102 45/49/103 28/50/104
f 90/42/105 91/20/106 16/125/107 29/43/108
f 16/125/109 48/46/110 49/107/111 29/43/112
f 24/29/113 96/30/114 97/51/115 31/52/116
f 50/53/117 51/40/118 17/16/119 30/54/120
f 21/26/121 20/25/122 34/55/123 33/56/124
f 35/57/125 34/55/126 20/25/127 26/58/128
f 99/59/129 100/47/130 25/48/131 36/60/132
f 19/27/133 37/61/134 36/60/135 25/48/136
f 19/27/137 24/128/138 38/120/139 37/61/140
f 39/108/141 38/62/142 24/29/143 31/52/144
f 97/51/145 98/101/146 39/108/147 31/52/148
f 23/32/149 41/65/150 40/66/151 32/67/152
f 42/113/153 41/65/154 23/32/155 22/119/156
f 33/56/157 42/68/158 22/31/159 21/26/160
f 33/56/161 34/55/162 77/69/163 78/70/164
f 84/71/165 77/69/166 34/55/167 35/57/168
f 36/60/169 37/61/170 47/45/171 46/35/172
f 37/61/173 38/120/174 48/118/175 47/45/176
f 49/107/177 48/46/178 38/62/179 39/108/180
f 40/66/181 41/65/182 80/72/183 81/73/184
f 79/74/185 80/72/186 41/65/187 42/113/188
f 78/70/189 79/112/190 42/68/191 33/56/192
f 14/9/193 54/75/194 53/76/195 10/10/196
f 55/77/197 54/75/198 14/9/199 28/50/200
f 45/49/201 56/78/202 55/77/203 28/50/204
f 35/57/205 57/79/206 83/80/207 84/71/208
f 26/58/209 58/81/210 57/79/211 35/57/212
f 20/25/213 59/82/214 58/81/215 26/58/216
f 60/83/217 59/82/218 20/25/219 9/14/220
f 9/14/221 12/123/222 61/116/223 60/83/224
f 23/32/225 62/85/226 61/84/227 12/13/228
f 63/86/229 62/85/230 23/32/231 32/67/232
f 40/66/233 64/102/234 63/86/235 32/67/236
f 81/73/237 82/105/238 64/102/239 40/66/240
f 30/54/241 66/89/242 65/90/243 50/53/244
f 17/16/245 67/91/246 66/89/247 30/54/248
f 68/111/249 67/91/250 17/16/251 11/115/252
f 53/76/253 68/92/254 11/15/255 10/10/256
f 49/44/257 39/133/258 36/60/259 46/35/260
f 39/63/261 98/129/262 99/59/263 36/60/264
f 64/87/265 82/131/266 83/80/267 57/79/268
f 88/34/269 89/130/270 49/134/271 46/35/272
f 70/93/273 69/94/274 44/38/275 43/37/276
f 43/37/277 52/39/278 71/114/279 70/93/280
f 52/117/281 51/40/282 72/96/283 71/95/284
f 73/97/285 72/96/286 51/40/287 50/53/288
f 50/53/289 65/90/290 74/106/291 73/97/292
f 75/99/293 74/132/294 65/104/295 56/78/296
f 76/100/297 75/99/298 56/78/299 45/49/300
f 45/49/301 44/38/302 69/94/303 76/100/304
f 78/70/305 77/69/306 69/94/307 70/93/308
f 70/93/309 71/114/310 79/112/311 78/70/312
f 71/95/313 72/96/314 80/72/315 79/74/316
f 81/73/317 80/72/318 72/96/319 73/97/320
f 73/97/321 74/106/322 82/105/323 81/73/324
f 83/80/325 82/88/326 74/98/327 75/99/328
f 84/71/329 83/80/330 75/99/331 76/100/332
f 76/100/333 69/94/334 77/69/335 84/71/336
f 53/76/337 54/75/338 86/18/339 85/17/340
f 87/33/341 86/18/342 54/75/343 55/77/344
f 55/77/345 56/78/346 88/34/347 87/33/348
f 65/104/349 89/103/350 88/34/351 56/78/352
f 65/90/353 66/89/354 90/42/355 89/41/356
f 66/89/357 67/91/358 91/20/359 90/42/360
f 92/110/361 91/20/362 67/91/363 68/111/364
f 85/17/365 92/19/366 68/92/367 53/76/368
f 94/21/369 93/28/370 59/82/371 60/83/372
f 60/83/373 61/116/374 95/109/375 94/21/376
f 61/84/377 62/85/378 96/30/379 95/22/380
f 97/51/381 96/30/382 62/85/383 63/86/384
f 63/86/385 64/102/386 98/101/387 97/51/388
f 99/59/389 98/64/390 64/87/391 57/79/392
f 57/79/393 58/81/394 100/47/395 99/59/396
f 58/81/397 59/82/398 93/28/399 100/47/400
