# Blender 4.5.2 LTS
# www.blender.org
mtllib Cepha1.mtl
o Cepha1
v 0.606808 -2.740929 -0.498286
v 0.147585 -2.740929 -0.763419
v -0.374196 -2.740929 -0.670696
v -0.714389 -2.740929 -0.264768
v -0.714389 -2.740929 0.264768
v -0.374196 -2.740929 0.670696
v 0.147584 -2.740929 0.763419
v 0.606807 -2.740929 0.498286
v 0.788267 -2.740929 0.000000
v 1.243575 -2.379938 -1.047658
v 0.277925 -2.380918 -1.604181
v -0.818714 -2.382233 -1.409600
v -1.533469 -2.383203 -0.556375
v -1.533469 -2.383203 0.556375
v -0.818714 -2.382233 1.409599
v 0.277924 -2.380918 1.604181
v 1.243575 -2.379938 1.047658
v 1.624890 -2.379938 0.000000
v 1.513190 -1.611438 -1.275467
v 0.337432 -1.618171 -1.952157
v -0.996795 -1.625296 -1.714867
v -1.866202 -1.629643 -0.676815
v -1.866202 -1.629643 0.676814
v -0.996795 -1.625296 1.714867
v 0.337431 -1.618171 1.952157
v 1.513190 -1.611438 1.275468
v 1.978223 -1.608657 0.000000
v 1.799543 -0.586342 -1.520531
v 0.398216 -0.586342 -2.329587
v -1.195315 -0.586342 -2.048604
v -2.235419 -0.586342 -0.809057
v -2.235419 -0.586342 0.809057
v -1.195316 -0.586342 2.048604
v 0.398216 -0.586342 2.329587
v 1.799543 -0.586342 1.520531
v 2.352972 -0.586342 0.000000
v 1.616927 1.157021 -1.364974
v 0.358960 1.157021 -2.091260
v -1.071547 1.157021 -1.839023
v -2.005241 1.157021 -0.726288
v -2.005241 1.157021 0.726287
v -1.071547 1.157021 1.839023
v 0.358960 1.157021 2.091259
v 1.616927 1.157021 1.364974
v 2.113734 1.157021 0.000000
v 1.213281 2.260090 -1.018105
v 0.274990 2.260090 -1.559829
v -0.791995 2.260090 -1.371690
v -1.488422 2.260090 -0.541722
v -1.488423 2.260090 0.541722
v -0.791995 2.260090 1.371689
v 0.274989 2.260091 1.559829
v 1.213281 2.260091 1.018105
v 1.583841 2.260090 0.000000
v 0.660212 3.646911 -0.509535
v 0.159269 3.646911 -0.780654
v -0.410381 3.646911 -0.686495
v -0.782195 3.646911 -0.271118
v -0.782195 3.646911 0.271118
v -0.410382 3.646911 0.686495
v 0.159269 3.646911 0.780654
v 0.660212 3.646911 0.509535
v 0.858049 3.646911 -0.000000
v 0.026388 -2.740929 0.000000
v 0.026388 5.120471 -0.000000
vn 0.2069 -0.9104 -0.3584
vn 0.2071 -0.9105 -0.3578
vn -0.0714 -0.9129 -0.4020
vn -0.0711 -0.9130 -0.4017
vn -0.0710 -0.9130 -0.4018
vn -0.0698 -0.9135 -0.4009
vn -0.0696 -0.9133 -0.4013
vn -0.0701 -0.9133 -0.4012
vn -0.3086 -0.9153 -0.2587
vn -0.3077 -0.9156 -0.2588
vn -0.4002 -0.9164 -0.0000
vn -0.3086 -0.9153 0.2587
vn -0.3077 -0.9156 0.2588
vn -0.0714 -0.9129 0.4020
vn -0.0712 -0.9130 0.4018
vn -0.0698 -0.9133 0.4012
vn -0.0701 -0.9133 0.4012
vn 0.2069 -0.9104 0.3584
vn 0.2071 -0.9105 0.3578
vn 0.3921 -0.9088 0.1428
vn 0.3921 -0.9088 0.1427
vn 0.3921 -0.9088 -0.1428
vn 0.3921 -0.9088 -0.1427
vn 0.4583 -0.3982 -0.7946
vn 0.4596 -0.3968 -0.7946
vn -0.1596 -0.4013 -0.9019
vn -0.1584 -0.3996 -0.9029
vn -0.7012 -0.4035 -0.5878
vn -0.7010 -0.4024 -0.5888
vn -0.9148 -0.4039 -0.0000
vn -0.7012 -0.4035 0.5878
vn -0.7010 -0.4024 0.5888
vn -0.1596 -0.4013 0.9019
vn -0.1584 -0.3996 0.9029
vn 0.4583 -0.3982 0.7946
vn 0.4596 -0.3968 0.7946
vn 0.8629 -0.3959 0.3141
vn 0.8632 -0.3954 0.3139
vn 0.8629 -0.3959 -0.3141
vn 0.8632 -0.3954 -0.3139
vn 0.4727 -0.3276 -0.8181
vn 0.4725 -0.3272 -0.8184
vn -0.1636 -0.3304 -0.9296
vn -0.1639 -0.3300 -0.9297
vn -0.7223 -0.3328 -0.6063
vn -0.7225 -0.3325 -0.6062
vn -0.9427 -0.3336 -0.0000
vn -0.7223 -0.3328 0.6063
vn -0.7225 -0.3325 0.6062
vn -0.1636 -0.3304 0.9296
vn -0.1639 -0.3300 0.9297
vn 0.4727 -0.3276 0.8181
vn 0.4725 -0.3272 0.8184
vn 0.8885 -0.3257 0.3232
vn 0.8885 -0.3255 0.3234
vn 0.8885 -0.3257 -0.3232
vn 0.8885 -0.3255 -0.3234
vn 0.4958 0.1286 -0.8588
vn -0.1722 0.1296 -0.9765
vn -0.7595 0.1305 -0.6373
vn -0.9914 0.1309 -0.0000
vn -0.7595 0.1305 0.6373
vn -0.1722 0.1296 0.9765
vn 0.4958 0.1286 0.8588
vn 0.9320 0.1279 0.3392
vn 0.9320 0.1279 -0.3392
vn 0.4551 0.4144 -0.7882
vn -0.1577 0.4188 -0.8943
vn -0.6942 0.4227 -0.5825
vn -0.9055 0.4243 -0.0000
vn -0.6942 0.4227 0.5825
vn -0.1577 0.4188 0.8943
vn 0.4551 0.4144 0.7882
vn 0.8565 0.4114 0.3117
vn 0.8565 0.4114 -0.3117
vn 0.4421 0.4671 -0.7657
vn 0.4459 0.4652 -0.7647
vn 0.4434 0.4686 -0.7641
vn 0.4257 0.4564 -0.7813
vn 0.4264 0.4580 -0.7800
vn 0.4236 0.4560 -0.7827
vn -0.1532 0.4713 -0.8686
vn -0.1547 0.4709 -0.8685
vn -0.1540 0.4709 -0.8687
vn -0.1442 0.4760 -0.8675
vn -0.1444 0.4745 -0.8683
vn -0.1435 0.4756 -0.8679
vn -0.6773 0.4672 -0.5683
vn -0.6781 0.4690 -0.5659
vn -0.6812 0.4650 -0.5655
vn -0.6659 0.4565 -0.5901
vn -0.6657 0.4546 -0.5918
vn -0.6639 0.4540 -0.5942
vn -0.8911 0.4538 -0.0000
vn -0.6773 0.4672 0.5683
vn -0.6812 0.4649 0.5655
vn -0.6781 0.4689 0.5659
vn -0.6657 0.4546 0.5918
vn -0.6659 0.4565 0.5900
vn -0.6639 0.4540 0.5942
vn -0.1532 0.4713 0.8686
vn -0.1540 0.4709 0.8687
vn -0.1547 0.4709 0.8685
vn -0.1444 0.4744 0.8684
vn -0.1442 0.4760 0.8675
vn -0.1435 0.4756 0.8679
vn 0.4421 0.4671 0.7657
vn 0.4434 0.4686 0.7640
vn 0.4459 0.4652 0.7647
vn 0.4264 0.4580 0.7800
vn 0.4258 0.4564 0.7813
vn 0.4236 0.4560 0.7827
vn 0.8404 0.4473 0.3059
vn 0.8404 0.4485 0.3043
vn 0.8423 0.4458 0.3031
vn 0.8381 0.4402 0.3221
vn 0.8384 0.4388 0.3234
vn 0.8378 0.4385 0.3253
vn 0.8404 0.4473 -0.3059
vn 0.8422 0.4458 -0.3031
vn 0.8404 0.4486 -0.3042
vn 0.8384 0.4388 -0.3233
vn 0.8381 0.4402 -0.3221
vn 0.8378 0.4385 -0.3253
vn -0.0000 -1.0000 -0.0000
vn 0.4242 0.4535 -0.7838
vn -0.1454 0.4529 -0.8796
vn -0.6579 0.4694 -0.5889
vn -0.8767 0.4811 -0.0000
vn -0.6579 0.4694 0.5889
vn -0.1454 0.4529 0.8796
vn 0.4242 0.4535 0.7838
vn 0.8250 0.4656 0.3203
vn 0.8250 0.4656 -0.3203
vt 0.683393 0.462966
vt 0.746794 0.459973
vt 0.668455 0.541480
vt 0.745286 0.556976
vt 0.824112 0.438006
vt 0.904722 0.554592
vt 0.083028 0.003130
vt 0.142989 0.030868
vt 0.004607 0.089336
vt 0.131005 0.117139
vt 0.197787 0.037984
vt 0.206147 0.113970
vt 0.246655 0.028264
vt 0.277326 0.094766
vt 0.284963 0.001992
vt 0.348480 0.051933
vt 0.586557 0.428172
vt 0.538876 0.479850
vt 0.557034 0.392936
vt 0.482383 0.421177
vt 0.630039 0.451588
vt 0.600417 0.516503
vt 0.743922 0.626593
vt 0.653756 0.596705
vt 0.877600 0.660608
vt 0.122744 0.179279
vt 0.001806 0.181403
vt 0.213312 0.168147
vt 0.297229 0.147132
vt 0.386665 0.110149
vt 0.431058 0.466904
vt 0.506089 0.524304
vt 0.577917 0.564534
vt 0.630591 0.657328
vt 0.719867 0.700430
vt 0.834700 0.762133
vt 0.012460 0.279487
vt 0.129821 0.253393
vt 0.225036 0.233778
vt 0.316132 0.213396
vt 0.420743 0.188159
vt 0.472422 0.580963
vt 0.378894 0.533104
vt 0.551811 0.619979
vt 0.658093 0.798078
vt 0.584145 0.747128
vt 0.737668 0.871926
vt 0.161124 0.361528
vt 0.067278 0.405164
vt 0.247100 0.335299
vt 0.333700 0.320161
vt 0.431938 0.315447
vt 0.339552 0.653175
vt 0.432875 0.678305
vt 0.511203 0.708964
vt 0.600945 0.857714
vt 0.544326 0.809696
vt 0.649014 0.925105
vt 0.195052 0.436012
vt 0.128570 0.481277
vt 0.264969 0.409990
vt 0.338263 0.399915
vt 0.416147 0.408004
vt 0.336758 0.747349
vt 0.414313 0.754165
vt 0.482503 0.775880
vt 0.507258 0.928717
vt 0.477613 0.896921
vt 0.527670 0.969443
vt 0.222200 0.562994
vt 0.253972 0.534350
vt 0.291459 0.518210
vt 0.333179 0.514660
vt 0.376185 0.524102
vt 0.358570 0.870070
vt 0.402366 0.866912
vt 0.442343 0.876193
vt 0.717685 0.447885
vt 0.681021 0.457482
vt 0.685487 0.402992
vt 0.739547 0.416954
vt 0.736443 0.379228
vt 0.709836 0.352312
vt 0.672148 0.348773
vt 0.640968 0.370277
vt 0.630948 0.406828
vt 0.646761 0.441273
vt 0.395912 0.998008
vt 0.325127 0.643466
s 0
usemtl Cepha1
f 1/1/1 2/2/1 10/3/1
f 10/3/2 2/2/2 11/4/2
f 2/2/3 3/5/4 11/4/5
f 11/4/6 3/5/7 12/6/8
f 3/7/9 4/8/9 12/9/9
f 12/9/10 4/8/10 13/10/10
f 4/8/11 5/11/11 13/10/11
f 13/10/11 5/11/11 14/12/11
f 6/13/12 15/14/12 5/11/12
f 5/11/13 15/14/13 14/12/13
f 7/15/14 16/16/14 6/13/15
f 6/13/16 16/16/17 15/14/17
f 8/17/18 17/18/18 7/19/18
f 7/19/19 17/18/19 16/20/19
f 9/21/20 18/22/20 8/17/20
f 8/17/21 18/22/21 17/18/21
f 9/21/22 1/1/22 18/22/22
f 18/22/23 1/1/23 10/3/23
f 11/4/24 20/23/24 10/3/24
f 10/3/25 20/23/25 19/24/25
f 12/6/26 21/25/26 11/4/26
f 11/4/27 21/25/27 20/23/27
f 13/10/28 22/26/28 12/9/28
f 12/9/29 22/26/29 21/27/29
f 13/10/30 14/12/30 22/26/30
f 22/26/30 14/12/30 23/28/30
f 14/12/31 15/14/31 23/28/31
f 23/28/32 15/14/32 24/29/32
f 15/14/33 16/16/33 24/29/33
f 24/29/34 16/16/34 25/30/34
f 16/20/35 17/18/35 25/31/35
f 25/31/36 17/18/36 26/32/36
f 17/18/37 18/22/37 26/32/37
f 26/32/38 18/22/38 27/33/38
f 10/3/39 19/24/39 18/22/39
f 18/22/40 19/24/40 27/33/40
f 19/24/41 20/23/41 28/34/41
f 28/34/42 20/23/42 29/35/42
f 20/23/43 21/25/43 29/35/43
f 29/35/44 21/25/44 30/36/44
f 21/27/45 22/26/45 30/37/45
f 30/37/46 22/26/46 31/38/46
f 22/26/47 23/28/47 31/38/47
f 31/38/47 23/28/47 32/39/47
f 24/29/48 33/40/48 23/28/48
f 23/28/49 33/40/49 32/39/49
f 25/30/50 34/41/50 24/29/50
f 24/29/51 34/41/51 33/40/51
f 26/32/52 35/42/52 25/31/52
f 25/31/53 35/42/53 34/43/53
f 27/33/54 36/44/54 26/32/54
f 26/32/55 36/44/55 35/42/55
f 27/33/56 19/24/56 36/44/56
f 36/44/57 19/24/57 28/34/57
f 29/35/58 38/45/58 28/34/58
f 28/34/58 38/45/58 37/46/58
f 30/36/59 39/47/59 29/35/59
f 29/35/59 39/47/59 38/45/59
f 31/38/60 40/48/60 30/37/60
f 30/37/60 40/48/60 39/49/60
f 31/38/61 32/39/61 40/48/61
f 40/48/61 32/39/61 41/50/61
f 32/39/62 33/40/62 41/50/62
f 41/50/62 33/40/62 42/51/62
f 33/40/63 34/41/63 42/51/63
f 42/51/63 34/41/63 43/52/63
f 34/43/64 35/42/64 43/53/64
f 43/53/64 35/42/64 44/54/64
f 35/42/65 36/44/65 44/54/65
f 44/54/65 36/44/65 45/55/65
f 28/34/66 37/46/66 36/44/66
f 36/44/66 37/46/66 45/55/66
f 38/45/67 47/56/67 37/46/67
f 37/46/67 47/56/67 46/57/67
f 39/47/68 48/58/68 38/45/68
f 38/45/68 48/58/68 47/56/68
f 40/48/69 49/59/69 39/49/69
f 39/49/69 49/59/69 48/60/69
f 40/48/70 41/50/70 49/59/70
f 49/59/70 41/50/70 50/61/70
f 41/50/71 42/51/71 50/61/71
f 50/61/71 42/51/71 51/62/71
f 42/51/72 43/52/72 51/62/72
f 51/62/72 43/52/72 52/63/72
f 43/53/73 44/54/73 52/64/73
f 52/64/73 44/54/73 53/65/73
f 44/54/74 45/55/74 53/65/74
f 53/65/74 45/55/74 54/66/74
f 37/46/75 46/57/75 45/55/75
f 45/55/75 46/57/75 54/66/75
f 47/56/76 56/67/77 46/57/78
f 46/57/79 56/67/80 55/68/81
f 48/58/82 57/69/83 47/56/84
f 47/56/85 57/69/86 56/67/87
f 48/60/88 49/59/89 57/70/90
f 57/70/91 49/59/92 58/71/93
f 49/59/94 50/61/94 58/71/94
f 58/71/94 50/61/94 59/72/94
f 51/62/95 60/73/96 50/61/97
f 50/61/98 60/73/99 59/72/100
f 51/62/101 52/63/102 60/73/103
f 60/73/104 52/63/105 61/74/106
f 52/64/107 53/65/108 61/75/109
f 61/75/110 53/65/111 62/76/112
f 53/65/113 54/66/114 62/76/115
f 62/76/116 54/66/117 63/77/118
f 46/57/119 55/68/120 54/66/121
f 54/66/122 55/68/123 63/77/124
f 2/78/125 1/79/125 64/80/125
f 3/81/125 2/78/125 64/80/125
f 4/82/125 3/81/125 64/80/125
f 5/83/125 4/82/125 64/80/125
f 6/84/125 5/83/125 64/80/125
f 7/85/125 6/84/125 64/80/125
f 8/86/125 7/85/125 64/80/125
f 9/87/125 8/86/125 64/80/125
f 1/79/125 9/87/125 64/80/125
f 55/68/126 56/67/126 65/88/126
f 56/67/127 57/69/127 65/88/127
f 57/70/128 58/71/128 65/89/128
f 58/71/129 59/72/129 65/89/129
f 59/72/130 60/73/130 65/89/130
f 60/73/131 61/74/131 65/89/131
f 61/75/132 62/76/132 65/88/132
f 62/76/133 63/77/133 65/88/133
f 63/77/134 55/68/134 65/88/134
