# Blender 4.5.2 LTS
# www.blender.org
mtllib Cypress2.mtl
o Cypress2
v -0.633546 -1.683761 0.239706
v 0.767399 -2.606219 0.189089
v -0.844085 0.333416 0.239706
v 1.007725 -1.298270 0.189089
v -1.056434 0.333416 -0.163335
v 0.735449 -1.298270 -0.294096
v -0.845895 -1.683761 -0.163335
v 0.495123 -2.606219 -0.294096
v -0.344850 3.942564 0.239706
v 0.712391 3.483093 0.189089
v 0.440115 3.483093 -0.294096
v -0.557199 3.942564 -0.163335
v -0.285305 6.673481 0.106431
v 0.358810 6.384605 0.189089
v 0.209753 6.384605 -0.053984
v -0.320805 6.673481 -0.163336
v -0.004609 -2.164796 0.715528
v 0.019965 -0.517461 0.715528
v 0.104855 3.702963 0.715528
v 0.085028 8.273537 0.144600
v 0.085028 8.273537 -0.050853
v 0.104855 3.702963 -0.723010
v 0.019965 -0.517461 -0.723010
v -0.004609 -2.164796 -0.723010
v 0.105689 -3.691783 -0.267634
v -0.204536 -3.691783 -0.166836
v -0.204536 -3.691783 0.159354
v 0.105689 -3.691783 0.260152
v 0.297418 -3.691783 -0.003741
v 0.105689 -2.067078 -0.267634
v -0.204536 -2.067078 -0.166836
v -0.204536 -2.067078 0.159354
v 0.105689 -2.067078 0.260152
v 0.297418 -2.067078 -0.003741
v 0.019945 -3.691783 -0.003741
v 0.019945 -2.067078 -0.003741
v -0.011951 -2.898630 -0.267634
v 0.179779 -2.898630 -0.003741
v -0.011951 -2.898630 0.260152
v -0.322175 -2.898630 0.159354
v -0.322175 -2.898630 -0.166836
vn -0.5550 -0.0282 0.8313
vn -0.9700 0.2318 0.0740
vn -0.5175 -0.0263 -0.8553
vn -0.5440 -0.8368 0.0627
vn 0.8603 -0.1581 -0.4848
vn -0.8810 -0.0919 0.4642
vn -0.5630 0.0420 0.8254
vn 0.8699 0.0537 -0.4902
vn -0.5235 0.0391 -0.8511
vn -0.8782 0.1215 0.4627
vn -0.6199 0.0787 0.7807
vn 0.8600 0.1072 -0.4989
vn -0.4845 0.0944 -0.8697
vn -0.9367 0.0592 0.3451
vn 0.4903 -0.0439 0.8705
vn 0.5565 0.0130 0.8308
vn 0.6355 0.0903 0.7668
vn 0.9424 0.0959 -0.3203
vn 0.8654 0.0892 -0.4932
vn 0.6409 0.0150 -0.7675
vn 0.5429 -0.0487 -0.8384
vn -0.5643 -0.8217 0.0800
vn -0.3087 -0.0458 -0.9501
vn -0.3078 -0.0456 -0.9504
vn -0.3096 -0.0458 -0.9498
vn -0.9892 -0.1467 -0.0000
vn -0.9892 -0.1467 -0.0032
vn -0.9892 -0.1467 0.0032
vn -0.3087 -0.0458 0.9501
vn -0.3096 -0.0458 0.9498
vn -0.3078 -0.0456 0.9504
vn 0.8033 0.1191 0.5836
vn 0.8036 0.1163 0.5837
vn 0.8035 0.1163 0.5839
vn 0.8033 0.1191 -0.5836
vn 0.8035 0.1163 -0.5839
vn 0.8036 0.1163 -0.5837
vn -0.0000 -1.0000 -0.0000
vn -0.0000 1.0000 -0.0000
vn 0.8021 -0.1136 -0.5863
vn 0.8054 -0.1141 -0.5816
vn 0.8038 -0.1137 -0.5840
vn 0.8054 -0.1141 0.5816
vn 0.8021 -0.1136 0.5863
vn 0.8038 -0.1137 0.5840
vn -0.3088 0.0447 0.9501
vn -0.3086 0.0446 0.9501
vn -0.3087 0.0437 0.9501
vn -0.9897 0.1432 -0.0000
vn -0.9901 0.1401 -0.0000
vn -0.3086 0.0446 -0.9501
vn -0.3088 0.0447 -0.9501
vn -0.3087 0.0437 -0.9501
vt 0.463665 0.067730
vt 0.552109 0.020931
vt 0.543709 0.199352
vt 0.440287 0.269447
vt 0.373788 0.831169
vt 0.365115 0.968527
vt 0.344020 0.966358
vt 0.355266 0.828744
vt 0.399715 0.264516
vt 0.289383 0.178207
vt 0.312495 0.002713
vt 0.414235 0.066892
vt 0.858718 0.001992
vt 0.903184 0.095369
vt 0.770525 0.086654
vt 0.819202 0.016518
vt 0.184715 0.002484
vt 0.240145 0.009528
vt 0.212324 0.131461
vt 0.163338 0.122000
vt 0.477937 0.597005
vt 0.414000 0.607070
vt 0.131925 0.566257
vt 0.081766 0.554789
vt 0.289896 0.581637
vt 0.371588 0.601279
vt 0.058074 0.826327
vt 0.032925 0.819698
vt 0.050254 0.176378
vt 0.083064 0.018839
vt 0.005222 0.566628
vt 0.001803 0.994006
vt 0.019989 0.998008
vt 0.176137 0.598319
vt 0.272037 0.218542
vt 0.301231 0.060753
vt 0.859591 0.154259
vt 0.811799 0.172782
vt 0.630243 0.028157
vt 0.654566 0.049749
vt 0.625134 0.114656
vt 0.597576 0.102396
vt 0.681477 0.061919
vt 0.651408 0.126251
vt 0.709973 0.070668
vt 0.678432 0.137922
vt 0.738184 0.080671
vt 0.707364 0.150198
vt 0.764528 0.094823
vt 0.735958 0.162357
vt 0.663770 0.030737
vt 0.678369 0.048461
vt 0.688224 0.024155
vt 0.667390 0.003173
vt 0.564682 0.176203
vt 0.594665 0.184704
vt 0.574198 0.201328
vt 0.596627 0.215644
vt 0.567451 0.227205
vt 0.547469 0.202784
vt 0.705750 0.233979
vt 0.676987 0.224652
vt 0.649782 0.211186
vt 0.623034 0.196505
s 0
usemtl C2SG
f 1/1/1 17/2/1 18/3/1 3/4/1
f 13/5/2 20/6/2 21/7/2 16/8/2
f 5/9/3 23/10/3 24/11/3 7/12/3
f 7/13/4 24/14/4 17/15/4 1/16/4
f 2/17/5 8/18/5 6/19/5 4/20/5
f 7/12/6 1/1/6 3/4/6 5/9/6
f 3/4/7 18/3/7 19/21/7 9/22/7
f 4/20/8 6/19/8 11/23/8 10/24/8
f 22/25/9 23/10/9 5/9/9 12/26/9
f 5/9/10 3/4/10 9/22/10 12/26/10
f 9/22/11 19/21/11 20/6/11 13/5/11
f 10/24/12 11/23/12 15/27/12 14/28/12
f 21/7/13 22/25/13 12/26/13 16/8/13
f 12/26/14 9/22/14 13/5/14 16/8/14
f 18/29/15 17/30/15 2/17/15 4/20/15
f 19/31/16 18/29/16 4/20/16 10/24/16
f 20/32/17 19/31/17 10/24/17 14/28/17
f 21/33/18 20/32/18 14/28/18 15/27/18
f 11/23/19 22/34/19 21/33/19 15/27/19
f 6/19/20 23/35/20 22/34/20 11/23/20
f 24/36/21 23/35/21 6/19/21 8/18/21
f 17/15/22 24/14/22 8/37/22 2/38/22
f 25/39/23 26/40/23 41/41/24 37/42/25
f 26/40/26 27/43/26 40/44/27 41/41/28
f 27/43/29 28/45/29 39/46/30 40/44/31
f 28/45/32 29/47/32 38/48/33 39/46/34
f 29/47/35 25/49/35 37/50/36 38/48/37
f 26/40/38 25/39/38 35/51/38
f 27/52/38 26/40/38 35/51/38
f 28/53/38 27/52/38 35/51/38
f 29/54/38 28/53/38 35/51/38
f 25/39/38 29/54/38 35/51/38
f 30/55/39 31/56/39 36/57/39
f 31/56/39 32/58/39 36/57/39
f 32/58/39 33/59/39 36/57/39
f 33/59/39 34/60/39 36/57/39
f 34/60/39 30/55/39 36/57/39
f 38/48/40 37/50/41 30/61/42 34/62/42
f 39/46/43 38/48/44 34/62/45 33/63/45
f 40/44/46 39/46/47 33/63/48 32/64/48
f 41/41/49 40/44/49 32/64/50 31/56/50
f 37/42/51 41/41/52 31/56/53 30/55/53
