# Blender 4.5.2 LTS
# www.blender.org
mtllib Mastic1.mtl
o Mastic1
v -1.221514 0.550411 1.467159
v -1.661928 0.594025 1.470404
v -1.186847 1.563654 1.650783
v -2.033190 1.543066 1.649251
v -0.715921 0.119439 2.565859
v -1.669810 -0.017906 2.555640
v -0.708753 1.959235 2.493429
v -1.665513 1.959235 2.493429
v -0.715921 0.432520 3.463484
v -1.675578 0.277446 3.451946
v -0.708753 1.789769 3.697465
v -1.665513 1.787047 3.697263
v -0.784086 0.821250 3.747691
v -1.782052 0.574559 3.729336
v -0.921468 1.463657 3.929397
v -1.813064 1.404934 3.925028
v -0.823945 1.198216 1.570059
v -0.141849 1.256036 2.544639
v -0.519516 1.197293 3.587601
v -0.814371 1.258680 3.945640
v -1.810774 1.160752 3.938354
v -2.069412 1.223633 3.589561
v -2.475734 1.159044 2.537423
v -2.185292 1.143759 1.566008
v -0.843413 0.910266 1.521940
v -0.333346 0.687812 2.553986
v -0.554799 0.845720 3.528641
v -0.733788 1.102590 4.015109
v -1.883288 0.922748 4.001729
v -1.995320 0.763362 3.522513
v -2.284235 0.584684 2.546313
v -1.984948 0.769297 1.511452
v -1.445930 -0.283350 -1.293463
v -1.223957 -0.044490 0.320161
v -1.834053 0.725574 -0.804583
v -1.661134 0.783089 0.442881
v 0.009810 0.744657 -1.061053
v 0.182729 0.802171 0.186412
v -0.632792 -0.274934 -1.406564
v -0.410820 -0.036075 0.207059
v -1.212913 1.627145 -1.222947
v -0.939605 1.989243 0.366501
v -0.187536 1.997026 0.261893
v -0.460844 1.634928 -1.327555
v -1.889406 1.092712 -1.175225
v -0.045543 1.111795 -1.431695
v 0.223958 1.332174 0.191271
v -1.619905 1.313092 0.447741
v 0.323941 -0.250817 0.995491
v -0.489196 -0.259232 1.108593
v 0.763487 0.476612 0.788323
v -1.080377 0.457530 1.044792
v 0.612084 0.958655 0.670230
v -1.231779 0.939573 0.926700
v 0.014687 1.732552 0.504753
v -0.737381 1.724769 0.609360
v 0.644172 0.615482 2.070542
v -0.168965 0.607066 2.183644
v 1.251342 1.043195 2.117275
v -0.592521 1.024112 2.373744
v 1.305555 1.323868 2.196930
v -0.538309 1.304786 2.453399
v 0.913595 1.741432 2.389598
v 0.161527 1.733649 2.494207
v 0.734170 0.413500 2.702543
v -0.078968 0.405085 2.815645
v 1.362540 0.959255 2.910476
v -0.481323 0.940173 3.166945
v 1.448440 1.784877 3.258488
v -0.395424 1.765794 3.514957
v 1.056480 2.475956 3.471506
v 0.304412 2.468173 3.576114
v 0.808553 0.163960 3.218751
v -0.004584 0.155544 3.331853
v 1.430348 0.845477 3.389509
v -0.413515 0.826395 3.645979
v 1.496639 1.410871 3.577184
v -0.347225 1.391788 3.833653
v 1.107654 2.088867 3.810615
v 0.355585 2.081084 3.915223
v 0.909406 -0.778340 3.873716
v 0.096269 -0.786756 3.986818
v 1.517055 0.089690 3.956650
v -0.326808 0.070608 4.213120
v 1.583346 1.364744 4.197127
v -0.260518 1.345662 4.453596
v 1.183642 2.219819 4.366669
v 0.431572 2.212036 4.471277
v 1.006281 -1.085496 4.547329
v 0.193142 -1.093911 4.660431
v 1.695724 -0.427102 5.202728
v -0.148139 -0.446184 5.459197
v 1.732905 0.470494 5.205840
v -0.110958 0.451412 5.462311
v 1.316043 1.334696 5.252706
v 0.563974 1.326913 5.357313
v -0.825689 0.711711 -1.073610
v -1.136012 -0.421267 -1.347070
v -0.914039 -0.145520 0.269298
v -0.176499 -0.376303 1.056535
v 0.140953 0.587251 2.138824
v 0.230951 0.369344 2.769640
v 0.305334 0.098104 3.284234
v 0.406186 -0.936033 3.932365
v 0.503060 -1.269606 4.604013
v 0.645265 -0.593350 6.001574
v 0.682446 0.396520 6.011552
v 0.850617 1.405109 5.323040
v 0.718215 2.374425 4.443268
v 0.642228 2.225762 3.885897
v 0.591054 2.650042 3.549555
v 0.448169 1.831753 2.461415
v -0.435422 1.807547 0.575429
v -0.652963 2.097345 0.334453
v -0.926270 1.685878 -1.258668
v -0.881042 1.113748 -1.441655
v 0.675812 1.527152 -5.558665
v 0.518690 1.411480 -5.106822
v 0.720857 2.703366 -5.510315
v 0.564800 2.826952 -4.291252
v 1.381224 2.703366 -5.510315
v 1.442455 2.826952 -4.291252
v 1.374056 1.724930 -5.543949
v 1.427946 1.609257 -5.092107
v 1.421529 0.414310 -3.415517
v 0.695000 0.163783 -3.434157
v 1.456195 1.876906 -3.198460
v 0.609853 1.847259 -3.200666
v 1.927122 -0.169474 -2.328187
v 0.973233 -0.367251 -2.342902
v 1.934289 2.473020 -2.340893
v 0.977529 2.473020 -2.340893
v 1.927122 0.309829 -1.418195
v 0.967464 0.086522 -1.434810
v 1.934289 2.268600 -1.139458
v 0.977529 2.264679 -1.139749
v 1.858956 1.359701 -1.084796
v 0.860990 1.004465 -1.111227
v 1.721574 1.807339 -0.917581
v 0.829978 1.722777 -0.923873
v 0.631369 2.328915 -5.729723
v 1.457450 2.073001 -5.748764
v 1.948128 2.126849 -4.694640
v 1.991180 1.348932 -3.291278
v 2.501194 1.463782 -2.312454
v 2.123526 1.413292 -1.268878
v 1.828671 1.520428 -1.005161
v 0.832269 1.379412 -1.015653
v 0.573631 1.451220 -1.266056
v 0.167310 1.324114 -2.322846
v 0.091675 1.270513 -3.297111
v -0.218772 2.382763 -4.675599
v 1.413545 0.983386 -4.239938
v 0.506297 0.776333 -4.255344
v -0.079202 1.816567 -3.973873
v 0.521695 2.328234 -3.736083
v 1.437881 2.328234 -3.736083
v 1.808558 1.616132 -3.988786
v 0.560077 1.937649 -5.646244
v 1.468912 1.903138 -5.648812
v 1.787409 1.874259 -4.888607
v 1.703097 1.328584 -4.109770
v 1.799629 0.933414 -3.348888
v 2.309696 0.647220 -2.321584
v 2.088243 0.905957 -1.339427
v 1.909254 1.450563 -1.043386
v 0.759755 1.191589 -1.062654
v 0.647722 0.787362 -1.348251
v 0.358807 0.498715 -2.332633
v 0.292019 0.730419 -3.363991
v 0.026258 1.308924 -4.111233
v -0.058054 1.908769 -4.886039
v -0.344244 -2.912654 -3.001296
v -0.332822 -3.138956 -2.563475
v -0.106963 -2.102499 -3.054780
v -0.155487 -2.141350 -2.494322
v 0.408283 -2.102499 -3.054780
v 0.210523 -2.141350 -2.494322
v 0.338176 -2.912654 -3.001296
v 0.349598 -3.138956 -2.563475
v 0.349598 -3.156970 -2.145397
v -0.332822 -3.156970 -2.145397
v 0.208972 -2.086784 -2.399602
v -0.169499 -2.086784 -2.399602
v -0.058423 -1.857497 -3.036295
v -0.058423 -1.466081 -2.786546
v 0.429736 -1.466081 -2.786546
v 0.429736 -1.857497 -3.036295
v -0.058423 -1.520779 -3.508865
v 0.070197 -1.261078 -3.128878
v 0.558357 -1.261078 -3.128878
v 0.429736 -1.520779 -3.508865
v 0.833610 -0.618738 -3.915488
v 0.833610 -0.683566 -3.274355
v 1.516030 -0.683566 -3.274355
v 1.516030 -0.618738 -3.915488
v 0.833610 0.772096 -3.819078
v 0.833610 0.731569 -3.528507
v 1.516030 0.731569 -3.528507
v 1.516030 0.772096 -3.819078
v 0.284903 -2.979033 -3.171020
v 0.349598 -3.349176 -2.827510
v -0.332822 -3.349176 -2.827510
v -0.397517 -2.979033 -3.171020
v -0.088388 -3.094386 -4.063647
v -0.088388 -3.261597 -4.090927
v -0.770808 -3.261597 -4.090927
v -0.770808 -3.094386 -4.063647
v -0.300203 -2.545488 -3.025535
v 0.349042 -2.545488 -3.025535
v 0.349598 -2.686836 -2.532135
v 0.349598 -2.611746 -2.297276
v -0.332822 -2.611746 -2.297276
v -0.332822 -2.686836 -2.532135
v 0.349598 -3.199740 -2.011978
v -0.332822 -3.199740 -2.011978
v 0.431337 -2.794336 -1.831523
v -0.099387 -2.794336 -1.831523
v 0.171548 -1.986945 -2.004242
v -0.228102 -1.986945 -2.004242
v 0.823277 -3.308671 -1.839975
v 0.140857 -3.308671 -1.839975
v 0.823277 -3.136861 -1.623190
v 0.140857 -3.136861 -1.623190
v 0.238791 -2.400126 -1.331596
v -0.291932 -2.400126 -1.331596
v -0.173359 -1.444578 -1.569360
v -0.602930 -1.444578 -1.569360
v -0.089800 -1.768034 -1.026235
v -0.620523 -1.768034 -1.026235
v -0.220168 -1.159474 -1.343063
v -0.712238 -1.159474 -1.343063
v -0.089800 -1.719264 -0.602621
v -0.620523 -1.719264 -0.602621
v -0.312164 -1.049372 -0.807979
v -0.712238 -1.049372 -0.807979
v -0.089800 -1.632543 0.006864
v -0.620523 -1.632543 0.006864
v -0.312164 -0.980948 -0.653675
v -0.712238 -0.980948 -0.653675
v 0.468315 -2.301653 -3.041632
v -0.253375 -2.301653 -3.041632
v -0.405648 -2.386584 -2.511321
v -0.423335 -2.322791 -2.353599
v -0.435750 -2.349924 -1.926593
v -0.747581 -1.874164 -1.462468
v -0.948752 -1.433064 -1.200627
v -0.948752 -1.350535 -0.715656
v -0.948752 -1.152513 -0.098456
v -0.083165 -1.152513 -0.098456
v -0.083165 -1.350535 -0.715656
v -0.083165 -1.433064 -1.200627
v 0.076609 -1.874164 -1.462468
v 0.423107 -2.349924 -1.926593
v 0.437971 -2.322791 -2.353599
v 0.437971 -2.386584 -2.511321
v -0.089800 -1.419982 0.806713
v -0.620523 -1.419982 0.806713
v -0.171538 -1.027606 0.695317
v -0.853958 -1.027606 0.695317
v -0.089800 -1.561293 0.274973
v -0.620523 -1.561293 0.274973
v -0.853958 -1.042326 0.172352
v -0.171538 -1.042326 0.172352
v -0.853958 -0.853538 0.022866
v -0.171538 -0.853538 0.022866
v -0.312164 -0.772623 -0.467664
v -0.712238 -0.772623 -0.467664
v -0.857037 -0.753238 0.171716
v -0.174617 -0.753238 0.171716
v -0.173298 -0.577213 -0.296733
v -0.855718 -0.577213 -0.296733
v -0.864992 -0.298936 -0.726411
v -0.182573 -0.298936 -0.726411
v -1.173362 -0.192237 -0.416122
v -0.490941 -0.192237 -0.416122
v -1.434663 -0.381099 0.637769
v -0.752244 -0.381099 0.637769
v -0.752244 -0.297273 0.392464
v -1.434663 -0.297273 0.392464
v -1.871609 0.408315 1.714842
v -1.189188 0.408315 1.714842
v -1.189187 0.676182 1.729822
v -1.871608 0.676182 1.729822
v -1.871608 0.289330 2.170978
v -1.189187 0.289330 2.170978
v -1.189187 0.661536 1.941112
v -1.871608 0.661536 1.941112
v -1.871608 0.977104 2.670390
v -1.189187 0.977104 2.670390
v -1.189187 1.030766 2.236228
v -1.871608 1.030766 2.236228
v -1.434663 0.055643 -0.396283
v -0.752244 0.055643 -0.396283
v -1.434663 -0.080831 -0.168761
v -0.752244 -0.080831 -0.168761
v -1.434663 0.691151 -0.352230
v -0.752244 0.691151 -0.352230
v -1.434663 0.554678 -0.124708
v -0.752244 0.554678 -0.124708
v 0.413969 -0.579188 1.651281
v -0.116754 -0.579188 1.651281
v 0.491818 -0.249758 1.444073
v -0.190602 -0.249758 1.444073
v 0.429434 -0.340486 2.551810
v -0.106057 -0.340486 2.551810
v 0.539005 0.046319 2.810420
v -0.114562 0.046319 2.810420
v 0.667038 -0.960910 2.759355
v 0.129506 -0.960910 2.759354
v 0.858150 -0.635132 3.077030
v 0.182822 -0.635132 3.077030
v 0.836445 -1.429642 3.257562
v 0.303318 -1.429642 3.257562
v 1.111615 -0.989872 3.510813
v 0.462810 -0.989872 3.510813
v 1.012861 -0.990136 4.176454
v 0.482139 -0.990136 4.176455
v 1.252474 -0.713687 3.817509
v 0.570055 -0.713687 3.817509
vn 0.1161 -0.6411 0.7586
vn 0.1555 -0.7449 0.6488
vn 0.1284 -0.7437 0.6561
vn 0.0624 -0.8950 -0.4416
vn 0.6846 -0.5383 -0.4914
vn 0.6658 -0.5622 -0.4905
vn 0.6678 -0.5651 -0.4845
vn -0.0099 0.9030 -0.4296
vn -0.5833 -0.7302 -0.3557
vn -0.5819 -0.7301 -0.3582
vn -0.6039 -0.7133 -0.3555
vn 0.1397 -0.9376 0.3184
vn 0.8479 -0.4817 0.2215
vn 0.8463 -0.4853 0.2196
vn 0.8462 -0.4851 0.2206
vn -0.0014 0.9901 0.1405
vn -0.7118 -0.6497 0.2669
vn -0.7123 -0.6506 0.2633
vn -0.7230 -0.6357 0.2703
vn 0.1136 -0.6120 0.7827
vn 0.6313 -0.4828 0.6069
vn 0.6285 -0.4868 0.6066
vn 0.6284 -0.4843 0.6087
vn -0.0204 0.5516 0.8338
vn -0.7852 -0.5295 0.3211
vn -0.7827 -0.5274 0.3304
vn -0.7837 -0.5292 0.3251
vn 0.6273 0.5607 -0.5404
vn 0.8513 0.4881 0.1926
vn 0.7039 0.1810 0.6868
vn -0.0114 0.0629 0.9980
vn -0.8250 0.3593 0.4362
vn -0.7405 0.6516 0.1644
vn -0.7729 0.6239 -0.1154
vn 0.8216 -0.1827 -0.5400
vn 0.8545 -0.1846 -0.4856
vn 0.8385 -0.1834 -0.5132
vn 0.9275 -0.2443 0.2829
vn 0.9249 -0.2451 0.2906
vn 0.9263 -0.2439 0.2871
vn 0.8828 0.0842 0.4622
vn 0.8805 0.0908 0.4652
vn 0.8825 0.0883 0.4619
vn 0.0967 0.3182 0.9431
vn -0.1824 0.2372 0.9542
vn -0.0503 0.3181 0.9467
vn -0.9125 -0.0042 0.4090
vn -0.9125 0.0008 0.4092
vn -0.9123 0.0009 0.4094
vn -0.9059 -0.2517 0.3407
vn -0.8984 -0.2555 0.3572
vn -0.9119 -0.2543 0.3221
vn -0.8891 -0.3532 -0.2912
vn -0.8957 -0.3558 -0.2668
vn -0.8822 -0.3472 -0.3179
vn -0.0046 0.2084 -0.9780
vn -0.0061 0.1515 -0.9884
vn -0.0064 0.1769 -0.9842
vn -0.8771 -0.4500 0.1677
vn -0.2943 0.9391 -0.1777
vn -0.2994 0.9282 -0.2209
vn -0.2864 0.9487 -0.1341
vn 0.8358 -0.5458 -0.0588
vn -0.3111 -0.9171 0.2493
vn -0.3332 -0.9333 0.1337
vn -0.3246 -0.9261 0.1922
vn -0.4250 -0.7918 0.4388
vn -0.4038 -0.7647 0.5022
vn -0.3938 -0.8335 0.3876
vn -0.1913 0.3234 -0.9267
vn -0.1913 0.3232 -0.9268
vn -0.1897 0.3231 -0.9272
vn -0.9880 0.0448 0.1479
vn -0.9996 0.0182 0.0207
vn -0.9628 0.0880 0.2554
vn -0.5653 0.0165 0.8247
vn -0.5408 0.1008 0.8351
vn -0.6216 -0.0397 0.7823
vn -0.5758 -0.0214 0.8173
vn 0.9880 -0.0448 -0.1479
vn 0.9966 -0.0144 -0.0811
vn 0.9718 -0.0621 -0.2274
vn -0.1757 -0.7451 -0.6434
vn -0.1931 -0.6942 -0.6934
vn -0.1823 -0.6946 -0.6959
vn -0.1714 -0.7431 -0.6468
vn -0.2354 0.2488 -0.9395
vn -0.3068 0.2483 -0.9188
vn -0.1678 0.2505 -0.9535
vn -0.2346 0.2487 -0.9397
vn 0.7312 0.6404 -0.2350
vn 0.7311 0.6368 -0.2449
vn 0.7808 0.5782 -0.2368
vn -0.3544 0.4843 0.7999
vn -0.4215 0.5576 0.7151
vn -0.3897 0.4494 0.8039
vn -0.3818 0.4986 0.7782
vn -0.5753 0.8161 -0.0552
vn -0.5667 0.8228 -0.0435
vn -0.6668 0.7449 -0.0224
vn -0.3250 -0.9450 0.0365
vn -0.2574 -0.9656 0.0374
vn -0.3690 -0.9294 0.0030
vn 0.5472 -0.4626 -0.6975
vn -0.7185 -0.4970 0.4867
vn 0.7468 0.0069 -0.6650
vn -0.7468 -0.0069 0.6650
vn 0.8120 0.5581 -0.1708
vn -0.1243 0.6191 0.7754
vn -0.0837 0.6012 0.7947
vn -0.1082 0.6060 0.7881
vn -0.3811 0.5156 0.7674
vn -0.0632 -0.7518 0.6564
vn -0.0474 -0.7373 0.6740
vn -0.0707 -0.7681 0.6364
vn 0.7433 -0.6541 0.1400
vn -0.5908 -0.5900 0.5503
vn 0.9085 0.0953 -0.4069
vn -0.9085 -0.0953 0.4069
vn 0.7030 0.5927 -0.3931
vn -0.3019 0.9495 0.0851
vn -0.2426 0.9576 0.1557
vn -0.2787 0.9524 0.1234
vn -0.6662 0.7084 0.2333
vn -0.1283 -0.9464 -0.2964
vn -0.1258 -0.9518 -0.2796
vn -0.1302 -0.9407 -0.3132
vn 0.6309 -0.7387 -0.2373
vn -0.7615 -0.6478 -0.0225
vn 0.9897 -0.0792 -0.1195
vn -0.9897 0.0792 0.1195
vn 0.6535 0.6206 -0.4333
vn -0.4120 0.7349 -0.5387
vn -0.4192 0.7934 -0.4413
vn -0.4230 0.7623 -0.4898
vn -0.5766 0.7438 -0.3380
vn -0.1966 -0.8863 -0.4194
vn -0.1934 -0.8978 -0.3957
vn -0.1982 -0.8743 -0.4431
vn 0.7104 -0.6223 -0.3287
vn -0.8456 -0.5290 -0.0723
vn 0.9847 -0.0426 -0.1692
vn 0.9856 -0.0403 -0.1645
vn 0.9853 -0.0456 -0.1648
vn -0.9847 0.0426 0.1692
vn -0.9850 0.0470 0.1661
vn -0.9856 0.0412 0.1641
vn 0.8642 0.3888 0.3193
vn -0.2774 0.6401 0.7165
vn -0.2404 0.5578 0.7944
vn -0.2661 0.5967 0.7571
vn -0.5613 0.4980 0.6610
vn -0.3101 -0.5452 -0.7789
vn -0.3083 -0.5751 -0.7578
vn -0.3022 -0.5173 -0.8006
vn 0.6404 -0.4008 -0.6552
vn -0.8689 -0.3488 -0.3513
vn 0.9848 -0.0353 -0.1703
vn 0.9850 -0.0289 -0.1699
vn 0.9861 -0.0323 -0.1631
vn 0.9855 -0.0353 -0.1662
vn -0.9852 0.0282 0.1691
vn -0.9847 0.0340 0.1710
vn -0.9856 0.0353 0.1654
vn -0.9861 0.0314 0.1633
vn 0.8615 0.4837 -0.1541
vn -0.4773 0.8505 -0.2208
vn -0.4706 0.8784 -0.0829
vn -0.4784 0.8649 -0.1519
vn -0.7451 0.6646 0.0551
vn -0.4842 -0.8150 -0.3184
vn -0.4769 -0.8417 -0.2533
vn -0.4813 -0.7882 -0.3835
vn 0.7919 -0.5117 -0.3333
vn -0.9043 -0.4238 -0.0521
vn 0.9859 -0.0295 -0.1645
vn 0.9867 -0.0262 -0.1607
vn 0.9864 -0.0289 -0.1617
vn -0.9864 0.0261 0.1620
vn -0.9859 0.0298 0.1644
vn -0.9864 0.0289 0.1617
vn 0.8889 0.3924 0.2363
vn -0.2059 0.6954 0.6885
vn -0.1794 0.6291 0.7563
vn -0.1987 0.6608 0.7238
vn -0.6256 0.5201 0.5815
vn -0.0742 0.3058 -0.9492
vn -0.0744 0.3074 -0.9487
vn -0.0749 0.3043 -0.9496
vn 0.2579 -0.9590 0.1173
vn 0.3148 -0.9429 0.1083
vn 0.3137 -0.9437 0.1053
vn 0.2077 -0.8785 -0.4302
vn 0.1858 -0.8670 -0.4624
vn 0.1610 -0.9001 -0.4049
vn 0.2224 -0.7737 0.5932
vn 0.2214 -0.7771 0.5892
vn 0.1961 -0.7756 0.5999
vn 0.0429 -0.9463 -0.3206
vn 0.0429 -0.9461 -0.3209
vn 0.0253 -0.9475 -0.3187
vn 0.0636 -0.8873 -0.4568
vn 0.0637 -0.8868 -0.4577
vn 0.0373 -0.8898 -0.4549
vn 0.0547 -0.5481 -0.8346
vn 0.0556 -0.5442 -0.8371
vn 0.0189 -0.5490 -0.8356
vn 0.3091 -0.8426 -0.4411
vn 0.3088 -0.8390 -0.4480
vn 0.2417 -0.8621 -0.4454
vn 0.4640 -0.8043 0.3713
vn 0.4623 -0.8111 0.3584
vn 0.3981 -0.8344 0.3812
vn 0.6530 -0.0961 0.7513
vn 0.6756 -0.0416 0.7361
vn 0.6088 -0.0295 0.7928
vn 0.6195 -0.0594 0.7828
vn 0.5180 0.3227 0.7922
vn 0.5278 0.3896 0.7547
vn 0.4505 0.3248 0.8316
vn 0.4697 0.3413 0.8142
vn 0.2722 0.6837 0.6772
vn 0.3181 0.6801 0.6606
vn 0.3203 0.6750 0.6647
vn 0.2479 0.9311 -0.2677
vn 0.3148 0.9086 -0.2743
vn 0.3151 0.9105 -0.2678
vn 0.3263 0.6288 0.7058
vn 0.3809 0.6236 0.6827
vn 0.3831 0.6144 0.6898
vn 0.1319 0.7978 -0.5883
vn 0.1887 0.7845 -0.5908
vn 0.1879 0.7899 -0.5837
vn 0.1640 0.9827 -0.0862
vn 0.2028 0.9725 -0.1144
vn 0.2054 0.9735 -0.1002
vn 0.2400 0.7352 0.6340
vn 0.2566 0.7442 0.6167
vn 0.2623 0.7360 0.6241
vn 0.1622 0.9521 -0.2593
vn 0.1611 0.9525 -0.2584
vn 0.1175 0.9602 -0.2536
vn -0.0747 0.2402 -0.9678
vn -0.0382 0.3135 -0.9488
vn -0.0344 0.2391 -0.9704
vn -0.0342 0.2400 -0.9702
vn 0.0226 -0.6908 -0.7227
vn 0.0218 -0.6828 -0.7303
vn 0.0955 -0.6895 -0.7180
vn 0.0255 -0.7208 -0.6927
vn -0.7165 -0.4711 -0.5145
vn -0.7006 -0.4749 -0.5325
vn -0.7317 -0.4728 -0.4911
vn -0.0000 0.9949 -0.1009
vn 0.7017 -0.6532 -0.2845
vn 0.6957 -0.6530 -0.2992
vn 0.6995 -0.6519 -0.2927
vn 0.2370 -0.9473 -0.2154
vn 0.0646 -0.2966 0.9528
vn 0.0647 -0.2959 0.9530
vn 0.0653 -0.2966 0.9528
vn 0.0386 -0.3092 -0.9502
vn 0.0380 -0.3086 -0.9504
vn 0.0377 -0.3099 -0.9500
vn 0.1860 -0.7911 -0.5827
vn 0.1849 -0.7908 -0.5834
vn 0.1853 -0.7920 -0.5817
vn 0.7303 -0.5750 -0.3688
vn 0.7060 -0.5885 -0.3940
vn 0.7100 -0.5945 -0.3775
vn 0.7306 -0.5743 -0.3694
vn -0.0000 0.7439 0.6683
vn -0.0002 0.7437 0.6685
vn -0.6999 -0.5815 -0.4147
vn -0.6919 -0.5583 -0.4578
vn -0.6652 -0.5957 -0.4501
vn -0.7055 -0.5791 -0.4086
vn 0.2314 -0.8298 -0.5079
vn 0.7515 -0.3992 -0.5252
vn 0.7428 -0.4088 -0.5302
vn 0.7443 -0.4100 -0.5271
vn -0.0127 0.8177 -0.5755
vn -0.8020 -0.5921 -0.0783
vn -0.8019 -0.5915 -0.0847
vn -0.8150 -0.5747 -0.0740
vn 0.1850 -0.8741 0.4492
vn 0.8995 -0.3610 0.2461
vn 0.8993 -0.3619 0.2457
vn 0.8992 -0.3619 0.2459
vn -0.0020 0.9856 0.1693
vn -0.8026 -0.5061 0.3158
vn -0.8026 -0.5066 0.3150
vn -0.8059 -0.5001 0.3168
vn 0.0708 -0.3102 0.9480
vn 0.4121 -0.2786 0.8675
vn 0.3936 -0.2917 0.8718
vn 0.3996 -0.2459 0.8831
vn -0.0227 0.4067 0.9133
vn -0.4878 -0.3542 0.7979
vn -0.4918 -0.3712 0.7876
vn -0.5059 -0.3592 0.7842
vn 0.0595 0.4133 -0.9087
vn 0.8407 0.4844 -0.2419
vn 0.8631 0.3392 0.3743
vn 0.8433 0.3655 0.3940
vn 0.8545 0.3535 0.3806
vn 0.6664 0.5008 -0.5524
vn 0.9126 0.3596 0.1944
vn 0.6775 0.0362 0.7346
vn 0.0237 -0.2698 0.9626
vn -0.8547 0.2070 0.4761
vn -0.8422 0.5117 0.1700
vn -0.7912 0.6106 -0.0350
vn -0.6301 0.5679 0.5296
vn -0.6297 0.5702 0.5275
vn -0.6286 0.5704 0.5286
vn -0.5348 0.7905 -0.2984
vn 0.2286 -0.7772 -0.5863
vn 0.2291 -0.7782 -0.5848
vn 0.2299 -0.7773 -0.5856
vn -0.7635 -0.6031 -0.2309
vn -0.7455 -0.6304 -0.2162
vn -0.7837 -0.5796 -0.2236
vn -0.7812 -0.5850 -0.2179
vn -0.6579 0.5007 0.5625
vn -0.6535 0.5022 0.5663
vn -0.6559 0.5010 0.5646
vn -0.0132 0.7540 0.6567
vn -0.0135 0.7541 0.6566
vn 0.8175 0.5456 0.1844
vn 0.8235 0.5321 0.1969
vn 0.8214 0.5344 0.1996
vn 0.7757 -0.5154 -0.3641
vn 0.7773 -0.5305 -0.3382
vn 0.7592 -0.5365 -0.3685
vn 0.7752 -0.5157 -0.3648
vn -0.0634 -0.3035 -0.9507
vn -0.0636 -0.3045 -0.9504
vn -0.0627 -0.3041 -0.9506
vn 0.8906 -0.2270 -0.3941
vn 0.8926 -0.2199 -0.3936
vn 0.8917 -0.2184 -0.3966
vn 0.9210 -0.3577 -0.1546
vn 0.9087 -0.4031 -0.1084
vn 0.9173 -0.3765 -0.1296
vn 0.9174 -0.3759 -0.1307
vn 0.8979 -0.2894 -0.3316
vn 0.9140 -0.2758 -0.2974
vn 0.9010 -0.3034 -0.3101
vn 0.9015 -0.3022 -0.3098
vn 0.8517 -0.2361 -0.4679
vn 0.8602 -0.2480 -0.4455
vn 0.8565 -0.2416 -0.4561
vn 0.9387 -0.1787 0.2949
vn 0.9381 -0.1787 0.2967
vn 0.9384 -0.1786 0.2959
vn 0.6981 -0.1051 0.7083
vn 0.7115 -0.0534 0.7007
vn 0.7167 -0.0744 0.6934
vn 0.0455 -0.3118 0.9491
vn 0.0457 -0.3122 0.9489
vn 0.0451 -0.3124 0.9489
vn -0.7909 -0.0932 0.6048
vn -0.7867 -0.0771 0.6124
vn -0.7845 -0.1164 0.6091
vn -0.9181 -0.1854 0.3505
vn -0.9155 -0.1853 0.3571
vn -0.9202 -0.1873 0.3436
vn -0.9596 -0.2778 0.0435
vn -0.9551 -0.2896 0.0627
vn -0.9626 -0.2700 0.0222
vn -0.9547 -0.2909 0.0630
vn -0.9542 -0.2924 0.0627
vn -0.9452 -0.3039 0.1191
vn -0.9617 -0.2704 0.0450
vn -0.9547 -0.2965 -0.0242
vn -0.9808 -0.1893 -0.0470
vn -0.9683 -0.2450 -0.0487
vn -0.9682 -0.2458 -0.0473
vn -0.7732 0.0414 -0.6328
vn -0.7778 0.0352 -0.6276
vn -0.7772 0.0120 -0.6291
vn -0.9946 0.1035 -0.0030
vn -0.0000 0.9904 0.1381
vn 0.9991 -0.0254 -0.0349
vn 0.9991 -0.0253 -0.0349
vn -0.0000 0.1610 -0.9870
vn -0.0000 -0.7837 0.6211
vn -0.0000 -0.0659 -0.9978
vn -0.0000 -0.9991 -0.0430
vn 1.0000 -0.0000 -0.0000
vn -0.0000 0.8665 -0.4992
vn -1.0000 -0.0000 -0.0000
vn -0.9506 0.2288 -0.2098
vn -0.0000 0.3972 0.9178
vn 0.8217 -0.2661 0.5041
vn 0.8216 -0.2661 0.5041
vn -0.0000 0.0752 -0.9972
vn -0.9240 0.3813 -0.0289
vn -0.0000 0.8579 0.5138
vn 0.9240 -0.3813 0.0289
vn -0.0000 -0.8144 -0.5803
vn -0.4278 0.9014 -0.0677
vn -0.4278 0.9013 -0.0677
vn -0.0000 0.2443 0.9697
vn 0.3597 -0.9287 0.0895
vn 0.3597 -0.9288 0.0895
vn -0.0000 -0.4110 -0.9117
vn -0.0000 0.1768 0.9843
vn -0.0000 0.0692 -0.9976
vn 0.9770 -0.0343 -0.2105
vn 0.9770 -0.0343 -0.2104
vn -0.0000 -0.7823 0.6229
vn -0.9770 0.0343 0.2104
vn -0.9770 0.0343 0.2105
vn -0.0000 0.9313 -0.3642
vn 0.7994 -0.1552 -0.5804
vn -0.0000 -0.9976 -0.0692
vn -0.7994 0.1552 0.5804
vn -0.0000 0.9918 -0.1282
vn 0.5918 0.7384 0.3234
vn 0.4530 0.8093 -0.3740
vn 0.4530 0.8093 -0.3741
vn -0.0000 0.9924 0.1227
vn -0.4022 0.7875 -0.4670
vn -0.4023 0.7875 -0.4670
vn -0.4990 0.8629 -0.0800
vn -0.4990 0.8629 -0.0799
vn -0.0000 -0.9523 -0.3053
vn 0.9412 -0.1475 -0.3041
vn 0.9412 -0.1475 -0.3040
vn -0.6981 0.3125 0.6442
vn -0.6981 0.3126 0.6441
vn 0.5420 0.8404 -0.0076
vn 0.5420 0.8403 -0.0076
vn -0.0000 0.9696 -0.2448
vn -0.5649 0.8083 -0.1659
vn -0.5649 0.8079 -0.1682
vn -0.5648 0.8084 -0.1659
vn -0.0000 -0.8448 -0.5350
vn 0.3148 0.4780 -0.8200
vn 0.3149 0.4780 -0.8200
vn -0.0000 0.5197 0.8544
vn -0.3492 -0.3302 0.8770
vn -0.3491 -0.3302 0.8770
vn -0.3492 -0.3301 0.8770
vn -0.0000 -0.7852 0.6192
vn 0.6258 0.7784 0.0503
vn -0.0000 0.6256 -0.7802
vn 0.0025 0.6253 -0.7803
vn 0.0005 0.6237 -0.7817
vn -0.4501 0.1839 -0.8738
vn -0.0000 -0.4350 0.9004
vn 0.7003 0.6216 -0.3510
vn 0.7002 0.6217 -0.3510
vn 0.7002 0.6216 -0.3510
vn -0.0024 0.6221 -0.7830
vn -0.0003 0.6237 -0.7817
vn -0.0000 0.6217 -0.7833
vn -0.4712 0.1891 -0.8615
vn -0.4712 0.1890 -0.8615
vn -0.0000 -0.9934 0.1144
vn 0.6364 0.7706 -0.0344
vn -0.0000 0.9795 -0.2015
vn -0.5533 0.8185 -0.1546
vn -0.0000 -0.9900 0.1409
vn 0.5960 0.7590 -0.2621
vn -0.0000 0.9142 -0.4054
vn -0.5836 0.7676 -0.2651
vn -0.5836 0.7675 -0.2651
vn -0.9348 -0.0835 -0.3453
vn -0.8799 -0.4669 0.0884
vn -0.6714 -0.7254 0.1514
vn -0.6715 -0.7262 0.1475
vn -0.5448 -0.8177 0.1860
vn -0.5449 -0.8184 0.1828
vn -0.5060 -0.7280 0.4625
vn -0.5060 -0.7281 0.4625
vn -0.5019 -0.8560 0.1237
vn -0.5676 -0.8020 0.1862
vn -0.5676 -0.8020 0.1861
vn -0.5675 -0.8020 0.1862
vn -0.0000 0.7923 0.6102
vn 0.9996 -0.0287 -0.0041
vn 0.9996 -0.0224 0.0172
vn 0.9996 -0.0286 0.0065
vn 0.9996 -0.0285 0.0066
vn 0.9994 -0.0344 0.0050
vn 0.9994 -0.0345 0.0050
vn 0.9995 -0.0309 -0.0061
vn 0.9995 -0.0255 0.0165
vn 0.7718 0.4346 0.4642
vn 0.7718 0.4346 0.4643
vn 0.7784 0.3808 0.4990
vn 0.7784 0.3809 0.4990
vn 0.9507 -0.2413 -0.1946
vn 0.8563 -0.4869 0.1723
vn 0.8017 -0.5916 -0.0856
vn -0.0000 -0.9665 0.2568
vn 0.9526 0.1884 0.2390
vn -0.0000 0.9263 -0.3769
vn -0.6536 -0.6216 0.4318
vn -0.6536 -0.6216 0.4319
vn -0.6536 -0.6215 0.4318
vn -0.7182 -0.6884 0.1019
vn -0.7181 -0.6884 0.1019
vn -0.7181 -0.6884 0.1018
vn -0.0000 0.9996 -0.0281
vn 0.9470 0.3178 -0.0470
vn -0.0000 -0.3760 0.9266
vn 0.7654 0.5021 -0.4026
vn -0.0000 0.6660 -0.7459
vn -0.7546 0.5174 -0.4035
vn -0.7546 0.5175 -0.4035
vn -0.0000 -0.8293 0.5588
vn 0.8550 -0.3878 -0.3443
vn 0.8550 -0.3878 -0.3444
vn 0.8550 -0.3877 -0.3444
vn -0.0000 0.8576 0.5144
vn -0.8359 -0.4195 -0.3538
vn -0.8360 -0.4195 -0.3538
vn -0.0000 -0.4794 -0.8776
vn -0.5038 -0.7345 -0.4547
vn -0.5037 -0.7345 -0.4547
vn -0.5038 -0.7345 -0.4546
vn -0.0000 0.2962 0.9551
vn 0.8368 0.4749 0.2726
vn 0.8368 0.4748 0.2725
vn -0.0000 -0.7814 0.6240
vn 0.4109 0.8562 0.3132
vn -0.0000 0.9265 -0.3763
vn -0.4109 -0.8562 -0.3132
vn -0.0000 -0.8066 0.5911
vn 0.8700 0.2701 0.4125
vn 0.8700 0.2701 0.4124
vn -0.0000 0.8085 -0.5885
vn -0.8700 -0.2701 -0.4124
vn -0.8700 -0.2701 -0.4125
vn -0.0000 -0.9676 -0.2524
vn -0.0000 0.9976 0.0692
vn -0.0000 -0.5876 0.8092
vn -0.0000 0.6243 -0.7811
vn -0.0000 0.6814 -0.7319
vn -0.3997 -0.7768 -0.4867
vn -0.0000 -0.9118 0.4107
vn 0.3997 0.7768 0.4867
vn -0.0000 -0.0692 0.9976
vn -0.0000 -0.7087 0.7055
vn 0.6814 -0.2896 -0.6722
vn -0.0000 0.6935 -0.7205
vn -0.5389 -0.0737 0.8392
vn -0.5389 -0.0738 0.8392
vn -0.5389 -0.0738 0.8391
vn -0.0000 -0.9666 0.2562
vn 0.8887 -0.4545 0.0597
vn 0.8887 -0.4546 0.0597
vn -0.0000 0.9773 -0.2118
vn -0.9666 -0.2241 0.1245
vn -0.0000 -0.3172 -0.9483
vn 0.5710 0.1811 -0.8007
vn 0.5710 0.1811 -0.8008
vn -0.0000 0.3643 0.9313
vn -0.7320 -0.3723 0.5706
vn -0.0000 -0.7283 -0.6852
vn 0.6402 -0.2022 -0.7411
vn 0.6402 -0.2023 -0.7411
vn -0.0000 0.7741 0.6331
vn -0.7579 -0.0753 0.6480
vn -0.0000 -0.9021 0.4315
vn 0.5869 -0.7919 0.1683
vn 0.5870 -0.7919 0.1683
vn 0.5869 -0.7919 0.1682
vn -0.0000 0.7431 -0.6692
vn -0.8271 0.5601 0.0467
vt 0.175796 0.672425
vt 0.233883 0.674795
vt 0.239956 0.696077
vt 0.174194 0.698017
vt 0.175613 0.525192
vt 0.200593 0.526699
vt 0.228362 0.593775
vt 0.173897 0.595617
vt 0.683699 0.539944
vt 0.702931 0.561835
vt 0.668680 0.612469
vt 0.637419 0.594153
vt 0.353656 0.663500
vt 0.306732 0.654034
vt 0.338243 0.606392
vt 0.391151 0.617722
vt 0.048112 0.799869
vt 0.044717 0.858818
vt 0.023420 0.862309
vt 0.001992 0.793185
vt 0.233242 0.647302
vt 0.178296 0.648800
vt 0.650660 0.665655
vt 0.627099 0.649460
vt 0.352678 0.539135
vt 0.405630 0.550482
vt 0.061413 0.745408
vt 0.025600 0.741691
vt 0.657901 0.716244
vt 0.632142 0.681080
vt 0.349631 0.512740
vt 0.398609 0.525814
vt 0.079239 0.710983
vt 0.047681 0.726236
vt 0.693400 0.624342
vt 0.716435 0.571119
vt 0.744725 0.576869
vt 0.737287 0.634335
vt 0.672920 0.678925
vt 0.707610 0.697724
vt 0.672664 0.714250
vt 0.687085 0.717806
vt 0.352431 0.499160
vt 0.406870 0.515551
vt 0.132331 0.742126
vt 0.091092 0.746591
vt 0.096006 0.717954
vt 0.110202 0.725241
vt 0.135771 0.812458
vt 0.076453 0.804747
vt 0.096369 0.856172
vt 0.070113 0.856915
vt 0.351117 0.484636
vt 0.413267 0.506860
vt 0.329850 0.872139
vt 0.330983 0.901630
vt 0.271590 0.852417
vt 0.293425 0.840988
vt 0.319119 0.913190
vt 0.265710 0.875934
vt 0.272503 0.895736
vt 0.289424 0.914216
vt 0.193432 0.390831
vt 0.236175 0.302001
vt 0.287780 0.320669
vt 0.264352 0.386824
vt 0.497854 0.275890
vt 0.493933 0.367243
vt 0.477366 0.367705
vt 0.481629 0.277300
vt 0.130206 0.039534
vt 0.119873 0.115668
vt 0.061016 0.098315
vt 0.067001 0.001886
vt 0.504397 0.149032
vt 0.510290 0.059472
vt 0.528811 0.060304
vt 0.522781 0.152318
vt 0.536831 0.495049
vt 0.558941 0.485844
vt 0.559793 0.576228
vt 0.512216 0.562645
vt 0.480121 0.215375
vt 0.543277 0.223148
vt 0.313301 0.326890
vt 0.280388 0.412452
vt 0.557417 0.616517
vt 0.507938 0.618946
vt 0.154835 0.020281
vt 0.154863 0.120906
vt 0.478951 0.245881
vt 0.536204 0.245931
vt 0.194591 0.026575
vt 0.201619 0.124498
vt 0.565563 0.678069
vt 0.548065 0.673067
vt 0.365828 0.334240
vt 0.329190 0.421945
vt 0.481279 0.004875
vt 0.499701 0.007477
vt 0.102982 0.164487
vt 0.055100 0.160371
vt 0.233489 0.231813
vt 0.280624 0.265404
vt 0.129802 0.155859
vt 0.308233 0.285180
vt 0.182564 0.137484
vt 0.467012 0.388190
vt 0.485807 0.390928
vt 0.364661 0.308408
vt 0.505666 0.567613
vt 0.486532 0.579283
vt 0.447365 0.488675
vt 0.466847 0.481910
vt 0.125748 0.244162
vt 0.086084 0.232990
vt 0.302719 0.179065
vt 0.339626 0.188534
vt 0.140646 0.250439
vt 0.359363 0.187573
vt 0.173610 0.253142
vt 0.580218 0.167218
vt 0.567388 0.318949
vt 0.545054 0.324256
vt 0.559602 0.172688
vt 0.409674 0.188280
vt 0.434263 0.447431
vt 0.452550 0.441792
vt 0.119505 0.289066
vt 0.075894 0.268651
vt 0.306573 0.146115
vt 0.346520 0.140194
vt 0.165153 0.307990
vt 0.393372 0.129270
vt 0.208957 0.315748
vt 0.567793 0.084251
vt 0.550928 0.089036
vt 0.444811 0.128022
vt 0.423243 0.414659
vt 0.440007 0.410614
vt 0.112889 0.316969
vt 0.063190 0.297959
vt 0.301854 0.117419
vt 0.346494 0.111806
vt 0.145861 0.326941
vt 0.379426 0.107925
vt 0.190322 0.337272
vt 0.566644 0.059684
vt 0.549586 0.056442
vt 0.432179 0.103666
vt 0.403059 0.357870
vt 0.418204 0.356178
vt 0.074015 0.352826
vt 0.017082 0.341815
vt 0.265916 0.070314
vt 0.316288 0.071552
vt 0.144405 0.361780
vt 0.382946 0.075172
vt 0.196641 0.368405
vt 0.569295 0.036402
vt 0.561054 0.032085
vt 0.440234 0.074715
vt 0.395695 0.331786
vt 0.401642 0.329076
vt 0.049213 0.422873
vt 0.001992 0.380113
vt 0.258920 0.032443
vt 0.305984 0.002292
vt 0.098719 0.420787
vt 0.351188 0.012915
vt 0.151694 0.421231
vt 0.582883 0.006699
vt 0.576413 0.001906
vt 0.408555 0.017494
vt 0.475151 0.149459
vt 0.429800 0.212292
vt 0.481114 0.056935
vt 0.452866 0.003308
vt 0.452363 0.583537
vt 0.415352 0.497396
vt 0.405076 0.456577
vt 0.397619 0.424515
vt 0.382434 0.369097
vt 0.375103 0.339079
vt 0.615230 0.503173
vt 0.629745 0.577782
vt 0.624728 0.631247
vt 0.593408 0.677803
vt 0.582653 0.036024
vt 0.584547 0.011563
vt 0.589531 0.056321
vt 0.593981 0.082922
vt 0.612980 0.162361
vt 0.600231 0.312321
vt 0.451297 0.366680
vt 0.439247 0.388433
vt 0.455481 0.275269
vt 0.431806 0.243461
vt 0.819374 0.278054
vt 0.816134 0.247880
vt 0.853109 0.235417
vt 0.845545 0.283918
vt 0.184925 0.783469
vt 0.134319 0.735230
vt 0.172970 0.703883
vt 0.213939 0.759914
vt 0.674848 0.536460
vt 0.695055 0.486281
vt 0.711849 0.512079
vt 0.690795 0.537472
vt 0.250711 0.615989
vt 0.235940 0.590714
vt 0.282823 0.572932
vt 0.281899 0.595835
vt 0.886628 0.774494
vt 0.946346 0.768962
vt 0.951232 0.772983
vt 0.885986 0.786829
vt 0.303072 0.607338
vt 0.250849 0.630281
vt 0.225051 0.529672
vt 0.275793 0.517233
vt 0.743044 0.450743
vt 0.764039 0.470347
vt 0.105900 0.703938
vt 0.146061 0.671292
vt 0.797677 0.187537
vt 0.839275 0.188530
vt 0.262536 0.461203
vt 0.219632 0.470740
vt 0.187571 0.400358
vt 0.243024 0.393112
vt 0.810251 0.439643
vt 0.782341 0.417010
vt 0.818240 0.366515
vt 0.858919 0.388211
vt 0.998008 0.744583
vt 0.956213 0.768072
vt 0.946290 0.705148
vt 0.994092 0.679676
vt 0.821845 0.075676
vt 0.818318 0.136695
vt 0.777286 0.128615
vt 0.763840 0.055940
vt 0.851746 0.667147
vt 0.905621 0.655393
vt 0.924109 0.710590
vt 0.869473 0.721800
vt 0.830778 0.316623
vt 0.858950 0.333056
vt 0.913827 0.644240
vt 0.961651 0.618788
vt 0.849364 0.021242
vt 0.804440 0.010917
vt 0.815390 0.286558
vt 0.821185 0.288450
vt 0.890815 0.619136
vt 0.937327 0.598955
vt 0.876212 0.006910
vt 0.863017 0.002659
vt 0.241532 0.786594
vt 0.196476 0.805734
vt 0.623192 0.511472
vt 0.642243 0.424497
vt 0.684811 0.467895
vt 0.661312 0.538525
vt 0.685915 0.401391
vt 0.727729 0.435646
vt 0.784410 0.348353
vt 0.761074 0.399737
vt 0.721970 0.381158
vt 0.734525 0.322235
vt 0.809291 0.301736
vt 0.773879 0.273449
vt 0.813386 0.280889
vt 0.802444 0.268287
vt 0.894266 0.795097
vt 0.948889 0.778952
vt 0.950368 0.796918
vt 0.902457 0.813471
vt 0.942857 0.022731
vt 0.888721 0.026167
vt 0.889209 0.004142
vt 0.911034 0.006013
vt 0.948033 0.094902
vt 0.867226 0.087878
vt 0.900802 0.142721
vt 0.853082 0.142836
vt 0.925814 0.227312
vt 0.882669 0.228826
vt 0.868618 0.190980
vt 0.913851 0.185036
vt 0.867848 0.292982
vt 0.893528 0.288916
vt 0.084038 0.669174
vt 0.121888 0.639752
vt 0.310285 0.631820
vt 0.256799 0.641134
vt 0.955883 0.323917
vt 0.984603 0.310373
vt 0.985534 0.338651
vt 0.954527 0.347744
vt 0.619285 0.011719
vt 0.739392 0.002134
vt 0.709159 0.157583
vt 0.671835 0.159989
vt 0.830177 0.840156
vt 0.865719 0.841745
vt 0.870773 0.872052
vt 0.838311 0.864080
vt 0.746359 0.803796
vt 0.757723 0.799965
vt 0.770275 0.837498
vt 0.759047 0.841276
vt 0.467853 0.801499
vt 0.417722 0.749358
vt 0.437117 0.730708
vt 0.489854 0.775724
vt 0.802696 0.877774
vt 0.796099 0.853724
vt 0.341894 0.734263
vt 0.360837 0.711789
vt 0.381879 0.725400
vt 0.358514 0.748269
vt 0.370777 0.688678
vt 0.384659 0.688957
vt 0.382501 0.655390
vt 0.383427 0.637971
vt 0.389735 0.637662
vt 0.388578 0.655097
vt 0.435663 0.638018
vt 0.420299 0.634718
vt 0.414172 0.606578
vt 0.440151 0.601666
vt 0.951984 0.378055
vt 0.986400 0.376821
vt 0.967791 0.416837
vt 0.952814 0.393512
vt 0.878660 0.787808
vt 0.860577 0.799539
vt 0.821696 0.763304
vt 0.845390 0.747515
vt 0.821954 0.811448
vt 0.816505 0.795369
vt 0.794905 0.822187
vt 0.791189 0.805756
vt 0.947428 0.418206
vt 0.924732 0.413735
vt 0.759581 0.263641
vt 0.745765 0.276980
vt 0.729028 0.266808
vt 0.744189 0.256307
vt 0.733742 0.295567
vt 0.709794 0.280135
vt 0.723471 0.311968
vt 0.699969 0.297329
vt 0.939765 0.478775
vt 0.902665 0.482012
vt 0.717805 0.228575
vt 0.740549 0.234321
vt 0.693046 0.228154
vt 0.674657 0.243142
vt 0.924287 0.560241
vt 0.907472 0.562397
vt 0.739569 0.157203
vt 0.643245 0.172777
vt 0.701142 0.730833
vt 0.716414 0.696009
vt 0.725838 0.714298
vt 0.709653 0.744387
vt 0.756620 0.684769
vt 0.763308 0.708760
vt 0.944542 0.318786
vt 0.968531 0.296191
vt 0.670075 0.769451
vt 0.681168 0.779927
vt 0.797845 0.796013
vt 0.883817 0.306486
vt 0.883001 0.295510
vt 0.721660 0.837767
vt 0.827764 0.823274
vt 0.792483 0.837580
vt 0.862669 0.820786
vt 0.386398 0.671839
vt 0.376870 0.672385
vt 0.333571 0.862655
vt 0.300690 0.830851
vt 0.325215 0.808239
vt 0.356796 0.838240
vt 0.419552 0.671119
vt 0.422385 0.652507
vt 0.431603 0.656499
vt 0.425092 0.674418
vt 0.953530 0.363462
vt 0.987198 0.357363
vt 0.389370 0.732619
vt 0.363082 0.753302
vt 0.408855 0.705650
vt 0.447580 0.596747
vt 0.467833 0.622582
vt 0.409300 0.679445
vt 0.411382 0.655476
vt 0.412919 0.636816
vt 0.459660 0.658043
vt 0.448338 0.682252
vt 0.383801 0.747886
vt 0.410274 0.673471
vt 0.438946 0.689333
vt 0.474453 0.584605
vt 0.489689 0.597963
vt 0.808890 0.714721
vt 0.764951 0.684669
vt 0.812919 0.651320
vt 0.845217 0.664363
vt 0.812455 0.610012
vt 0.763840 0.642782
vt 0.769642 0.609323
vt 0.811559 0.575963
vt 0.763955 0.586771
vt 0.804392 0.554273
vt 0.491182 0.692536
vt 0.479475 0.718788
vt 0.851108 0.606309
vt 0.877558 0.622652
vt 0.836189 0.581633
vt 0.828453 0.564894
vt 0.822603 0.544580
vt 0.507478 0.720288
vt 0.494274 0.737664
vt 0.875775 0.589094
vt 0.891214 0.606743
vt 0.863319 0.572000
vt 0.854152 0.554240
vt 0.849412 0.538129
vt 0.535480 0.728660
vt 0.526119 0.749681
vt 0.902822 0.571932
vt 0.915375 0.589194
vt 0.889733 0.552313
vt 0.861117 0.550675
vt 0.856901 0.535910
vt 0.572431 0.744956
vt 0.535332 0.754889
vt 0.499799 0.651240
vt 0.520317 0.695182
vt 0.546682 0.701377
vt 0.584004 0.711638
vt 0.463009 0.903826
vt 0.490212 0.888042
vt 0.519155 0.909065
vt 0.483842 0.929398
vt 0.117247 0.897223
vt 0.124346 0.866984
vt 0.143433 0.871507
vt 0.136307 0.901698
vt 0.133951 0.833435
vt 0.154619 0.836286
vt 0.154128 0.787305
vt 0.170707 0.800575
vt 0.606526 0.484112
vt 0.576309 0.468544
vt 0.584214 0.453727
vt 0.615166 0.467946
vt 0.181118 0.880384
vt 0.174030 0.910560
vt 0.599879 0.424275
vt 0.623613 0.437566
vt 0.203960 0.815990
vt 0.187286 0.851961
vt 0.154260 0.616521
vt 0.106217 0.643632
vt 0.097471 0.614228
vt 0.136779 0.597914
vt 0.038082 0.660406
vt 0.049075 0.630036
vt 0.001992 0.647351
vt 0.012980 0.616972
vt 0.757717 0.585677
vt 0.748213 0.555322
vt 0.764686 0.549908
vt 0.768701 0.576380
vt 0.097411 0.601039
vt 0.131141 0.587404
vt 0.061537 0.605852
vt 0.950479 0.852885
vt 0.988455 0.864329
vt 0.983147 0.882136
vt 0.945211 0.871562
vt 0.769797 0.541630
vt 0.779732 0.566576
vt 0.014150 0.080982
vt 0.021437 0.058781
vt 0.060338 0.062159
vt 0.047907 0.100029
vt 0.972228 0.188440
vt 0.982440 0.202790
vt 0.973384 0.232343
vt 0.953325 0.216082
vt 0.001992 0.139271
vt 0.011930 0.100829
vt 0.034589 0.125942
vt 0.024608 0.164205
vt 0.115623 0.549250
vt 0.153379 0.552273
vt 0.096370 0.550628
vt 0.047096 0.571836
vt 0.069831 0.522075
vt 0.799566 0.511305
vt 0.804420 0.525543
vt 0.159258 0.465228
vt 0.194945 0.473161
vt 0.152499 0.448579
vt 0.124310 0.423745
vt 0.850058 0.446554
vt 0.866289 0.446509
vt 0.293599 0.720967
vt 0.314413 0.751356
vt 0.289324 0.768980
vt 0.268273 0.738380
vt 0.325072 0.759968
vt 0.321486 0.773729
vt 0.361773 0.759899
vt 0.361745 0.773623
vt 0.842744 0.415551
vt 0.867340 0.432734
vt 0.248129 0.776550
vt 0.259428 0.838586
vt 0.363844 0.805839
vt 0.892609 0.382976
vt 0.894524 0.413551
vt 0.189525 0.867006
vt 0.221539 0.839955
vt 0.271324 0.844730
vt 0.239435 0.871698
vt 0.988863 0.248247
vt 0.973004 0.252874
vt 0.227930 0.921494
vt 0.216898 0.881160
vt 0.240519 0.891304
vt 0.251478 0.931675
vt 0.903045 0.862034
vt 0.894722 0.819679
vt 0.942389 0.810484
vt 0.980718 0.287504
vt 0.964626 0.291780
vt 0.971090 0.924354
vt 0.933513 0.913823
vt 0.897702 0.881578
vt 0.691563 0.846243
vt 0.722388 0.852100
vt 0.735786 0.941137
vt 0.704964 0.935262
vt 0.750879 0.859658
vt 0.763625 0.945088
vt 0.783729 0.836238
vt 0.796480 0.921678
vt 0.652648 0.369353
vt 0.671879 0.383217
vt 0.403785 0.781970
vt 0.430945 0.797625
vt 0.398597 0.855573
vt 0.371196 0.839776
vt 0.458406 0.803574
vt 0.406267 0.888455
vt 0.493330 0.823703
vt 0.439712 0.907735
vt 0.671482 0.316216
vt 0.695988 0.302740
vt 0.671855 0.781612
vt 0.652057 0.805679
vt 0.610214 0.786909
vt 0.627752 0.762983
vt 0.656486 0.842422
vt 0.601295 0.819571
vt 0.654658 0.882282
vt 0.601739 0.861673
vt 0.634482 0.298055
vt 0.655699 0.280790
vt 0.566296 0.771883
vt 0.582463 0.745770
vt 0.558728 0.809742
vt 0.561875 0.846846
vt 0.609342 0.264301
vt 0.637540 0.249739
vt 0.538101 0.817177
vt 0.552196 0.846228
vt 0.476246 0.859218
vt 0.538736 0.884622
vt 0.574620 0.900151
vt 0.556960 0.925157
vt 0.639467 0.208636
vt 0.656095 0.232348
s 0
usemtl Mastic_2_2_1
f 14/1/1 13/2/1 28/3/2 29/4/3
f 2/5/4 1/6/4 5/7/4 6/8/4
f 1/9/5 25/10/6 26/11/7 5/12/5
f 3/13/8 4/14/8 8/15/8 7/16/8
f 31/17/9 32/18/10 2/19/11 6/20/11
f 6/8/12 5/7/12 9/21/12 10/22/12
f 5/12/13 26/11/14 27/23/15 9/24/13
f 7/16/16 8/15/16 12/25/16 11/26/16
f 30/27/17 31/17/18 6/20/19 10/28/19
f 10/22/20 9/21/20 13/2/20 14/1/20
f 9/24/21 27/23/22 28/29/23 13/30/21
f 11/26/24 12/25/24 16/31/24 15/32/24
f 29/33/25 30/27/26 10/28/27 14/34/27
f 18/35/28 17/36/28 3/37/28 7/38/28
f 19/39/29 18/35/29 7/38/29 11/40/29
f 20/41/30 19/39/30 11/40/30 15/42/30
f 21/43/31 20/44/31 15/32/31 16/31/31
f 12/45/32 22/46/32 21/47/32 16/48/32
f 8/49/33 23/50/33 22/46/33 12/45/33
f 4/51/34 24/52/34 23/50/34 8/49/34
f 26/11/35 25/10/36 17/36/37 18/35/37
f 27/23/38 26/11/39 18/35/40 19/39/40
f 28/29/41 27/23/42 19/39/43 20/41/43
f 29/53/44 28/54/45 20/44/46 21/43/46
f 21/47/47 22/46/47 30/27/48 29/33/49
f 22/46/50 23/50/50 31/17/51 30/27/52
f 23/50/53 24/52/53 32/18/54 31/17/55
f 3/55/56 17/56/56 24/57/56 4/58/56
f 17/56/57 25/59/57 32/60/57 24/57/57
f 2/61/58 32/60/58 25/59/58 1/62/58
f 33/63/59 34/64/59 36/65/59 35/66/59
f 41/67/60 42/68/60 114/69/61 115/70/62
f 37/71/63 38/72/63 40/73/63 39/74/63
f 98/75/64 99/76/65 34/77/66 33/78/66
f 90/79/67 105/80/68 106/81/69 92/82/67
f 97/83/70 98/75/71 33/78/72 35/84/72
f 35/66/73 36/65/73 48/85/74 45/86/75
f 92/82/76 106/81/77 107/87/78 94/88/79
f 38/72/80 37/71/80 46/89/81 47/90/82
f 116/91/83 97/83/84 35/84/85 45/92/86
f 115/70/87 116/91/88 45/92/89 41/67/90
f 47/90/91 46/89/92 44/93/93 43/94/93
f 94/88/94 107/87/95 108/95/96 96/96/97
f 45/86/98 48/85/99 42/97/100 41/98/100
f 34/77/101 99/76/102 100/99/103 50/100/101
f 40/73/104 38/72/104 51/101/104 49/102/104
f 36/65/105 34/64/105 50/103/105 52/104/105
f 38/72/106 47/90/106 53/105/106 51/101/106
f 48/85/107 36/65/107 52/104/107 54/106/107
f 47/90/108 43/94/108 55/107/108 53/105/108
f 113/108/109 114/69/110 42/68/111 56/109/111
f 42/97/112 48/85/112 54/106/112 56/110/112
f 50/111/113 100/112/114 101/113/115 58/114/113
f 49/102/116 51/101/116 59/115/116 57/116/116
f 52/104/117 50/103/117 58/117/117 60/118/117
f 51/101/118 53/105/118 61/119/118 59/115/118
f 54/106/119 52/104/119 60/118/119 62/120/119
f 53/105/120 55/107/120 63/121/120 61/119/120
f 112/122/121 113/123/122 56/124/123 64/125/123
f 56/110/124 54/106/124 62/120/124 64/126/124
f 58/114/125 101/113/126 102/127/127 66/128/125
f 57/116/128 59/115/128 67/129/128 65/130/128
f 60/118/129 58/117/129 66/131/129 68/132/129
f 59/115/130 61/119/130 69/133/130 67/129/130
f 62/120/131 60/118/131 68/132/131 70/134/131
f 61/119/132 63/121/132 71/135/132 69/133/132
f 111/136/133 112/122/134 64/125/135 72/137/135
f 64/126/136 62/120/136 70/134/136 72/138/136
f 66/128/137 102/127/138 103/139/139 74/140/137
f 65/130/140 67/129/140 75/141/140 73/142/140
f 68/132/141 66/131/141 74/143/141 76/144/141
f 67/129/142 69/133/142 77/145/143 75/141/144
f 70/134/145 68/132/145 76/144/146 78/146/147
f 69/133/148 71/135/148 79/147/148 77/145/148
f 110/148/149 111/136/150 72/137/151 80/149/151
f 72/138/152 70/134/152 78/146/152 80/150/152
f 74/140/153 103/139/154 104/151/155 82/152/153
f 73/142/156 75/141/156 83/153/156 81/154/156
f 76/144/157 74/143/157 82/155/157 84/156/157
f 75/141/158 77/145/159 85/157/160 83/153/161
f 78/146/162 76/144/163 84/156/164 86/158/165
f 77/145/166 79/147/166 87/159/166 85/157/166
f 109/160/167 110/148/168 80/149/169 88/161/169
f 80/150/170 78/146/170 86/158/170 88/162/170
f 82/152/171 104/151/172 105/163/173 90/164/171
f 81/154/174 83/153/174 91/165/174 89/166/174
f 84/156/175 82/155/175 90/167/175 92/168/175
f 83/153/176 85/157/177 93/169/178 91/165/178
f 86/158/179 84/156/180 92/168/181 94/170/181
f 85/157/182 87/159/182 95/171/182 93/169/182
f 108/172/183 109/160/184 88/161/185 96/173/185
f 88/162/186 86/158/186 94/170/186 96/174/186
f 39/175/187 98/75/188 97/83/189 37/176/187
f 39/175/190 40/177/190 99/76/191 98/75/192
f 100/99/193 99/76/194 40/177/195 49/178/195
f 101/113/196 100/112/197 49/179/198 57/180/198
f 102/127/199 101/113/200 57/180/201 65/181/201
f 103/139/202 102/127/203 65/181/204 73/182/204
f 104/151/205 103/139/206 73/182/207 81/183/207
f 105/163/208 104/151/209 81/183/210 89/184/210
f 106/81/211 105/80/212 89/185/213 91/186/213
f 107/87/214 106/81/215 91/186/216 93/187/217
f 108/95/218 107/87/219 93/187/220 95/188/221
f 87/189/222 109/160/223 108/172/224 95/190/222
f 79/191/225 110/148/226 109/160/227 87/189/225
f 71/192/228 111/136/229 110/148/230 79/191/228
f 63/193/231 112/122/232 111/136/233 71/192/231
f 55/194/234 113/123/235 112/122/236 63/193/234
f 43/195/237 114/69/238 113/108/239 55/196/237
f 115/70/240 114/69/241 43/195/242 44/197/242
f 46/198/243 116/91/244 115/70/245 44/197/246
f 37/176/247 97/83/248 116/91/249 46/198/250
f 117/199/251 118/200/251 172/201/252 159/202/253
f 119/203/254 120/204/254 122/205/254 121/206/254
f 160/207/255 161/208/256 124/209/257 123/210/257
f 123/211/258 124/212/258 118/213/258 117/214/258
f 138/215/259 137/216/259 166/217/260 167/218/261
f 123/211/262 117/214/262 159/219/263 160/220/264
f 118/213/265 124/212/265 153/221/266 154/222/267
f 124/209/268 161/208/269 162/223/270 153/224/271
f 122/205/272 120/204/272 156/225/272 157/226/273
f 154/227/274 171/228/275 172/201/276 118/200/277
f 126/229/278 125/230/278 129/231/278 130/232/278
f 125/233/279 163/234/280 164/235/281 129/236/279
f 127/237/282 128/238/282 132/239/282 131/240/282
f 169/241/283 170/242/284 126/243/285 130/244/285
f 130/245/286 129/246/286 133/247/286 134/248/286
f 129/236/287 164/235/288 165/249/289 133/250/287
f 131/240/290 132/239/290 136/251/290 135/252/290
f 168/253/291 169/241/292 130/244/293 134/254/293
f 134/248/294 133/247/294 137/216/294 138/215/294
f 133/250/295 165/249/296 166/255/297 137/256/295
f 135/252/298 136/251/298 140/257/298 139/258/298
f 167/259/299 168/253/300 134/254/301 138/260/301
f 142/261/302 141/262/302 119/203/302 121/206/302
f 121/263/303 122/264/303 143/265/303 142/266/303
f 157/267/304 158/268/305 143/265/306 122/264/306
f 145/269/307 144/270/307 127/271/307 131/272/307
f 146/273/308 145/269/308 131/272/308 135/274/308
f 147/275/309 146/273/309 135/274/309 139/276/309
f 148/277/310 147/278/310 139/279/310 140/280/310
f 136/281/311 149/282/311 148/283/311 140/284/311
f 132/285/312 150/286/312 149/282/312 136/281/312
f 128/287/313 151/288/313 150/286/313 132/285/313
f 120/289/314 152/290/314 155/291/315 156/292/316
f 141/293/317 152/290/317 120/289/317 119/294/317
f 154/222/318 153/221/319 125/230/320 126/229/320
f 170/242/321 171/228/322 154/227/323 126/243/324
f 156/292/325 155/291/326 151/288/327 128/287/327
f 157/226/328 156/225/329 128/295/329 127/296/329
f 144/270/330 158/268/331 157/267/332 127/271/330
f 153/224/333 162/223/334 163/234/335 125/233/336
f 160/220/337 159/219/338 141/297/339 142/298/339
f 142/266/340 143/265/340 161/208/341 160/207/342
f 162/223/343 161/208/344 143/265/345 158/268/346
f 163/234/347 162/223/348 158/268/349 144/270/350
f 164/235/351 163/234/352 144/270/353 145/269/353
f 165/249/354 164/235/355 145/269/356 146/273/356
f 166/255/357 165/249/358 146/273/359 147/275/359
f 167/218/360 166/217/361 147/278/362 148/277/362
f 148/283/363 149/282/363 168/253/364 167/259/365
f 149/282/366 150/286/366 169/241/367 168/253/368
f 150/286/369 151/288/369 170/242/370 169/241/371
f 151/288/372 155/291/373 171/228/374 170/242/375
f 172/201/376 171/228/377 155/291/378 152/290/379
f 159/202/380 172/201/381 152/290/382 141/293/382
usemtl mastic_1_2_1
f 173/299/383 174/300/383 214/301/383 209/302/383
f 197/303/384 198/304/384 199/305/384 200/306/384
f 210/307/385 211/308/385 180/309/386 179/310/386
f 205/311/387 206/312/387 207/313/387 208/314/387
f 222/315/388 221/316/388 223/317/388 224/318/388
f 179/310/389 173/319/389 209/320/389 210/307/389
f 174/321/390 180/322/390 181/323/390 182/324/390
f 180/322/391 211/325/391 212/326/391 181/323/391
f 178/327/392 176/328/392 184/329/392 183/330/392
f 213/331/393 214/332/393 174/333/393 182/334/393
f 175/335/394 176/336/394 186/337/394 185/338/394
f 176/339/395 178/340/395 187/341/395 186/342/395
f 178/340/396 177/343/397 188/344/396 187/341/396
f 177/343/398 175/345/398 185/346/398 188/344/398
f 185/338/399 186/337/399 190/347/399 189/348/399
f 186/349/400 187/350/400 191/351/400 190/352/400
f 187/350/401 188/353/401 192/354/401 191/351/401
f 188/353/402 185/355/402 189/356/402 192/354/402
f 189/348/403 190/347/403 194/357/403 193/358/404
f 190/352/405 191/351/405 195/359/405 194/360/405
f 191/351/406 192/354/407 196/361/407 195/359/406
f 192/354/408 189/356/408 193/362/408 196/361/408
f 193/358/393 194/357/393 198/363/393 197/364/393
f 194/360/409 195/359/409 199/305/409 198/365/409
f 195/359/391 196/361/391 200/306/391 199/305/391
f 196/361/410 193/362/410 197/366/410 200/306/410
f 179/367/411 180/368/412 202/369/412 201/370/412
f 180/368/413 174/371/413 203/372/413 202/369/413
f 174/300/414 173/299/415 204/373/414 203/374/415
f 173/375/416 179/367/416 201/370/416 204/376/416
f 201/370/417 202/369/417 206/312/417 205/311/417
f 202/369/418 203/372/418 207/377/418 206/312/418
f 203/374/419 204/373/419 208/378/419 207/379/419
f 204/376/420 201/370/420 205/311/420 208/380/420
f 241/381/389 242/382/389 175/345/389 177/343/389
f 177/343/421 178/340/421 256/383/421 241/381/421
f 255/384/422 256/385/422 178/327/423 183/330/422
f 289/386/424 290/387/424 291/388/424 292/389/424
f 176/390/425 243/391/426 244/392/426 184/393/426
f 242/394/427 243/395/428 176/336/428 175/335/428
f 182/324/429 181/323/429 215/396/429 216/397/429
f 181/323/430 212/326/430 217/398/430 215/396/431
f 213/331/432 182/334/433 216/399/432 218/400/433
f 254/401/434 255/384/435 183/330/435 219/402/435
f 183/330/436 184/329/436 220/403/436 219/402/436
f 184/393/437 244/392/437 245/404/438 220/405/439
f 216/397/440 215/396/440 221/316/440 222/406/440
f 215/396/441 217/398/442 223/317/442 221/316/441
f 217/398/443 218/407/443 224/408/443 223/317/443
f 218/400/444 216/399/445 222/409/446 224/410/444
f 218/411/447 217/412/447 225/413/447 226/414/447
f 253/415/448 254/416/448 219/417/448 227/418/448
f 219/417/449 220/419/449 228/420/450 227/418/451
f 220/405/452 245/404/452 246/421/452 228/422/452
f 226/414/453 225/413/453 229/423/453 230/424/453
f 252/425/454 253/415/455 227/418/456 231/426/454
f 227/418/457 228/420/458 232/427/459 231/426/459
f 228/422/460 246/421/461 247/428/461 232/429/461
f 230/424/462 229/423/462 233/430/462 234/431/462
f 251/432/463 252/425/463 231/426/463 235/433/463
f 231/426/464 232/427/464 236/434/464 235/433/464
f 232/429/465 247/428/465 248/435/465 236/436/465
f 234/431/466 233/430/466 237/437/466 238/438/466
f 250/439/467 251/432/467 235/433/467 239/440/467
f 235/433/468 236/434/468 240/441/468 239/440/468
f 236/436/469 248/435/470 249/442/469 240/443/469
f 210/307/389 209/320/389 242/382/389 241/381/389
f 209/302/471 214/301/471 243/395/471 242/394/471
f 244/392/472 243/391/472 214/332/472 213/331/472
f 245/404/473 244/392/474 213/331/473 218/400/473
f 246/421/475 245/404/476 218/400/475 226/444/475
f 247/428/477 246/421/478 226/444/477 230/445/478
f 248/435/479 247/428/479 230/445/479 234/446/479
f 249/442/480 248/435/480 234/446/481 238/447/482
f 318/448/483 317/449/483 319/450/483 320/451/483
f 233/430/484 251/432/485 250/439/486 237/437/487
f 229/423/488 252/425/489 251/432/490 233/430/491
f 225/413/492 253/415/492 252/425/493 229/423/493
f 217/412/494 254/416/495 253/415/495 225/413/495
f 212/326/496 255/384/496 254/401/496 217/398/496
f 212/326/497 211/325/497 256/385/497 255/384/497
f 241/381/498 256/383/498 211/308/498 210/307/498
f 238/452/499 237/453/499 261/454/499 262/455/499
f 237/453/500 250/456/500 264/457/500 261/454/500
f 250/456/501 249/458/501 263/459/501 264/457/501
f 249/460/502 238/461/503 262/462/504 263/463/502
f 262/455/499 261/454/499 257/464/499 258/465/499
f 263/463/505 262/462/506 258/466/505 260/467/507
f 264/457/508 263/459/508 260/468/508 259/469/508
f 261/454/509 264/457/509 259/469/509 257/464/509
f 249/470/510 250/471/510 266/472/510 265/473/510
f 250/471/511 239/474/511 267/475/511 266/472/511
f 239/474/512 240/476/512 268/477/512 267/475/512
f 240/478/513 249/479/513 265/480/514 268/481/514
f 265/473/515 266/472/515 270/482/515 269/483/515
f 266/472/516 267/475/517 271/484/518 270/482/517
f 298/485/519 297/486/519 299/487/519 300/488/519
f 268/481/520 265/480/521 269/489/521 272/490/520
f 267/491/522 268/492/522 273/493/522 274/494/522
f 268/495/523 272/496/523 275/497/524 273/498/525
f 272/499/526 271/500/526 276/501/526 275/502/526
f 271/500/527 267/491/528 274/494/527 276/501/528
f 269/483/529 270/482/529 278/503/529 277/504/529
f 270/482/530 271/484/530 279/505/530 278/503/530
f 271/484/531 272/506/531 280/507/531 279/505/531
f 272/490/532 269/489/532 277/508/532 280/509/532
f 277/504/533 278/503/533 282/510/533 281/511/533
f 278/503/534 279/505/534 283/512/535 282/510/535
f 279/505/536 280/507/536 284/513/536 283/512/536
f 280/509/537 277/508/538 281/514/538 284/515/537
f 281/516/539 282/517/539 286/518/539 285/519/539
f 282/517/391 283/520/391 287/521/391 286/518/391
f 283/520/540 284/522/540 288/523/540 287/521/540
f 284/515/393 281/514/393 285/524/393 288/525/393
f 285/526/541 286/518/541 290/387/541 289/527/541
f 286/518/391 287/521/391 291/388/391 290/387/391
f 287/521/542 288/523/542 292/528/542 291/388/542
f 288/525/393 285/524/393 289/529/393 292/530/393
f 274/531/543 273/532/543 293/533/543 294/534/543
f 273/498/544 275/497/544 295/535/544 293/536/544
f 275/537/545 276/538/545 296/539/545 295/540/545
f 276/538/546 274/531/546 294/534/546 296/539/546
f 294/541/410 293/542/410 297/543/410 298/485/410
f 293/536/393 295/535/393 299/544/393 297/545/393
f 295/546/547 296/547/547 300/488/547 299/487/547
f 296/548/391 294/541/391 298/485/391 300/488/391
f 258/549/548 257/550/548 301/551/548 302/552/548
f 257/550/549 259/553/549 303/554/549 301/551/549
f 259/553/550 260/555/550 304/556/550 303/554/550
f 260/467/551 258/466/552 302/557/553 304/558/552
f 302/559/554 301/560/554 305/561/554 306/562/554
f 301/560/555 303/563/555 307/564/555 305/561/556
f 303/563/557 304/565/557 308/566/557 307/564/557
f 304/558/558 302/557/558 306/567/558 308/568/558
f 306/569/559 305/570/559 309/571/559 310/572/559
f 305/570/560 307/573/561 311/574/560 309/571/561
f 307/573/562 308/575/562 312/576/562 311/574/562
f 308/568/563 306/567/563 310/577/563 312/578/563
f 310/572/564 309/571/564 313/579/564 314/580/564
f 309/571/565 311/574/566 315/581/565 313/579/566
f 311/574/567 312/576/567 316/582/567 315/581/567
f 312/578/568 310/577/568 314/583/568 316/584/568
f 314/585/569 313/586/569 317/449/569 318/587/569
f 313/586/570 315/588/571 319/450/570 317/449/572
f 315/588/573 316/589/573 320/590/573 319/450/573
f 316/584/574 314/583/574 318/591/574 320/592/574
