# Blender 4.5.2 LTS
# www.blender.org
mtllib Olive1.mtl
o Olive1
v 0.340756 -3.240014 -2.101385
v 0.324745 -3.356550 -1.963873
v 0.372932 -2.795611 -1.812175
v -0.234260 -3.330456 -1.317433
v 1.363774 -2.795611 -1.677153
v 0.756582 -3.330456 -1.182411
v 1.331598 -3.240014 -1.966364
v 1.315588 -3.356550 -1.828851
v 0.062301 -2.624491 -1.355266
v -0.516482 -3.337085 -0.856653
v 0.474360 -3.337085 -0.721632
v 1.053143 -2.624491 -1.220245
v 0.050799 -2.413045 -1.028342
v -0.630387 -3.337085 -0.075461
v 0.360454 -3.337085 0.059561
v 0.706776 -2.413045 -0.938952
v -0.331644 -2.195170 0.438173
v -0.832319 -2.704145 1.102303
v -0.138609 -2.704145 1.237192
v 0.367465 -2.195170 0.533440
v -1.402714 -3.378093 1.507170
v -0.411871 -3.378092 1.642191
v -0.382672 -2.940021 1.480364
v -1.076900 -2.940021 1.349274
v -0.060864 -1.229068 -1.226514
v 0.595113 -1.229068 -1.137125
v -0.385276 -1.111564 0.831748
v 0.313833 -1.111564 0.927015
v -0.034015 -0.498867 -1.553689
v 0.621962 -0.498867 -1.464300
v -0.351089 -0.381363 0.580869
v 0.348020 -0.381363 0.676136
v -0.794096 -2.282233 -0.231682
v -0.816517 -1.158518 -0.067153
v -0.778303 -0.263251 -0.347571
v 0.754812 -0.263251 -0.138655
v 0.716600 -1.158518 0.141764
v 0.739020 -2.282233 -0.022765
v 0.363853 -2.957066 0.755271
v -0.399142 -3.080220 1.477278
v -1.278104 -3.080220 1.352273
v -1.169392 -2.957066 0.604999
v 0.181684 1.216586 -0.223053
v 1.172526 1.216586 -0.088032
v 0.333607 1.098472 0.842676
v 1.032716 1.098472 0.937943
v -0.212121 -0.043358 -1.778654
v 0.443856 -0.043357 -1.689264
v -0.474775 0.031260 -0.880022
v 0.516068 0.031260 -0.745001
v -0.373975 0.416964 -2.251553
v 0.282002 0.416964 -2.162164
v -0.789479 0.793215 -1.705424
v 0.201364 0.793215 -1.570403
v 0.340995 -3.299825 -2.029655
v 0.143742 -3.070117 -1.547016
v -0.249637 -2.990226 -1.101384
v -0.528081 -2.887303 -0.570523
v -0.905203 -2.628587 0.166480
v -0.503179 -2.456398 0.770482
v 0.198041 -2.456398 0.850257
v 0.627913 -2.628587 0.375397
v 0.462762 -2.887303 -0.435502
v 0.741206 -2.990226 -0.966362
v 1.134585 -3.070117 -1.411995
v 1.331838 -3.299825 -1.894634
v -0.733641 -2.347063 -0.675323
v -0.732819 -1.193481 -0.681352
v -0.691609 -0.380020 -0.983767
v -0.497005 -0.005720 -1.346146
v -0.749515 0.606748 -1.998697
v 0.241328 0.606748 -1.863676
v 0.493838 -0.005720 -1.211125
v 0.841506 -0.380020 -0.774851
v 0.800297 -1.193481 -0.472436
v 0.799475 -2.347063 -0.466406
v 0.680187 -2.756805 -0.008203
v 0.542507 -3.145401 0.423008
v -0.423602 -3.271837 1.656774
v -1.414445 -3.271837 1.521752
v -0.989720 -3.145401 0.226972
v -0.852929 -2.756805 -0.217120
v -0.032375 -0.186758 -3.665132
v -0.033507 -0.316912 -2.306339
v 0.031849 0.905568 -4.389998
v 0.175161 1.696606 -4.299363
v 1.214812 0.905568 -4.228796
v 1.048136 1.696606 -4.180403
v 1.124568 -0.186758 -3.507477
v 0.912498 -0.316912 -2.177427
v 0.600530 0.309742 -1.283119
v -1.315361 0.309742 -1.538672
v 0.462503 2.192846 -2.796173
v -0.247772 2.192846 -2.892962
v 0.473588 0.438633 -0.849293
v -1.566643 0.438633 -1.080853
v 0.432030 3.561866 -1.725654
v -0.336132 3.561866 -1.830332
v 0.562907 0.345798 -0.444120
v -1.659349 0.345798 -0.609912
v 0.272374 3.652409 0.228979
v -0.557060 3.652409 0.115953
v 1.194770 0.163937 0.349061
v -1.521305 0.163937 0.272195
v 0.567133 3.126356 0.981245
v -0.710469 3.126356 0.807147
v 1.076100 -0.317513 1.278068
v -0.500659 -0.317513 1.300305
v 0.351810 3.256071 1.877696
v -0.616872 3.256071 1.745693
v 1.046264 -0.317511 1.998980
v -0.413696 -0.317511 1.971272
v 0.319880 2.769489 2.868788
v -0.766279 2.769489 2.720778
v 0.699801 -0.317512 2.678072
v -0.617909 -0.317512 2.600622
v 0.403736 2.405643 3.161011
v -0.842213 2.405643 2.991226
v 0.673186 0.353118 3.154766
v -0.782439 0.353118 2.980615
v 0.156041 2.268722 3.620774
v -0.926638 2.268722 3.473238
v 0.146421 0.249457 3.670165
v -0.920117 0.249457 3.524829
v -0.079766 2.114497 4.278066
v -0.996956 2.114497 4.153080
v 1.105139 0.687686 -4.124520
v 0.100847 0.687686 -4.261374
v -0.272223 -0.151062 -3.911104
v 1.395860 -0.151062 -3.683796
v 1.500675 -0.117342 -3.034574
v 1.280586 0.473605 -1.979385
v 1.139787 1.328946 -1.241050
v 1.501601 1.281379 0.098283
v 2.203269 0.838728 0.602705
v 2.353998 0.674967 1.281176
v 2.209688 0.541745 2.094978
v 1.578398 0.291771 2.981496
v 1.253145 0.741295 3.397413
v 0.190596 0.444800 4.162057
v -1.223313 0.444800 3.969385
v -1.535090 0.741295 3.018311
v -1.347644 0.291770 2.622447
v -1.291613 0.541745 1.832291
v -1.815164 0.674968 1.006298
v -2.602236 0.838728 0.241113
v -2.830101 1.281379 -0.332273
v -2.296097 1.305292 -1.661535
v -1.352051 0.473605 -2.338132
v -0.531205 -0.117342 -3.311457
v -0.062608 0.428757 -4.137650
v 1.233274 0.428757 -3.961061
v 1.610003 0.725021 -3.396669
v 1.244912 1.506356 -3.408100
v 1.197770 1.267563 -2.251189
v 0.817329 2.080108 -2.218155
v 1.069755 2.235668 -1.152238
v 0.570562 2.949403 -0.871250
v 1.458171 2.253021 0.063919
v 1.171592 2.950254 0.626604
v 2.350112 1.880231 0.844161
v 1.654306 2.578165 0.950927
v 2.498881 1.895312 1.532176
v 1.539714 2.861367 1.540469
v 2.355724 1.625384 2.374861
v 1.409725 2.588440 2.396804
v 1.769161 1.243096 3.091135
v 1.340966 1.992518 3.142314
v 1.324716 1.450885 3.472926
v 0.775762 2.204574 3.540369
v 0.068362 1.083373 4.396976
v -0.093119 1.746831 4.536299
v -1.053185 1.746831 4.405472
v -1.171500 1.083373 4.228022
v -1.295084 2.204574 3.258176
v -1.546094 1.450885 3.081723
v -1.285516 1.992518 2.784406
v -1.556574 1.243095 2.667447
v -1.215127 2.590619 2.039638
v -1.527459 1.625383 1.947338
v -1.301041 2.861367 1.153361
v -1.952606 1.895313 1.043195
v -1.761688 2.578165 0.506217
v -2.541566 1.880231 0.331717
v -1.643908 2.950254 0.242939
v -2.691226 2.253021 -0.476037
v -1.493901 2.949402 -1.152573
v -2.317116 2.235668 -1.613766
v -1.213757 2.080109 -2.494929
v -1.552906 1.267562 -2.626022
v -0.429819 1.506356 -3.636314
v -0.706562 0.725021 -3.712345
vn -0.8948 0.2234 -0.3865
vn -0.0751 0.7957 0.6010
vn 0.8948 -0.2234 0.3865
vn 0.0870 -0.7650 -0.6382
vn -0.0049 -0.9993 0.0361
vn 0.1140 0.5361 -0.8364
vn -0.7633 0.1326 -0.6323
vn 0.0018 -0.9999 -0.0133
vn -0.0048 -0.9999 -0.0142
vn 0.0015 -0.9998 -0.0200
vn 0.7633 -0.1326 0.6323
vn 0.0441 0.9451 -0.3239
vn -0.7770 0.4590 -0.4308
vn 0.0062 -1.0000 -0.0027
vn -0.0010 -1.0000 0.0066
vn -0.0000 -1.0000 -0.0000
vn 0.7959 0.0187 0.6051
vn 0.0736 0.8386 -0.5398
vn -0.5461 -0.3550 -0.7588
vn -0.1335 -0.1492 0.9798
vn 0.8317 -0.5282 -0.1713
vn 0.0720 0.8461 -0.5282
vn 0.0033 -0.9997 -0.0243
vn 0.5891 -0.7422 0.3195
vn -0.1196 0.7722 0.6240
vn -0.7489 -0.5661 -0.3445
vn 0.1335 -0.1513 -0.9794
vn -0.5273 -0.0987 -0.8439
vn -0.1268 -0.3442 0.9303
vn 0.9666 0.0235 -0.2553
vn 0.1232 -0.4095 -0.9039
vn 0.1228 -0.4143 -0.9018
vn 0.1188 -0.4071 -0.9056
vn -0.6373 -0.2668 -0.7230
vn -0.1276 0.3276 0.9362
vn 0.9475 -0.1557 -0.2794
vn -0.8525 -0.1555 0.4990
vn -0.8879 0.1782 0.4241
vn -0.0153 0.9936 0.1123
vn 0.8851 0.1085 0.4526
vn 0.8576 -0.0981 0.5048
vn 0.7912 0.2766 0.5455
vn 0.6962 -0.0244 0.7174
vn -0.1594 0.1235 0.9795
vn -0.6239 0.7792 0.0597
vn -0.6623 0.6817 0.3107
vn 0.1350 -0.0042 -0.9908
vn -0.8503 0.4336 0.2983
vn -0.1342 -0.1121 0.9846
vn 0.9057 -0.3608 0.2226
vn 0.1249 -0.3954 -0.9100
vn 0.1289 -0.4003 -0.9073
vn 0.1237 -0.4001 -0.9081
vn -0.6968 -0.4051 -0.5919
vn -0.0621 0.8879 0.4557
vn 0.8957 0.3639 -0.2555
vn 0.0969 -0.6964 -0.7111
vn -0.6378 -0.6610 -0.3953
vn -0.0946 0.7132 0.6945
vn 0.9574 0.2737 -0.0916
vn -0.7295 0.3732 -0.5732
vn -0.7423 0.3350 -0.5803
vn -0.9417 0.1630 -0.2944
vn -0.7241 -0.4126 -0.5527
vn -0.6145 0.7811 0.1109
vn -0.0793 0.8535 0.5150
vn 0.7369 0.1177 0.6657
vn 0.8419 -0.4902 -0.2256
vn 0.9417 -0.1630 0.2944
vn 0.7423 -0.3350 0.5803
vn 0.7295 -0.3732 0.5732
vn -0.9908 -0.0000 -0.1350
vn -0.8657 0.4863 -0.1185
vn -0.9465 -0.3148 0.0705
vn 0.9465 0.3148 -0.0705
vn 0.7821 0.6218 -0.0410
vn 0.9908 -0.0000 0.1350
vn 0.9801 -0.1166 0.1608
vn 0.9279 -0.1208 0.3528
vn 0.7464 0.0358 0.6645
vn -0.0994 0.6924 0.7146
vn -0.9680 0.0266 -0.2496
vn -0.9362 0.1142 -0.3325
vn -0.9801 0.1166 -0.1608
vn -0.1882 -0.9794 -0.0732
vn 0.1345 0.0887 -0.9869
vn 0.2241 -0.9739 -0.0353
vn 0.0130 -0.9954 -0.0953
vn -0.0508 -0.9266 0.3725
vn 0.0225 -0.9860 -0.1650
vn -0.0744 -0.8292 0.5540
vn 0.7357 -0.4658 0.4917
vn 0.0437 0.9462 -0.3207
vn -0.5137 -0.8577 -0.0206
vn -0.0326 -0.9638 0.2648
vn 0.7460 -0.4162 0.5199
vn 0.1066 0.6140 -0.7821
vn -0.6969 -0.7036 -0.1385
vn 0.0193 -0.9781 -0.2072
vn 0.0125 -0.9783 -0.2069
vn 0.0136 -0.9776 -0.2103
vn 0.7386 -0.6293 -0.2417
vn 0.0062 0.9989 -0.0458
vn -0.6397 -0.7198 -0.2694
vn 0.0129 -0.9748 -0.2229
vn 0.0153 -0.9772 -0.2120
vn 0.0107 -0.9762 -0.2168
vn 0.5762 -0.3264 -0.7493
vn -0.0807 0.8017 0.5922
vn -0.5848 -0.7883 -0.1913
vn 0.0056 -0.8962 -0.4435
vn 0.5823 -0.7504 -0.3128
vn 0.0189 0.9901 -0.1387
vn -0.5719 -0.7627 0.3020
vn 0.6043 -0.7967 -0.0006
vn -0.0597 0.8968 0.4384
vn -0.6549 -0.7281 0.2023
vn 0.5435 -0.8128 0.2097
vn -0.1073 0.6074 0.7871
vn -0.6440 -0.7246 -0.2457
vn -0.0758 -0.5444 0.8354
vn 0.1115 -0.5977 0.7940
vn -0.0364 0.9630 0.2672
vn -0.3786 -0.6045 0.7009
vn 0.0226 -0.9837 -0.1783
vn 0.4475 -0.8455 0.2914
vn -0.0297 0.9754 0.2182
vn -0.5326 -0.8311 -0.1604
vn 0.1203 -0.4712 -0.8738
vn 0.1180 -0.4711 -0.8741
vn 0.1187 -0.4766 -0.8711
vn 0.9958 0.0521 -0.0747
vn 0.6218 0.7792 -0.0792
vn 0.9383 0.3008 -0.1709
vn 0.8319 0.5417 -0.1207
vn 0.4489 0.8185 0.3586
vn 0.3522 0.9190 -0.1772
vn 0.3518 0.8545 0.3821
vn 0.3549 0.6889 0.6320
vn 0.2988 0.9328 0.2014
vn 0.3809 0.7548 0.5340
vn -0.1106 0.5739 0.8114
vn -0.6692 0.6834 0.2917
vn -0.4587 0.8812 -0.1144
vn -0.7479 0.5323 0.3966
vn -0.6559 0.7068 0.2652
vn -0.4452 0.8921 -0.0767
vn -0.4581 0.7086 0.5367
vn -0.5253 0.8470 -0.0815
vn -0.5164 0.5860 -0.6245
vn -0.4886 0.6973 -0.5243
vn -0.8371 0.0411 -0.5455
vn -0.5455 0.1935 -0.8154
vn 0.1179 -0.4877 -0.8650
vn 0.1240 -0.4887 -0.8636
vn 0.1116 -0.4887 -0.8653
vn 0.7827 0.2774 -0.5571
vn 0.8996 0.4191 0.1232
vn 0.8099 0.5219 -0.2679
vn 0.7577 0.5895 -0.2802
vn 0.6587 0.6476 -0.3830
vn 0.6909 0.6997 -0.1819
vn 0.6765 0.6630 0.3206
vn 0.6328 0.4819 0.6061
vn 0.6593 0.3772 0.6504
vn 0.6142 0.1964 0.7643
vn -0.1313 -0.2342 0.9633
vn -0.9357 0.1661 0.3113
vn -0.9211 0.3523 -0.1656
vn -0.9425 0.3037 0.1392
vn -0.8495 0.3864 0.3592
vn -0.7179 0.5431 0.4354
vn -0.6710 0.5992 0.4367
vn -0.5487 0.8274 -0.1195
vn -0.4468 0.5984 -0.6651
vn -0.6674 0.3437 -0.6606
vn 0.1238 -0.3996 -0.9083
vn 0.9336 -0.1172 -0.3386
vn 0.9681 0.0768 0.2386
vn 0.9942 0.0949 0.0513
vn 0.9576 0.0660 -0.2804
vn 0.6411 0.0459 -0.7661
vn 0.9721 -0.0772 -0.2215
vn 0.9791 -0.1541 0.1324
vn 0.8163 -0.2360 0.5272
vn 0.6275 -0.1835 0.7567
vn 0.6103 -0.1559 0.7767
vn -0.1258 -0.3636 0.9230
vn -0.9534 -0.0425 0.2986
vn -0.9857 -0.1230 -0.1155
vn -0.9697 -0.2010 -0.1388
vn -0.8801 -0.1718 0.4426
vn -0.7333 -0.0631 0.6770
vn -0.9427 0.1018 0.3178
vn -0.9377 0.0407 -0.3451
vn -0.7821 -0.1836 -0.5955
vn -0.8105 -0.3755 -0.4494
vn -0.7653 -0.2443 -0.5955
vt 0.102162 0.827647
vt 0.096886 0.824416
vt 0.098802 0.787435
vt 0.123933 0.800020
vt 0.080935 0.106315
vt 0.065323 0.123373
vt 0.047081 0.092574
vt 0.062176 0.075836
vt 0.369307 0.762501
vt 0.352128 0.747096
vt 0.379464 0.735778
vt 0.383323 0.738726
vt 0.576675 0.148410
vt 0.575790 0.153065
vt 0.527257 0.138386
vt 0.528137 0.133732
vt 0.948756 0.350554
vt 0.998008 0.363856
vt 0.964988 0.392974
vt 0.916177 0.378750
vt 0.539307 0.109221
vt 0.587846 0.123900
vt 0.087285 0.751790
vt 0.117155 0.763732
vt 0.947092 0.414086
vt 0.898549 0.399438
vt 0.320537 0.748643
vt 0.340175 0.769618
vt 0.535046 0.080202
vt 0.583584 0.094881
vt 0.081183 0.718080
vt 0.122485 0.743095
vt 0.934931 0.452338
vt 0.886531 0.437404
vt 0.288990 0.752939
vt 0.316374 0.778980
vt 0.542333 0.061843
vt 0.574467 0.071561
vt 0.077170 0.691036
vt 0.107889 0.700759
vt 0.029829 0.193497
vt 0.001992 0.151290
vt 0.006790 0.148707
vt 0.034637 0.190913
vt 0.292660 0.784983
vt 0.267834 0.766401
vt 0.056109 0.264544
vt 0.037708 0.257184
vt 0.035446 0.245751
vt 0.057678 0.255936
vt 0.883019 0.524988
vt 0.834664 0.509889
vt 0.259137 0.731691
vt 0.244950 0.750302
vt 0.161439 0.736052
vt 0.163047 0.730310
vt 0.033186 0.117960
vt 0.053442 0.147602
vt 0.043290 0.166333
vt 0.023279 0.136669
vt 0.005247 0.637276
vt 0.048269 0.682074
vt 0.049249 0.705099
vt 0.001992 0.640874
vt 0.038994 0.445068
vt 0.001992 0.432433
vt 0.015667 0.356268
vt 0.055605 0.368758
vt 0.162100 0.677664
vt 0.177725 0.718165
vt 0.084685 0.112077
vt 0.123909 0.118228
vt 0.113160 0.183838
vt 0.076163 0.175458
vt 0.298331 0.842126
vt 0.332674 0.837402
vt 0.030731 0.307933
vt 0.067473 0.319278
vt 0.204928 0.672770
vt 0.216272 0.713660
vt 0.098804 0.226022
vt 0.068537 0.210705
vt 0.315486 0.880155
vt 0.349885 0.873150
vt 0.150996 0.648796
vt 0.100395 0.677971
vt 0.090552 0.637444
vt 0.135052 0.602569
vt 0.196287 0.642877
vt 0.172529 0.598835
vt 0.461232 0.080635
vt 0.436607 0.124964
vt 0.397658 0.086249
vt 0.415034 0.054971
vt 0.224986 0.853301
vt 0.268000 0.846604
vt 0.285639 0.889208
vt 0.240442 0.888047
vt 0.237851 0.797831
vt 0.270716 0.790296
vt 0.218310 0.786290
vt 0.249571 0.774428
vt 0.167706 0.749057
vt 0.224992 0.759104
vt 0.185138 0.772098
vt 0.167420 0.757114
vt 0.042804 0.178737
vt 0.017894 0.141349
vt 0.046301 0.632340
vt 0.043290 0.661891
vt 0.018318 0.637796
vt 0.027436 0.631619
vt 0.071780 0.670163
vt 0.070218 0.633892
vt 0.516471 0.135726
vt 0.478369 0.204316
vt 0.232317 0.545179
vt 0.262697 0.588217
vt 0.092512 0.301038
vt 0.064984 0.285265
vt 0.302130 0.963116
vt 0.251132 0.968584
vt 0.032919 0.280964
vt 0.060543 0.290173
vt 0.232051 0.681649
vt 0.239753 0.706282
vt 0.537013 0.165610
vt 0.512389 0.209938
vt 0.340576 0.900126
vt 0.364327 0.895787
vt 0.277221 0.690195
vt 0.270968 0.712290
vt 0.574779 0.211141
vt 0.550156 0.255469
vt 0.377663 0.928274
vt 0.391080 0.916635
vt 0.091656 0.821756
vt 0.069784 0.768826
vt 0.063166 0.740089
vt 0.302487 0.728176
vt 0.331455 0.730013
vt 0.376041 0.732697
vt 0.574152 0.157233
vt 0.525611 0.142553
vt 0.222821 0.660268
vt 0.277030 0.673842
vt 0.039459 0.238583
vt 0.060699 0.248619
vt 0.317567 0.905012
vt 0.364472 0.939720
vt 0.085856 0.019496
vt 0.180927 0.002629
vt 0.117105 0.049489
vt 0.071257 0.041040
vt 0.170113 0.537864
vt 0.155632 0.492985
vt 0.200503 0.468181
vt 0.230947 0.504262
vt 0.432614 0.400325
vt 0.456280 0.365557
vt 0.516920 0.339220
vt 0.456915 0.403769
vt 0.090934 0.445574
vt 0.127476 0.515307
vt 0.078881 0.542167
vt 0.031489 0.478419
vt 0.730997 0.615136
vt 0.766400 0.655035
vt 0.750742 0.676245
vt 0.703795 0.623288
vt 0.011665 0.475133
vt 0.097368 0.427775
vt 0.149415 0.577627
vt 0.051144 0.632195
vt 0.482056 0.291146
vt 0.543226 0.271285
vt 0.100868 0.421457
vt 0.137274 0.401289
vt 0.194035 0.109223
vt 0.248020 0.093491
vt 0.159043 0.603198
vt 0.055789 0.663138
vt 0.490345 0.208564
vt 0.563048 0.250084
vt 0.054909 0.331908
vt 0.094348 0.310098
vt 0.248431 0.184325
vt 0.281228 0.109059
vt 0.177606 0.619557
vt 0.068065 0.688787
vt 0.563942 0.141897
vt 0.585800 0.234191
vt 0.001913 0.230708
vt 0.044620 0.207139
vt 0.337419 0.206511
vt 0.313692 0.108067
vt 0.854720 0.365417
vt 0.957674 0.456264
vt 0.958201 0.519784
vt 0.827975 0.414891
vt 0.610297 0.002604
vt 0.694055 0.037071
vt 0.687237 0.087654
vt 0.624917 0.066109
vt 0.330866 0.403263
vt 0.380726 0.430736
vt 0.354909 0.485392
vt 0.278848 0.443009
vt 0.434822 0.496187
vt 0.390781 0.530166
vt 0.386574 0.419326
vt 0.451743 0.415732
vt 0.912861 0.566342
vt 0.835865 0.508873
vt 0.686752 0.120186
vt 0.599992 0.125245
vt 0.310328 0.532926
vt 0.254923 0.500883
vt 0.499860 0.462891
vt 0.533657 0.350936
vt 0.883952 0.599677
vt 0.815908 0.544931
vt 0.684442 0.159509
vt 0.602040 0.170856
vt 0.272208 0.594228
vt 0.216248 0.558640
vt 0.566647 0.435093
vt 0.577610 0.349832
vt 0.841578 0.618126
vt 0.785269 0.567774
vt 0.668743 0.218370
vt 0.592976 0.225520
vt 0.256556 0.618343
vt 0.198082 0.577847
vt 0.621835 0.419886
vt 0.618814 0.359475
vt 0.808538 0.651832
vt 0.751923 0.595613
vt 0.695933 0.257198
vt 0.631636 0.278153
vt 0.237108 0.641486
vt 0.193627 0.606915
vt 0.651411 0.447061
vt 0.654275 0.393822
vt 0.703670 0.393515
vt 0.623042 0.357679
vt 0.207806 0.664980
vt 0.183431 0.637122
vt 0.711597 0.424852
vt 0.687263 0.401368
vt 0.233078 0.519572
vt 0.181473 0.548093
vt 0.362478 0.386984
vt 0.343344 0.384738
vt 0.307766 0.337907
vt 0.361724 0.308429
vt 0.340410 0.221741
vt 0.388713 0.207855
vt 0.344503 0.101386
vt 0.418122 0.093177
vt 0.435100 0.001992
vt 0.510983 0.031734
vt 0.885839 0.003528
vt 0.862512 0.064869
vt 0.785620 0.078428
vt 0.816440 0.047650
vt 0.887823 0.123762
vt 0.807167 0.109896
vt 0.879752 0.201667
vt 0.809083 0.161545
vt 0.861956 0.231673
vt 0.786578 0.217078
vt 0.870840 0.282966
vt 0.825033 0.255686
vt 0.860867 0.348872
vt 0.833208 0.379706
vt 0.195094 0.677758
vt 0.169053 0.648532
vt 0.735163 0.523653
vt 0.701237 0.547781
vt 0.681035 0.533577
vt 0.745861 0.499457
vt 0.675985 0.564528
vt 0.649741 0.532632
vt 0.665507 0.591395
vt 0.611314 0.584307
vt 0.620800 0.646322
vt 0.559731 0.621871
vt 0.563515 0.671042
vt 0.501703 0.614515
vt 0.535318 0.722554
vt 0.494222 0.646378
vt 0.227937 0.419737
vt 0.124287 0.341018
vt 0.215241 0.306919
vt 0.290540 0.360085
vt 0.082126 0.232974
vt 0.152072 0.221237
vt 0.001913 0.161260
vt 0.066543 0.163163
vt 0.008204 0.104983
vt 0.022486 0.093449
vt 0.040063 0.077837
vt 0.087925 0.109913
vt 0.002887 0.437980
vt 0.001913 0.418790
vt 0.053543 0.390255
vt 0.069454 0.401173
vt 0.386375 0.390972
vt 0.404215 0.345816
vt 0.432505 0.260105
vt 0.449664 0.151993
vt 0.518961 0.094568
vt 0.755309 0.027042
vt 0.736079 0.090968
vt 0.741166 0.120946
vt 0.737888 0.161316
vt 0.729608 0.213215
vt 0.752191 0.245938
vt 0.770777 0.388460
vt 0.144519 0.662805
vt 0.178408 0.700580
vt 0.730013 0.461562
vt 0.659916 0.490671
vt 0.631219 0.482287
vt 0.584387 0.516650
vt 0.516200 0.550899
vt 0.452150 0.561157
vt 0.404061 0.601974
vt 0.307361 0.265274
vt 0.238548 0.238735
vt 0.172479 0.164800
vt 0.722319 0.695459
vt 0.681167 0.648997
s 0
usemtl Olive1.001
f 1/1/1 55/2/1 56/3/1 3/4/1
f 17/5/2 60/6/2 61/7/2 20/8/2
f 5/9/3 65/10/3 66/11/3 7/12/3
f 7/13/4 66/14/4 55/15/4 1/16/4
f 2/17/5 8/18/5 6/19/5 4/20/5
f 7/13/6 1/16/6 3/21/6 5/22/6
f 3/4/7 56/3/7 57/23/7 9/24/7
f 4/20/8 6/19/8 11/25/9 10/26/10
f 64/27/11 65/10/11 5/9/11 12/28/11
f 5/22/12 3/21/12 9/29/12 12/30/12
f 9/24/13 57/23/13 58/31/13 13/32/13
f 10/26/14 11/25/15 15/33/16 14/34/16
f 63/35/17 64/27/17 12/28/17 16/36/17
f 12/30/18 9/29/18 13/37/18 16/38/18
f 13/32/19 58/31/19 82/39/19 67/40/19
f 21/41/20 22/42/20 79/43/20 80/44/20
f 76/45/21 77/46/21 63/35/21 16/36/21
f 52/47/22 51/48/22 71/49/22 72/50/22
f 14/34/23 15/33/23 22/51/23 21/52/23
f 15/53/24 78/54/24 79/55/24 22/56/24
f 19/57/25 18/58/25 24/59/25 23/60/25
f 80/61/26 81/62/26 14/63/26 21/64/26
f 16/65/27 13/66/27 25/67/27 26/68/27
f 13/32/28 67/40/28 68/69/28 25/70/28
f 17/71/29 20/72/29 28/73/29 27/74/29
f 75/75/30 76/45/30 16/36/30 26/76/30
f 26/68/31 25/67/31 29/77/32 30/78/33
f 25/70/34 68/69/34 69/79/34 29/80/34
f 27/74/35 28/73/35 32/81/35 31/82/35
f 74/83/36 75/75/36 26/76/36 30/84/36
f 34/85/37 33/86/37 17/87/37 27/88/37
f 35/89/38 34/85/38 27/88/38 31/90/38
f 44/91/39 43/92/39 45/93/39 46/94/39
f 28/95/40 37/96/40 36/97/40 32/98/40
f 20/99/41 38/100/41 37/96/41 28/95/41
f 61/101/42 62/102/42 38/100/42 20/99/42
f 40/103/43 39/104/43 19/105/43 23/106/43
f 41/107/44 40/108/44 23/60/44 24/59/44
f 18/109/45 42/110/45 41/111/45 24/112/45
f 33/86/46 59/113/46 60/114/46 17/87/46
f 36/115/47 35/116/47 43/92/47 44/91/47
f 35/89/48 31/90/48 45/117/48 43/118/48
f 31/82/49 32/81/49 46/119/49 45/120/49
f 32/98/50 36/97/50 44/121/50 46/122/50
f 30/78/51 29/77/52 47/123/53 48/124/53
f 29/80/54 69/79/54 70/125/54 47/126/54
f 35/116/55 36/115/55 50/127/55 49/128/55
f 73/129/56 74/83/56 30/84/56 48/130/56
f 48/124/57 47/123/57 51/48/57 52/47/57
f 47/126/58 70/125/58 71/131/58 51/132/58
f 49/128/59 50/127/59 54/133/59 53/134/59
f 72/135/60 73/129/60 48/130/60 52/136/60
f 56/3/61 55/2/61 2/137/61 4/138/61
f 57/23/62 56/3/62 4/138/62 10/139/62
f 58/31/63 57/23/63 10/139/63 14/63/63
f 81/62/64 82/39/64 58/31/64 14/63/64
f 60/114/65 59/113/65 42/110/65 18/109/65
f 61/7/66 60/6/66 18/58/66 19/57/66
f 39/104/67 62/102/67 61/101/67 19/105/67
f 15/53/68 63/35/68 77/46/68 78/54/68
f 11/140/69 64/27/69 63/35/69 15/53/69
f 6/141/70 65/10/70 64/27/70 11/140/70
f 66/11/71 65/10/71 6/141/71 8/142/71
f 55/15/4 66/14/4 8/143/4 2/144/4
f 68/69/72 67/40/72 33/86/72 34/85/72
f 69/79/72 68/69/72 34/85/72 35/89/72
f 70/125/73 69/79/73 35/89/73 49/145/73
f 71/131/74 70/125/74 49/145/74 53/146/74
f 72/50/22 71/49/22 53/147/22 54/148/22
f 50/149/75 73/129/75 72/135/75 54/150/75
f 36/97/76 74/83/76 73/129/76 50/149/76
f 36/97/77 37/96/77 75/75/77 74/83/77
f 37/96/77 38/100/77 76/45/77 75/75/77
f 62/102/78 77/46/78 76/45/78 38/100/78
f 78/54/79 77/46/79 62/102/79 39/104/79
f 79/55/80 78/54/80 39/104/80 40/103/80
f 80/44/81 79/43/81 40/108/81 41/107/81
f 41/111/82 42/110/82 81/62/82 80/61/82
f 59/113/83 82/39/83 81/62/83 42/110/83
f 67/40/84 82/39/84 59/113/84 33/86/84
usemtl Olive1.001
f 83/151/85 84/152/85 150/153/85 129/154/85
f 85/155/86 86/156/86 88/157/86 87/158/86
f 130/159/87 131/160/87 90/161/87 89/162/87
f 89/163/88 90/164/88 84/165/88 83/166/88
f 124/167/89 123/168/89 140/169/89 141/170/89
f 89/163/90 83/166/90 129/171/90 130/172/90
f 84/165/91 90/164/91 91/173/91 92/174/91
f 90/161/92 131/160/92 132/175/92 91/176/92
f 88/157/93 86/156/93 94/177/93 93/178/93
f 149/179/94 150/153/94 84/152/94 92/180/94
f 92/174/95 91/173/95 95/181/95 96/182/95
f 91/176/96 132/175/96 133/183/96 95/184/96
f 93/178/97 94/177/97 98/185/97 97/186/97
f 148/187/98 149/179/98 92/180/98 96/188/98
f 96/182/99 95/181/99 99/189/100 100/190/101
f 95/184/102 133/183/102 134/191/102 99/192/102
f 97/186/103 98/185/103 102/193/103 101/194/103
f 147/195/104 148/187/104 96/188/104 100/196/104
f 100/197/105 99/198/106 103/199/107 104/200/107
f 99/201/108 134/202/108 135/203/108 103/204/108
f 101/205/109 102/206/109 106/207/109 105/208/109
f 146/209/110 147/210/110 100/211/110 104/212/110
f 104/200/111 103/199/111 107/213/111 108/214/111
f 103/204/112 135/203/112 136/215/112 107/216/112
f 105/208/113 106/207/113 110/217/113 109/218/113
f 145/219/114 146/209/114 104/212/114 108/220/114
f 108/214/16 107/213/16 111/221/16 112/222/16
f 107/216/115 136/215/115 137/223/115 111/224/115
f 109/218/116 110/217/116 114/225/116 113/226/116
f 144/227/117 145/219/117 108/220/117 112/228/117
f 112/222/16 111/221/16 115/229/16 116/230/16
f 111/224/118 137/223/118 138/231/118 115/232/118
f 113/226/119 114/225/119 118/233/119 117/234/119
f 143/235/120 144/227/120 112/228/120 116/236/120
f 116/230/121 115/229/121 119/237/121 120/238/121
f 115/232/122 138/231/122 139/239/122 119/240/122
f 117/234/123 118/233/123 122/241/123 121/242/123
f 142/243/124 143/235/124 116/236/124 120/244/124
f 120/238/125 119/237/125 123/168/125 124/167/125
f 119/240/126 139/239/126 140/245/126 123/246/126
f 121/242/127 122/241/127 126/247/127 125/248/127
f 141/249/128 142/243/128 120/244/128 124/250/128
f 127/251/129 128/252/130 85/155/131 87/158/131
f 127/253/132 87/254/132 88/255/132 154/256/132
f 88/255/133 93/257/133 156/258/133 154/256/133
f 93/257/134 97/259/134 158/260/134 156/258/134
f 97/259/135 101/261/135 160/262/135 158/260/135
f 101/263/136 105/264/136 162/265/136 160/266/136
f 105/264/137 109/267/137 164/268/137 162/265/137
f 109/267/138 113/269/138 166/270/138 164/268/138
f 113/269/139 117/271/139 168/272/139 166/270/139
f 117/271/140 121/273/140 170/274/140 168/272/140
f 121/273/141 125/275/141 172/276/141 170/274/141
f 125/248/142 126/247/142 173/277/142 172/278/142
f 126/279/143 122/280/143 175/281/143 173/282/143
f 122/280/144 118/283/144 177/284/144 175/281/144
f 118/283/145 114/285/145 179/286/145 177/284/145
f 114/285/146 110/287/146 181/288/146 179/286/146
f 110/287/147 106/289/147 183/290/147 181/288/147
f 106/289/148 102/291/148 185/292/148 183/290/148
f 102/293/149 98/294/149 187/295/149 185/296/149
f 98/294/150 94/297/150 189/298/150 187/295/150
f 94/297/151 86/299/151 191/300/151 189/298/151
f 86/299/152 85/301/152 128/302/152 191/300/152
f 128/302/153 151/303/153 192/304/153 191/300/153
f 151/305/154 128/306/155 127/307/156 152/308/154
f 152/309/157 127/253/157 154/256/157 153/310/157
f 153/310/158 154/256/158 156/258/158 155/311/158
f 155/311/159 156/258/159 158/260/159 157/312/159
f 157/312/160 158/260/160 160/262/160 159/313/160
f 159/314/161 160/266/161 162/265/161 161/315/161
f 161/315/162 162/265/162 164/268/162 163/316/162
f 163/316/163 164/268/163 166/270/163 165/317/163
f 165/317/164 166/270/164 168/272/164 167/318/164
f 167/318/165 168/272/165 170/274/165 169/319/165
f 169/319/166 170/274/166 172/276/166 171/320/166
f 171/321/167 172/278/167 173/277/167 174/322/167
f 174/323/168 173/282/168 175/281/168 176/324/168
f 176/324/169 175/281/169 177/284/169 178/325/169
f 178/325/170 177/284/170 179/286/170 180/326/170
f 180/326/171 179/286/171 181/288/171 182/327/171
f 182/327/172 181/288/172 183/290/172 184/328/172
f 184/328/173 183/290/173 185/292/173 186/329/173
f 186/330/174 185/296/174 187/295/174 188/331/174
f 188/331/175 187/295/175 189/298/175 190/332/175
f 190/332/176 189/298/176 191/300/176 192/304/176
f 130/172/177 129/171/177 151/305/177 152/308/177
f 152/309/178 153/310/178 131/160/178 130/159/178
f 132/175/179 131/160/179 153/310/179 155/311/179
f 133/183/180 132/175/180 155/311/180 157/312/180
f 134/191/181 133/183/181 157/312/181 159/313/181
f 135/203/182 134/202/182 159/314/182 161/315/182
f 136/215/183 135/203/183 161/315/183 163/316/183
f 137/223/184 136/215/184 163/316/184 165/317/184
f 138/231/185 137/223/185 165/317/185 167/318/185
f 139/239/186 138/231/186 167/318/186 169/319/186
f 140/245/187 139/239/187 169/319/187 171/320/187
f 141/170/188 140/169/188 171/333/188 174/334/188
f 174/323/189 176/324/189 142/243/189 141/249/189
f 176/324/190 178/325/190 143/235/190 142/243/190
f 178/325/191 180/326/191 144/227/191 143/235/191
f 180/326/192 182/327/192 145/219/192 144/227/192
f 182/327/193 184/328/193 146/209/193 145/219/193
f 184/328/194 186/329/194 147/210/194 146/209/194
f 186/330/195 188/331/195 148/187/195 147/195/195
f 188/331/196 190/332/196 149/179/196 148/187/196
f 190/332/197 192/304/197 150/153/197 149/179/197
f 129/154/198 150/153/198 192/304/198 151/303/198
