# Blender 4.5.2 LTS
# www.blender.org
mtllib Olive1_tronc.mtl
o Olive1_tronc
v 0.475722 0.097072 -2.093435
v 0.459711 -0.019464 -1.955923
v 0.507898 0.541475 -1.804225
v -0.099294 0.006630 -1.309483
v 1.498740 0.541475 -1.669203
v 0.891548 0.006630 -1.174461
v 1.466564 0.097072 -1.958414
v 1.450554 -0.019464 -1.820901
v 0.197267 0.712594 -1.347316
v -0.381516 -0.000000 -0.848703
v 0.609326 -0.000000 -0.713682
v 1.188109 0.712594 -1.212295
v 0.185765 0.924040 -1.020392
v -0.495421 -0.000000 -0.067511
v 0.495421 0.000000 0.067511
v 0.841742 0.924040 -0.931002
v -0.196677 1.141915 0.446123
v -0.697352 0.632940 1.110253
v -0.003642 0.632940 1.245142
v 0.502432 1.141915 0.541390
v -1.267747 -0.041007 1.515120
v -0.276904 -0.041007 1.650141
v -0.247705 0.397065 1.488314
v -0.941933 0.397065 1.357224
v 0.074102 2.108018 -1.218564
v 0.730079 2.108018 -1.129175
v -0.250309 2.225521 0.839698
v 0.448800 2.225521 0.934965
v -0.659129 1.054853 -0.223732
v -0.681550 2.178568 -0.059203
v 0.851566 2.178568 0.149714
v 0.873986 1.054853 -0.014815
v 0.498820 0.380020 0.763221
v -0.264175 0.256866 1.485228
v -1.143137 0.256866 1.360223
v -1.034426 0.380020 0.612949
v 0.475961 0.037261 -2.021705
v 0.278708 0.266969 -1.539066
v -0.114671 0.346860 -1.093434
v -0.393115 0.449782 -0.562573
v -0.770236 0.708499 0.174430
v -0.368212 0.880687 0.778432
v 0.333008 0.880687 0.858207
v 0.762880 0.708499 0.383347
v 0.597728 0.449782 -0.427552
v 0.876172 0.346860 -0.958412
v 1.269551 0.266969 -1.404045
v 1.466804 0.037261 -1.886684
v -0.598675 0.990023 -0.667373
v -0.597853 2.143604 -0.673402
v 0.935263 2.143604 -0.464486
v 0.934441 0.990023 -0.458456
v 0.815153 0.580280 -0.000253
v 0.677474 0.191685 0.430958
v -0.288635 0.065248 1.664724
v -1.279478 0.065248 1.529702
v -0.854754 0.191685 0.234922
v -0.717963 0.580280 -0.209170
vn -0.8948 0.2234 -0.3865
vn -0.0751 0.7957 0.6010
vn 0.8948 -0.2234 0.3865
vn 0.0870 -0.7650 -0.6382
vn -0.0049 -0.9993 0.0361
vn 0.1140 0.5361 -0.8364
vn -0.7633 0.1326 -0.6323
vn 0.0018 -0.9999 -0.0133
vn -0.0048 -0.9999 -0.0142
vn 0.0015 -0.9998 -0.0200
vn 0.7633 -0.1326 0.6323
vn 0.0441 0.9451 -0.3239
vn -0.7770 0.4590 -0.4308
vn 0.0062 -1.0000 -0.0027
vn -0.0010 -1.0000 0.0066
vn -0.0000 -1.0000 -0.0000
vn 0.7959 0.0187 0.6051
vn 0.0736 0.8386 -0.5398
vn -0.5461 -0.3550 -0.7588
vn -0.1335 -0.1492 0.9798
vn 0.8317 -0.5282 -0.1713
vn 0.0033 -0.9997 -0.0243
vn 0.5891 -0.7422 0.3195
vn -0.1196 0.7722 0.6240
vn -0.7489 -0.5661 -0.3445
vn 0.1335 -0.1513 -0.9794
vn -0.5273 -0.0987 -0.8439
vn -0.1268 -0.3442 0.9303
vn 0.9666 0.0235 -0.2553
vn -0.8525 -0.1555 0.4990
vn 0.8576 -0.0981 0.5048
vn 0.7912 0.2766 0.5455
vn 0.6962 -0.0244 0.7174
vn -0.1594 0.1235 0.9795
vn -0.6239 0.7792 0.0597
vn -0.6623 0.6817 0.3107
vn -0.7295 0.3732 -0.5732
vn -0.7423 0.3350 -0.5803
vn -0.9417 0.1630 -0.2944
vn -0.7241 -0.4126 -0.5527
vn -0.6145 0.7811 0.1109
vn -0.0793 0.8535 0.5150
vn 0.7369 0.1177 0.6657
vn 0.8419 -0.4902 -0.2256
vn 0.9417 -0.1630 0.2944
vn 0.7423 -0.3350 0.5803
vn 0.7295 -0.3732 0.5732
vn -0.9908 -0.0000 -0.1350
vn 0.9908 -0.0000 0.1350
vn 0.9801 -0.1166 0.1608
vn 0.9279 -0.1208 0.3528
vn 0.7464 0.0358 0.6645
vn -0.0994 0.6924 0.7146
vn -0.9680 0.0266 -0.2496
vn -0.9362 0.1142 -0.3325
vn -0.9801 0.1166 -0.1608
vn 0.0076 0.9984 -0.0558
vt 0.102162 0.827647
vt 0.096886 0.824416
vt 0.098802 0.787435
vt 0.123933 0.800020
vt 0.080935 0.106315
vt 0.065323 0.123373
vt 0.047081 0.092574
vt 0.062176 0.075836
vt 0.369307 0.762501
vt 0.352128 0.747096
vt 0.379464 0.735778
vt 0.383323 0.738726
vt 0.576675 0.148410
vt 0.575790 0.153065
vt 0.527257 0.138386
vt 0.528137 0.133732
vt 0.948756 0.350554
vt 0.998008 0.363856
vt 0.964988 0.392974
vt 0.916177 0.378750
vt 0.539307 0.109221
vt 0.587846 0.123900
vt 0.087285 0.751790
vt 0.117155 0.763732
vt 0.947092 0.414086
vt 0.898549 0.399438
vt 0.320537 0.748643
vt 0.340175 0.769618
vt 0.535046 0.080202
vt 0.583584 0.094881
vt 0.081183 0.718080
vt 0.122485 0.743095
vt 0.934931 0.452338
vt 0.886531 0.437404
vt 0.288990 0.752939
vt 0.316374 0.778980
vt 0.542333 0.061843
vt 0.574467 0.071561
vt 0.077170 0.691036
vt 0.107889 0.700759
vt 0.029829 0.193497
vt 0.001992 0.151290
vt 0.006790 0.148707
vt 0.034637 0.190913
vt 0.292660 0.784983
vt 0.267834 0.766401
vt 0.883019 0.524988
vt 0.834664 0.509889
vt 0.259137 0.731691
vt 0.244950 0.750302
vt 0.161439 0.736052
vt 0.163047 0.730310
vt 0.033186 0.117960
vt 0.053442 0.147602
vt 0.043290 0.166333
vt 0.023279 0.136669
vt 0.005247 0.637276
vt 0.048269 0.682074
vt 0.049249 0.705099
vt 0.001992 0.640874
vt 0.038994 0.445068
vt 0.001992 0.432433
vt 0.015667 0.356268
vt 0.055605 0.368758
vt 0.162100 0.677664
vt 0.177725 0.718165
vt 0.084685 0.112077
vt 0.123909 0.118228
vt 0.113160 0.183838
vt 0.076163 0.175458
vt 0.298331 0.842126
vt 0.332674 0.837402
vt 0.150996 0.648796
vt 0.100395 0.677971
vt 0.090552 0.637444
vt 0.135052 0.602569
vt 0.237851 0.797831
vt 0.270716 0.790296
vt 0.268000 0.846604
vt 0.224986 0.853301
vt 0.218310 0.786290
vt 0.249571 0.774428
vt 0.167706 0.749057
vt 0.224992 0.759104
vt 0.185138 0.772098
vt 0.167420 0.757114
vt 0.042804 0.178737
vt 0.017894 0.141349
vt 0.046301 0.632340
vt 0.043290 0.661891
vt 0.018318 0.637796
vt 0.027436 0.631619
vt 0.071780 0.670163
vt 0.070218 0.633892
vt 0.091656 0.821756
vt 0.069784 0.768826
vt 0.063166 0.740089
vt 0.302487 0.728176
vt 0.331455 0.730013
vt 0.376041 0.732697
vt 0.574152 0.157233
vt 0.525611 0.142553
vt 0.414644 0.856076
vt 0.451538 0.895444
vt 0.355140 0.895444
vt 0.373398 0.856076
vt 0.451538 0.934124
vt 0.355140 0.934124
vt 0.417356 0.986069
vt 0.373398 0.986069
s 0
usemtl Olive1
f 1/1/1 37/2/1 38/3/1 3/4/1
f 17/5/2 42/6/2 43/7/2 20/8/2
f 5/9/3 47/10/3 48/11/3 7/12/3
f 7/13/4 48/14/4 37/15/4 1/16/4
f 2/17/5 8/18/5 6/19/5 4/20/5
f 7/13/6 1/16/6 3/21/6 5/22/6
f 3/4/7 38/3/7 39/23/7 9/24/7
f 4/20/8 6/19/8 11/25/9 10/26/10
f 46/27/11 47/10/11 5/9/11 12/28/11
f 5/22/12 3/21/12 9/29/12 12/30/12
f 9/24/13 39/23/13 40/31/13 13/32/13
f 10/26/14 11/25/15 15/33/16 14/34/16
f 45/35/17 46/27/17 12/28/17 16/36/17
f 12/30/18 9/29/18 13/37/18 16/38/18
f 13/32/19 40/31/19 58/39/19 49/40/19
f 21/41/20 22/42/20 55/43/20 56/44/20
f 52/45/21 53/46/21 45/35/21 16/36/21
f 14/34/22 15/33/22 22/47/22 21/48/22
f 15/49/23 54/50/23 55/51/23 22/52/23
f 19/53/24 18/54/24 24/55/24 23/56/24
f 56/57/25 57/58/25 14/59/25 21/60/25
f 16/61/26 13/62/26 25/63/26 26/64/26
f 13/32/27 49/40/27 50/65/27 25/66/27
f 17/67/28 20/68/28 28/69/28 27/70/28
f 51/71/29 52/45/29 16/36/29 26/72/29
f 30/73/30 29/74/30 17/75/30 27/76/30
f 20/77/31 32/78/31 31/79/31 28/80/31
f 43/81/32 44/82/32 32/78/32 20/77/32
f 34/83/33 33/84/33 19/85/33 23/86/33
f 35/87/34 34/88/34 23/56/34 24/55/34
f 18/89/35 36/90/35 35/91/35 24/92/35
f 29/74/36 41/93/36 42/94/36 17/75/36
f 38/3/37 37/2/37 2/95/37 4/96/37
f 39/23/38 38/3/38 4/96/38 10/97/38
f 40/31/39 39/23/39 10/97/39 14/59/39
f 57/58/40 58/39/40 40/31/40 14/59/40
f 42/94/41 41/93/41 36/90/41 18/89/41
f 43/7/42 42/6/42 18/54/42 19/53/42
f 33/84/43 44/82/43 43/81/43 19/85/43
f 15/49/44 45/35/44 53/46/44 54/50/44
f 11/98/45 46/27/45 45/35/45 15/49/45
f 6/99/46 47/10/46 46/27/46 11/98/46
f 48/11/47 47/10/47 6/99/47 8/100/47
f 37/15/4 48/14/4 8/101/4 2/102/4
f 50/65/48 49/40/48 29/74/48 30/73/48
f 31/79/49 32/78/49 52/45/49 51/71/49
f 44/82/50 53/46/50 52/45/50 32/78/50
f 54/50/51 53/46/51 44/82/51 33/84/51
f 55/51/52 54/50/52 33/84/52 34/83/52
f 56/44/53 55/43/53 34/88/53 35/87/53
f 35/91/54 36/90/54 57/58/54 56/57/54
f 41/93/55 58/39/55 57/58/55 36/90/55
f 49/40/56 58/39/56 41/93/56 29/74/56
f 25/103/57 50/104/57 51/105/57 26/106/57
f 50/104/57 30/107/57 31/108/57 51/105/57
f 30/107/57 27/109/57 28/110/57 31/108/57
