# Blender 4.5.2 LTS
# www.blender.org
mtllib Olive1_sup.mtl
o Olive1_sup
v 0.078199 -2.254092 -1.311684
v 0.733027 -2.215278 -1.222295
v -0.252597 -2.155990 0.746578
v 0.445287 -2.114624 0.841845
v 0.061795 -1.523581 -1.638859
v 0.716623 -1.484767 -1.549470
v -0.261676 -1.425045 0.495699
v 0.436208 -1.383679 0.590966
v -0.680304 -2.228377 -0.152324
v -0.695130 -1.332418 -0.432742
v 0.835298 -1.241704 -0.223825
v 0.850126 -2.137663 0.056594
v 0.175613 0.201629 -0.308223
v 1.164719 0.260257 -0.173202
v 0.334259 0.092711 0.757506
v 1.032143 0.134077 0.852773
v -0.142951 -1.079409 -1.863824
v 0.511877 -1.040595 -1.774434
v -0.409560 -1.020463 -0.965193
v 0.579547 -0.961835 -0.830171
v -0.331758 -0.629470 -2.336724
v 0.323070 -0.590656 -2.247334
v -0.768797 -0.278464 -1.790595
v 0.220310 -0.219836 -1.655573
v -0.594684 -2.258327 -0.766523
v -0.601679 -1.443853 -1.068938
v -0.429563 -1.058693 -1.431316
v -0.717870 -0.462239 -2.083868
v 0.271237 -0.403611 -1.948846
v 0.559544 -1.000065 -1.296295
v 0.928750 -1.353139 -0.860021
v 0.935745 -2.167613 -0.557606
v 0.044966 -1.211922 -3.750302
v 0.051537 -1.341915 -2.391509
v 0.044446 -0.117710 -4.475168
v 0.140701 0.680422 -4.384533
v 1.225336 -0.047714 -4.313966
v 1.012146 0.732076 -4.265573
v 1.199882 -1.143466 -3.592647
v 0.995884 -1.285940 -2.262597
v 0.647383 -0.678843 -1.368289
v -1.265151 -0.792206 -1.623843
v 0.398176 1.192795 -2.881343
v -0.310854 1.150768 -2.978132
v 0.513037 -0.557689 -0.934463
v -1.523619 -0.678409 -1.166024
v 0.286751 2.557613 -1.810824
v -0.480065 2.512161 -1.915501
v 0.607692 -0.645077 -0.529290
v -1.610670 -0.776567 -0.695083
v 0.122018 2.638550 0.143809
v -0.705964 2.589473 0.030782
v 1.249210 -0.789232 0.263891
v -1.462108 -0.949942 0.187024
v 0.447386 2.130860 0.896075
v -0.827977 2.055264 0.721976
v 1.159234 -1.276861 1.192898
v -0.414762 -1.370157 1.215135
v 0.224765 2.247606 1.792526
v -0.742220 2.190289 1.660523
v 1.129450 -1.278624 1.913810
v -0.327952 -1.365010 1.886102
v 0.221681 1.759987 2.783618
v -0.862575 1.695719 2.635607
v 0.783594 -1.299125 2.592902
v -0.531807 -1.377094 2.515451
v 0.326919 1.401741 3.075841
v -0.916847 1.328018 2.906055
v 0.717344 -0.631245 3.069596
v -0.735730 -0.717374 2.895444
v 0.087759 1.250403 3.535604
v -0.993023 1.186341 3.388067
v 0.197635 -0.765893 3.584995
v -0.867034 -0.829000 3.439658
v -0.138510 1.082496 4.192896
v -1.054093 1.028226 4.067910
v 1.128747 -0.271703 -4.209690
v 0.126215 -0.331127 -4.346544
v -0.196573 -1.190480 -3.996274
v 1.468587 -1.091780 -3.768966
v 1.571223 -1.051917 -3.119743
v 1.316553 -0.475028 -2.064554
v 1.125389 0.370483 -1.326220
v 1.489384 0.344407 0.013114
v 2.216013 -0.055951 0.517536
v 2.376168 -0.210507 1.196007
v 2.239994 -0.352034 2.009809
v 1.624600 -0.638924 2.896327
v 1.273318 -0.209432 3.312243
v 0.230174 -0.568279 4.076887
v -1.181257 -0.651939 3.884214
v -1.510031 -0.374411 2.933140
v -1.296315 -0.812058 2.537276
v -1.255173 -0.559205 1.747120
v -1.785689 -0.457194 0.921127
v -2.581072 -0.340292 0.155941
v -2.834728 0.088101 -0.417445
v -2.303075 0.143570 -1.746706
v -1.311472 -0.630801 -2.423303
v -0.457097 -1.172143 -3.396628
v -0.021633 -0.599274 -4.222820
v 1.271978 -0.522597 -4.046231
v 1.630517 -0.204561 -3.481838
v 1.219834 0.553802 -3.493270
v 1.186903 0.312637 -2.336359
v 0.759051 1.101249 -2.303325
v 1.001830 1.271472 -1.237408
v 0.461280 1.954419 -0.956420
v 1.388538 1.311776 -0.021250
v 1.061206 1.990831 0.541434
v 2.300974 0.992416 0.758992
v 1.565091 1.647957 0.865758
v 2.448590 1.016273 1.447007
v 1.433942 1.923881 1.455300
v 2.321655 0.738347 2.289692
v 1.320330 1.643741 2.311634
v 1.758739 0.322022 3.005966
v 1.286951 1.044795 3.057144
v 1.302778 0.503149 3.387756
v 0.710190 1.223036 3.455199
v 0.070370 0.061943 4.311807
v -0.130085 0.714684 4.451129
v -1.088469 0.657877 4.320302
v -1.167320 -0.011419 4.142851
v -1.357028 1.100505 3.173005
v -1.563002 0.333284 2.996552
v -1.334929 0.889387 2.699235
v -1.561169 0.125238 2.582276
v -1.300052 1.490604 1.954467
v -1.554724 0.508579 1.862167
v -1.401835 1.755795 1.068191
v -1.995098 0.752880 0.958025
v -1.844918 1.445833 0.421046
v -2.582134 0.702976 0.246545
v -1.749361 1.824239 0.157768
v -2.753589 1.066258 -0.561208
v -1.599566 1.832264 -1.237743
v -2.379107 1.071072 -1.698937
v -1.268476 0.981071 -2.580100
v -1.558953 0.149881 -2.711193
v -0.451962 0.454709 -3.721485
v -0.681989 -0.341632 -3.797516
vn 0.0218 0.8489 -0.5282
vn 0.1472 -0.4015 -0.9039
vn 0.1471 -0.4063 -0.9018
vn 0.1427 -0.3994 -0.9056
vn -0.6204 -0.3040 -0.7230
vn -0.1467 0.3195 0.9362
vn 0.9550 -0.0994 -0.2794
vn -0.8969 0.1253 0.4241
vn -0.0741 0.9909 0.1123
vn 0.8771 0.1607 0.4526
vn 0.1350 0.0038 -0.9908
vn -0.8745 0.3825 0.2983
vn -0.1273 -0.1199 0.9846
vn 0.9254 -0.3066 0.2226
vn 0.1481 -0.3873 -0.9100
vn 0.1523 -0.3919 -0.9073
vn 0.1472 -0.3921 -0.9081
vn -0.6716 -0.4456 -0.5919
vn -0.1145 0.8827 0.4557
vn 0.8726 0.4163 -0.2555
vn 0.1379 -0.6895 -0.7111
vn -0.5976 -0.6976 -0.3953
vn -0.1367 0.7064 0.6945
vn 0.9396 0.3299 -0.0916
vn -0.9891 -0.0586 -0.1350
vn -0.8930 0.4342 -0.1185
vn -0.9263 -0.3702 0.0705
vn 0.9263 0.3702 -0.0705
vn 0.7439 0.6670 -0.0410
vn 0.9891 0.0586 0.1350
vn -0.1299 -0.9888 -0.0732
vn 0.1290 0.0965 -0.9869
vn 0.2814 -0.9589 -0.0353
vn 0.0719 -0.9928 -0.0953
vn 0.0042 -0.9280 0.3725
vn 0.0808 -0.9830 -0.1650
vn -0.0252 -0.8322 0.5540
vn 0.7620 -0.4214 0.4917
vn -0.0124 0.9471 -0.3207
vn -0.4621 -0.8866 -0.0206
vn 0.0245 -0.9640 0.2648
vn 0.7693 -0.3713 0.5199
vn 0.0701 0.6192 -0.7821
vn -0.6541 -0.7436 -0.1385
vn 0.0772 -0.9752 -0.2072
vn 0.0703 -0.9758 -0.2069
vn 0.0714 -0.9750 -0.2103
vn 0.7746 -0.5845 -0.2417
vn -0.0529 0.9976 -0.0458
vn -0.5960 -0.7564 -0.2694
vn 0.0706 -0.9723 -0.2229
vn 0.0731 -0.9745 -0.2120
vn 0.0684 -0.9738 -0.2168
vn 0.5945 -0.2917 -0.7493
vn -0.1280 0.7955 0.5922
vn -0.5371 -0.8216 -0.1913
vn 0.0587 -0.8943 -0.4435
vn 0.6257 -0.7146 -0.3128
vn -0.0397 0.9895 -0.1387
vn -0.5257 -0.7952 0.3020
vn 0.0592 -0.9982 -0.0000
vn 0.6504 -0.7596 -0.0006
vn -0.1127 0.8917 0.4384
vn -0.6107 -0.7656 0.2023
vn 0.5907 -0.7792 0.2097
vn -0.1430 0.6000 0.7871
vn -0.6000 -0.7614 -0.2457
vn -0.0434 -0.5479 0.8354
vn 0.1466 -0.5900 0.7940
vn -0.0933 0.9591 0.2672
vn -0.3421 -0.6258 0.7009
vn 0.0808 -0.9807 -0.1783
vn 0.4968 -0.8175 0.2914
vn -0.0874 0.9720 0.2182
vn -0.4824 -0.8611 -0.1604
vn 0.1479 -0.4632 -0.8738
vn 0.1457 -0.4633 -0.8741
vn 0.1467 -0.4688 -0.8711
vn 0.9910 0.1110 -0.0747
vn 0.5746 0.8146 -0.0792
vn 0.9188 0.3558 -0.1709
vn 0.7983 0.5900 -0.1207
vn 0.3997 0.8436 0.3586
vn 0.2973 0.9382 -0.1772
vn 0.3006 0.8738 0.3821
vn 0.3135 0.7087 0.6320
vn 0.2431 0.9489 0.2014
vn 0.3356 0.7760 0.5340
vn -0.1443 0.5664 0.8114
vn -0.7085 0.6426 0.2917
vn -0.5100 0.8525 -0.1144
vn -0.7781 0.4871 0.3966
vn -0.6965 0.6667 0.2652
vn -0.4973 0.8642 -0.0767
vn -0.4992 0.6803 0.5367
vn -0.5745 0.8145 -0.0815
vn -0.5502 0.5544 -0.6245
vn -0.5291 0.6672 -0.5243
vn -0.8380 -0.0085 -0.5455
vn -0.5560 0.1608 -0.8154
vn 0.1465 -0.4799 -0.8650
vn 0.1527 -0.4805 -0.8636
vn 0.1404 -0.4813 -0.8653
vn 0.7649 0.3233 -0.5571
vn 0.8732 0.4716 0.1232
vn 0.7776 0.5689 -0.2679
vn 0.7214 0.6333 -0.2802
vn 0.6192 0.6854 -0.3830
vn 0.6483 0.7394 -0.1819
vn 0.6360 0.7019 0.3206
vn 0.6031 0.5185 0.6061
vn 0.6358 0.4156 0.6504
vn 0.6015 0.2324 0.7643
vn -0.1172 -0.2416 0.9633
vn -0.9439 0.1105 0.3113
vn -0.9404 0.2971 -0.1656
vn -0.9589 0.2474 0.1392
vn -0.8709 0.3354 0.3592
vn -0.7488 0.4997 0.4354
vn -0.7053 0.5584 0.4367
vn -0.5967 0.7935 -0.1195
vn -0.4814 0.5709 -0.6651
vn -0.6865 0.3036 -0.6606
vn 0.1472 -0.3916 -0.9083
vn 0.9389 -0.0618 -0.3386
vn 0.9618 0.1339 0.2386
vn 0.9868 0.1535 0.0513
vn 0.9520 0.1225 -0.2804
vn 0.6372 0.0837 -0.7661
vn 0.9750 -0.0195 -0.2215
vn 0.9865 -0.0959 0.1324
vn 0.8289 -0.1873 0.5272
vn 0.6373 -0.1460 0.7567
vn 0.6184 -0.1195 0.7767
vn -0.1040 -0.3704 0.9230
vn -0.9493 -0.0988 0.2986
vn -0.9767 -0.1811 -0.1155
vn -0.9561 -0.2581 -0.1388
vn -0.8684 -0.2236 0.4426
vn -0.7283 -0.1063 0.6770
vn -0.9470 0.0459 0.3178
vn -0.9385 -0.0149 -0.3451
vn -0.7699 -0.2295 -0.5955
vn -0.7869 -0.4228 -0.4494
vn -0.7495 -0.2892 -0.5955
vn 0.0515 -0.9971 0.0558
vt 0.056109 0.264544
vt 0.037708 0.257184
vt 0.035446 0.245751
vt 0.057678 0.255936
vt 0.055605 0.368758
vt 0.015667 0.356268
vt 0.030731 0.307933
vt 0.067473 0.319278
vt 0.177725 0.718165
vt 0.162100 0.677664
vt 0.204928 0.672770
vt 0.216272 0.713660
vt 0.076163 0.175458
vt 0.113160 0.183838
vt 0.098804 0.226022
vt 0.068537 0.210705
vt 0.315486 0.880155
vt 0.298331 0.842126
vt 0.332674 0.837402
vt 0.349885 0.873150
vt 0.196287 0.642877
vt 0.150996 0.648796
vt 0.135052 0.602569
vt 0.172529 0.598835
vt 0.461232 0.080635
vt 0.436607 0.124964
vt 0.397658 0.086249
vt 0.415034 0.054971
vt 0.224986 0.853301
vt 0.268000 0.846604
vt 0.285639 0.889208
vt 0.240442 0.888047
vt 0.516471 0.135726
vt 0.478369 0.204316
vt 0.232317 0.545179
vt 0.262697 0.588217
vt 0.092512 0.301038
vt 0.064984 0.285265
vt 0.302130 0.963116
vt 0.251132 0.968584
vt 0.032919 0.280964
vt 0.060543 0.290173
vt 0.232051 0.681649
vt 0.239753 0.706282
vt 0.537013 0.165610
vt 0.512389 0.209938
vt 0.340576 0.900126
vt 0.364327 0.895787
vt 0.277221 0.690195
vt 0.270968 0.712290
vt 0.574779 0.211141
vt 0.550156 0.255469
vt 0.377663 0.928274
vt 0.391080 0.916635
vt 0.222821 0.660268
vt 0.277030 0.673842
vt 0.039459 0.238583
vt 0.060699 0.248619
vt 0.317567 0.905012
vt 0.364472 0.939720
vt 0.177685 0.119871
vt 0.229256 0.110722
vt 0.194636 0.136141
vt 0.169766 0.131558
vt 0.170113 0.516936
vt 0.155632 0.492985
vt 0.200503 0.468181
vt 0.230947 0.483334
vt 0.380264 0.410028
vt 0.396835 0.385685
vt 0.439293 0.367244
vt 0.397279 0.412440
vt 0.107047 0.488054
vt 0.127476 0.515307
vt 0.078881 0.542167
vt 0.047602 0.520899
vt 0.730997 0.615136
vt 0.766400 0.655035
vt 0.750742 0.676245
vt 0.703795 0.623288
vt 0.027778 0.517613
vt 0.113481 0.470255
vt 0.149415 0.577627
vt 0.051144 0.632195
vt 0.414882 0.333584
vt 0.457712 0.319678
vt 0.100868 0.421457
vt 0.179723 0.419130
vt 0.236367 0.168543
vt 0.265651 0.160010
vt 0.159043 0.603198
vt 0.055789 0.663138
vt 0.420686 0.275762
vt 0.471591 0.304833
vt 0.094950 0.352366
vt 0.203904 0.382286
vt 0.265874 0.206369
vt 0.283664 0.165541
vt 0.177606 0.619557
vt 0.068065 0.688787
vt 0.472217 0.229083
vt 0.487521 0.293705
vt 0.130822 0.243907
vt 0.177458 0.258208
vt 0.314145 0.218404
vt 0.301274 0.165003
vt 0.854720 0.365417
vt 0.957674 0.456264
vt 0.958201 0.519784
vt 0.827975 0.414891
vt 0.610297 0.002604
vt 0.694055 0.037071
vt 0.687237 0.087654
vt 0.624917 0.066109
vt 0.252634 0.452201
vt 0.288828 0.440552
vt 0.303567 0.478139
vt 0.248123 0.495692
vt 0.434822 0.496187
vt 0.390781 0.530166
vt 0.386574 0.419326
vt 0.451743 0.415732
vt 0.912861 0.566342
vt 0.835865 0.508873
vt 0.686752 0.120186
vt 0.599992 0.125245
vt 0.306248 0.521583
vt 0.265292 0.533833
vt 0.499860 0.462891
vt 0.533657 0.350936
vt 0.883952 0.599677
vt 0.815908 0.544931
vt 0.684442 0.159509
vt 0.602040 0.170856
vt 0.318581 0.568194
vt 0.275648 0.579090
vt 0.566647 0.435093
vt 0.577610 0.349832
vt 0.841578 0.618126
vt 0.785269 0.567774
vt 0.668743 0.218370
vt 0.592976 0.225520
vt 0.323131 0.586848
vt 0.276661 0.596718
vt 0.621835 0.419886
vt 0.618814 0.359475
vt 0.808538 0.651832
vt 0.751923 0.595613
vt 0.695933 0.257198
vt 0.631636 0.278153
vt 0.325471 0.606903
vt 0.288749 0.612200
vt 0.651411 0.447061
vt 0.654275 0.393822
vt 0.703670 0.393515
vt 0.623042 0.357679
vt 0.323467 0.631908
vt 0.298760 0.630993
vt 0.711597 0.424852
vt 0.687263 0.401368
vt 0.233078 0.498644
vt 0.181473 0.527165
vt 0.331157 0.400687
vt 0.317759 0.399115
vt 0.292849 0.366325
vt 0.330629 0.345685
vt 0.345427 0.297480
vt 0.349526 0.275265
vt 0.359061 0.175735
vt 0.370117 0.194971
vt 0.382005 0.131125
vt 0.435136 0.151950
vt 0.885839 0.003528
vt 0.862512 0.064869
vt 0.785620 0.078428
vt 0.816440 0.047650
vt 0.887823 0.123762
vt 0.807167 0.109896
vt 0.879752 0.201667
vt 0.809083 0.161545
vt 0.861956 0.231673
vt 0.786578 0.217078
vt 0.870840 0.282966
vt 0.825033 0.255686
vt 0.860867 0.348872
vt 0.833208 0.379706
vt 0.323854 0.643940
vt 0.297719 0.643209
vt 0.735163 0.523653
vt 0.701237 0.547781
vt 0.681035 0.533577
vt 0.745861 0.499457
vt 0.675985 0.564528
vt 0.649741 0.532632
vt 0.665507 0.591395
vt 0.611314 0.584307
vt 0.620800 0.646322
vt 0.559731 0.621871
vt 0.563515 0.671042
vt 0.501703 0.614515
vt 0.535318 0.722554
vt 0.494222 0.646378
vt 0.254757 0.334068
vt 0.198532 0.291367
vt 0.247870 0.272870
vt 0.288716 0.301709
vt 0.175662 0.235672
vt 0.213604 0.229305
vt 0.132150 0.196771
vt 0.167209 0.197803
vt 0.135563 0.166243
vt 0.143310 0.159987
vt 0.152845 0.151518
vt 0.178808 0.168918
vt 0.019000 0.480460
vt 0.018026 0.461270
vt 0.069656 0.432735
vt 0.085567 0.443653
vt 0.347889 0.403480
vt 0.360380 0.371862
vt 0.380188 0.311850
vt 0.392202 0.236152
vt 0.440722 0.195945
vt 0.755309 0.027042
vt 0.736079 0.090968
vt 0.741166 0.120946
vt 0.737888 0.161316
vt 0.729608 0.213215
vt 0.752191 0.245938
vt 0.770777 0.388460
vt 0.293417 0.661672
vt 0.327302 0.662505
vt 0.730013 0.461562
vt 0.659916 0.490671
vt 0.631219 0.482287
vt 0.584387 0.516650
vt 0.516200 0.550899
vt 0.452150 0.561157
vt 0.404061 0.601974
vt 0.297840 0.250279
vt 0.260513 0.235883
vt 0.224674 0.198691
vt 0.722319 0.695459
vt 0.681167 0.648997
vt 0.481419 0.920586
vt 0.508498 0.924655
vt 0.474989 0.975421
vt 0.467081 0.942307
vt 0.528868 0.938101
vt 0.495359 0.988867
vt 0.549877 0.965773
vt 0.534597 0.988922
s 0
usemtl Olive1_sup
f 22/1/1 21/2/1 28/3/1 29/4/1
f 2/5/2 1/6/2 5/7/3 6/8/4
f 1/9/5 25/10/5 26/11/5 5/12/5
f 3/13/6 4/14/6 8/15/6 7/16/6
f 31/17/7 32/18/7 2/19/7 6/20/7
f 10/21/8 9/22/8 3/23/8 7/24/8
f 14/25/9 13/26/9 15/27/9 16/28/9
f 4/29/10 12/30/10 11/31/10 8/32/10
f 11/33/11 10/34/11 13/26/11 14/25/11
f 10/21/12 7/24/12 15/35/12 13/36/12
f 7/16/13 8/15/13 16/37/13 15/38/13
f 8/32/14 11/31/14 14/39/14 16/40/14
f 6/8/15 5/7/16 17/41/17 18/42/17
f 5/12/18 26/11/18 27/43/18 17/44/18
f 10/34/19 11/33/19 20/45/19 19/46/19
f 30/47/20 31/17/20 6/20/20 18/48/20
f 18/42/21 17/41/21 21/2/21 22/1/21
f 17/44/22 27/43/22 28/49/22 21/50/22
f 19/46/23 20/45/23 24/51/23 23/52/23
f 29/53/24 30/47/24 18/48/24 22/54/24
f 26/11/25 25/10/25 9/22/25 10/21/25
f 27/43/26 26/11/26 10/21/26 19/55/26
f 28/49/27 27/43/27 19/55/27 23/56/27
f 29/4/1 28/3/1 23/57/1 24/58/1
f 20/59/28 30/47/28 29/53/28 24/60/28
f 11/31/29 31/17/29 30/47/29 20/59/29
f 11/31/30 12/30/30 32/18/30 31/17/30
f 33/61/31 34/62/31 100/63/31 79/64/31
f 35/65/32 36/66/32 38/67/32 37/68/32
f 80/69/33 81/70/33 40/71/33 39/72/33
f 39/73/34 40/74/34 34/75/34 33/76/34
f 74/77/35 73/78/35 90/79/35 91/80/35
f 39/73/36 33/76/36 79/81/36 80/82/36
f 34/75/37 40/74/37 41/83/37 42/84/37
f 40/71/38 81/70/38 82/85/38 41/86/38
f 38/67/39 36/66/39 44/87/39 43/88/39
f 99/89/40 100/63/40 34/62/40 42/90/40
f 42/84/41 41/83/41 45/91/41 46/92/41
f 41/86/42 82/85/42 83/93/42 45/94/42
f 43/88/43 44/87/43 48/95/43 47/96/43
f 98/97/44 99/89/44 42/90/44 46/98/44
f 46/92/45 45/91/45 49/99/46 50/100/47
f 45/94/48 83/93/48 84/101/48 49/102/48
f 47/96/49 48/95/49 52/103/49 51/104/49
f 97/105/50 98/97/50 46/98/50 50/106/50
f 50/107/51 49/108/52 53/109/53 54/110/53
f 49/111/54 84/112/54 85/113/54 53/114/54
f 51/115/55 52/116/55 56/117/55 55/118/55
f 96/119/56 97/120/56 50/121/56 54/122/56
f 54/110/57 53/109/57 57/123/57 58/124/57
f 53/114/58 85/113/58 86/125/58 57/126/58
f 55/118/59 56/117/59 60/127/59 59/128/59
f 95/129/60 96/119/60 54/122/60 58/130/60
f 58/124/61 57/123/61 61/131/61 62/132/61
f 57/126/62 86/125/62 87/133/62 61/134/62
f 59/128/63 60/127/63 64/135/63 63/136/63
f 94/137/64 95/129/64 58/130/64 62/138/64
f 62/132/61 61/131/61 65/139/61 66/140/61
f 61/134/65 87/133/65 88/141/65 65/142/65
f 63/136/66 64/135/66 68/143/66 67/144/66
f 93/145/67 94/137/67 62/138/67 66/146/67
f 66/140/68 65/139/68 69/147/68 70/148/68
f 65/142/69 88/141/69 89/149/69 69/150/69
f 67/144/70 68/143/70 72/151/70 71/152/70
f 92/153/71 93/145/71 66/146/71 70/154/71
f 70/148/72 69/147/72 73/78/72 74/77/72
f 69/150/73 89/149/73 90/155/73 73/156/73
f 71/152/74 72/151/74 76/157/74 75/158/74
f 91/159/75 92/153/75 70/154/75 74/160/75
f 77/161/76 78/162/77 35/65/78 37/68/78
f 77/163/79 37/164/79 38/165/79 104/166/79
f 38/165/80 43/167/80 106/168/80 104/166/80
f 43/167/81 47/169/81 108/170/81 106/168/81
f 47/169/82 51/171/82 110/172/82 108/170/82
f 51/173/83 55/174/83 112/175/83 110/176/83
f 55/174/84 59/177/84 114/178/84 112/175/84
f 59/177/85 63/179/85 116/180/85 114/178/85
f 63/179/86 67/181/86 118/182/86 116/180/86
f 67/181/87 71/183/87 120/184/87 118/182/87
f 71/183/88 75/185/88 122/186/88 120/184/88
f 75/158/89 76/157/89 123/187/89 122/188/89
f 76/189/90 72/190/90 125/191/90 123/192/90
f 72/190/91 68/193/91 127/194/91 125/191/91
f 68/193/92 64/195/92 129/196/92 127/194/92
f 64/195/93 60/197/93 131/198/93 129/196/93
f 60/197/94 56/199/94 133/200/94 131/198/94
f 56/199/95 52/201/95 135/202/95 133/200/95
f 52/203/96 48/204/96 137/205/96 135/206/96
f 48/204/97 44/207/97 139/208/97 137/205/97
f 44/207/98 36/209/98 141/210/98 139/208/98
f 36/209/99 35/211/99 78/212/99 141/210/99
f 78/212/100 101/213/100 142/214/100 141/210/100
f 101/215/101 78/216/102 77/217/103 102/218/101
f 102/219/104 77/163/104 104/166/104 103/220/104
f 103/220/105 104/166/105 106/168/105 105/221/105
f 105/221/106 106/168/106 108/170/106 107/222/106
f 107/222/107 108/170/107 110/172/107 109/223/107
f 109/224/108 110/176/108 112/175/108 111/225/108
f 111/225/109 112/175/109 114/178/109 113/226/109
f 113/226/110 114/178/110 116/180/110 115/227/110
f 115/227/111 116/180/111 118/182/111 117/228/111
f 117/228/112 118/182/112 120/184/112 119/229/112
f 119/229/113 120/184/113 122/186/113 121/230/113
f 121/231/114 122/188/114 123/187/114 124/232/114
f 124/233/115 123/192/115 125/191/115 126/234/115
f 126/234/116 125/191/116 127/194/116 128/235/116
f 128/235/117 127/194/117 129/196/117 130/236/117
f 130/236/118 129/196/118 131/198/118 132/237/118
f 132/237/119 131/198/119 133/200/119 134/238/119
f 134/238/120 133/200/120 135/202/120 136/239/120
f 136/240/121 135/206/121 137/205/121 138/241/121
f 138/241/122 137/205/122 139/208/122 140/242/122
f 140/242/123 139/208/123 141/210/123 142/214/123
f 80/82/124 79/81/124 101/215/124 102/218/124
f 102/219/125 103/220/125 81/70/125 80/69/125
f 82/85/126 81/70/126 103/220/126 105/221/126
f 83/93/127 82/85/127 105/221/127 107/222/127
f 84/101/128 83/93/128 107/222/128 109/223/128
f 85/113/129 84/112/129 109/224/129 111/225/129
f 86/125/130 85/113/130 111/225/130 113/226/130
f 87/133/131 86/125/131 113/226/131 115/227/131
f 88/141/132 87/133/132 115/227/132 117/228/132
f 89/149/133 88/141/133 117/228/133 119/229/133
f 90/155/134 89/149/134 119/229/134 121/230/134
f 91/80/135 90/79/135 121/243/135 124/244/135
f 124/233/136 126/234/136 92/153/136 91/159/136
f 126/234/137 128/235/137 93/145/137 92/153/137
f 128/235/138 130/236/138 94/137/138 93/145/138
f 130/236/139 132/237/139 95/129/139 94/137/139
f 132/237/140 134/238/140 96/119/140 95/129/140
f 134/238/141 136/239/141 97/120/141 96/119/141
f 136/240/142 138/241/142 98/97/142 97/105/142
f 138/241/143 140/242/143 99/89/143 98/97/143
f 140/242/144 142/214/144 100/63/144 99/89/144
f 79/64/145 100/63/145 142/214/145 101/213/145
f 2/245/146 32/246/146 25/247/146 1/248/146
f 32/246/146 12/249/146 9/250/146 25/247/146
f 12/249/146 4/251/146 3/252/146 9/250/146
