# This file uses centimeters as units for non-parametric coordinates.

mtllib Baton.mtl
g default
v -0.210288 0.007405 -0.023003
v -0.212343 0.003405 -0.020948
v -0.212343 -0.001539 -0.020948
v -0.210288 -0.005539 -0.023003
v -0.206963 -0.007067 -0.026328
v -0.203637 -0.005539 -0.029653
v -0.201583 -0.001539 -0.031708
v -0.201583 0.003405 -0.031708
v -0.203637 0.007405 -0.029653
v -0.206963 0.008933 -0.026328
v -0.167949 0.007675 0.019554
v -0.170093 0.003530 0.021696
v -0.170104 -0.001601 0.021707
v -0.167982 -0.005760 0.019585
v -0.164539 -0.007364 0.016141
v -0.161085 -0.005800 0.012688
v -0.158938 -0.001665 0.010542
v -0.158920 0.003469 0.010524
v -0.161041 0.007637 0.012646
v -0.164491 0.009244 0.016096
v -0.206963 0.000933 -0.026328
v -0.164499 0.000933 0.016135
v 0.250217 0.009023 0.005236
v 0.250217 0.004023 0.001603
v 0.250217 -0.002157 0.001603
v 0.250217 -0.007157 0.005236
v 0.250217 -0.009067 0.011113
v 0.250217 -0.007157 0.016991
v 0.250217 -0.002157 0.020624
v 0.250217 0.004023 0.020624
v 0.250217 0.009023 0.016991
v 0.250217 0.010933 0.011113
v -0.250031 0.009360 0.005042
v -0.250027 0.004179 0.001254
v -0.250023 -0.002234 0.001235
v -0.250021 -0.007434 0.004985
v -0.250021 -0.009438 0.011073
v -0.250023 -0.007484 0.017178
v -0.250027 -0.002314 0.020973
v -0.250031 0.004102 0.021004
v -0.250033 0.009313 0.017254
v -0.250033 0.011322 0.011156
v 0.250217 0.000933 0.011113
v -0.250217 0.000933 0.011113
v -0.085201 0.009249 0.015935
v -0.085203 0.011194 0.021971
v -0.085203 0.009218 0.027997
v -0.085201 0.004076 0.031708
v -0.085199 -0.002262 0.031687
v -0.085196 -0.007376 0.027946
v -0.085195 -0.009316 0.021916
v -0.085195 -0.007343 0.015897
v -0.085196 -0.002209 0.012185
v -0.085199 0.004128 0.012198
v 0.055143 0.009154 -0.007341
v 0.055142 0.011085 -0.001372
v 0.055142 0.009136 0.004592
v 0.055143 0.004054 0.008271
v 0.055144 -0.002218 0.008258
v 0.055146 -0.007285 0.004563
v 0.055146 -0.009212 -0.001404
v 0.055146 -0.007265 -0.007364
v 0.055146 -0.002187 -0.011042
v 0.055144 0.004084 -0.011035
v 0.184700 0.009067 0.009725
v 0.184700 0.010984 0.015634
v 0.184700 0.009061 0.021540
v 0.184700 0.004033 0.025188
v 0.184701 -0.002178 0.025184
v 0.184702 -0.007200 0.021530
v 0.184702 -0.009116 0.015623
v 0.184702 -0.007194 0.009717
v 0.184702 -0.002168 0.006069
v 0.184701 0.004043 0.006072
vt 0.626409 0.064409
vt 0.548284 0.007647
vt 0.451716 0.007647
vt 0.373591 0.064409
vt 0.343750 0.156250
vt 0.373591 0.248091
vt 0.451716 0.304853
vt 0.548284 0.304853
vt 0.626409 0.248091
vt 0.656250 0.156250
vt 0.375000 0.312500
vt 0.400000 0.312500
vt 0.425000 0.312500
vt 0.450000 0.312500
vt 0.475000 0.312500
vt 0.500000 0.312500
vt 0.525000 0.312500
vt 0.550000 0.312500
vt 0.575000 0.312500
vt 0.600000 0.312500
vt 0.625000 0.312500
vt 0.375000 0.687500
vt 0.400000 0.687500
vt 0.425000 0.687500
vt 0.450000 0.687500
vt 0.475000 0.687500
vt 0.500000 0.687500
vt 0.525000 0.687500
vt 0.550000 0.687500
vt 0.575000 0.687500
vt 0.600000 0.687500
vt 0.625000 0.687500
vt 0.626409 0.751909
vt 0.548284 0.695147
vt 0.451716 0.695147
vt 0.373591 0.751909
vt 0.343750 0.843750
vt 0.373591 0.935591
vt 0.451716 0.992353
vt 0.548284 0.992353
vt 0.626409 0.935591
vt 0.656250 0.843750
vt 0.500000 0.156250
vt 0.500000 0.843750
vt 0.375000 0.312500
vt 0.400000 0.312500
vt 0.400000 0.361613
vt 0.375000 0.361613
vt 0.425000 0.312500
vt 0.425000 0.361613
vt 0.450000 0.312500
vt 0.450000 0.361613
vt 0.475000 0.312500
vt 0.475000 0.361613
vt 0.500000 0.312500
vt 0.500000 0.361613
vt 0.525000 0.312500
vt 0.525000 0.361613
vt 0.550000 0.312500
vt 0.550000 0.361613
vt 0.575000 0.312500
vt 0.575000 0.361613
vt 0.600000 0.312500
vt 0.600000 0.361613
vt 0.625000 0.312500
vt 0.625000 0.361613
vt 0.548284 0.007647
vt 0.626409 0.064409
vt 0.500000 0.156250
vt 0.451716 0.007647
vt 0.373591 0.064409
vt 0.343750 0.156250
vt 0.373591 0.248091
vt 0.451716 0.304853
vt 0.548284 0.304853
vt 0.626409 0.248091
vt 0.656250 0.156250
vt 0.626409 0.935591
vt 0.548284 0.992353
vt 0.500000 0.843750
vt 0.451716 0.992353
vt 0.373591 0.935591
vt 0.343750 0.843750
vt 0.373591 0.751909
vt 0.451716 0.695147
vt 0.548284 0.695147
vt 0.626409 0.751909
vt 0.656250 0.843750
vt 0.600000 0.563939
vt 0.625000 0.563939
vt 0.625000 0.687500
vt 0.600000 0.687500
vt 0.575000 0.563939
vt 0.575000 0.687500
vt 0.550000 0.563939
vt 0.550000 0.687500
vt 0.525000 0.563939
vt 0.525000 0.687500
vt 0.500000 0.563939
vt 0.500000 0.687500
vt 0.475000 0.563939
vt 0.475000 0.687500
vt 0.450000 0.563939
vt 0.450000 0.687500
vt 0.425000 0.563939
vt 0.425000 0.687500
vt 0.400000 0.563939
vt 0.400000 0.687500
vt 0.375000 0.563939
vt 0.375000 0.687500
vt 0.600000 0.458733
vt 0.625000 0.458733
vt 0.575000 0.458733
vt 0.550000 0.458733
vt 0.525000 0.458733
vt 0.500000 0.458733
vt 0.475000 0.458733
vt 0.450000 0.458733
vt 0.425000 0.458733
vt 0.400000 0.458733
vt 0.375000 0.458733
vn -0.574839 0.589039 0.567973
vn -0.574839 0.589039 0.567973
vn -0.574839 0.589039 0.567973
vn -0.574839 0.589039 0.567973
vn -0.710474 0.001526 0.703722
vn -0.710474 0.001526 0.703722
vn -0.710474 0.001526 0.703722
vn -0.710474 0.001526 0.703722
vn -0.576113 -0.586368 0.569443
vn -0.576113 -0.586368 0.569443
vn -0.576113 -0.586368 0.569443
vn -0.576113 -0.586368 0.569443
vn -0.223153 -0.950435 0.216509
vn -0.223153 -0.950435 0.216509
vn -0.223153 -0.950435 0.216509
vn -0.223153 -0.950435 0.216509
vn 0.213681 -0.951727 -0.220353
vn 0.213681 -0.951727 -0.220353
vn 0.213681 -0.951727 -0.220353
vn 0.213681 -0.951727 -0.220353
vn 0.567648 -0.589776 -0.574405
vn 0.567648 -0.589776 -0.574405
vn 0.567648 -0.589776 -0.574405
vn 0.567648 -0.589776 -0.574405
vn 0.703661 -0.002517 -0.710531
vn 0.703661 -0.002517 -0.710531
vn 0.703661 -0.002517 -0.710531
vn 0.703661 -0.002517 -0.710531
vn 0.569533 0.585915 -0.576486
vn 0.569533 0.585915 -0.576486
vn 0.569533 0.585915 -0.576486
vn 0.569533 0.585915 -0.576486
vn 0.216405 0.950404 -0.223387
vn 0.216405 0.950404 -0.223387
vn 0.216405 0.950404 -0.223387
vn 0.216406 0.950404 -0.223387
vn -0.220756 0.951606 0.213804
vn -0.220756 0.951606 0.213804
vn -0.220756 0.951606 0.213804
vn -0.220756 0.951606 0.213804
vn -0.707107 0.000000 -0.707106
vn -0.707107 0.000000 -0.707106
vn -0.707107 -0.000001 -0.707107
vn -0.707107 -0.000001 -0.707106
vn -0.707108 -0.000001 -0.707106
vn -0.707107 0.000000 -0.707106
vn -0.707106 0.000000 -0.707108
vn -0.707106 0.000000 -0.707108
vn -0.707106 -0.000001 -0.707108
vn -0.707106 -0.000001 -0.707107
vn -0.707107 0.000000 -0.707106
vn 0.705949 0.002138 0.708259
vn 0.705236 0.000761 0.708972
vn 0.707086 -0.000090 0.707128
vn 0.705229 -0.000932 0.708979
vn 0.705932 -0.002304 0.708275
vn 0.707079 -0.002839 0.707129
vn 0.708222 -0.002320 0.705986
vn 0.708927 -0.000957 0.705281
vn 0.708930 0.000743 0.705278
vn 0.708229 0.002128 0.705979
vn 0.707093 0.002658 0.707115
vn -0.054929 0.587063 -0.807675
vn -0.054929 0.587063 -0.807675
vn 0.053528 0.587451 -0.807488
vn 0.051887 0.587496 -0.807562
vn -0.068035 0.000200 -0.997683
vn -0.068035 0.000200 -0.997683
vn 0.064997 0.000616 -0.997885
vn 0.065014 0.000616 -0.997884
vn -0.054968 -0.586710 -0.807930
vn -0.054968 -0.586710 -0.807929
vn 0.051929 -0.586435 -0.808330
vn 0.053596 -0.586377 -0.808263
vn -0.020603 -0.950774 -0.309200
vn -0.020603 -0.950774 -0.309200
vn 0.020134 -0.950625 -0.309686
vn 0.021172 -0.950601 -0.309692
vn 0.021977 -0.950918 0.308663
vn 0.021977 -0.950918 0.308663
vn -0.018556 -0.951160 0.308139
vn -0.019588 -0.951146 0.308120
vn 0.056362 -0.587115 0.807539
vn 0.056362 -0.587115 0.807539
vn -0.050412 -0.587831 0.807412
vn -0.052068 -0.587789 0.807337
vn 0.069469 -0.000330 0.997584
vn 0.069469 -0.000330 0.997584
vn -0.063572 -0.001003 0.997977
vn -0.063573 -0.001003 0.997977
vn 0.056408 0.586603 0.807908
vn 0.056408 0.586603 0.807908
vn -0.052174 0.586243 0.808453
vn -0.050521 0.586300 0.808517
vn 0.022047 0.950740 0.309204
vn 0.022047 0.950740 0.309204
vn -0.019734 0.950617 0.309739
vn -0.018702 0.950640 0.309732
vn -0.020536 0.950931 -0.308721
vn -0.020536 0.950931 -0.308721
vn 0.021049 0.951070 -0.308258
vn 0.020023 0.951086 -0.308276
vn 1.000000 0.000003 0.000000
vn 1.000000 0.000003 0.000000
vn 1.000000 0.000001 0.000000
vn 1.000000 0.000002 0.000000
vn 1.000000 0.000001 0.000000
vn 1.000000 -0.000001 0.000000
vn 1.000000 0.000003 0.000000
vn 1.000000 0.000003 0.000000
vn 1.000000 -0.000002 0.000000
vn 1.000000 -0.000002 0.000000
vn 1.000000 0.000000 0.000000
vn -0.999839 0.014238 -0.010884
vn -0.999832 0.005087 -0.017611
vn -1.000000 -0.000596 -0.000197
vn -0.999825 -0.006191 -0.017669
vn -0.999821 -0.015354 -0.011042
vn -0.999821 -0.018912 -0.000240
vn -0.999825 -0.015478 0.010535
vn -0.999832 -0.006374 0.017189
vn -0.999839 0.004985 0.017214
vn -0.999843 0.014192 0.010605
vn -0.999843 0.017714 -0.000097
vn -0.010529 0.951782 -0.306595
vn -0.012673 0.951748 -0.306619
vn 0.020847 0.951775 -0.306089
vn 0.020847 0.951775 -0.306089
vn 0.012076 0.950095 0.311726
vn 0.014238 0.950080 0.311682
vn -0.019771 0.949811 0.312199
vn -0.019771 0.949811 0.312199
vn 0.031561 0.584914 0.810481
vn 0.034977 0.584868 0.810374
vn -0.052488 0.583893 0.810132
vn -0.052488 0.583893 0.810132
vn 0.041027 -0.003456 0.999152
vn 0.040951 -0.003457 0.999155
vn -0.064833 -0.004170 0.997887
vn -0.064833 -0.004170 0.997887
vn 0.034947 -0.590168 0.806524
vn 0.031458 -0.590259 0.806600
vn -0.052205 -0.590300 0.805494
vn -0.052205 -0.590300 0.805494
vn 0.014114 -0.951895 0.306100
vn 0.011980 -0.951933 0.306071
vn -0.019362 -0.952002 0.305480
vn -0.019362 -0.952001 0.305480
vn -0.012798 -0.950140 -0.311561
vn -0.010643 -0.950153 -0.311602
vn 0.021206 -0.949833 -0.312038
vn 0.021206 -0.949833 -0.312038
vn -0.033541 -0.585516 -0.809967
vn -0.030140 -0.585564 -0.810066
vn 0.053893 -0.584592 -0.809536
vn 0.053893 -0.584592 -0.809536
vn -0.039511 0.002104 -0.999217
vn -0.039599 0.002104 -0.999213
vn 0.066270 0.002555 -0.997798
vn 0.066270 0.002555 -0.997798
vn -0.030006 0.589262 -0.807385
vn -0.033512 0.589181 -0.807306
vn 0.053702 0.589035 -0.806321
vn 0.053702 0.589035 -0.806321
vn -0.007071 0.951485 -0.307614
vn -0.006109 0.951488 -0.307626
vn 0.008768 0.950503 0.310592
vn 0.007806 0.950514 0.310584
vn 0.021092 0.586160 0.809921
vn 0.019577 0.586184 0.809942
vn 0.024872 -0.002001 0.999689
vn 0.024912 -0.002001 0.999688
vn 0.019352 -0.589268 0.807706
vn 0.020905 -0.589256 0.807676
vn 0.007528 -0.951575 0.307324
vn 0.008479 -0.951571 0.307311
vn -0.006348 -0.950548 -0.310512
vn -0.007303 -0.950539 -0.310520
vn -0.018101 -0.586562 -0.809702
vn -0.019596 -0.586541 -0.809683
vn -0.023473 0.001212 -0.999724
vn -0.023408 0.001212 -0.999725
vn -0.019519 0.588676 -0.808133
vn -0.017940 0.588690 -0.808160
s off
g Baton
usemtl initialShadingGroup
f 1/11/1 2/12/2 12/23/3 11/22/4
f 2/12/5 3/13/6 13/24/7 12/23/8
f 3/13/9 4/14/10 14/25/11 13/24/12
f 4/14/13 5/15/14 15/26/15 14/25/16
f 5/15/17 6/16/18 16/27/19 15/26/20
f 6/16/21 7/17/22 17/28/23 16/27/24
f 7/17/25 8/18/26 18/29/27 17/28/28
f 8/18/29 9/19/30 19/30/31 18/29/32
f 9/19/33 10/20/34 20/31/35 19/30/36
f 10/20/37 1/21/38 11/32/39 20/31/40
s 1
f 2/2/41 1/1/42 21/43/43
f 3/3/44 2/2/41 21/43/43
f 4/4/45 3/3/44 21/43/43
f 5/5/46 4/4/45 21/43/43
f 6/6/47 5/5/46 21/43/43
f 7/7/48 6/6/47 21/43/43
f 8/8/49 7/7/48 21/43/43
f 9/9/50 8/8/49 21/43/43
f 10/10/51 9/9/50 21/43/43
f 1/1/42 10/10/51 21/43/43
s 2
f 11/41/52 12/40/53 22/44/54
f 12/40/53 13/39/55 22/44/54
f 13/39/55 14/38/56 22/44/54
f 14/38/56 15/37/57 22/44/54
f 15/37/57 16/36/58 22/44/54
f 16/36/58 17/35/59 22/44/54
f 17/35/59 18/34/60 22/44/54
f 18/34/60 19/33/61 22/44/54
f 19/33/61 20/42/62 22/44/54
f 20/42/62 11/41/52 22/44/54
s 3
f 23/45/63 24/46/64 74/47/65 65/48/66
s 4
f 24/46/67 25/49/68 73/50/69 74/47/70
s 5
f 25/49/71 26/51/72 72/52/73 73/50/74
s 6
f 26/51/75 27/53/76 71/54/77 72/52/78
s 7
f 27/53/79 28/55/80 70/56/81 71/54/82
s 8
f 28/55/83 29/57/84 69/58/85 70/56/86
s 9
f 29/57/87 30/59/88 68/60/89 69/58/90
s 10
f 30/59/91 31/61/92 67/62/93 68/60/94
s 11
f 31/61/95 32/63/96 66/64/97 67/62/98
s 12
f 32/63/99 23/65/100 65/66/101 66/64/102
s 13
f 24/67/103 23/68/104 43/69/105
f 25/70/106 24/67/103 43/69/105
f 26/71/107 25/70/106 43/69/105
f 27/72/108 26/71/107 43/69/105
f 28/73/109 27/72/108 43/69/105
f 29/74/110 28/73/109 43/69/105
f 30/75/111 29/74/110 43/69/105
f 31/76/112 30/75/111 43/69/105
f 32/77/113 31/76/112 43/69/105
f 23/68/104 32/77/113 43/69/105
s 14
f 33/78/114 34/79/115 44/80/116
f 34/79/115 35/81/117 44/80/116
f 35/81/117 36/82/118 44/80/116
f 36/82/118 37/83/119 44/80/116
f 37/83/119 38/84/120 44/80/116
f 38/84/120 39/85/121 44/80/116
f 39/85/121 40/86/122 44/80/116
f 40/86/122 41/87/123 44/80/116
f 41/87/123 42/88/124 44/80/116
f 42/88/124 33/78/114 44/80/116
s 12
f 46/89/125 45/90/126 33/91/127 42/92/128
s 11
f 47/93/129 46/89/130 42/92/131 41/94/132
s 10
f 48/95/133 47/93/134 41/94/135 40/96/136
s 9
f 49/97/137 48/95/138 40/96/139 39/98/140
s 8
f 50/99/141 49/97/142 39/98/143 38/100/144
s 7
f 51/101/145 50/99/146 38/100/147 37/102/148
s 6
f 52/103/149 51/101/150 37/102/151 36/104/152
s 5
f 53/105/153 52/103/154 36/104/155 35/106/156
s 4
f 54/107/157 53/105/158 35/106/159 34/108/160
s 3
f 45/109/161 54/107/162 34/108/163 33/110/164
s 12
f 56/111/165 55/112/166 45/90/126 46/89/125
s 11
f 57/113/167 56/111/168 46/89/130 47/93/129
s 10
f 58/114/169 57/113/170 47/93/134 48/95/133
s 9
f 59/115/171 58/114/172 48/95/138 49/97/137
s 8
f 60/116/173 59/115/174 49/97/142 50/99/141
s 7
f 61/117/175 60/116/176 50/99/146 51/101/145
s 6
f 62/118/177 61/117/178 51/101/150 52/103/149
s 5
f 63/119/179 62/118/180 52/103/154 53/105/153
s 4
f 64/120/181 63/119/182 53/105/158 54/107/157
s 3
f 55/121/183 64/120/184 54/107/162 45/109/161
s 12
f 66/64/102 65/66/101 55/112/166 56/111/165
s 11
f 67/62/98 66/64/97 56/111/168 57/113/167
s 10
f 68/60/94 67/62/93 57/113/170 58/114/169
s 9
f 69/58/90 68/60/89 58/114/172 59/115/171
s 8
f 70/56/86 69/58/85 59/115/174 60/116/173
s 7
f 71/54/82 70/56/81 60/116/176 61/117/175
s 6
f 72/52/78 71/54/77 61/117/178 62/118/177
s 5
f 73/50/74 72/52/73 62/118/180 63/119/179
s 4
f 74/47/70 73/50/69 63/119/182 64/120/181
s 3
f 65/48/66 74/47/65 64/120/184 55/121/183
