# This file uses centimeters as units for non-parametric coordinates.

mtllib Falaise.mtl
g default
v -0.500000 -0.500000 0.050000
v 0.500000 -0.500000 0.050000
v -0.500000 0.500000 0.052131
v 0.500000 0.500000 0.050000
v -0.500000 0.500000 -0.054817
v 0.500000 0.500000 -0.055412
v -0.500000 -0.500000 -0.050000
v 0.500000 -0.500000 -0.050000
v -0.285612 -0.500000 0.050000
v -0.285612 0.500000 0.051573
v -0.285612 0.500000 -0.063500
v -0.285612 -0.500000 -0.063429
v -0.500000 0.500000 -0.029700
v -0.500000 -0.500000 -0.029700
v -0.285612 -0.500000 -0.029700
v 0.500000 -0.500000 -0.029700
v 0.500000 0.500000 -0.029700
v -0.285612 0.500000 -0.029700
v -0.500000 0.500000 0.029791
v -0.500000 -0.500000 0.029791
v -0.285612 -0.500000 0.029791
v 0.500000 -0.500000 0.029791
v 0.500000 0.500000 0.029791
v -0.295081 0.500329 0.016470
v -0.019326 -0.500000 0.061202
v -0.019326 0.500000 0.063503
v -0.019326 0.500000 0.029791
v -0.016479 0.495255 -0.029936
v -0.019326 0.500000 -0.054004
v -0.019326 -0.500000 -0.050000
v -0.019326 -0.500000 -0.029700
v -0.019326 -0.500000 0.029791
v 0.323106 0.479825 -0.027510
v 0.310964 0.500080 0.026237
v 0.320712 0.500000 0.103613
v 0.320712 -0.500000 0.104279
v 0.320712 -0.500000 0.029791
v 0.320712 -0.500000 -0.029700
v 0.320712 -0.500000 -0.050000
v 0.320712 0.500000 -0.055911
v -0.371578 -0.500000 0.188228
v -0.371578 0.500000 0.190025
v -0.396151 0.499786 0.021812
v -0.371578 0.500000 -0.029700
v -0.371578 0.500000 -0.060018
v -0.371578 -0.500000 -0.058044
v -0.371578 -0.500000 -0.029700
v -0.371578 -0.500000 0.029791
v -0.184678 -0.500000 0.093746
v -0.184678 0.500000 0.095527
v -0.210015 0.498302 0.022869
v -0.208868 0.500872 -0.029767
v -0.209680 0.500000 -0.060792
v -0.209680 -0.500000 -0.059600
v -0.209680 -0.500000 -0.029700
v -0.209680 -0.500000 0.029791
v 0.082686 -0.500000 0.160296
v 0.082686 0.500000 0.161706
v 0.079761 0.500024 0.028725
v 0.085397 0.490626 -0.029208
v 0.082686 0.500000 -0.054576
v 0.082686 -0.500000 -0.050000
v 0.082686 -0.500000 -0.029700
v 0.082686 -0.500000 0.029791
v 0.204251 0.485226 -0.028359
v 0.195363 0.500052 0.027481
v 0.201699 0.500000 0.132402
v 0.201699 -0.500000 0.132030
v 0.201699 -0.500000 0.029791
v 0.201699 -0.500000 -0.029700
v 0.201699 -0.500000 -0.050000
v 0.201699 0.500000 -0.055243
v 0.393863 0.487895 -0.028386
v 0.386578 0.500048 0.027659
v 0.430686 0.500000 0.121701
v 0.430686 -0.500000 0.122101
v 0.392427 -0.500000 0.029791
v 0.392427 -0.500000 -0.029700
v 0.392427 -0.500000 -0.050000
v 0.392427 0.500000 -0.055711
v -0.500000 0.300000 0.051705
v -0.500000 0.300000 0.029791
v -0.500000 0.300000 -0.029700
v -0.500000 0.300000 -0.053853
v -0.371578 0.300000 -0.059623
v -0.285612 0.300000 -0.063486
v -0.209680 0.300000 -0.060554
v -0.019326 0.300000 -0.053203
v 0.082686 0.300000 -0.053661
v 0.201699 0.300000 -0.054195
v 0.320712 0.300000 -0.054728
v 0.392427 0.300000 -0.054569
v 0.500000 0.300000 -0.054330
v 0.500000 0.300000 -0.029700
v 0.500000 0.300000 0.029791
v 0.500000 0.300000 0.050000
v 0.430686 0.300000 0.121781
v 0.320712 0.300000 0.103746
v 0.201699 0.300000 0.076102
v 0.082686 0.300000 0.161424
v -0.019326 0.300000 0.094965
v -0.184678 0.300000 0.095171
v -0.303475 0.300000 0.051258
v -0.371578 0.300000 0.151206
v -0.500000 0.140000 0.051364
v -0.500000 0.140000 0.029791
v -0.500000 0.140000 -0.029700
v -0.500000 0.140000 -0.053083
v -0.371578 0.140000 -0.059308
v -0.285612 0.140000 -0.063474
v -0.209680 0.140000 -0.060363
v -0.019326 0.140000 -0.052563
v 0.082686 0.140000 -0.052929
v 0.201699 0.140000 -0.053356
v 0.320712 0.140000 -0.053783
v 0.392427 0.140000 -0.053655
v 0.500000 0.140000 -0.053464
v 0.500000 0.140000 -0.029700
v 0.500000 0.140000 0.029791
v 0.500000 0.140000 0.050000
v 0.430686 0.140000 0.121845
v 0.320712 0.140000 0.103853
v 0.232137 0.140000 0.132268
v 0.082686 0.140000 0.161199
v -0.019326 0.140000 0.107071
v -0.184678 0.140000 0.094886
v -0.285612 0.140000 0.051007
v -0.371578 0.140000 0.189378
v -0.500000 -0.116000 0.050818
v -0.500000 -0.116000 0.029791
v -0.500000 -0.116000 -0.029700
v -0.500000 -0.116000 -0.051850
v -0.371578 -0.116000 -0.058802
v -0.285612 -0.116000 -0.063456
v -0.209680 -0.116000 -0.060058
v -0.019326 -0.116000 -0.051538
v 0.082686 -0.116000 -0.051757
v 0.201699 -0.116000 -0.052013
v 0.320712 -0.116000 -0.052270
v 0.392427 -0.116000 -0.052193
v 0.500000 -0.116000 -0.052078
v 0.500000 -0.116000 -0.029700
v 0.500000 -0.116000 0.029791
v 0.500000 -0.116000 0.050000
v 0.430686 -0.116000 0.121947
v 0.320712 -0.116000 0.104023
v 0.201699 -0.116000 0.132173
v 0.082686 -0.116000 0.037336
v -0.019326 -0.116000 0.062086
v -0.184678 -0.116000 0.094430
v -0.255613 -0.116000 0.050604
v -0.371578 -0.116000 0.188918
v -0.500000 -0.346400 0.050327
v -0.500000 -0.346400 0.029791
v -0.500000 -0.346400 -0.029700
v -0.500000 -0.346400 -0.050740
v -0.371578 -0.346400 -0.058348
v -0.285612 -0.346400 -0.063440
v -0.209680 -0.346400 -0.059783
v -0.019326 -0.346400 -0.050615
v 0.082686 -0.346400 -0.050703
v 0.201699 -0.346400 -0.050805
v 0.320712 -0.346400 -0.050908
v 0.392427 -0.346400 -0.050877
v 0.500000 -0.346400 -0.050831
v 0.500000 -0.346400 -0.029700
v 0.500000 -0.346400 0.029791
v 0.500000 -0.346400 0.050000
v 0.430686 -0.346400 0.122040
v 0.293110 -0.346400 0.104177
v 0.201699 -0.346400 0.132087
v 0.082686 -0.346400 0.155546
v -0.019326 -0.346400 0.061556
v -0.184678 -0.327558 0.094020
v -0.285612 -0.346400 0.050242
v -0.393779 -0.346400 0.188504
vt 0.375000 0.000000
vt 0.625000 0.000000
vt 0.375000 0.250000
vt 0.625000 0.250000
vt 0.375000 0.500000
vt 0.625000 0.500000
vt 0.375000 0.750000
vt 0.625000 0.750000
vt 0.375000 1.000000
vt 0.625000 1.000000
vt 0.875000 0.000000
vt 0.875000 0.250000
vt 0.125000 0.000000
vt 0.125000 0.250000
vt 0.428597 0.000000
vt 0.428597 1.000000
vt 0.428597 0.250000
vt 0.428597 0.500000
vt 0.428597 0.750000
vt 0.175749 0.250000
vt 0.375000 0.449251
vt 0.175749 0.000000
vt 0.375000 0.800749
vt 0.428597 0.800749
vt 0.625000 0.800749
vt 0.824251 0.000000
vt 0.625000 0.449251
vt 0.824251 0.250000
vt 0.428597 0.449251
vt 0.324478 0.250000
vt 0.375000 0.300522
vt 0.324478 0.000000
vt 0.375000 0.949478
vt 0.428597 0.949478
vt 0.625000 0.949478
vt 0.675522 0.000000
vt 0.625000 0.300522
vt 0.675522 0.250000
vt 0.428597 0.300522
vt 0.495169 0.000000
vt 0.495169 1.000000
vt 0.495169 0.250000
vt 0.495169 0.300522
vt 0.495169 0.449251
vt 0.495169 0.500000
vt 0.495169 0.750000
vt 0.495169 0.800749
vt 0.495169 0.949478
vt 0.580178 0.449251
vt 0.580178 0.300522
vt 0.580178 0.250000
vt 0.580178 0.000000
vt 0.580178 1.000000
vt 0.580178 0.949478
vt 0.580178 0.800749
vt 0.580178 0.750000
vt 0.580178 0.500000
vt 0.407105 0.000000
vt 0.407105 1.000000
vt 0.407105 0.250000
vt 0.407105 0.300522
vt 0.407105 0.449251
vt 0.407105 0.500000
vt 0.407105 0.750000
vt 0.407105 0.800749
vt 0.407105 0.949478
vt 0.447580 0.000000
vt 0.447580 1.000000
vt 0.447580 0.250000
vt 0.447580 0.300522
vt 0.447580 0.449251
vt 0.447580 0.500000
vt 0.447580 0.750000
vt 0.447580 0.800749
vt 0.447580 0.949478
vt 0.520671 0.000000
vt 0.520671 1.000000
vt 0.520671 0.250000
vt 0.520671 0.300522
vt 0.520671 0.449251
vt 0.520671 0.500000
vt 0.520671 0.750000
vt 0.520671 0.800749
vt 0.520671 0.949478
vt 0.550425 0.449251
vt 0.550425 0.300522
vt 0.550425 0.250000
vt 0.550425 0.000000
vt 0.550425 1.000000
vt 0.550425 0.949478
vt 0.550425 0.800749
vt 0.550425 0.750000
vt 0.550425 0.500000
vt 0.598107 0.449251
vt 0.598107 0.300522
vt 0.598107 0.250000
vt 0.598107 0.000000
vt 0.598107 1.000000
vt 0.598107 0.949478
vt 0.598107 0.800749
vt 0.598107 0.750000
vt 0.598107 0.500000
vt 0.375000 0.200000
vt 0.324478 0.200000
vt 0.175749 0.200000
vt 0.125000 0.200000
vt 0.375000 0.550000
vt 0.407105 0.550000
vt 0.428597 0.550000
vt 0.447580 0.550000
vt 0.495169 0.550000
vt 0.520671 0.550000
vt 0.550425 0.550000
vt 0.580178 0.550000
vt 0.598107 0.550000
vt 0.625000 0.550000
vt 0.875000 0.200000
vt 0.824251 0.200000
vt 0.675522 0.200000
vt 0.625000 0.200000
vt 0.598107 0.200000
vt 0.580178 0.200000
vt 0.550425 0.200000
vt 0.520671 0.200000
vt 0.495169 0.200000
vt 0.447580 0.200000
vt 0.428597 0.200000
vt 0.407105 0.200000
vt 0.375000 0.160000
vt 0.324478 0.160000
vt 0.175749 0.160000
vt 0.125000 0.160000
vt 0.375000 0.590000
vt 0.407105 0.590000
vt 0.428597 0.590000
vt 0.447580 0.590000
vt 0.495169 0.590000
vt 0.520671 0.590000
vt 0.550425 0.590000
vt 0.580178 0.590000
vt 0.598107 0.590000
vt 0.625000 0.590000
vt 0.875000 0.160000
vt 0.824251 0.160000
vt 0.675522 0.160000
vt 0.625000 0.160000
vt 0.598107 0.160000
vt 0.580178 0.160000
vt 0.550425 0.160000
vt 0.520671 0.160000
vt 0.495169 0.160000
vt 0.447580 0.160000
vt 0.428597 0.160000
vt 0.407105 0.160000
vt 0.375000 0.096000
vt 0.324478 0.096000
vt 0.175749 0.096000
vt 0.125000 0.096000
vt 0.375000 0.654000
vt 0.407105 0.654000
vt 0.428597 0.654000
vt 0.447580 0.654000
vt 0.495169 0.654000
vt 0.520671 0.654000
vt 0.550425 0.654000
vt 0.580178 0.654000
vt 0.598107 0.654000
vt 0.625000 0.654000
vt 0.875000 0.096000
vt 0.824251 0.096000
vt 0.675522 0.096000
vt 0.625000 0.096000
vt 0.598107 0.096000
vt 0.580178 0.096000
vt 0.550425 0.096000
vt 0.520671 0.096000
vt 0.495169 0.096000
vt 0.447580 0.096000
vt 0.428597 0.096000
vt 0.407105 0.096000
vt 0.375000 0.038400
vt 0.324478 0.038400
vt 0.175749 0.038400
vt 0.125000 0.038400
vt 0.375000 0.711600
vt 0.407105 0.711600
vt 0.428597 0.711600
vt 0.447580 0.711600
vt 0.495169 0.711600
vt 0.520671 0.711600
vt 0.550425 0.711600
vt 0.580178 0.711600
vt 0.598107 0.711600
vt 0.625000 0.711600
vt 0.875000 0.038400
vt 0.824251 0.038400
vt 0.675522 0.038400
vt 0.625000 0.038400
vt 0.598107 0.038400
vt 0.580178 0.038400
vt 0.550425 0.038400
vt 0.520671 0.038400
vt 0.495169 0.038400
vt 0.447580 0.038400
vt 0.428597 0.038400
vt 0.407105 0.038400
vn -0.761141 -0.056276 0.646140
vn 0.009210 -0.001171 0.999957
vn -0.006487 -0.026189 0.999636
vn -0.762260 -0.001879 0.647268
vn 0.001673 0.999998 -0.001341
vn -0.000281 1.000000 -0.000192
vn -0.000620 1.000000 0.000563
vn 0.001535 0.999999 -0.000628
vn -0.058322 -0.003389 -0.998292
vn -0.058288 -0.002441 -0.998297
vn -0.060827 -0.002447 -0.998145
vn -0.060827 -0.003389 -0.998143
vn 0.000000 -1.000000 0.000000
vn 0.000000 -1.000000 0.000000
vn 0.000000 -1.000000 0.000000
vn 0.000000 -1.000000 0.000000
vn 1.000000 0.000000 0.000000
vn 1.000000 0.000000 0.000000
vn 1.000000 0.000000 0.000000
vn 1.000000 0.000000 0.000000
vn -1.000000 0.000000 0.000000
vn -1.000000 0.000000 0.000000
vn -1.000000 0.000000 0.000000
vn -1.000000 0.000000 0.000000
vn -0.043992 0.004946 0.999020
vn 0.435948 -0.018466 0.899782
vn 0.409633 0.043094 0.911232
vn -0.042375 -0.001791 0.999100
vn -0.002558 0.999883 -0.015062
vn 0.007303 0.999873 -0.014199
vn 0.001911 0.999992 0.003591
vn 0.003023 0.999985 -0.004516
vn -0.009238 -0.000839 -0.999957
vn -0.008681 -0.000839 -0.999962
vn 0.047540 -0.002035 -0.998867
vn 0.049238 -0.002037 -0.998785
vn 0.000000 -1.000000 0.000000
vn 0.000000 -1.000000 0.000000
vn 0.000000 -1.000000 0.000000
vn 0.000000 -1.000000 0.000000
vn -1.000000 0.000000 0.000000
vn -1.000000 0.000000 0.000000
vn -1.000000 0.000000 0.000000
vn -1.000000 0.000000 0.000000
vn 0.000000 -1.000000 0.000000
vn 0.000000 -1.000000 0.000000
vn 0.000000 -1.000000 0.000000
vn 0.000000 -1.000000 0.000000
vn 0.000000 -1.000000 0.000000
vn 0.000000 -1.000000 0.000000
vn 0.000000 -1.000000 0.000000
vn 0.000000 -1.000000 0.000000
vn 1.000000 0.000000 0.000000
vn 1.000000 0.000000 0.000000
vn 1.000000 0.000000 0.000000
vn 1.000000 0.000000 0.000000
vn -0.002640 0.999976 -0.006447
vn -0.000093 0.999993 0.003826
vn 0.008708 0.999915 0.009666
vn 0.005446 0.999396 0.034331
vn 0.000640 0.999999 0.001383
vn -0.000445 1.000000 0.000178
vn 0.000000 1.000000 0.000000
vn 0.000000 1.000000 0.000000
vn 0.720531 0.000139 0.693423
vn 0.270005 0.000395 0.962859
vn 0.270287 -0.007596 0.962750
vn 0.720752 0.000139 0.693192
vn -0.024572 0.998486 -0.049214
vn -0.023289 0.996910 -0.075016
vn 0.000147 1.000000 0.000635
vn 0.000368 1.000000 0.000278
vn -0.054782 0.998471 0.007458
vn -0.054342 0.998522 -0.001350
vn -0.051217 0.933909 0.353823
vn -0.054060 0.973186 0.223576
vn 0.000214 -0.005661 -0.999984
vn 0.000534 -0.005661 -0.999984
vn 0.000534 -0.005562 -0.999984
vn 0.000214 -0.005562 -0.999985
vn 0.000000 -1.000000 0.000000
vn 0.000000 -1.000000 0.000000
vn 0.000000 -1.000000 0.000000
vn 0.000000 -1.000000 0.000000
vn 0.000000 -1.000000 0.000000
vn 0.000000 -1.000000 0.000000
vn 0.000000 -1.000000 0.000000
vn 0.000000 -1.000000 0.000000
vn 0.007956 0.998292 -0.057883
vn 0.022559 0.999729 0.005828
vn 0.015336 0.999833 0.009983
vn 0.004159 0.999588 -0.028383
vn -0.000093 1.000000 0.000299
vn -0.003016 0.999969 -0.007277
vn -0.305320 0.067309 0.949868
vn -0.102482 0.058485 0.993014
vn -0.217876 0.003943 0.975969
vn -0.300167 0.014151 0.953782
vn 0.000000 -1.000000 0.000000
vn 0.000000 -1.000000 0.000000
vn 0.000000 -1.000000 0.000000
vn 0.000000 -1.000000 0.000000
vn 0.000000 -1.000000 0.000000
vn 0.000000 -1.000000 0.000000
vn 0.000000 -1.000000 0.000000
vn 0.000000 -1.000000 0.000000
vn 0.031800 -0.003191 -0.999489
vn 0.030585 -0.003188 -0.999527
vn -0.001076 -0.004624 -0.999989
vn -0.000431 -0.004624 -0.999989
vn 0.015919 0.991453 0.129492
vn 0.020922 0.933576 0.357769
vn 0.052587 0.000422 0.998616
vn 0.075161 0.084192 0.993611
vn 0.232881 0.018804 0.972323
vn 0.033270 0.003355 0.999441
vn 0.000024 1.000000 0.000721
vn -0.002902 0.992267 -0.124090
vn 0.007742 0.996015 -0.088853
vn -0.000072 1.000000 0.000363
vn -0.007337 0.999670 -0.024633
vn 0.022406 0.999728 0.006553
vn 0.019521 0.876070 0.481788
vn -0.005598 0.852816 0.522182
vn -0.000431 -0.005243 -0.999986
vn -0.001076 -0.005243 -0.999986
vn -0.000471 -0.005665 -0.999984
vn -0.000188 -0.005665 -0.999984
vn 0.000000 -1.000000 0.000000
vn 0.000000 -1.000000 0.000000
vn 0.000000 -1.000000 0.000000
vn 0.000000 -1.000000 0.000000
vn 0.000000 -1.000000 0.000000
vn 0.000000 -1.000000 0.000000
vn 0.000000 -1.000000 0.000000
vn 0.000000 -1.000000 0.000000
vn -1.000000 0.000000 0.000000
vn -1.000000 0.000000 0.000000
vn -1.000000 0.000000 0.000000
vn -1.000000 0.000000 0.000000
vn -1.000000 0.000000 0.000000
vn -1.000000 0.000000 0.000000
vn -1.000000 0.000000 0.000000
vn -1.000000 0.000000 0.000000
vn -0.042675 -0.003392 -0.999083
vn -0.042676 -0.002436 -0.999086
vn -0.044440 -0.002442 -0.999009
vn -0.044466 -0.003392 -0.999005
vn -0.005650 -0.000839 -0.999984
vn -0.005263 -0.000839 -0.999986
vn 0.038289 -0.002036 -0.999265
vn 0.037111 -0.002034 -0.999309
vn 0.023337 -0.003188 -0.999723
vn 0.022480 -0.003185 -0.999742
vn -0.004597 -0.004624 -0.999979
vn -0.005046 -0.004624 -0.999977
vn -0.004597 -0.005243 -0.999976
vn -0.005046 -0.005244 -0.999973
vn -0.002012 -0.005665 -0.999982
vn -0.002206 -0.005665 -0.999981
vn 0.002280 -0.005661 -0.999981
vn 0.002503 -0.005661 -0.999981
vn 0.002280 -0.005562 -0.999982
vn 0.002503 -0.005562 -0.999981
vn 1.000000 0.000000 0.000000
vn 1.000000 0.000000 0.000000
vn 1.000000 0.000000 0.000000
vn 1.000000 0.000000 0.000000
vn 1.000000 0.000000 0.000000
vn 1.000000 0.000000 0.000000
vn 1.000000 0.000000 0.000000
vn 1.000000 0.000000 0.000000
vn 0.286912 0.000388 0.957957
vn 0.287075 0.000388 0.957908
vn 0.719319 0.000139 0.694680
vn 0.719164 0.000139 0.694841
vn -0.075967 -0.072312 0.994485
vn -0.078780 -0.004617 0.996881
vn 0.371172 -0.129903 0.919433
vn 0.201464 -0.003685 0.979489
vn -0.112189 -0.039939 0.992884
vn -0.067423 0.041193 0.996874
vn -0.195689 0.076092 0.977709
vn -0.282395 0.060796 0.957370
vn -0.100308 0.052853 0.993552
vn -0.135488 0.034879 0.990165
vn 0.367075 -0.054413 0.928598
vn 0.381357 -0.000903 0.924428
vn -0.003033 -0.122825 0.992424
vn 0.004882 0.000069 0.999988
vn -0.678841 -0.000385 0.734285
vn -0.677002 -0.071863 0.732464
vn -1.000000 0.000000 0.000000
vn -1.000000 0.000000 0.000000
vn -1.000000 0.000000 0.000000
vn -1.000000 0.000000 0.000000
vn -0.049471 -0.002439 -0.998773
vn -0.049502 -0.003391 -0.998768
vn -0.006750 -0.000839 -0.999977
vn 0.041649 -0.002035 -0.999130
vn 0.026004 -0.003187 -0.999657
vn -0.003319 -0.004624 -0.999984
vn -0.003319 -0.005243 -0.999981
vn -0.001452 -0.005665 -0.999983
vn 0.001646 -0.005661 -0.999983
vn 0.001646 -0.005562 -0.999983
vn 1.000000 -0.000000 0.000000
vn 1.000000 0.000000 0.000000
vn 1.000000 -0.000000 0.000000
vn 1.000000 0.000000 0.000000
vn 0.287851 0.000388 0.957675
vn 0.719759 0.000139 0.694224
vn -0.002254 0.028551 0.999590
vn 0.139435 0.003344 0.990225
vn -0.072908 0.022126 0.997093
vn -0.161249 -0.129391 0.978395
vn -0.150865 -0.035759 0.987907
vn 0.423996 0.039903 0.904785
vn 0.000305 0.048334 0.998831
vn -0.713118 0.030463 0.700381
vn -1.000000 0.000000 0.000000
vn -1.000000 0.000000 0.000000
vn -1.000000 0.000000 0.000000
vn -1.000000 0.000000 0.000000
vn -0.053774 -0.002440 -0.998550
vn -0.053816 -0.003390 -0.998545
vn -0.007692 -0.000839 -0.999970
vn 0.044524 -0.002035 -0.999006
vn 0.028238 -0.003187 -0.999596
vn -0.002225 -0.004624 -0.999987
vn -0.002225 -0.005243 -0.999984
vn -0.000974 -0.005665 -0.999983
vn 0.001103 -0.005661 -0.999983
vn 0.001103 -0.005562 -0.999984
vn 1.000000 0.000000 0.000000
vn 1.000000 0.000000 0.000000
vn 1.000000 0.000000 0.000000
vn 1.000000 0.000000 0.000000
vn 0.279097 0.003022 0.960258
vn 0.720136 0.000139 0.693833
vn 0.042831 -0.004740 0.999071
vn -0.028963 -0.015097 0.999466
vn -0.241681 -0.038358 0.969597
vn -0.045413 -0.078855 0.995851
vn -0.093276 -0.032887 0.995097
vn 0.441955 -0.016679 0.896882
vn 0.004037 -0.001662 0.999990
vn -0.746409 0.015975 0.665296
s 1
g Falaise
usemtl initialShadingGroup
f 1/1/1 41/58/2 176/206/3 153/181/4
s 2
f 3/3/5 42/60/6 43/61/7 19/31/8
s 3
f 156/185/9 157/186/10 46/64/11 7/7/12
s 4
f 20/33/13 48/66/14 41/59/15 1/9/16
s 5
f 2/2/17 22/36/18 167/197/19 168/198/20
s 6
f 153/181/21 154/182/22 20/32/23 1/1/24
s 1
f 174/204/25 175/205/26 9/15/27 49/67/28
s 2
f 50/69/29 51/70/30 24/39/31 10/17/32
s 3
f 12/19/33 158/187/34 159/188/35 54/73/36
s 4
f 9/16/37 21/34/38 56/75/39 49/68/40
s 6
f 7/13/41 14/22/42 155/183/43 156/184/44
s 4
f 7/7/45 46/64/46 47/65/47 14/23/48
f 54/73/49 55/74/50 15/24/51 12/19/52
s 5
f 165/195/53 166/196/54 16/26/55 8/11/56
s 2
f 11/18/57 18/29/58 52/71/59 53/72/60
f 13/21/61 44/62/62 45/63/63 5/5/64
s 6
f 154/182/22 155/183/43 14/22/42 20/32/23
s 4
f 14/23/48 47/65/47 48/66/14 20/33/13
f 55/74/50 56/75/39 21/34/38 15/24/51
s 5
f 166/196/54 167/197/19 22/36/18 16/26/55
s 2
f 51/70/30 52/71/59 18/29/58 24/39/31
f 19/31/8 43/61/7 44/62/62 13/21/61
s 1
f 168/198/65 169/199/66 76/97/67 2/2/68
s 2
f 23/37/69 74/95/70 75/96/71 4/4/72
f 17/27/73 73/94/74 74/95/70 23/37/69
f 80/102/75 73/94/74 17/27/73 6/6/76
s 3
f 79/101/77 164/193/78 165/194/79 8/8/80
s 4
f 16/25/81 78/100/82 79/101/83 8/8/84
f 22/35/85 77/99/86 78/100/82 16/25/81
f 76/98/87 77/99/86 22/35/85 2/10/88
s 2
f 59/79/89 60/80/90 28/44/91 27/43/92
f 58/78/93 59/79/89 27/43/92 26/42/94
s 1
f 172/202/95 173/203/96 25/40/97 57/76/98
s 4
f 25/41/99 32/48/100 64/84/101 57/77/102
f 63/83/103 64/84/101 32/48/100 31/47/104
f 62/82/105 63/83/103 31/47/104 30/46/106
s 3
f 30/46/107 160/189/108 161/190/109 62/82/110
s 2
f 29/45/111 28/44/91 60/80/90 61/81/112
s 1
f 175/205/26 176/206/3 41/58/2 9/15/27
s 2
f 43/61/7 42/60/6 10/17/32 24/39/31
f 44/62/62 43/61/7 24/39/31 18/29/58
f 45/63/63 44/62/62 18/29/58 11/18/57
s 3
f 46/64/11 157/186/10 158/187/34 12/19/33
s 4
f 47/65/47 46/64/46 12/19/52 15/24/51
f 48/66/14 47/65/47 15/24/51 21/34/38
f 41/59/15 48/66/14 21/34/38 9/16/37
s 1
f 173/203/96 174/204/25 49/67/28 25/40/97
s 2
f 26/42/94 27/43/92 51/70/30 50/69/29
f 27/43/92 28/44/91 52/71/59 51/70/30
f 53/72/60 52/71/59 28/44/91 29/45/111
s 3
f 54/73/36 159/188/35 160/189/108 30/46/107
s 4
f 30/46/106 31/47/104 55/74/50 54/73/49
f 31/47/104 32/48/100 56/75/39 55/74/50
f 49/68/40 56/75/39 32/48/100 25/41/99
s 1
f 170/200/113 171/201/114 68/88/115 36/52/116
s 2
f 35/51/117 34/50/118 66/86/119 67/87/120
f 34/50/118 33/49/121 65/85/122 66/86/119
f 72/93/123 65/85/122 33/49/121 40/57/124
s 3
f 71/92/125 162/191/126 163/192/127 39/56/128
s 4
f 39/56/129 38/55/130 70/91/131 71/92/132
f 38/55/130 37/54/133 69/90/134 70/91/131
f 68/89/135 69/90/134 37/54/133 36/53/136
s 2
f 66/86/119 65/85/122 60/80/90 59/79/89
f 67/87/120 66/86/119 59/79/89 58/78/93
s 1
f 171/201/114 172/202/95 57/76/98 68/88/115
s 4
f 57/77/102 64/84/101 69/90/134 68/89/135
f 70/91/131 69/90/134 64/84/101 63/83/103
f 71/92/132 70/91/131 63/83/103 62/82/105
s 3
f 62/82/110 161/190/109 162/191/126 71/92/125
s 2
f 61/81/112 60/80/90 65/85/122 72/93/123
f 74/95/70 73/94/74 33/49/121 34/50/118
f 75/96/71 74/95/70 34/50/118 35/51/117
s 1
f 169/199/66 170/200/113 36/52/116 76/97/67
s 4
f 36/53/136 37/54/133 77/99/86 76/98/87
f 78/100/82 77/99/86 37/54/133 38/55/130
f 79/101/83 78/100/82 38/55/130 39/56/129
s 3
f 39/56/128 163/192/127 164/193/78 79/101/77
s 2
f 40/57/124 33/49/121 73/94/74 80/102/75
s 6
f 19/30/137 82/104/138 81/103/139 3/3/140
f 13/20/141 83/105/142 82/104/138 19/30/137
f 84/106/143 83/105/142 13/20/141 5/14/144
s 3
f 5/5/145 45/63/146 85/108/147 84/107/148
f 86/109/149 85/108/147 45/63/146 11/18/150
f 87/110/151 86/109/149 11/18/150 53/72/152
f 88/111/153 87/110/151 53/72/152 29/45/154
f 89/112/155 88/111/153 29/45/154 61/81/156
f 90/113/157 89/112/155 61/81/156 72/93/158
f 91/114/159 90/113/157 72/93/158 40/57/160
f 92/115/161 91/114/159 40/57/160 80/102/162
f 93/116/163 92/115/161 80/102/162 6/6/164
s 5
f 17/28/165 94/118/166 93/117/167 6/12/168
f 23/38/169 95/119/170 94/118/166 17/28/165
f 96/120/171 95/119/170 23/38/169 4/4/172
s 1
f 75/96/173 97/121/174 96/120/175 4/4/176
f 35/51/177 98/122/178 97/121/174 75/96/173
f 67/87/179 99/123/180 98/122/178 35/51/177
f 58/78/181 100/124/182 99/123/180 67/87/179
f 26/42/183 101/125/184 100/124/182 58/78/181
f 50/69/185 102/126/186 101/125/184 26/42/183
f 10/17/187 103/127/188 102/126/186 50/69/185
f 42/60/189 104/128/190 103/127/188 10/17/187
f 81/103/191 104/128/190 42/60/189 3/3/192
s 6
f 81/103/139 82/104/138 106/130/193 105/129/194
f 82/104/138 83/105/142 107/131/195 106/130/193
f 108/132/196 107/131/195 83/105/142 84/106/143
s 3
f 84/107/148 85/108/147 109/134/197 108/133/198
f 110/135/199 109/134/197 85/108/147 86/109/149
f 111/136/200 110/135/199 86/109/149 87/110/151
f 112/137/201 111/136/200 87/110/151 88/111/153
f 113/138/202 112/137/201 88/111/153 89/112/155
f 114/139/203 113/138/202 89/112/155 90/113/157
f 115/140/204 114/139/203 90/113/157 91/114/159
f 116/141/205 115/140/204 91/114/159 92/115/161
f 117/142/206 116/141/205 92/115/161 93/116/163
s 5
f 93/117/167 94/118/166 118/144/207 117/143/208
f 94/118/166 95/119/170 119/145/209 118/144/207
f 120/146/210 119/145/209 95/119/170 96/120/171
s 1
f 96/120/175 97/121/174 121/147/211 120/146/212
f 97/121/174 98/122/178 122/148/213 121/147/211
f 98/122/178 99/123/180 123/149/214 122/148/213
f 99/123/180 100/124/182 124/150/215 123/149/214
f 100/124/182 101/125/184 125/151/216 124/150/215
f 101/125/184 102/126/186 126/152/217 125/151/216
f 102/126/186 103/127/188 127/153/218 126/152/217
f 103/127/188 104/128/190 128/154/219 127/153/218
f 105/129/220 128/154/219 104/128/190 81/103/191
s 6
f 105/129/194 106/130/193 130/156/221 129/155/222
f 106/130/193 107/131/195 131/157/223 130/156/221
f 132/158/224 131/157/223 107/131/195 108/132/196
s 3
f 108/133/198 109/134/197 133/160/225 132/159/226
f 134/161/227 133/160/225 109/134/197 110/135/199
f 135/162/228 134/161/227 110/135/199 111/136/200
f 136/163/229 135/162/228 111/136/200 112/137/201
f 137/164/230 136/163/229 112/137/201 113/138/202
f 138/165/231 137/164/230 113/138/202 114/139/203
f 139/166/232 138/165/231 114/139/203 115/140/204
f 140/167/233 139/166/232 115/140/204 116/141/205
f 141/168/234 140/167/233 116/141/205 117/142/206
s 5
f 117/143/208 118/144/207 142/170/235 141/169/236
f 118/144/207 119/145/209 143/171/237 142/170/235
f 144/172/238 143/171/237 119/145/209 120/146/210
s 1
f 120/146/212 121/147/211 145/173/239 144/172/240
f 121/147/211 122/148/213 146/174/241 145/173/239
f 122/148/213 123/149/214 147/175/242 146/174/241
f 123/149/214 124/150/215 148/176/243 147/175/242
f 124/150/215 125/151/216 149/177/244 148/176/243
f 125/151/216 126/152/217 150/178/245 149/177/244
f 126/152/217 127/153/218 151/179/246 150/178/245
f 127/153/218 128/154/219 152/180/247 151/179/246
f 129/155/248 152/180/247 128/154/219 105/129/220
s 6
f 129/155/222 130/156/221 154/182/22 153/181/21
f 130/156/221 131/157/223 155/183/43 154/182/22
f 156/184/44 155/183/43 131/157/223 132/158/224
s 3
f 132/159/226 133/160/225 157/186/10 156/185/9
f 158/187/34 157/186/10 133/160/225 134/161/227
f 159/188/35 158/187/34 134/161/227 135/162/228
f 160/189/108 159/188/35 135/162/228 136/163/229
f 161/190/109 160/189/108 136/163/229 137/164/230
f 162/191/126 161/190/109 137/164/230 138/165/231
f 163/192/127 162/191/126 138/165/231 139/166/232
f 164/193/78 163/192/127 139/166/232 140/167/233
f 165/194/79 164/193/78 140/167/233 141/168/234
s 5
f 141/169/236 142/170/235 166/196/54 165/195/53
f 142/170/235 143/171/237 167/197/19 166/196/54
f 168/198/20 167/197/19 143/171/237 144/172/238
s 1
f 144/172/240 145/173/239 169/199/66 168/198/65
f 145/173/239 146/174/241 170/200/113 169/199/66
f 146/174/241 147/175/242 171/201/114 170/200/113
f 147/175/242 148/176/243 172/202/95 171/201/114
f 148/176/243 149/177/244 173/203/96 172/202/95
f 149/177/244 150/178/245 174/204/25 173/203/96
f 150/178/245 151/179/246 175/205/26 174/204/25
f 151/179/246 152/180/247 176/206/3 175/205/26
f 153/181/4 176/206/3 152/180/247 129/155/248
