# This file uses centimeters as units for non-parametric coordinates.

mtllib Herbe.mtl
g default
v 0.409788 -0.969723 -0.907369
v -0.149229 -0.969723 -0.725733
v -0.149229 -0.969723 -0.137948
v 0.409788 -0.969723 0.043688
v 0.755280 -0.969723 -0.431840
v 0.290560 0.969723 -0.478785
v 0.235374 0.969723 -0.460854
v 0.235374 0.969723 -0.402827
v 0.290560 0.969723 -0.384896
v 0.324667 0.969723 -0.431840
v 0.255280 -0.969723 -0.431840
v 0.276176 0.969723 -0.431840
v 0.324169 0.649691 -0.549506
v 0.409658 0.649691 -0.431840
v 0.324169 0.649691 -0.314175
v 0.185845 0.649691 -0.359119
v 0.185845 0.649691 -0.504562
v 0.347608 0.269448 -0.633533
v 0.494146 0.269448 -0.431840
v 0.347608 0.269448 -0.230148
v 0.110504 0.269448 -0.307187
v 0.110504 0.269448 -0.556493
v 0.357563 -0.199946 -0.737261
v 0.579464 -0.199946 -0.431840
v 0.357563 -0.199946 -0.126419
v -0.001481 -0.199946 -0.243080
v -0.001481 -0.199946 -0.620601
v -0.196263 -0.969723 -0.530406
v -0.755280 -0.969723 -0.348770
v -0.755280 -0.969723 0.239015
v -0.196263 -0.969723 0.420651
v 0.149229 -0.969723 -0.054877
v -0.408086 0.969723 -0.101822
v -0.463272 0.969723 -0.083891
v -0.463272 0.969723 -0.025864
v -0.408086 0.969723 -0.007933
v -0.373979 0.969723 -0.054877
v -0.350771 -0.969723 -0.054877
v -0.422470 0.969723 -0.054877
v -0.254829 0.649691 -0.172543
v -0.169340 0.649691 -0.054877
v -0.254829 0.649691 0.062788
v -0.393154 0.649691 0.017844
v -0.393154 0.649691 -0.127599
v -0.227608 0.269448 -0.256570
v -0.081069 0.269448 -0.054877
v -0.227608 0.269448 0.146815
v -0.464712 0.269448 0.069776
v -0.464712 0.269448 -0.179531
v -0.325359 -0.199946 -0.360298
v -0.103457 -0.199946 -0.054877
v -0.325359 -0.199946 0.250543
v -0.684402 -0.199946 0.133883
v -0.684402 -0.199946 -0.243638
v 0.092520 -0.969723 -0.032863
v -0.466497 -0.969723 0.148773
v -0.466497 -0.969723 0.736558
v 0.092520 -0.969723 0.918194
v 0.438012 -0.969723 0.442666
v -0.026708 0.969723 0.395721
v -0.081894 0.969723 0.413652
v -0.081894 0.969723 0.471678
v -0.026708 0.969723 0.489610
v 0.007399 0.969723 0.442665
v -0.061988 -0.969723 0.442666
v -0.041092 0.969723 0.442666
v 0.006901 0.649691 0.325000
v 0.092390 0.649691 0.442665
v 0.006901 0.649691 0.560331
v -0.131423 0.649691 0.515387
v -0.131423 0.649691 0.369944
v 0.030340 0.269448 0.240973
v 0.176878 0.269448 0.442665
v 0.030340 0.269448 0.644358
v -0.206764 0.269448 0.567318
v -0.206764 0.269448 0.318012
v 0.040295 -0.199946 0.137245
v 0.262196 -0.199946 0.442665
v 0.040295 -0.199946 0.748086
v -0.318749 -0.199946 0.631426
v -0.318749 -0.199946 0.253905
v 0.422321 -0.969723 -0.359177
v 0.240686 -0.969723 -0.918194
v -0.347100 -0.969723 -0.918194
v -0.528735 -0.969723 -0.359177
v -0.053207 -0.969723 -0.013685
v -0.006263 0.969723 -0.571000
v -0.024194 0.969723 -0.626186
v -0.082220 0.969723 -0.626186
v -0.100151 0.969723 -0.571000
v -0.053207 0.969723 -0.536893
v -0.053207 -0.969723 -0.513685
v -0.053207 0.969723 -0.585384
v 0.064459 0.649691 -0.417743
v -0.053207 0.649691 -0.332254
v -0.170873 0.649691 -0.417743
v -0.125928 0.649691 -0.556068
v 0.019514 0.649691 -0.556068
v 0.148486 0.269448 -0.390522
v -0.053207 0.269448 -0.243983
v -0.254900 0.269448 -0.390522
v -0.177860 0.269448 -0.627626
v 0.071446 0.269448 -0.627626
v 0.252214 -0.199946 -0.488273
v -0.053207 -0.199946 -0.266371
v -0.358628 -0.199946 -0.488273
v -0.241968 -0.199946 -0.847316
v 0.135553 -0.199946 -0.847316
v 0.356598 -0.969723 -0.530406
v -0.202419 -0.969723 -0.348770
v -0.202419 -0.969723 0.239015
v 0.356598 -0.969723 0.420651
v 0.702089 -0.969723 -0.054877
v 0.408623 0.969723 -0.101822
v 0.353437 0.969723 -0.083891
v 0.353437 0.969723 -0.025864
v 0.408623 0.969723 -0.007933
v 0.442729 0.969723 -0.054877
v 0.202089 -0.969723 -0.054877
v 0.394239 0.969723 -0.054877
v 0.276253 0.649691 -0.172543
v 0.361742 0.649691 -0.054877
v 0.276253 0.649691 0.062788
v 0.137928 0.649691 0.017844
v 0.137928 0.649691 -0.127599
v 0.186114 0.269448 -0.256570
v 0.332653 0.269448 -0.054877
v 0.186114 0.269448 0.146815
v -0.050990 0.269448 0.069776
v -0.050990 0.269448 -0.179531
v 0.227502 -0.199946 -0.360298
v 0.449403 -0.199946 -0.054877
v 0.227502 -0.199946 0.250543
v -0.131542 -0.199946 0.133883
v -0.131542 -0.199946 -0.243638
vt 0.548284 0.007647
vt 0.373591 0.064409
vt 0.373591 0.248091
vt 0.548284 0.304853
vt 0.656250 0.156250
vt 0.375000 0.312500
vt 0.425000 0.312500
vt 0.475000 0.312500
vt 0.525000 0.312500
vt 0.575000 0.312500
vt 0.625000 0.312500
vt 0.375000 0.687500
vt 0.425000 0.687500
vt 0.475000 0.687500
vt 0.525000 0.687500
vt 0.575000 0.687500
vt 0.625000 0.687500
vt 0.548284 0.695147
vt 0.373591 0.751909
vt 0.373591 0.935591
vt 0.548284 0.992353
vt 0.656250 0.843750
vt 0.500000 0.156250
vt 0.500000 0.843750
vt 0.625000 0.625620
vt 0.375000 0.625620
vt 0.575000 0.625620
vt 0.525000 0.625620
vt 0.475000 0.625620
vt 0.425000 0.625620
vt 0.625000 0.552099
vt 0.375000 0.552099
vt 0.575000 0.552099
vt 0.525000 0.552099
vt 0.475000 0.552099
vt 0.425000 0.552099
vt 0.625000 0.461340
vt 0.375000 0.461340
vt 0.575000 0.461340
vt 0.525000 0.461340
vt 0.475000 0.461340
vt 0.425000 0.461340
vt 0.375000 0.312500
vt 0.425000 0.312500
vt 0.425000 0.461340
vt 0.375000 0.461340
vt 0.475000 0.312500
vt 0.475000 0.461340
vt 0.525000 0.312500
vt 0.525000 0.461340
vt 0.575000 0.312500
vt 0.575000 0.461340
vt 0.625000 0.312500
vt 0.625000 0.461340
vt 0.373591 0.064409
vt 0.548284 0.007647
vt 0.500000 0.156250
vt 0.373591 0.248091
vt 0.548284 0.304853
vt 0.656250 0.156250
vt 0.548284 0.992353
vt 0.373591 0.935591
vt 0.500000 0.843750
vt 0.373591 0.751909
vt 0.548284 0.695147
vt 0.656250 0.843750
vt 0.575000 0.625620
vt 0.625000 0.625620
vt 0.625000 0.687500
vt 0.575000 0.687500
vt 0.525000 0.625620
vt 0.525000 0.687500
vt 0.475000 0.625620
vt 0.475000 0.687500
vt 0.425000 0.625620
vt 0.425000 0.687500
vt 0.375000 0.625620
vt 0.375000 0.687500
vt 0.575000 0.552099
vt 0.625000 0.552099
vt 0.525000 0.552099
vt 0.475000 0.552099
vt 0.425000 0.552099
vt 0.375000 0.552099
vt 0.375000 0.312500
vt 0.425000 0.312500
vt 0.425000 0.461340
vt 0.375000 0.461340
vt 0.475000 0.312500
vt 0.475000 0.461340
vt 0.525000 0.312500
vt 0.525000 0.461340
vt 0.575000 0.312500
vt 0.575000 0.461340
vt 0.625000 0.312500
vt 0.625000 0.461340
vt 0.373591 0.064409
vt 0.548284 0.007647
vt 0.500000 0.156250
vt 0.373591 0.248091
vt 0.548284 0.304853
vt 0.656250 0.156250
vt 0.548284 0.992353
vt 0.373591 0.935591
vt 0.500000 0.843750
vt 0.373591 0.751909
vt 0.548284 0.695147
vt 0.656250 0.843750
vt 0.575000 0.625620
vt 0.625000 0.625620
vt 0.625000 0.687500
vt 0.575000 0.687500
vt 0.525000 0.625620
vt 0.525000 0.687500
vt 0.475000 0.625620
vt 0.475000 0.687500
vt 0.425000 0.625620
vt 0.425000 0.687500
vt 0.375000 0.625620
vt 0.375000 0.687500
vt 0.575000 0.552099
vt 0.625000 0.552099
vt 0.525000 0.552099
vt 0.475000 0.552099
vt 0.425000 0.552099
vt 0.375000 0.552099
vt 0.375000 0.312500
vt 0.425000 0.312500
vt 0.425000 0.461340
vt 0.375000 0.461340
vt 0.475000 0.312500
vt 0.475000 0.461340
vt 0.525000 0.312500
vt 0.525000 0.461340
vt 0.575000 0.312500
vt 0.575000 0.461340
vt 0.625000 0.312500
vt 0.625000 0.461340
vt 0.373591 0.064409
vt 0.548284 0.007647
vt 0.500000 0.156250
vt 0.373591 0.248091
vt 0.548284 0.304853
vt 0.656250 0.156250
vt 0.548284 0.992353
vt 0.373591 0.935591
vt 0.500000 0.843750
vt 0.373591 0.751909
vt 0.548284 0.695147
vt 0.656250 0.843750
vt 0.575000 0.625620
vt 0.625000 0.625620
vt 0.625000 0.687500
vt 0.575000 0.687500
vt 0.525000 0.625620
vt 0.525000 0.687500
vt 0.475000 0.625620
vt 0.475000 0.687500
vt 0.425000 0.625620
vt 0.425000 0.687500
vt 0.375000 0.625620
vt 0.375000 0.687500
vt 0.575000 0.552099
vt 0.625000 0.552099
vt 0.525000 0.552099
vt 0.475000 0.552099
vt 0.425000 0.552099
vt 0.375000 0.552099
vt 0.375000 0.312500
vt 0.425000 0.312500
vt 0.425000 0.461340
vt 0.375000 0.461340
vt 0.475000 0.312500
vt 0.475000 0.461340
vt 0.525000 0.312500
vt 0.525000 0.461340
vt 0.575000 0.312500
vt 0.575000 0.461340
vt 0.625000 0.312500
vt 0.625000 0.461340
vt 0.373591 0.064409
vt 0.548284 0.007647
vt 0.500000 0.156250
vt 0.373591 0.248091
vt 0.548284 0.304853
vt 0.656250 0.156250
vt 0.548284 0.992353
vt 0.373591 0.935591
vt 0.500000 0.843750
vt 0.373591 0.751909
vt 0.548284 0.695147
vt 0.656250 0.843750
vt 0.575000 0.625620
vt 0.625000 0.625620
vt 0.625000 0.687500
vt 0.575000 0.687500
vt 0.525000 0.625620
vt 0.525000 0.687500
vt 0.475000 0.625620
vt 0.475000 0.687500
vt 0.425000 0.625620
vt 0.425000 0.687500
vt 0.375000 0.625620
vt 0.375000 0.687500
vt 0.575000 0.552099
vt 0.625000 0.552099
vt 0.525000 0.552099
vt 0.475000 0.552099
vt 0.425000 0.552099
vt 0.375000 0.552099
vn -0.303630 0.185904 -0.934478
vn -0.303630 0.185904 -0.934478
vn -0.303434 0.189236 -0.933873
vn -0.303423 0.189412 -0.933840
vn -0.982074 0.188496 -0.000000
vn -0.982074 0.188496 -0.000000
vn -0.979892 0.199526 -0.000000
vn -0.979893 0.199526 -0.000000
vn -0.303630 0.185904 0.934478
vn -0.303630 0.185904 0.934478
vn -0.303423 0.189412 0.933840
vn -0.303434 0.189236 0.933873
vn 0.795550 0.181702 0.578001
vn 0.795550 0.181702 0.578001
vn 0.796881 0.172557 0.578968
vn 0.796840 0.172847 0.578938
vn 0.795550 0.181702 -0.578001
vn 0.795550 0.181702 -0.578001
vn 0.796840 0.172847 -0.578938
vn 0.796881 0.172557 -0.578968
vn 0.000000 -1.000000 0.000000
vn 0.000000 -1.000000 0.000000
vn 0.000000 -1.000000 0.000000
vn 0.000000 -1.000000 0.000000
vn 0.000000 -1.000000 0.000000
vn 0.000000 -1.000000 0.000000
vn 0.000000 1.000000 -0.000001
vn 0.000000 1.000000 -0.000001
vn 0.000000 1.000000 0.000000
vn 0.000000 1.000000 0.000000
vn 0.000000 1.000000 0.000001
vn 0.000000 1.000000 0.000001
vn 0.794930 0.185803 -0.577550
vn 0.794911 0.185929 -0.577536
vn 0.790968 0.210058 -0.574670
vn 0.790968 0.210058 -0.574670
vn 0.794911 0.185929 0.577536
vn 0.794930 0.185803 0.577550
vn 0.790967 0.210058 0.574671
vn 0.790967 0.210058 0.574671
vn -0.303725 0.184277 0.934769
vn -0.303721 0.184355 0.934755
vn -0.304250 0.174973 0.936385
vn -0.304250 0.174973 0.936385
vn -0.983046 0.183361 0.000000
vn -0.983046 0.183361 0.000000
vn -0.988235 0.152943 0.000000
vn -0.988235 0.152943 0.000000
vn -0.303720 0.184355 -0.934755
vn -0.303725 0.184276 -0.934769
vn -0.304250 0.174973 -0.936385
vn -0.304250 0.174973 -0.936385
vn 0.799223 0.155130 -0.580669
vn 0.799259 0.154852 -0.580695
vn 0.799259 0.154852 0.580695
vn 0.799223 0.155130 0.580669
vn -0.303020 0.196060 0.932598
vn -0.303030 0.195893 0.932630
vn -0.975316 0.220812 0.000000
vn -0.975316 0.220812 0.000000
vn -0.303030 0.195893 -0.932630
vn -0.303019 0.196060 -0.932598
vn -0.305214 0.156395 -0.939353
vn -0.305214 0.156395 -0.939353
vn -0.303874 0.181675 -0.935230
vn -0.303586 0.186662 -0.934341
vn -0.995788 0.091687 0.000000
vn -0.995788 0.091687 0.000000
vn -0.983026 0.183464 0.000000
vn -0.983026 0.183464 0.000000
vn -0.305214 0.156395 0.939353
vn -0.305214 0.156395 0.939353
vn -0.303586 0.186662 0.934341
vn -0.303875 0.181675 0.935230
vn 0.781914 0.256670 0.568094
vn 0.781914 0.256670 0.568094
vn 0.795526 0.181859 0.577984
vn 0.794195 0.190543 0.577016
vn 0.781914 0.256670 -0.568094
vn 0.781914 0.256670 -0.568094
vn 0.794195 0.190543 -0.577016
vn 0.795526 0.181859 -0.577984
vn 0.000000 -1.000000 0.000000
vn 0.000000 -1.000000 0.000000
vn 0.000000 -1.000000 0.000000
vn 0.000000 -1.000000 -0.000000
vn 0.000000 -1.000000 0.000000
vn 0.000000 -1.000000 0.000000
vn 0.000000 1.000000 0.000000
vn 0.000000 1.000000 0.000000
vn 0.000000 1.000000 0.000000
vn 0.000000 1.000000 0.000000
vn 0.000000 1.000000 0.000000
vn 0.000000 1.000000 0.000000
vn 0.781581 0.258218 -0.567851
vn 0.777882 0.274755 -0.565163
vn 0.718563 0.459472 -0.522066
vn 0.718563 0.459472 -0.522066
vn 0.777882 0.274755 0.565164
vn 0.781581 0.258218 0.567851
vn 0.718563 0.459472 0.522066
vn 0.718563 0.459472 0.522066
vn -0.305676 0.146658 0.940773
vn -0.305102 0.158686 0.939006
vn -0.308422 0.062065 0.949223
vn -0.308422 0.062065 0.949223
vn -0.996891 0.078797 0.000000
vn -0.996891 0.078797 0.000000
vn -0.976829 -0.214021 0.000001
vn -0.976829 -0.214021 0.000001
vn -0.305102 0.158686 -0.939006
vn -0.305676 0.146658 -0.940773
vn -0.308422 0.062066 -0.949223
vn -0.308422 0.062066 -0.949223
vn 0.808540 0.034334 -0.587438
vn 0.808757 0.025339 -0.587596
vn 0.808757 0.025339 0.587596
vn 0.808540 0.034334 0.587439
vn -0.299733 0.243279 0.922483
vn -0.300111 0.238351 0.923646
vn -0.933698 0.358061 0.000000
vn -0.933698 0.358061 0.000000
vn -0.300111 0.238351 -0.923646
vn -0.299733 0.243279 -0.922483
vn -0.303630 0.185904 -0.934478
vn -0.303630 0.185904 -0.934478
vn -0.303434 0.189236 -0.933873
vn -0.303423 0.189412 -0.933840
vn -0.982074 0.188496 -0.000000
vn -0.982074 0.188496 -0.000000
vn -0.979893 0.199526 -0.000000
vn -0.979893 0.199526 -0.000000
vn -0.303630 0.185904 0.934478
vn -0.303630 0.185904 0.934478
vn -0.303423 0.189412 0.933840
vn -0.303434 0.189236 0.933872
vn 0.795550 0.181702 0.578001
vn 0.795550 0.181702 0.578001
vn 0.796881 0.172557 0.578968
vn 0.796840 0.172847 0.578938
vn 0.795550 0.181702 -0.578001
vn 0.795550 0.181702 -0.578001
vn 0.796840 0.172847 -0.578938
vn 0.796881 0.172557 -0.578968
vn 0.000000 -1.000000 0.000000
vn 0.000000 -1.000000 0.000000
vn 0.000000 -1.000000 0.000000
vn 0.000000 -1.000000 -0.000000
vn 0.000000 -1.000000 -0.000000
vn 0.000000 -1.000000 0.000000
vn 0.000000 1.000000 -0.000000
vn 0.000000 1.000000 -0.000000
vn 0.000000 1.000000 -0.000000
vn 0.000000 1.000000 0.000000
vn 0.000000 1.000000 -0.000000
vn 0.000000 1.000000 -0.000000
vn 0.794930 0.185803 -0.577550
vn 0.794911 0.185929 -0.577536
vn 0.790967 0.210058 -0.574670
vn 0.790967 0.210058 -0.574670
vn 0.794911 0.185929 0.577536
vn 0.794930 0.185803 0.577550
vn 0.790967 0.210058 0.574671
vn 0.790967 0.210058 0.574671
vn -0.303725 0.184277 0.934769
vn -0.303721 0.184355 0.934755
vn -0.304251 0.174973 0.936385
vn -0.304251 0.174973 0.936385
vn -0.983046 0.183361 0.000000
vn -0.983046 0.183361 0.000000
vn -0.988235 0.152943 0.000000
vn -0.988235 0.152943 0.000000
vn -0.303721 0.184355 -0.934755
vn -0.303725 0.184276 -0.934769
vn -0.304250 0.174973 -0.936385
vn -0.304250 0.174973 -0.936385
vn 0.799223 0.155130 -0.580669
vn 0.799259 0.154852 -0.580695
vn 0.799259 0.154852 0.580695
vn 0.799223 0.155130 0.580669
vn -0.303020 0.196060 0.932598
vn -0.303030 0.195893 0.932630
vn -0.975316 0.220812 0.000000
vn -0.975316 0.220812 0.000000
vn -0.303030 0.195893 -0.932630
vn -0.303020 0.196060 -0.932598
vn 0.939353 0.156395 -0.305214
vn 0.939353 0.156395 -0.305214
vn 0.935230 0.181675 -0.303874
vn 0.934341 0.186662 -0.303586
vn 0.000000 0.091687 -0.995788
vn 0.000000 0.091687 -0.995788
vn 0.000000 0.183464 -0.983027
vn 0.000000 0.183464 -0.983027
vn -0.939354 0.156395 -0.305214
vn -0.939353 0.156395 -0.305214
vn -0.934341 0.186662 -0.303586
vn -0.935230 0.181675 -0.303875
vn -0.568094 0.256670 0.781914
vn -0.568094 0.256670 0.781914
vn -0.577984 0.181859 0.795527
vn -0.577016 0.190543 0.794195
vn 0.568094 0.256670 0.781914
vn 0.568094 0.256670 0.781914
vn 0.577016 0.190543 0.794195
vn 0.577984 0.181859 0.795527
vn 0.000000 -1.000000 -0.000000
vn 0.000000 -1.000000 -0.000000
vn 0.000000 -1.000000 -0.000000
vn 0.000000 -1.000000 0.000000
vn 0.000000 -1.000000 -0.000000
vn 0.000000 -1.000000 0.000000
vn 0.000000 1.000000 -0.000001
vn 0.000000 1.000000 -0.000001
vn 0.000000 1.000000 -0.000000
vn 0.000000 1.000000 -0.000000
vn 0.000000 1.000000 0.000001
vn 0.000000 1.000000 -0.000001
vn 0.567851 0.258218 0.781581
vn 0.565163 0.274755 0.777882
vn 0.522065 0.459472 0.718563
vn 0.522065 0.459472 0.718563
vn -0.565164 0.274755 0.777882
vn -0.567851 0.258218 0.781581
vn -0.522066 0.459472 0.718563
vn -0.522066 0.459473 0.718563
vn -0.940773 0.146658 -0.305676
vn -0.939006 0.158686 -0.305102
vn -0.949223 0.062065 -0.308422
vn -0.949223 0.062065 -0.308422
vn 0.000000 0.078797 -0.996891
vn 0.000000 0.078797 -0.996891
vn 0.000000 -0.214021 -0.976829
vn 0.000000 -0.214021 -0.976829
vn 0.939006 0.158686 -0.305102
vn 0.940773 0.146658 -0.305676
vn 0.949223 0.062065 -0.308421
vn 0.949223 0.062065 -0.308421
vn 0.587438 0.034334 0.808540
vn 0.587596 0.025339 0.808757
vn -0.587596 0.025339 0.808757
vn -0.587439 0.034334 0.808540
vn -0.922483 0.243279 -0.299733
vn -0.923646 0.238351 -0.300111
vn 0.000000 0.358061 -0.933698
vn 0.000000 0.358061 -0.933698
vn 0.923646 0.238351 -0.300111
vn 0.922483 0.243279 -0.299733
vn -0.305214 0.156395 -0.939353
vn -0.305214 0.156395 -0.939353
vn -0.304905 0.162602 -0.938400
vn -0.304933 0.162049 -0.938486
vn -0.995788 0.091687 -0.000000
vn -0.995788 0.091687 -0.000000
vn -0.993790 0.111272 -0.000000
vn -0.993790 0.111272 -0.000000
vn -0.305215 0.156395 0.939353
vn -0.305215 0.156395 0.939353
vn -0.304933 0.162049 0.938486
vn -0.304905 0.162602 0.938400
vn 0.781914 0.256670 0.568094
vn 0.781914 0.256670 0.568094
vn 0.784883 0.242431 0.570251
vn 0.785052 0.241594 0.570374
vn 0.781914 0.256670 -0.568094
vn 0.781914 0.256670 -0.568094
vn 0.785052 0.241594 -0.570373
vn 0.784883 0.242431 -0.570251
vn 0.000000 -1.000000 0.000000
vn 0.000000 -1.000000 0.000000
vn 0.000000 -1.000000 0.000000
vn 0.000000 -1.000000 0.000000
vn 0.000000 -1.000000 0.000000
vn 0.000000 -1.000000 0.000000
vn 0.000000 1.000000 0.000000
vn 0.000000 1.000000 0.000000
vn 0.000000 1.000000 0.000000
vn 0.000000 1.000000 0.000000
vn 0.000000 1.000000 0.000000
vn 0.000000 1.000000 0.000000
vn 0.804278 -0.108080 -0.584342
vn 0.805581 -0.092067 -0.585288
vn 0.792578 -0.200571 -0.575840
vn 0.792578 -0.200571 -0.575840
vn 0.805581 -0.092067 0.585288
vn 0.804278 -0.108080 0.584342
vn 0.792578 -0.200571 0.575840
vn 0.792578 -0.200571 0.575840
vn -0.296491 0.281830 0.912505
vn -0.295719 0.290199 0.910129
vn -0.292749 0.320188 0.900987
vn -0.292749 0.320188 0.900987
vn -0.878112 0.478455 0.000000
vn -0.878112 0.478455 0.000000
vn -0.829465 0.558559 0.000000
vn -0.829465 0.558558 0.000000
vn -0.295719 0.290199 -0.910129
vn -0.296491 0.281830 -0.912505
vn -0.292749 0.320188 -0.900987
vn -0.292749 0.320188 -0.900987
vn 0.803651 0.114988 -0.583886
vn 0.802396 0.127674 -0.582975
vn 0.802396 0.127674 0.582975
vn 0.803651 0.114988 0.583886
vn -0.302463 0.204857 0.930886
vn -0.301996 0.211962 0.929446
vn -0.965432 0.260655 0.000000
vn -0.965432 0.260655 0.000000
vn -0.301995 0.211962 -0.929446
vn -0.302463 0.204857 -0.930886
s 1
g Herbe
usemtl initialShadingGroup
f 1/6/1 2/7/2 27/42/3 23/38/4
s 2
f 2/7/5 3/8/6 26/41/7 27/42/8
s 3
f 3/8/9 4/9/10 25/40/11 26/41/12
s 4
f 4/9/13 5/10/14 24/39/15 25/40/16
s 5
f 5/10/17 1/11/18 23/37/19 24/39/20
s 6
f 2/2/21 1/1/22 11/23/23
f 3/3/24 2/2/21 11/23/23
f 4/4/25 3/3/24 11/23/23
f 5/5/26 4/4/25 11/23/23
f 1/1/22 5/5/26 11/23/23
s 7
f 6/21/27 7/20/28 12/24/29
f 7/20/28 8/19/30 12/24/29
f 8/19/30 9/18/31 12/24/29
f 9/18/31 10/22/32 12/24/29
f 10/22/32 6/21/27 12/24/29
s 5
f 14/27/33 13/25/34 6/17/35 10/16/36
s 4
f 15/28/37 14/27/38 10/16/39 9/15/40
s 3
f 16/29/41 15/28/42 9/15/43 8/14/44
s 2
f 17/30/45 16/29/46 8/14/47 7/13/48
s 1
f 13/26/49 17/30/50 7/13/51 6/12/52
s 5
f 19/33/53 18/31/54 13/25/34 14/27/33
s 4
f 20/34/55 19/33/56 14/27/38 15/28/37
s 3
f 21/35/57 20/34/58 15/28/42 16/29/41
s 2
f 22/36/59 21/35/60 16/29/46 17/30/45
s 1
f 18/32/61 22/36/62 17/30/50 13/26/49
s 5
f 24/39/20 23/37/19 18/31/54 19/33/53
s 4
f 25/40/16 24/39/15 19/33/56 20/34/55
s 3
f 26/41/12 25/40/11 20/34/58 21/35/57
s 2
f 27/42/8 26/41/7 21/35/60 22/36/59
s 1
f 23/38/4 27/42/3 22/36/62 18/32/61
s 13
f 28/43/63 29/44/64 54/45/65 50/46/66
s 14
f 29/44/67 30/47/68 53/48/69 54/45/70
s 15
f 30/47/71 31/49/72 52/50/73 53/48/74
s 16
f 31/49/75 32/51/76 51/52/77 52/50/78
s 17
f 32/51/79 28/53/80 50/54/81 51/52/82
s 18
f 29/55/83 28/56/84 38/57/85
f 30/58/86 29/55/83 38/57/85
f 31/59/87 30/58/86 38/57/85
f 32/60/88 31/59/87 38/57/85
f 28/56/84 32/60/88 38/57/85
s 19
f 33/61/89 34/62/90 39/63/91
f 34/62/90 35/64/92 39/63/91
f 35/64/92 36/65/93 39/63/91
f 36/65/93 37/66/94 39/63/91
f 37/66/94 33/61/89 39/63/91
s 17
f 41/67/95 40/68/96 33/69/97 37/70/98
s 16
f 42/71/99 41/67/100 37/70/101 36/72/102
s 15
f 43/73/103 42/71/104 36/72/105 35/74/106
s 14
f 44/75/107 43/73/108 35/74/109 34/76/110
s 13
f 40/77/111 44/75/112 34/76/113 33/78/114
s 17
f 46/79/115 45/80/116 40/68/96 41/67/95
s 16
f 47/81/117 46/79/118 41/67/100 42/71/99
s 15
f 48/82/119 47/81/120 42/71/104 43/73/103
s 14
f 49/83/121 48/82/122 43/73/108 44/75/107
s 13
f 45/84/123 49/83/124 44/75/112 40/77/111
s 17
f 51/52/82 50/54/81 45/80/116 46/79/115
s 16
f 52/50/78 51/52/77 46/79/118 47/81/117
s 15
f 53/48/74 52/50/73 47/81/120 48/82/119
s 14
f 54/45/70 53/48/69 48/82/122 49/83/121
s 13
f 50/46/66 54/45/65 49/83/124 45/84/123
s 25
f 55/85/125 56/86/126 81/87/127 77/88/128
s 26
f 56/86/129 57/89/130 80/90/131 81/87/132
s 27
f 57/89/133 58/91/134 79/92/135 80/90/136
s 28
f 58/91/137 59/93/138 78/94/139 79/92/140
s 29
f 59/93/141 55/95/142 77/96/143 78/94/144
s 30
f 56/97/145 55/98/146 65/99/147
f 57/100/148 56/97/145 65/99/147
f 58/101/149 57/100/148 65/99/147
f 59/102/150 58/101/149 65/99/147
f 55/98/146 59/102/150 65/99/147
s 31
f 60/103/151 61/104/152 66/105/153
f 61/104/152 62/106/154 66/105/153
f 62/106/154 63/107/155 66/105/153
f 63/107/155 64/108/156 66/105/153
f 64/108/156 60/103/151 66/105/153
s 29
f 68/109/157 67/110/158 60/111/159 64/112/160
s 28
f 69/113/161 68/109/162 64/112/163 63/114/164
s 27
f 70/115/165 69/113/166 63/114/167 62/116/168
s 26
f 71/117/169 70/115/170 62/116/171 61/118/172
s 25
f 67/119/173 71/117/174 61/118/175 60/120/176
s 29
f 73/121/177 72/122/178 67/110/158 68/109/157
s 28
f 74/123/179 73/121/180 68/109/162 69/113/161
s 27
f 75/124/181 74/123/182 69/113/166 70/115/165
s 26
f 76/125/183 75/124/184 70/115/170 71/117/169
s 25
f 72/126/185 76/125/186 71/117/174 67/119/173
s 29
f 78/94/144 77/96/143 72/122/178 73/121/177
s 28
f 79/92/140 78/94/139 73/121/180 74/123/179
s 27
f 80/90/136 79/92/135 74/123/182 75/124/181
s 26
f 81/87/132 80/90/131 75/124/184 76/125/183
s 25
f 77/88/128 81/87/127 76/125/186 72/126/185
s 37
f 82/127/187 83/128/188 108/129/189 104/130/190
s 38
f 83/128/191 84/131/192 107/132/193 108/129/194
s 39
f 84/131/195 85/133/196 106/134/197 107/132/198
s 40
f 85/133/199 86/135/200 105/136/201 106/134/202
s 41
f 86/135/203 82/137/204 104/138/205 105/136/206
s 42
f 83/139/207 82/140/208 92/141/209
f 84/142/210 83/139/207 92/141/209
f 85/143/211 84/142/210 92/141/209
f 86/144/212 85/143/211 92/141/209
f 82/140/208 86/144/212 92/141/209
s 43
f 87/145/213 88/146/214 93/147/215
f 88/146/214 89/148/216 93/147/215
f 89/148/216 90/149/217 93/147/215
f 90/149/217 91/150/218 93/147/215
f 91/150/218 87/145/213 93/147/215
s 41
f 95/151/219 94/152/220 87/153/221 91/154/222
s 40
f 96/155/223 95/151/224 91/154/225 90/156/226
s 39
f 97/157/227 96/155/228 90/156/229 89/158/230
s 38
f 98/159/231 97/157/232 89/158/233 88/160/234
s 37
f 94/161/235 98/159/236 88/160/237 87/162/238
s 41
f 100/163/239 99/164/240 94/152/220 95/151/219
s 40
f 101/165/241 100/163/242 95/151/224 96/155/223
s 39
f 102/166/243 101/165/244 96/155/228 97/157/227
s 38
f 103/167/245 102/166/246 97/157/232 98/159/231
s 37
f 99/168/247 103/167/248 98/159/236 94/161/235
s 41
f 105/136/206 104/138/205 99/164/240 100/163/239
s 40
f 106/134/202 105/136/201 100/163/242 101/165/241
s 39
f 107/132/198 106/134/197 101/165/244 102/166/243
s 38
f 108/129/194 107/132/193 102/166/246 103/167/245
s 37
f 104/130/190 108/129/189 103/167/248 99/168/247
s 49
f 109/169/249 110/170/250 135/171/251 131/172/252
s 50
f 110/170/253 111/173/254 134/174/255 135/171/256
s 51
f 111/173/257 112/175/258 133/176/259 134/174/260
s 52
f 112/175/261 113/177/262 132/178/263 133/176/264
s 53
f 113/177/265 109/179/266 131/180/267 132/178/268
s 54
f 110/181/269 109/182/270 119/183/271
f 111/184/272 110/181/269 119/183/271
f 112/185/273 111/184/272 119/183/271
f 113/186/274 112/185/273 119/183/271
f 109/182/270 113/186/274 119/183/271
s 55
f 114/187/275 115/188/276 120/189/277
f 115/188/276 116/190/278 120/189/277
f 116/190/278 117/191/279 120/189/277
f 117/191/279 118/192/280 120/189/277
f 118/192/280 114/187/275 120/189/277
s 53
f 122/193/281 121/194/282 114/195/283 118/196/284
s 52
f 123/197/285 122/193/286 118/196/287 117/198/288
s 51
f 124/199/289 123/197/290 117/198/291 116/200/292
s 50
f 125/201/293 124/199/294 116/200/295 115/202/296
s 49
f 121/203/297 125/201/298 115/202/299 114/204/300
s 53
f 127/205/301 126/206/302 121/194/282 122/193/281
s 52
f 128/207/303 127/205/304 122/193/286 123/197/285
s 51
f 129/208/305 128/207/306 123/197/290 124/199/289
s 50
f 130/209/307 129/208/308 124/199/294 125/201/293
s 49
f 126/210/309 130/209/310 125/201/298 121/203/297
s 53
f 132/178/268 131/180/267 126/206/302 127/205/301
s 52
f 133/176/264 132/178/263 127/205/304 128/207/303
s 51
f 134/174/260 133/176/259 128/207/306 129/208/305
s 50
f 135/171/256 134/174/255 129/208/308 130/209/307
s 49
f 131/172/252 135/171/251 130/209/310 126/210/309
