# This file uses centimeters as units for non-parametric coordinates.

mtllib RouteDroite.mtl
g default
v -0.500000 -0.051603 0.100000
v 0.500000 -0.051603 0.100000
v -0.500000 0.048397 0.104262
v 0.500000 0.048397 0.100000
v -0.500000 0.048397 -0.109634
v 0.500000 0.048397 -0.110824
v -0.500000 -0.051603 -0.100000
v 0.500000 -0.051603 -0.100000
v -0.285612 -0.051603 0.100000
v -0.285612 0.048397 0.103146
v -0.285612 0.048397 -0.126999
v -0.285612 -0.051603 -0.126859
v -0.500000 0.048397 -0.059401
v -0.500000 -0.051603 -0.059401
v -0.285612 -0.051603 -0.059401
v 0.500000 -0.051603 -0.059401
v 0.500000 0.048397 -0.059401
v -0.285612 0.048397 -0.059401
v -0.500000 0.048397 0.059583
v -0.500000 -0.051603 0.059583
v -0.285612 -0.051603 0.059583
v 0.500000 -0.051603 0.059583
v 0.500000 0.048397 0.059583
v -0.295081 0.014798 0.032940
v -0.019326 -0.051603 0.122404
v -0.019326 0.048397 0.127005
v -0.019326 0.048397 0.059583
v -0.016479 0.051603 -0.059871
v -0.019326 0.048397 -0.108008
v -0.019326 -0.051603 -0.100000
v -0.019326 -0.051603 -0.059401
v -0.019326 -0.051603 0.059583
v 0.323106 0.033645 -0.055019
v 0.310964 0.042773 0.052474
v 0.320712 0.048397 0.108767
v 0.320712 -0.051603 0.110101
v 0.320712 -0.051603 0.059583
v 0.320712 -0.051603 -0.059401
v 0.320712 -0.051603 -0.100000
v 0.320712 0.048397 -0.111821
v -0.371578 -0.051603 0.100000
v -0.371578 0.048397 0.103593
v -0.396151 0.035281 0.043624
v -0.371578 0.048397 -0.059401
v -0.371578 0.048397 -0.120036
v -0.371578 -0.051603 -0.116089
v -0.371578 -0.051603 -0.059401
v -0.371578 -0.051603 0.059583
v -0.209680 -0.051603 0.106389
v -0.209680 0.048397 0.109950
v -0.218098 0.028666 0.040537
v -0.208868 0.049311 -0.059535
v -0.209680 0.048397 -0.121584
v -0.209680 -0.051603 -0.119200
v -0.209680 -0.051603 -0.059401
v -0.209680 -0.051603 0.059583
vt 0.375000 0.000000
vt 0.625000 0.000000
vt 0.375000 0.250000
vt 0.625000 0.250000
vt 0.375000 0.500000
vt 0.625000 0.500000
vt 0.375000 0.750000
vt 0.625000 0.750000
vt 0.375000 1.000000
vt 0.625000 1.000000
vt 0.875000 0.000000
vt 0.875000 0.250000
vt 0.125000 0.000000
vt 0.125000 0.250000
vt 0.428597 0.000000
vt 0.428597 1.000000
vt 0.428597 0.250000
vt 0.428597 0.500000
vt 0.428597 0.750000
vt 0.175749 0.250000
vt 0.375000 0.449251
vt 0.175749 0.000000
vt 0.375000 0.800749
vt 0.428597 0.800749
vt 0.625000 0.800749
vt 0.824251 0.000000
vt 0.625000 0.449251
vt 0.824251 0.250000
vt 0.428597 0.449251
vt 0.324478 0.250000
vt 0.375000 0.300522
vt 0.324478 0.000000
vt 0.375000 0.949478
vt 0.428597 0.949478
vt 0.625000 0.949478
vt 0.675522 0.000000
vt 0.625000 0.300522
vt 0.675522 0.250000
vt 0.428597 0.300522
vt 0.495169 0.000000
vt 0.495169 1.000000
vt 0.495169 0.250000
vt 0.495169 0.300522
vt 0.495169 0.449251
vt 0.495169 0.500000
vt 0.495169 0.750000
vt 0.495169 0.800749
vt 0.495169 0.949478
vt 0.580178 0.449251
vt 0.580178 0.300522
vt 0.580178 0.250000
vt 0.580178 0.000000
vt 0.580178 1.000000
vt 0.580178 0.949478
vt 0.580178 0.800749
vt 0.580178 0.750000
vt 0.580178 0.500000
vt 0.407105 0.000000
vt 0.407105 1.000000
vt 0.407105 0.250000
vt 0.407105 0.300522
vt 0.407105 0.449251
vt 0.407105 0.500000
vt 0.407105 0.750000
vt 0.407105 0.800749
vt 0.407105 0.949478
vt 0.447580 0.000000
vt 0.447580 1.000000
vt 0.447580 0.250000
vt 0.447580 0.300522
vt 0.447580 0.449251
vt 0.447580 0.500000
vt 0.447580 0.750000
vt 0.447580 0.800749
vt 0.447580 0.949478
vn 0.002599 -0.039244 0.999226
vn 0.002600 -0.037013 0.999311
vn 0.002600 -0.037013 0.999311
vn 0.002599 -0.039244 0.999226
vn 0.046232 0.989780 -0.134903
vn 0.065062 0.965076 -0.253761
vn 0.081158 0.996653 -0.009853
vn 0.054265 0.998138 -0.027860
vn -0.102364 -0.067393 -0.992462
vn -0.102476 -0.048450 -0.993555
vn -0.102475 -0.048707 -0.993542
vn -0.102364 -0.067393 -0.992462
vn 0.000000 -1.000000 0.000000
vn 0.000000 -1.000000 0.000000
vn 0.000000 -1.000000 0.000000
vn 0.000000 -1.000000 0.000000
vn 1.000000 0.000000 0.000000
vn 1.000000 0.000000 0.000000
vn 1.000000 0.000000 0.000000
vn 1.000000 0.000000 0.000000
vn -1.000000 0.000000 0.000000
vn -1.000000 0.000000 0.000000
vn -1.000000 0.000000 0.000000
vn -1.000000 0.000000 0.000000
vn -0.039393 -0.033576 0.998659
vn -0.039222 -0.033577 0.998666
vn -0.086478 -0.038548 0.995508
vn -0.086478 -0.038575 0.995507
vn -0.040284 0.982116 -0.183918
vn -0.064705 0.997826 0.012535
vn 0.019613 0.996328 0.083342
vn 0.013828 0.935261 -0.353689
vn -0.014387 -0.016770 -0.999756
vn -0.014385 -0.016769 -0.999756
vn 0.085704 -0.040520 -0.995496
vn 0.085703 -0.040615 -0.995493
vn 0.000000 -1.000000 0.000000
vn 0.000000 -1.000000 0.000000
vn 0.000000 -1.000000 0.000000
vn 0.000000 -1.000000 0.000000
vn -1.000000 0.000000 0.000000
vn -1.000000 0.000000 0.000000
vn -1.000000 0.000000 0.000000
vn -1.000000 0.000000 0.000000
vn 0.000000 -1.000000 0.000000
vn 0.000000 -1.000000 0.000000
vn 0.000000 -1.000000 0.000000
vn 0.000000 -1.000000 0.000000
vn 0.000000 -1.000000 0.000000
vn 0.000000 -1.000000 0.000000
vn 0.000000 -1.000000 0.000000
vn 0.000000 -1.000000 0.000000
vn 1.000000 0.000000 0.000000
vn 1.000000 0.000000 0.000000
vn 1.000000 0.000000 0.000000
vn 1.000000 0.000000 0.000000
vn -0.002768 0.999990 -0.003380
vn 0.008134 0.986985 0.160606
vn -0.049324 0.995125 0.085402
vn -0.005141 0.999688 -0.024436
vn 0.039120 0.998342 0.042223
vn 0.055421 0.994038 0.093895
vn 0.000000 1.000000 0.000000
vn 0.000000 1.000000 0.000000
vn 0.047519 -0.008372 0.998835
vn 0.047512 -0.008393 0.998835
vn 0.052544 0.006660 0.998596
vn 0.052544 0.006660 0.998596
vn -0.041310 0.998000 -0.047846
vn 0.002008 0.999348 -0.036047
vn 0.001183 0.998821 -0.048540
vn -0.015497 0.998283 -0.056491
vn -0.050041 0.998570 0.018814
vn 0.003078 0.999944 0.010152
vn 0.002847 0.993019 0.117923
vn -0.039710 0.989938 0.135816
vn -0.002696 -0.103450 -0.994631
vn -0.002694 -0.103453 -0.994631
vn 0.002763 -0.112507 -0.993647
vn 0.002763 -0.112507 -0.993647
vn 0.000000 -1.000000 0.000000
vn 0.000000 -1.000000 0.000000
vn 0.000000 -1.000000 0.000000
vn 0.000000 -1.000000 0.000000
vn 0.000000 -1.000000 0.000000
vn 0.000000 -1.000000 0.000000
vn 0.000000 -1.000000 0.000000
vn 0.000000 -1.000000 0.000000
vn 0.004465 0.999398 0.034411
vn -0.003107 0.999683 -0.024983
vn -0.009167 0.996744 -0.080112
vn -0.002317 -0.025098 0.999682
vn -0.002476 -0.025128 0.999681
vn 0.000000 -1.000000 0.000000
vn 0.000000 -1.000000 0.000000
vn 0.000000 -1.000000 0.000000
vn 0.000000 -1.000000 0.000000
vn 0.026959 -0.082030 -0.996265
vn 0.027351 -0.081829 -0.996271
vn 0.013460 0.998738 0.048396
s 1
g RouteDroite
usemtl initialShadingGroup
f 1/1/1 41/58/2 42/60/3 3/3/4
s 2
f 3/3/5 42/60/6 43/61/7 19/31/8
s 3
f 5/5/9 45/63/10 46/64/11 7/7/12
s 4
f 20/33/13 48/66/14 41/59/15 1/9/16
s 5
f 2/2/17 22/36/18 23/38/19 4/4/20
s 6
f 19/30/21 20/32/22 1/1/23 3/3/24
s 1
f 10/17/25 9/15/26 49/67/27 50/69/28
s 2
f 50/69/29 51/70/30 24/39/31 10/17/32
s 3
f 12/19/33 11/18/34 53/72/35 54/73/36
s 4
f 9/16/37 21/34/38 56/75/39 49/68/40
s 6
f 7/13/41 14/22/42 13/20/43 5/14/44
s 4
f 7/7/45 46/64/46 47/65/47 14/23/48
f 54/73/49 55/74/50 15/24/51 12/19/52
s 5
f 17/28/53 16/26/54 8/11/55 6/12/56
s 2
f 11/18/57 18/29/58 52/71/59 53/72/60
f 13/21/61 44/62/62 45/63/63 5/5/64
s 6
f 13/20/43 14/22/42 20/32/22 19/30/21
s 4
f 14/23/48 47/65/47 48/66/14 20/33/13
f 55/74/50 56/75/39 21/34/38 15/24/51
s 5
f 23/38/19 22/36/18 16/26/54 17/28/53
s 2
f 51/70/30 52/71/59 18/29/58 24/39/31
f 19/31/8 43/61/7 44/62/62 13/21/61
s 1
f 35/51/65 36/52/66 2/2/67 4/4/68
s 2
f 23/37/69 34/50/70 35/51/71 4/4/72
f 17/27/73 33/49/74 34/50/70 23/37/69
f 40/57/75 33/49/74 17/27/73 6/6/76
s 3
f 39/56/77 40/57/78 6/6/79 8/8/80
s 4
f 16/25/81 38/55/82 39/56/83 8/8/84
f 22/35/85 37/54/86 38/55/82 16/25/81
f 36/53/87 37/54/86 22/35/85 2/10/88
s 2
f 34/50/70 33/49/74 28/44/89 27/43/90
f 35/51/71 34/50/70 27/43/90 26/42/91
s 1
f 26/42/92 25/40/93 36/52/66 35/51/65
s 4
f 25/41/94 32/48/95 37/54/86 36/53/87
f 38/55/82 37/54/86 32/48/95 31/47/96
f 39/56/83 38/55/82 31/47/96 30/46/97
s 3
f 30/46/98 29/45/99 40/57/78 39/56/77
s 2
f 29/45/100 28/44/89 33/49/74 40/57/75
s 1
f 42/60/3 41/58/2 9/15/26 10/17/25
s 2
f 43/61/7 42/60/6 10/17/32 24/39/31
f 44/62/62 43/61/7 24/39/31 18/29/58
f 45/63/63 44/62/62 18/29/58 11/18/57
s 3
f 46/64/11 45/63/10 11/18/34 12/19/33
s 4
f 47/65/47 46/64/46 12/19/52 15/24/51
f 48/66/14 47/65/47 15/24/51 21/34/38
f 41/59/15 48/66/14 21/34/38 9/16/37
s 1
f 50/69/28 49/67/27 25/40/93 26/42/92
s 2
f 26/42/91 27/43/90 51/70/30 50/69/29
f 27/43/90 28/44/89 52/71/59 51/70/30
f 53/72/60 52/71/59 28/44/89 29/45/100
s 3
f 54/73/36 53/72/35 29/45/99 30/46/98
s 4
f 30/46/97 31/47/96 55/74/50 54/73/49
f 31/47/96 32/48/95 56/75/39 55/74/50
f 49/68/40 56/75/39 32/48/95 25/41/94
