# This file uses centimeters as units for non-parametric coordinates.

mtllib RouteTournante.mtl
g default
v 0.438117 -0.050000 0.106661
v 0.438117 0.050000 0.106661
v -0.482410 0.050000 -0.100000
v 0.438117 0.050000 -0.100000
v -0.482410 -0.050000 -0.100000
v 0.438117 -0.050000 -0.100000
v -0.300000 -0.050000 0.122323
v -0.300000 0.050000 0.122323
v -0.500000 0.050000 -0.557033
v -0.300000 0.050000 -0.557033
v -0.300000 -0.050000 -0.557033
v -0.500000 -0.050000 -0.557033
v 0.260000 -0.050000 0.100000
v 0.260000 0.050000 0.100000
v 0.260000 0.050000 -0.112490
v 0.260000 -0.050000 -0.112490
v -0.020000 -0.050000 0.084858
v -0.020000 0.050000 0.084858
v -0.029912 0.050000 -0.091853
v -0.029912 -0.050000 -0.091853
v -0.489997 0.050000 -0.419923
v -0.489997 -0.050000 -0.419923
v -0.296051 -0.050000 -0.419923
v -0.296051 0.050000 -0.419923
v -0.508258 0.050000 -0.259961
v -0.508258 -0.050000 -0.259961
v -0.311848 -0.050000 -0.259961
v -0.311848 0.050000 -0.259961
v -0.508103 -0.050000 0.000010
v -0.400010 -0.050000 0.100796
v -0.468891 -0.050000 0.065993
v -0.508103 0.050000 0.000010
v -0.468891 0.050000 0.065993
v -0.400010 0.050000 0.100796
v -0.300000 0.050000 -0.179973
v -0.368261 0.050000 -0.100000
v -0.300000 0.050000 -0.031739
v -0.220027 0.050000 -0.100000
v -0.276577 0.050000 -0.126892
v -0.300000 -0.050000 -0.179973
v -0.276577 -0.050000 -0.126892
v -0.220027 -0.050000 -0.100000
v -0.300000 -0.050000 -0.031739
v -0.368261 -0.050000 -0.100000
v -0.300000 0.050000 -0.100000
v -0.300000 -0.050000 -0.100000
vt 0.625000 0.000000
vt 0.625000 0.250000
vt 0.625000 0.500000
vt 0.625000 0.750000
vt 0.625000 1.000000
vt 0.875000 0.000000
vt 0.875000 0.250000
vt 0.425000 0.000000
vt 0.375000 0.500000
vt 0.425000 0.500000
vt 0.425000 0.750000
vt 0.375000 0.750000
vt 0.565000 0.000000
vt 0.565000 1.000000
vt 0.565000 0.250000
vt 0.565000 0.500000
vt 0.565000 0.750000
vt 0.495000 0.000000
vt 0.495000 1.000000
vt 0.375000 0.500000
vt 0.375000 0.750000
vt 0.425000 0.750000
vt 0.425000 0.500000
vt 0.375000 0.500000
vt 0.125000 0.000000
vt 0.250013 0.250000
vt 0.125000 0.250000
vt 0.399997 0.000000
vt 0.425000 0.250000
vt 0.250013 0.000000
vt 0.399998 0.250000
vt 0.375000 0.000000
vt 0.375000 0.500000
vt 0.375000 0.374987
vt 0.375000 0.250000
vt 0.495000 0.250000
vt 0.495000 0.500000
vt 0.375000 0.750000
vt 0.375000 0.750000
vt 0.425000 0.750000
vt 0.425000 1.000000
vt 0.375000 0.875013
vt 0.399998 1.000000
vt 0.375000 1.000000
vt 0.425000 0.500000
vt 0.495000 0.750000
vt 0.425000 0.500000
vt 0.444993 0.750000
vt 0.444993 0.500000
vt 0.425000 0.414674
vt 0.407935 0.500000
vt 0.425000 0.750000
vt 0.407935 0.750000
vt 0.425000 0.835326
vt 0.425000 0.500000
vt 0.425000 0.750000
vt 0.422187 0.498582
vt 0.424481 0.752596
vn -0.316393 0.000000 0.948628
vn -0.316393 0.000000 0.948628
vn 0.041907 0.000000 0.999121
vn 0.041907 0.000000 0.999121
vn 0.000000 0.000000 -1.000000
vn 0.000000 0.000000 -1.000000
vn 0.000000 0.000000 -1.000000
vn 0.000000 0.000000 -1.000000
vn 1.000000 -0.000000 0.000000
vn 1.000000 -0.000000 0.000000
vn 1.000000 -0.000000 0.000000
vn 1.000000 -0.000000 0.000000
vn -1.000000 0.000000 0.000596
vn -0.996700 0.000000 0.081174
vn -0.996700 0.000000 0.081174
vn -1.000000 0.000000 0.000596
vn 0.039830 0.000000 0.999206
vn 0.039830 0.000000 0.999206
vn 0.140636 0.000000 -0.990061
vn 0.140636 0.000000 -0.990061
vn -0.026010 0.000000 -0.999662
vn -0.026010 0.000000 -0.999662
vn 0.000000 -1.000000 -0.000000
vn 0.000000 -1.000000 -0.000000
vn 0.000000 -1.000000 -0.000000
vn 0.000000 -1.000000 -0.000000
vn 0.000000 -1.000000 -0.000000
vn 0.000000 1.000000 0.000000
vn 0.000000 1.000000 0.000000
vn 0.000000 1.000000 0.000000
vn 0.000000 1.000000 0.000000
vn 0.000000 1.000000 0.000000
vn 0.966620 0.000000 -0.256213
vn 0.966620 0.000000 -0.256213
vn 0.999865 0.000000 0.016455
vn 0.999865 0.000000 0.016455
vn -0.999719 0.000000 0.023708
vn -0.999719 0.000000 0.023708
vn -0.047540 0.000000 0.998869
vn -0.047540 0.000000 0.998869
vn -0.037371 0.000000 0.999301
vn -0.037371 0.000000 0.999301
vn 0.000000 1.000000 0.000000
vn 0.000000 1.000000 0.000000
vn 0.000000 1.000000 0.000000
vn 0.000000 1.000000 0.000000
vn -0.017404 0.000000 -0.999849
vn -0.017404 0.000000 -0.999849
vn 0.069948 0.000000 -0.997551
vn 0.069948 0.000000 -0.997551
vn -0.000000 -1.000000 0.000000
vn -0.000000 -1.000000 0.000000
vn -0.000000 -1.000000 0.000000
vn -0.000000 -1.000000 0.000000
vn 0.000000 1.000000 0.000000
vn 0.000000 1.000000 0.000000
vn -0.999614 0.000000 -0.027786
vn -0.999614 0.000000 -0.027786
vn -0.997349 0.000000 0.072765
vn -0.997349 0.000000 0.072765
vn 0.000000 -1.000000 0.000000
vn 0.000000 -1.000000 0.000000
vn 0.000000 -1.000000 0.000000
vn 0.000000 -1.000000 0.000000
vn 0.999206 0.000000 0.039851
vn 0.999206 0.000000 0.039851
vn 0.999586 0.000000 -0.028789
vn 0.999586 0.000000 -0.028789
vn 0.000000 1.000000 0.000000
vn 0.000000 1.000000 0.000000
vn 0.000000 1.000000 0.000000
vn 0.000000 1.000000 0.000000
vn 0.000000 -1.000000 0.000000
vn 0.000000 -1.000000 0.000000
vn -0.859656 0.000000 0.510874
vn -0.859656 0.000000 0.510874
vn -0.450973 0.000000 0.892538
vn -0.450973 0.000000 0.892538
vn 0.000000 -1.000000 0.000000
vn 0.000000 -1.000000 0.000000
vn 0.000000 -1.000000 0.000000
vn 0.000000 -1.000000 0.000000
vn 0.000000 -1.000000 0.000000
vn 0.000000 1.000000 0.000000
vn 0.000000 1.000000 0.000000
vn 0.000000 1.000000 0.000000
vn 0.000000 1.000000 0.000000
vn 0.000000 1.000000 0.000000
vn 0.000000 1.000000 0.000000
vn 0.000000 -1.000000 0.000000
vn 0.914884 0.000000 -0.403717
vn 0.914884 0.000000 -0.403717
vn 0.429456 0.000000 -0.903088
vn 0.429456 0.000000 -0.903088
vn 0.000000 1.000000 0.000000
vn 0.000000 1.000000 0.000000
vn 0.000000 -1.000000 0.000000
vn 0.000000 -1.000000 0.000000
s 1
g RouteTournante
usemtl initialShadingGroup
f 34/31/1 30/28/2 7/8/3 8/29/4
s off
f 9/9/5 10/10/6 11/11/7 12/12/8
f 1/1/9 6/6/10 4/7/11 2/2/12
s 2
f 5/25/13 29/30/14 32/26/15 3/27/16
s 1
f 8/29/4 7/8/3 17/18/17 18/36/18
s 3
f 42/48/19 38/49/20 19/37/21 20/46/22
s 4
f 7/41/23 43/54/24 42/48/25 20/46/26 17/19/27
s 5
f 3/33/28 36/51/29 35/47/30 28/45/31 25/24/32
s 6
f 35/47/33 40/52/34 27/40/35 28/45/36
s 2
f 5/38/13 3/33/16 25/24/37 26/39/38
s 1
f 14/15/39 13/13/40 1/1/41 2/2/42
s 5
f 15/16/43 14/15/44 2/2/45 4/3/46
s 3
f 16/17/47 15/16/48 4/3/49 6/4/50
s 4
f 13/14/51 16/17/52 6/4/53 1/5/54
s 1
f 18/36/18 17/18/17 13/13/40 14/15/39
s 5
f 19/37/55 18/36/56 14/15/44 15/16/43
s 3
f 20/46/22 19/37/21 15/16/48 16/17/47
s 4
f 17/19/27 20/46/26 16/17/52 13/14/51
s 2
f 22/21/57 21/20/58 9/9/59 12/12/60
s 4
f 23/22/61 22/21/62 12/12/63 11/11/64
s 6
f 24/23/65 23/22/66 11/11/67 10/10/68
s 5
f 21/20/69 24/23/70 10/10/71 9/9/72
s 2
f 26/39/38 25/24/37 21/20/58 22/21/57
s 4
f 27/40/73 26/39/74 22/21/62 23/22/61
s 6
f 28/45/36 27/40/35 23/22/66 24/23/65
s 5
f 25/24/32 28/45/31 24/23/70 21/20/69
s 2
f 29/30/14 31/32/75 33/35/76 32/26/15
s 1
f 31/32/77 30/28/2 34/31/1 33/35/78
s 4
f 29/42/79 5/38/80 44/53/81 43/54/24 7/41/23 30/43/82 31/44/83
s 5
f 8/29/84 37/50/85 36/51/29 3/33/28 32/34/86 33/35/87 34/31/88
f 38/49/89 37/50/85 8/29/84 18/36/56 19/37/55
s 4
f 40/52/90 44/53/81 5/38/80 26/39/74 27/40/73
s 6
f 35/47/33 39/55/91 41/56/92 40/52/34
s 3
f 39/55/93 38/49/20 42/48/19 41/56/94
s 5
f 38/49/89 39/55/95 45/57/96 37/50/85
f 37/50/85 45/57/96 36/51/29
f 36/51/29 45/57/96 39/55/95 35/47/30
s 4
f 40/52/90 41/56/97 46/58/98 44/53/81
f 44/53/81 46/58/98 43/54/24
f 43/54/24 46/58/98 41/56/97 42/48/25
