# This file uses centimeters as units for non-parametric coordinates.

mtllib Cepha1.mtl
g default
v 0.580420 0.000000 -0.498286
v 0.121197 0.000000 -0.763419
v -0.400584 0.000000 -0.670696
v -0.740777 0.000000 -0.264768
v -0.740777 0.000000 0.264768
v -0.400584 0.000000 0.670696
v 0.121197 0.000000 0.763419
v 0.580420 0.000000 0.498286
v 0.761879 0.000000 -0.000000
v 1.217188 0.360991 -1.047658
v 0.251537 0.360011 -1.604181
v -0.845101 0.358696 -1.409600
v -1.559857 0.357726 -0.556375
v -1.559857 0.357726 0.556375
v -0.845101 0.358696 1.409599
v 0.251537 0.360011 1.604181
v 1.217187 0.360991 1.047658
v 1.598502 0.360991 -0.000000
v 1.486803 1.129491 -1.275467
v 0.311044 1.122758 -1.952157
v -1.023182 1.115633 -1.714868
v -1.892590 1.111286 -0.676815
v -1.892590 1.111286 0.676814
v -1.023182 1.115633 1.714867
v 0.311044 1.122758 1.952157
v 1.486802 1.129491 1.275468
v 1.951835 1.132272 -0.000000
v 1.773155 2.154587 -1.520531
v 0.371828 2.154587 -2.329587
v -1.221703 2.154587 -2.048604
v -2.261807 2.154587 -0.809057
v -2.261807 2.154587 0.809057
v -1.221704 2.154587 2.048603
v 0.371828 2.154587 2.329587
v 1.773155 2.154587 1.520531
v 2.326584 2.154587 -0.000000
v 1.590540 3.897950 -1.364974
v 0.332573 3.897950 -2.091260
v -1.097935 3.897950 -1.839023
v -2.031629 3.897950 -0.726288
v -2.031629 3.897950 0.726287
v -1.097935 3.897950 1.839023
v 0.332572 3.897950 2.091259
v 1.590539 3.897950 1.364973
v 2.087347 3.897950 -0.000000
v 1.186893 5.001019 -1.018105
v 0.248602 5.001019 -1.559829
v -0.818383 5.001019 -1.371690
v -1.514810 5.001019 -0.541723
v -1.514811 5.001019 0.541722
v -0.818383 5.001019 1.371689
v 0.248601 5.001020 1.559829
v 1.186893 5.001020 1.018105
v 1.557453 5.001019 -0.000000
v 0.633824 6.387840 -0.509535
v 0.132882 6.387840 -0.780654
v -0.436769 6.387840 -0.686495
v -0.808583 6.387840 -0.271118
v -0.808582 6.387840 0.271118
v -0.436769 6.387840 0.686495
v 0.132881 6.387840 0.780654
v 0.633824 6.387840 0.509535
v 0.831662 6.387840 -0.000000
v 0.000000 -0.000000 -0.000000
v 0.000000 7.861400 -0.000000
vt 0.681021 0.457482
vt 0.717685 0.447885
vt 0.745286 0.556976
vt 0.668455 0.541480
vt 0.739547 0.416954
vt 0.004607 0.089336
vt 0.736443 0.379228
vt 0.131005 0.117139
vt 0.709836 0.352312
vt 0.206147 0.113970
vt 0.672148 0.348773
vt 0.277326 0.094766
vt 0.640968 0.370277
vt 0.482383 0.421177
vt 0.630948 0.406828
vt 0.538876 0.479850
vt 0.646761 0.441273
vt 0.600417 0.516503
vt 0.743922 0.626593
vt 0.653756 0.596705
vt 0.001806 0.181403
vt 0.122744 0.179279
vt 0.213312 0.168147
vt 0.297229 0.147132
vt 0.431058 0.466904
vt 0.506089 0.524304
vt 0.577917 0.564534
vt 0.719867 0.700430
vt 0.630591 0.657328
vt 0.012460 0.279487
vt 0.129821 0.253393
vt 0.225036 0.233778
vt 0.316132 0.213396
vt 0.378894 0.533104
vt 0.472422 0.580963
vt 0.551811 0.619979
vt 0.658093 0.798078
vt 0.584145 0.747128
vt 0.067278 0.405164
vt 0.161124 0.361528
vt 0.247100 0.335299
vt 0.333700 0.320161
vt 0.339552 0.653175
vt 0.432875 0.678305
vt 0.511203 0.708964
vt 0.600945 0.857714
vt 0.544326 0.809696
vt 0.128570 0.481277
vt 0.195052 0.436012
vt 0.264969 0.409990
vt 0.338263 0.399915
vt 0.336758 0.747349
vt 0.414313 0.754165
vt 0.482503 0.775880
vt 0.507258 0.928717
vt 0.477613 0.896921
vt 0.222200 0.562994
vt 0.253972 0.534350
vt 0.291459 0.518210
vt 0.333179 0.514660
vt 0.358570 0.870070
vt 0.402366 0.866912
vt 0.442343 0.876193
vt 0.685487 0.402992
vt 0.395912 0.998008
vt 0.376185 0.524102
vt 0.416147 0.408004
vt 0.431938 0.315447
vt 0.420743 0.188159
vt 0.386665 0.110149
vt 0.348480 0.051933
vt 0.284963 0.001992
vt 0.557034 0.392936
vt 0.630039 0.451588
vt 0.683393 0.462966
vt 0.586557 0.428172
vt 0.246655 0.028264
vt 0.197787 0.037984
vt 0.142989 0.030868
vt 0.824112 0.438006
vt 0.746794 0.459973
vt 0.527670 0.969443
vt 0.325127 0.643466
vt 0.649014 0.925105
vt 0.737668 0.871926
vt 0.834700 0.762133
vt 0.877600 0.660608
vt 0.904722 0.554592
vt 0.083028 0.003130
vn 0.207052 -0.910486 -0.357974
vn 0.207052 -0.910486 -0.357974
vn 0.207052 -0.910486 -0.357974
vn 0.207052 -0.910486 -0.357973
vn -0.070522 -0.913166 -0.401441
vn -0.070522 -0.913166 -0.401441
vn -0.070522 -0.913166 -0.401441
vn -0.070522 -0.913166 -0.401441
vn -0.308025 -0.915509 -0.258776
vn -0.308025 -0.915509 -0.258776
vn -0.308025 -0.915509 -0.258776
vn -0.308025 -0.915509 -0.258776
vn -0.400235 -0.916413 0.000000
vn -0.400235 -0.916413 0.000000
vn -0.400235 -0.916413 0.000000
vn -0.400235 -0.916413 0.000000
vn -0.308025 -0.915509 0.258776
vn -0.308025 -0.915509 0.258776
vn -0.308025 -0.915509 0.258776
vn -0.308025 -0.915509 0.258776
vn -0.070522 -0.913166 0.401441
vn -0.070522 -0.913166 0.401441
vn -0.070522 -0.913166 0.401441
vn -0.070522 -0.913166 0.401441
vn 0.207052 -0.910486 0.357973
vn 0.207052 -0.910486 0.357974
vn 0.207052 -0.910486 0.357974
vn 0.207052 -0.910486 0.357974
vn 0.392096 -0.908784 0.142736
vn 0.392096 -0.908784 0.142736
vn 0.392096 -0.908784 0.142736
vn 0.392096 -0.908784 0.142736
vn 0.392096 -0.908784 -0.142736
vn 0.392096 -0.908784 -0.142736
vn 0.392096 -0.908784 -0.142736
vn 0.392096 -0.908784 -0.142736
vn 0.459017 -0.397438 -0.794573
vn 0.459017 -0.397438 -0.794573
vn 0.459017 -0.397438 -0.794573
vn 0.459017 -0.397438 -0.794573
vn -0.158946 -0.400337 -0.902478
vn -0.158946 -0.400337 -0.902478
vn -0.158946 -0.400337 -0.902478
vn -0.158946 -0.400337 -0.902478
vn -0.701071 -0.402905 -0.588360
vn -0.701071 -0.402905 -0.588360
vn -0.701071 -0.402905 -0.588360
vn -0.701070 -0.402905 -0.588360
vn -0.914792 -0.403925 0.000000
vn -0.914792 -0.403925 0.000000
vn -0.914792 -0.403925 0.000000
vn -0.914792 -0.403925 0.000000
vn -0.701071 -0.402905 0.588360
vn -0.701071 -0.402905 0.588360
vn -0.701071 -0.402905 0.588360
vn -0.701071 -0.402905 0.588360
vn -0.158946 -0.400337 0.902478
vn -0.158946 -0.400337 0.902478
vn -0.158946 -0.400337 0.902478
vn -0.158946 -0.400337 0.902478
vn 0.459017 -0.397438 0.794573
vn 0.459017 -0.397438 0.794573
vn 0.459017 -0.397438 0.794573
vn 0.459017 -0.397438 0.794573
vn 0.863081 -0.395626 0.313959
vn 0.863081 -0.395626 0.313959
vn 0.863082 -0.395626 0.313959
vn 0.863082 -0.395626 0.313959
vn 0.863082 -0.395626 -0.313959
vn 0.863082 -0.395626 -0.313959
vn 0.863082 -0.395626 -0.313959
vn 0.863082 -0.395626 -0.313959
vn 0.472580 -0.327377 -0.818225
vn 0.472580 -0.327377 -0.818225
vn 0.472580 -0.327377 -0.818225
vn 0.472580 -0.327377 -0.818225
vn -0.163757 -0.330149 -0.929616
vn -0.163757 -0.330149 -0.929616
vn -0.163757 -0.330149 -0.929616
vn -0.163757 -0.330149 -0.929616
vn -0.722365 -0.332628 -0.606257
vn -0.722365 -0.332628 -0.606257
vn -0.722365 -0.332628 -0.606257
vn -0.722365 -0.332628 -0.606257
vn -0.942708 -0.333618 0.000000
vn -0.942708 -0.333618 0.000000
vn -0.942708 -0.333618 0.000000
vn -0.942708 -0.333618 0.000000
vn -0.722365 -0.332628 0.606257
vn -0.722365 -0.332628 0.606257
vn -0.722365 -0.332628 0.606257
vn -0.722365 -0.332628 0.606257
vn -0.163758 -0.330149 0.929615
vn -0.163758 -0.330149 0.929616
vn -0.163758 -0.330149 0.929616
vn -0.163758 -0.330149 0.929616
vn 0.472580 -0.327377 0.818225
vn 0.472580 -0.327377 0.818225
vn 0.472580 -0.327377 0.818225
vn 0.472580 -0.327377 0.818225
vn 0.888510 -0.325597 0.323322
vn 0.888510 -0.325596 0.323322
vn 0.888510 -0.325597 0.323322
vn 0.888510 -0.325597 0.323322
vn 0.888510 -0.325597 -0.323322
vn 0.888510 -0.325597 -0.323322
vn 0.888510 -0.325597 -0.323322
vn 0.888510 -0.325597 -0.323322
vn 0.495850 0.128573 -0.858838
vn 0.495850 0.128573 -0.858838
vn 0.495850 0.128573 -0.858838
vn 0.495850 0.128573 -0.858838
vn -0.172183 0.129616 -0.976500
vn -0.172183 0.129616 -0.976500
vn -0.172183 0.129616 -0.976500
vn -0.172183 0.129616 -0.976500
vn -0.759490 0.130532 -0.637288
vn -0.759490 0.130532 -0.637288
vn -0.759490 0.130532 -0.637288
vn -0.759490 0.130532 -0.637288
vn -0.991396 0.130895 0.000000
vn -0.991396 0.130895 0.000000
vn -0.991396 0.130895 0.000000
vn -0.991396 0.130895 0.000000
vn -0.759490 0.130532 0.637288
vn -0.759490 0.130532 0.637288
vn -0.759490 0.130532 0.637288
vn -0.759490 0.130532 0.637288
vn -0.172184 0.129616 0.976500
vn -0.172184 0.129616 0.976500
vn -0.172184 0.129616 0.976500
vn -0.172184 0.129616 0.976500
vn 0.495850 0.128573 0.858838
vn 0.495850 0.128573 0.858838
vn 0.495850 0.128573 0.858838
vn 0.495850 0.128573 0.858838
vn 0.931976 0.127892 0.339211
vn 0.931976 0.127892 0.339211
vn 0.931976 0.127892 0.339211
vn 0.931976 0.127892 0.339211
vn 0.931976 0.127892 -0.339211
vn 0.931976 0.127892 -0.339211
vn 0.931976 0.127892 -0.339211
vn 0.931976 0.127892 -0.339211
vn 0.455055 0.414366 -0.788179
vn 0.455055 0.414366 -0.788179
vn 0.455055 0.414366 -0.788179
vn 0.455055 0.414366 -0.788179
vn -0.157684 0.418832 -0.894268
vn -0.157684 0.418832 -0.894268
vn -0.157684 0.418832 -0.894268
vn -0.157684 0.418832 -0.894268
vn -0.694230 0.422736 -0.582528
vn -0.694230 0.422736 -0.582528
vn -0.694230 0.422736 -0.582528
vn -0.694230 0.422736 -0.582528
vn -0.905536 0.424269 -0.000000
vn -0.905536 0.424269 -0.000000
vn -0.905536 0.424269 -0.000000
vn -0.905536 0.424269 -0.000000
vn -0.694230 0.422736 0.582528
vn -0.694230 0.422736 0.582528
vn -0.694230 0.422736 0.582528
vn -0.694230 0.422736 0.582528
vn -0.157684 0.418832 0.894268
vn -0.157684 0.418832 0.894268
vn -0.157684 0.418832 0.894268
vn -0.157684 0.418833 0.894268
vn 0.455055 0.414366 0.788179
vn 0.455055 0.414366 0.788179
vn 0.455055 0.414366 0.788179
vn 0.455055 0.414366 0.788179
vn 0.856473 0.411434 0.311730
vn 0.856473 0.411434 0.311730
vn 0.856473 0.411434 0.311730
vn 0.856473 0.411434 0.311730
vn 0.856473 0.411434 -0.311730
vn 0.856473 0.411434 -0.311730
vn 0.856473 0.411434 -0.311730
vn 0.856473 0.411434 -0.311730
vn 0.435795 0.463331 -0.771626
vn 0.435795 0.463331 -0.771626
vn 0.435795 0.463331 -0.771626
vn 0.435795 0.463331 -0.771626
vn -0.149777 0.472808 -0.868343
vn -0.149777 0.472808 -0.868343
vn -0.149777 0.472808 -0.868343
vn -0.149777 0.472808 -0.868343
vn -0.672845 0.462784 -0.577158
vn -0.672845 0.462784 -0.577158
vn -0.672845 0.462784 -0.577158
vn -0.672845 0.462784 -0.577158
vn -0.891109 0.453790 0.000000
vn -0.891109 0.453790 0.000000
vn -0.891109 0.453790 0.000000
vn -0.891109 0.453790 0.000000
vn -0.672845 0.462783 0.577158
vn -0.672845 0.462783 0.577158
vn -0.672845 0.462783 0.577158
vn -0.672845 0.462783 0.577158
vn -0.149778 0.472808 0.868343
vn -0.149778 0.472808 0.868343
vn -0.149778 0.472808 0.868343
vn -0.149778 0.472808 0.868343
vn 0.435795 0.463331 0.771627
vn 0.435795 0.463331 0.771627
vn 0.435795 0.463331 0.771627
vn 0.435795 0.463331 0.771627
vn 0.839596 0.444398 0.312393
vn 0.839596 0.444398 0.312393
vn 0.839596 0.444398 0.312393
vn 0.839596 0.444398 0.312393
vn 0.839596 0.444398 -0.312394
vn 0.839596 0.444398 -0.312394
vn 0.839596 0.444398 -0.312394
vn 0.839596 0.444398 -0.312394
vn 0.000000 -1.000000 -0.000000
vn 0.000000 -1.000000 -0.000000
vn 0.000000 -1.000000 -0.000000
vn -0.000000 -1.000000 -0.000000
vn -0.000000 -1.000000 -0.000000
vn -0.000000 -1.000000 -0.000000
vn -0.000000 -1.000000 0.000000
vn -0.000000 -1.000000 0.000000
vn -0.000000 -1.000000 0.000000
vn -0.000000 -1.000000 0.000000
vn -0.000000 -1.000000 0.000000
vn -0.000000 -1.000000 0.000000
vn -0.000000 -1.000000 0.000000
vn -0.000000 -1.000000 0.000000
vn -0.000000 -1.000000 0.000000
vn -0.000000 -1.000000 0.000000
vn -0.000000 -1.000000 0.000000
vn -0.000000 -1.000000 0.000000
vn 0.000000 -1.000000 0.000000
vn 0.000000 -1.000000 0.000000
vn 0.000000 -1.000000 0.000000
vn 0.000000 -1.000000 0.000000
vn 0.000000 -1.000000 0.000000
vn 0.000000 -1.000000 0.000000
vn 0.000000 -1.000000 0.000000
vn 0.000000 -1.000000 0.000000
vn 0.000000 -1.000000 0.000000
vn 0.424217 0.453502 -0.783821
vn 0.424217 0.453502 -0.783821
vn 0.424217 0.453502 -0.783821
vn -0.145395 0.452893 -0.879629
vn -0.145395 0.452893 -0.879629
vn -0.145395 0.452893 -0.879629
vn -0.657921 0.469374 -0.588921
vn -0.657921 0.469374 -0.588921
vn -0.657921 0.469374 -0.588921
vn -0.876687 0.481062 0.000001
vn -0.876687 0.481062 0.000001
vn -0.876687 0.481062 0.000001
vn -0.657922 0.469374 0.588920
vn -0.657922 0.469374 0.588920
vn -0.657922 0.469374 0.588920
vn -0.145396 0.452893 0.879629
vn -0.145396 0.452893 0.879629
vn -0.145396 0.452893 0.879629
vn 0.424217 0.453503 0.783821
vn 0.424217 0.453503 0.783821
vn 0.424217 0.453503 0.783821
vn 0.824986 0.465613 0.320317
vn 0.824986 0.465613 0.320317
vn 0.824986 0.465613 0.320317
vn 0.824986 0.465613 -0.320317
vn 0.824986 0.465613 -0.320317
vn 0.824986 0.465613 -0.320317
s off
g Cepha1
usemtl initialShadingGroup
f 1/75/1 2/81/2 11/3/3 10/4/4
f 2/81/5 3/80/6 12/88/7 11/3/8
f 3/89/9 4/79/10 13/8/11 12/6/12
f 4/79/13 5/78/14 14/10/15 13/8/16
f 5/78/17 6/77/18 15/12/19 14/10/20
f 6/77/21 7/72/22 16/71/23 15/12/24
f 7/73/25 8/76/26 17/16/27 16/14/28
f 8/76/29 9/74/30 18/18/31 17/16/32
f 9/74/33 1/75/34 10/4/35 18/18/36
f 10/4/37 11/3/38 20/19/39 19/20/40
f 11/3/41 12/88/42 21/87/43 20/19/44
f 12/6/45 13/8/46 22/22/47 21/21/48
f 13/8/49 14/10/50 23/23/51 22/22/52
f 14/10/53 15/12/54 24/24/55 23/23/56
f 15/12/57 16/71/58 25/70/59 24/24/60
f 16/14/61 17/16/62 26/26/63 25/25/64
f 17/16/65 18/18/66 27/27/67 26/26/68
f 18/18/69 10/4/70 19/20/71 27/27/72
f 19/20/73 20/19/74 29/28/75 28/29/76
f 20/19/77 21/87/78 30/86/79 29/28/80
f 21/21/81 22/22/82 31/31/83 30/30/84
f 22/22/85 23/23/86 32/32/87 31/31/88
f 23/23/89 24/24/90 33/33/91 32/32/92
f 24/24/93 25/70/94 34/69/95 33/33/96
f 25/25/97 26/26/98 35/35/99 34/34/100
f 26/26/101 27/27/102 36/36/103 35/35/104
f 27/27/105 19/20/106 28/29/107 36/36/108
f 28/29/109 29/28/110 38/37/111 37/38/112
f 29/28/113 30/86/114 39/85/115 38/37/116
f 30/30/117 31/31/118 40/40/119 39/39/120
f 31/31/121 32/32/122 41/41/123 40/40/124
f 32/32/125 33/33/126 42/42/127 41/41/128
f 33/33/129 34/69/130 43/68/131 42/42/132
f 34/34/133 35/35/134 44/44/135 43/43/136
f 35/35/137 36/36/138 45/45/139 44/44/140
f 36/36/141 28/29/142 37/38/143 45/45/144
f 37/38/145 38/37/146 47/46/147 46/47/148
f 38/37/149 39/85/150 48/84/151 47/46/152
f 39/39/153 40/40/154 49/49/155 48/48/156
f 40/40/157 41/41/158 50/50/159 49/49/160
f 41/41/161 42/42/162 51/51/163 50/50/164
f 42/42/165 43/68/166 52/67/167 51/51/168
f 43/43/169 44/44/170 53/53/171 52/52/172
f 44/44/173 45/45/174 54/54/175 53/53/176
f 45/45/177 37/38/178 46/47/179 54/54/180
f 46/47/181 47/46/182 56/55/183 55/56/184
f 47/46/185 48/84/186 57/82/187 56/55/188
f 48/48/189 49/49/190 58/58/191 57/57/192
f 49/49/193 50/50/194 59/59/195 58/58/196
f 50/50/197 51/51/198 60/60/199 59/59/200
f 51/51/201 52/67/202 61/66/203 60/60/204
f 52/52/205 53/53/206 62/62/207 61/61/208
f 53/53/209 54/54/210 63/63/211 62/62/212
f 54/54/213 46/47/214 55/56/215 63/63/216
f 2/2/217 1/1/218 64/64/219
f 3/5/220 2/2/221 64/64/222
f 4/7/223 3/5/224 64/64/225
f 5/9/226 4/7/227 64/64/228
f 6/11/229 5/9/230 64/64/231
f 7/13/232 6/11/233 64/64/234
f 8/15/235 7/13/236 64/64/237
f 9/17/238 8/15/239 64/64/240
f 1/1/241 9/17/242 64/64/243
f 55/56/244 56/55/245 65/65/246
f 56/55/247 57/82/248 65/65/249
f 57/57/250 58/58/251 65/83/252
f 58/58/253 59/59/254 65/83/255
f 59/59/256 60/60/257 65/83/258
f 60/60/259 61/66/260 65/83/261
f 61/61/262 62/62/263 65/65/264
f 62/62/265 63/63/266 65/65/267
f 63/63/268 55/56/269 65/65/270
