# This file uses centimeters as units for non-parametric coordinates.

mtllib buisson_moyen.mtl
g default
v 1.422249 -0.000000 -2.351736
v -0.887494 -0.000000 -2.185650
v 0.681804 2.609943 -1.679599
v -0.230027 2.609943 -1.728909
v 0.760259 -0.000000 -1.449644
v -0.704008 0.000000 -1.293554
v 0.556191 2.722683 -0.767736
v -0.271801 2.722683 -0.812512
v 0.728902 -0.000000 -0.731951
v -0.587375 -0.000000 -0.633212
v 0.663321 2.299774 0.225825
v -0.321223 2.299774 0.172583
v 0.610638 -0.000000 -0.017641
v -0.610638 0.000000 0.017642
v 0.762147 1.736160 0.509800
v -0.371145 1.736161 0.448516
v 0.519715 0.000000 1.036713
v -0.471780 0.000000 0.983096
v 0.403021 1.483113 1.664202
v -0.431237 1.483114 1.619087
v 1.678872 0.674664 -2.222539
v 1.668435 0.532332 -1.570244
v 1.572293 0.554250 -0.748402
v 1.535903 0.309546 0.214676
v 0.638515 0.000001 1.525263
v -0.647550 0.000001 1.455717
v -1.139490 0.258117 0.109373
v -1.226244 0.554251 -0.686958
v -1.399386 0.530656 -1.445153
v -1.413075 0.676253 -2.098752
v 1.813184 1.526883 -1.995536
v 1.516189 2.133488 -1.811569
v 1.956876 1.539991 -1.325172
v 1.660368 2.379629 -1.203279
v 1.934260 1.305385 -0.470849
v 1.563373 2.142417 -0.341215
v 1.902570 0.973122 0.317503
v 1.602766 1.624476 0.409975
v 0.544487 0.502688 1.769817
v 0.408608 1.163559 1.922552
v -0.464652 1.163559 1.875329
v -0.583268 0.502359 1.708831
v -0.788185 1.624477 0.280680
v -1.127340 0.973121 0.182935
v -0.771760 2.144311 -0.466975
v -1.134031 1.305384 -0.535922
v -0.824301 2.379629 -1.337643
v -1.370146 1.539991 -1.388373
v -0.950138 2.133487 -1.924315
v -1.577002 1.526883 -2.025914
v 1.284936 0.674892 -3.109173
v 1.053662 1.526883 -2.907143
v 0.868383 2.133488 -2.496209
v -0.677047 0.675900 -3.030624
v -0.476958 1.526883 -2.920859
v -0.336658 2.133488 -2.551297
vt 0.058679 0.154977
vt 0.556907 0.106513
vt 0.520823 0.059098
vt 0.038749 0.197955
vt 0.377222 0.640280
vt 0.602344 0.257513
vt 0.540224 0.438881
vt 0.691525 0.054211
vt 0.378615 0.494820
vt 0.416366 0.431457
vt 0.143941 0.391869
vt 0.937840 0.398409
vt 0.728487 0.809035
vt 0.142703 0.288078
vt 0.508126 0.636222
vt 0.474252 0.694389
vt 0.557086 0.352307
vt 0.060100 0.002282
vt 0.437570 0.342208
vt 0.795945 0.702423
vt 0.205595 0.182114
vt 0.571942 0.579596
vt 0.580220 0.263575
vt 0.053020 0.063222
vt 0.464242 0.237942
vt 0.799443 0.629091
vt 0.267721 0.138130
vt 0.629388 0.501103
vt 0.865604 0.507178
vt 0.115583 0.364542
vt 0.245298 0.353296
vt 0.242989 0.412587
vt 0.269424 0.275604
vt 0.326011 0.207958
vt 0.388926 0.001746
vt 0.042321 0.315496
vt 0.746293 0.617324
vt 0.705409 0.715182
vt 0.639544 0.786690
vt 0.575353 0.798514
vt 0.304636 0.440991
vt 0.320061 0.378913
vt 0.354594 0.303227
vt 0.390033 0.235805
vt 0.143921 0.265666
vt 0.801262 0.409970
vt 0.681759 0.561490
vt 0.638728 0.637819
vt 0.576662 0.709105
vt 0.532354 0.737734
vt 0.805047 0.404296
vt 0.674097 0.320824
vt 0.745812 0.365804
vt 0.378918 0.781369
vt 0.453437 0.846632
vt 0.526905 0.874655
vt 0.885867 0.325672
vt 0.636694 0.868766
vt 0.850320 0.268081
vt 0.809284 0.196677
vt 0.758131 0.107234
vt 0.187893 0.494484
vt 0.877089 0.458367
vt 0.251220 0.553241
vt 0.344994 0.598343
vt 0.449938 0.539203
vt 0.039046 0.251058
vt 0.742640 0.380291
vt 0.462314 0.028261
vt 0.158859 0.214480
vt 0.123034 0.326944
vt 0.346174 0.020055
vt 0.864401 0.459485
vt 0.038852 0.353333
vt 0.151691 0.167669
vt 0.684329 0.384965
vt 0.126288 0.478504
vt 0.586691 0.447880
vt 0.022365 0.462996
vt 0.168095 0.069094
vt 0.016993 0.520929
vt 0.107161 0.534449
vt 0.518600 0.490259
vt 0.555065 0.099749
vt 0.998008 0.460403
vt 0.077698 0.630237
vt 0.454826 0.546088
vt 0.595808 0.153124
vt 0.184502 0.002852
vt 0.643599 0.013816
vt 0.001992 0.618890
vt 0.942845 0.514850
vn -0.000000 -1.000000 0.000001
vn -0.000000 -1.000000 0.000001
vn -0.000000 -1.000000 0.000001
vn -0.000000 -1.000000 0.000001
vn 0.000000 -1.000000 -0.000000
vn 0.000000 -1.000000 -0.000000
vn 0.000000 -1.000000 0.000000
vn 0.000000 -1.000000 0.000000
vn 0.697686 -0.675003 0.240010
vn 0.697686 -0.675003 0.240010
vn 0.697686 -0.675003 0.240010
vn 0.697686 -0.675004 0.240010
vn 0.006587 0.992532 -0.121806
vn 0.006587 0.992532 -0.121806
vn 0.006587 0.992532 -0.121806
vn 0.006587 0.992532 -0.121806
vn -0.703431 -0.710397 0.022817
vn -0.703431 -0.710397 0.022817
vn -0.703431 -0.710397 0.022817
vn -0.703431 -0.710397 0.022817
vn 0.000000 -1.000000 -0.000000
vn 0.000000 -1.000000 -0.000000
vn 0.000000 -1.000000 -0.000000
vn 0.000000 -1.000000 -0.000000
vn 0.529484 -0.846476 0.055901
vn 0.529484 -0.846476 0.055901
vn 0.529484 -0.846476 0.055901
vn 0.529484 -0.846476 0.055901
vn -0.021279 0.919079 0.393499
vn -0.021279 0.919078 0.393499
vn -0.021279 0.919079 0.393499
vn -0.021279 0.919079 0.393499
vn -0.637555 -0.757049 0.142830
vn -0.637555 -0.757049 0.142830
vn -0.637555 -0.757049 0.142830
vn -0.637555 -0.757049 0.142830
vn -0.000000 -1.000000 0.000000
vn -0.000000 -1.000000 0.000000
vn -0.000000 -1.000000 0.000000
vn -0.000000 -1.000000 0.000000
vn 0.445847 -0.890690 -0.088831
vn 0.445847 -0.890690 -0.088831
vn 0.445847 -0.890690 -0.088831
vn 0.445847 -0.890691 -0.088831
vn -0.048419 0.442649 0.895387
vn -0.048419 0.442649 0.895387
vn -0.048419 0.442650 0.895387
vn -0.048419 0.442649 0.895387
vn -0.568470 -0.810545 -0.140920
vn -0.568470 -0.810545 -0.140920
vn -0.568470 -0.810545 -0.140920
vn -0.568470 -0.810545 -0.140920
vn -0.000000 -1.000000 0.000000
vn -0.000000 -1.000000 0.000000
vn -0.000000 -1.000000 0.000000
vn -0.000000 -1.000000 0.000000
vn 0.287543 -0.957754 -0.005195
vn 0.287544 -0.957753 -0.005195
vn 0.287543 -0.957754 -0.005195
vn 0.287543 -0.957754 -0.005195
vn -0.011395 0.977480 0.210721
vn -0.011395 0.977480 0.210721
vn -0.011395 0.977480 0.210721
vn -0.011395 0.977480 0.210721
vn -0.350294 -0.936597 -0.008991
vn -0.350294 -0.936597 -0.008991
vn -0.350294 -0.936597 -0.008991
vn -0.350294 -0.936597 -0.008991
vn 0.324113 0.919815 -0.221111
vn 0.324113 0.919815 -0.221111
vn 0.324113 0.919815 -0.221111
vn 0.324113 0.919815 -0.221111
vn 0.373065 0.874782 0.309158
vn 0.373065 0.874782 0.309158
vn 0.373065 0.874782 0.309158
vn 0.373065 0.874782 0.309158
vn 0.353629 0.669959 0.652764
vn 0.353629 0.669959 0.652764
vn 0.353629 0.669959 0.652764
vn 0.353629 0.669959 0.652764
vn 0.346344 0.836045 0.425529
vn 0.346344 0.836045 0.425529
vn 0.346344 0.836045 0.425529
vn 0.346344 0.836045 0.425529
vn -0.042035 0.627704 0.777316
vn -0.042035 0.627704 0.777316
vn -0.042035 0.627704 0.777316
vn -0.042035 0.627704 0.777316
vn -0.644036 0.723615 0.248191
vn -0.644036 0.723615 0.248191
vn -0.644036 0.723615 0.248191
vn -0.644036 0.723615 0.248191
vn -0.656867 0.538672 0.527597
vn -0.656867 0.538672 0.527597
vn -0.656867 0.538672 0.527597
vn -0.656867 0.538672 0.527597
vn -0.651096 0.714986 0.254695
vn -0.651096 0.714986 0.254695
vn -0.651096 0.714986 0.254695
vn -0.651096 0.714986 0.254695
vn -0.457329 0.870422 -0.182250
vn -0.457329 0.870423 -0.182250
vn -0.457329 0.870423 -0.182250
vn -0.457329 0.870422 -0.182250
vn 0.866214 0.414489 -0.279055
vn 0.866214 0.414489 -0.279055
vn 0.866214 0.414489 -0.279055
vn 0.866214 0.414489 -0.279055
vn 0.925230 0.344411 0.159153
vn 0.925230 0.344411 0.159153
vn 0.925230 0.344411 0.159153
vn 0.925230 0.344411 0.159153
vn 0.903641 0.376817 0.203574
vn 0.903641 0.376817 0.203574
vn 0.903641 0.376817 0.203574
vn 0.903641 0.376817 0.203574
vn 0.733795 0.118634 0.668933
vn 0.733795 0.118634 0.668933
vn 0.733795 0.118634 0.668933
vn 0.733795 0.118634 0.668933
vn -0.052447 -0.235044 0.970569
vn -0.052447 -0.235044 0.970569
vn -0.052447 -0.235044 0.970569
vn -0.052447 -0.235044 0.970569
vn -0.910509 0.251473 0.328229
vn -0.910509 0.251473 0.328229
vn -0.910509 0.251473 0.328229
vn -0.910509 0.251473 0.328229
vn -0.891328 0.394538 0.223325
vn -0.891328 0.394538 0.223325
vn -0.891328 0.394538 0.223325
vn -0.891328 0.394538 0.223325
vn -0.855969 0.444225 0.264540
vn -0.855969 0.444225 0.264540
vn -0.855969 0.444225 0.264540
vn -0.855969 0.444225 0.264540
vn -0.778354 0.622753 0.079646
vn -0.778354 0.622753 0.079646
vn -0.778354 0.622753 0.079646
vn -0.778354 0.622753 0.079646
vn 0.974442 -0.191817 -0.116914
vn 0.974442 -0.191817 -0.116914
vn 0.974442 -0.191817 -0.116914
vn 0.974442 -0.191817 -0.116914
vn 0.935601 -0.352399 0.021573
vn 0.935601 -0.352399 0.021573
vn 0.935601 -0.352399 0.021573
vn 0.935601 -0.352399 0.021573
vn 0.895334 -0.432209 -0.107578
vn 0.895334 -0.432209 -0.107578
vn 0.895334 -0.432209 -0.107578
vn 0.895334 -0.432209 -0.107578
vn 0.773220 -0.340164 0.535181
vn 0.773220 -0.340164 0.535181
vn 0.773220 -0.340164 0.535181
vn 0.773220 -0.340164 0.535181
vn -0.048313 -0.444377 0.894536
vn -0.048313 -0.444377 0.894536
vn -0.048313 -0.444377 0.894536
vn -0.048313 -0.444377 0.894536
vn -0.942661 -0.030013 0.332400
vn -0.942661 -0.030013 0.332400
vn -0.942661 -0.030013 0.332400
vn -0.942661 -0.030013 0.332400
vn -0.994682 0.057738 0.085290
vn -0.994682 0.057738 0.085290
vn -0.994682 0.057738 0.085290
vn -0.994682 0.057738 0.085290
vn -0.967360 0.037147 0.250668
vn -0.967360 0.037147 0.250668
vn -0.967360 0.037147 0.250668
vn -0.967360 0.037147 0.250668
vn -0.983743 -0.082358 0.159586
vn -0.983743 -0.082358 0.159586
vn -0.983743 -0.082358 0.159586
vn -0.983743 -0.082358 0.159586
vn 0.410004 0.825467 -0.387945
vn 0.410004 0.825467 -0.387945
vn 0.410004 0.825467 -0.387945
vn 0.827863 0.180781 -0.530999
vn 0.827863 0.180781 -0.530999
vn 0.827863 0.180781 -0.530999
vn 0.827863 0.180781 -0.530999
vn 0.636810 0.528448 -0.561441
vn 0.636810 0.528448 -0.561441
vn 0.636810 0.528448 -0.561441
vn 0.636810 0.528448 -0.561441
vn 0.882279 -0.260513 -0.392068
vn 0.882279 -0.260513 -0.392068
vn 0.882279 -0.260513 -0.392068
vn -0.037122 -0.763221 -0.645070
vn -0.037122 -0.763221 -0.645070
vn -0.037122 -0.763221 -0.645070
vn -0.037122 -0.763221 -0.645070
vn -0.018206 0.179743 -0.983545
vn -0.018206 0.179743 -0.983545
vn -0.018206 0.179743 -0.983545
vn -0.018206 0.179743 -0.983545
vn 0.021138 0.541473 -0.840452
vn 0.021138 0.541473 -0.840452
vn 0.021138 0.541473 -0.840452
vn 0.021138 0.541473 -0.840452
vn 0.024736 0.864765 -0.501566
vn 0.024736 0.864766 -0.501566
vn 0.024736 0.864765 -0.501566
vn 0.024736 0.864765 -0.501566
vn -0.693366 -0.468532 -0.547469
vn -0.693366 -0.468532 -0.547469
vn -0.693366 -0.468532 -0.547469
vn -0.702403 0.090687 -0.705979
vn -0.702403 0.090687 -0.705979
vn -0.702403 0.090687 -0.705979
vn -0.702403 0.090687 -0.705979
vn -0.541399 0.579076 -0.609556
vn -0.541399 0.579076 -0.609556
vn -0.541399 0.579076 -0.609556
vn -0.541399 0.579076 -0.609556
vn -0.421984 0.807122 -0.412896
vn -0.421984 0.807122 -0.412896
vn -0.421984 0.807122 -0.412896
s off
g Bushes:med
usemtl initialShadingGroup
f 18/1/1 17/75/2 25/70/3 26/4/4
f 2/61/5 1/6/6 5/88/7 6/8/8
f 1/66/9 21/9/10 22/10/11 5/7/12
f 3/63/13 4/12/14 8/85/15 7/92/16
f 29/15/17 30/16/18 2/5/19 6/87/20
f 6/8/21 5/88/22 9/84/23 10/90/24
f 5/7/25 22/10/26 23/19/27 9/17/28
f 7/86/29 8/91/30 12/81/31 11/82/32
f 28/22/33 29/15/34 6/87/35 10/83/36
f 10/18/37 9/89/38 13/80/39 14/24/40
f 9/17/41 23/19/42 24/25/43 13/23/44
f 11/82/45 12/81/46 16/79/47 15/77/48
f 27/28/49 28/22/50 10/83/51 14/78/52
f 14/24/53 13/80/54 17/75/55 18/1/56
f 17/2/57 13/23/58 24/25/59 25/3/60
f 15/77/61 16/79/62 20/74/63 19/30/64
f 27/28/65 14/78/66 18/76/67 26/68/68
f 3/11/69 7/14/70 34/31/71 32/32/72
f 7/14/73 11/21/74 36/33/75 34/31/76
f 11/21/77 15/27/78 38/34/79 36/33/80
f 15/27/81 19/72/82 40/35/83 38/34/84
f 19/30/85 20/74/86 41/36/87 40/71/88
f 20/29/89 16/26/90 43/37/91 41/73/92
f 16/26/93 12/20/94 45/38/95 43/37/96
f 12/20/97 8/13/98 47/39/99 45/38/100
f 8/13/101 4/58/102 49/40/103 47/39/104
f 31/41/105 32/32/106 34/31/107 33/42/108
f 33/42/109 34/31/110 36/33/111 35/43/112
f 35/43/113 36/33/114 38/34/115 37/44/116
f 37/44/117 38/34/118 40/35/119 39/69/120
f 39/45/121 40/71/122 41/36/123 42/67/124
f 42/46/125 41/73/126 43/37/127 44/47/128
f 44/47/129 43/37/130 45/38/131 46/48/132
f 46/48/133 45/38/134 47/39/135 48/49/136
f 48/49/137 47/39/138 49/40/139 50/50/140
f 22/10/141 21/9/142 31/41/143 33/42/144
f 23/19/145 22/10/146 33/42/147 35/43/148
f 24/25/149 23/19/150 35/43/151 37/44/152
f 25/3/153 24/25/154 37/44/155 39/69/156
f 26/4/157 25/70/158 39/45/159 42/67/160
f 27/28/161 26/68/162 42/46/163 44/47/164
f 44/47/165 46/48/166 28/22/167 27/28/168
f 46/48/169 48/49/170 29/15/171 28/22/172
f 48/49/173 50/50/174 30/16/175 29/15/176
f 32/32/177 53/62/178 3/11/179
f 21/9/180 51/65/181 52/64/182 31/41/183
f 31/41/184 52/64/185 53/62/186 32/32/187
f 1/66/188 51/65/189 21/9/190
f 2/61/191 54/60/192 51/52/193 1/6/194
f 52/53/195 51/52/196 54/60/197 55/59/198
f 53/51/199 52/53/200 55/59/201 56/57/202
f 3/63/203 53/51/204 56/57/205 4/12/206
f 2/5/207 30/16/208 54/54/209
f 55/55/210 54/54/211 30/16/212 50/50/213
f 56/56/214 55/55/215 50/50/216 49/40/217
f 4/58/218 56/56/219 49/40/220
