# This file uses centimeters as units for non-parametric coordinates.

mtllib buisson_petit.mtl
g default
v -0.639240 0.000000 0.078279
v -0.435160 1.063029 -0.176021
v 0.000000 0.000000 0.000000
v 0.334904 0.936698 -0.085479
v 0.263805 0.000000 0.027759
v 0.445618 0.707138 -0.057433
v -0.582041 0.274791 -0.720821
v 0.013943 0.225746 -0.636050
v 0.404244 0.126078 -0.594174
v 0.847097 0.000001 0.083209
v 0.286203 0.105131 0.489950
v -0.039809 0.225746 0.502801
v -0.618715 0.275438 0.539004
v -0.486026 0.621900 -0.769010
v -0.419629 0.868969 -0.643158
v 0.136902 0.531683 -0.775320
v 0.179143 0.872606 -0.620972
v 0.456340 0.396353 -0.740268
v 0.485480 0.661649 -0.615848
v 1.022741 0.473918 0.020695
v 0.951752 0.204611 0.064209
v 0.365691 0.661649 0.352024
v 0.316435 0.396352 0.487082
v 0.062360 0.873378 0.324319
v 0.024155 0.531683 0.469581
v -0.534814 0.868969 0.355806
v -0.593730 0.621899 0.607661
v -0.976657 0.275294 -0.030999
v -0.926428 0.621899 -0.109214
v -0.772318 0.868969 -0.155825
vt 0.505877 0.186213
vt 0.663273 0.984994
vt 0.314898 0.426744
vt 0.266485 0.314109
vt 0.769386 0.810804
vt 0.673558 0.722664
vt 0.419731 0.103362
vt 0.250312 0.224965
vt 0.619095 0.662608
vt 0.233403 0.001968
vt 0.001992 0.342786
vt 0.140816 0.352571
vt 0.209002 0.460878
vt 0.127924 0.549269
vt 0.003916 0.248845
vt 0.141567 0.276444
vt 0.076678 0.059903
vt 0.736313 0.576785
vt 0.813007 0.628090
vt 0.867351 0.752714
vt 0.253748 0.437961
vt 0.205177 0.326732
vt 0.199037 0.265229
vt 0.541510 0.464818
vt 0.678495 0.627225
vt 0.736597 0.673763
vt 0.810562 0.773519
vt 0.989635 0.827551
vt 0.845196 0.985923
vt 0.938466 0.912176
vt 0.256662 0.602508
vt 0.998008 0.698399
vt 0.354279 0.600034
vt 0.467299 0.550827
vt 0.551195 0.415075
vt 0.156516 0.019380
vt 0.498096 0.519935
vt 0.605487 0.409821
vt 0.786297 0.470143
vt 0.494232 0.704439
vt 0.865581 0.504969
vt 0.518090 0.796872
vn -0.035707 -0.943066 -0.330683
vn -0.035707 -0.943066 -0.330683
vn -0.035707 -0.943066 -0.330683
vn -0.035707 -0.943066 -0.330683
vn 0.007192 -0.887078 0.461563
vn 0.007192 -0.887078 0.461563
vn 0.007192 -0.887078 0.461563
vn 0.007192 -0.887078 0.461563
vn -0.115313 -0.952861 -0.280641
vn -0.115313 -0.952861 -0.280641
vn -0.115313 -0.952861 -0.280641
vn -0.115313 -0.952861 -0.280641
vn -0.197797 -0.928340 0.314741
vn -0.197797 -0.928340 0.314741
vn -0.197797 -0.928340 0.314741
vn -0.197797 -0.928340 0.314741
vn 0.018503 -0.980702 -0.194629
vn 0.018503 -0.980702 -0.194629
vn 0.018503 -0.980702 -0.194629
vn -0.021172 -0.974652 0.222722
vn -0.021172 -0.974652 0.222722
vn -0.021172 -0.974652 0.222722
vn 0.107539 0.959064 -0.261975
vn 0.107539 0.959064 -0.261975
vn 0.107539 0.959064 -0.261975
vn 0.107539 0.959064 -0.261975
vn 0.723987 0.674556 -0.144278
vn 0.723987 0.674556 -0.144278
vn 0.723987 0.674556 -0.144278
vn 0.723987 0.674556 -0.144278
vn 0.379832 0.923802 -0.048139
vn 0.379832 0.923802 -0.048139
vn 0.379832 0.923802 -0.048139
vn 0.349251 0.921380 0.170536
vn 0.349251 0.921380 0.170536
vn 0.349251 0.921380 0.170536
vn 0.654048 0.660299 0.369090
vn 0.654048 0.660299 0.369090
vn 0.654048 0.660299 0.369090
vn 0.654048 0.660299 0.369090
vn 0.072601 0.954400 0.289569
vn 0.072601 0.954400 0.289569
vn 0.072601 0.954400 0.289569
vn 0.072601 0.954400 0.289569
vn 0.041773 0.423512 -0.904927
vn 0.041773 0.423512 -0.904927
vn 0.041773 0.423512 -0.904927
vn 0.041773 0.423512 -0.904927
vn 0.265494 0.376818 -0.887424
vn 0.265494 0.376818 -0.887424
vn 0.265494 0.376818 -0.887424
vn 0.265494 0.376818 -0.887424
vn 0.803656 -0.060935 -0.591967
vn 0.803656 -0.060935 -0.591967
vn 0.803656 -0.060935 -0.591967
vn 0.803655 -0.060935 -0.591967
vn 0.531927 0.158226 0.831876
vn 0.531927 0.158226 0.831876
vn 0.531927 0.158226 0.831876
vn 0.531927 0.158226 0.831876
vn 0.161236 0.394539 0.904623
vn 0.161236 0.394539 0.904623
vn 0.161236 0.394539 0.904623
vn 0.161236 0.394539 0.904623
vn 0.153717 0.534984 0.830761
vn 0.153717 0.534984 0.830761
vn 0.153717 0.534984 0.830761
vn 0.153717 0.534984 0.830761
vn 0.029136 -0.284808 -0.958142
vn 0.029136 -0.284808 -0.958142
vn 0.029136 -0.284808 -0.958142
vn 0.029136 -0.284808 -0.958142
vn -0.045489 -0.432209 -0.900626
vn -0.045489 -0.432209 -0.900625
vn -0.045489 -0.432209 -0.900625
vn -0.045489 -0.432209 -0.900626
vn 0.719424 -0.427722 -0.547251
vn 0.719424 -0.427721 -0.547250
vn 0.719424 -0.427721 -0.547251
vn 0.719424 -0.427721 -0.547251
vn 0.547314 -0.112315 0.829357
vn 0.547314 -0.112315 0.829357
vn 0.547314 -0.112315 0.829357
vn 0.547314 -0.112315 0.829357
vn 0.016393 0.057738 0.998197
vn 0.016393 0.057738 0.998197
vn 0.016393 0.057738 0.998197
vn 0.016393 0.057738 0.998197
vn 0.135467 -0.072143 0.988152
vn 0.135467 -0.072143 0.988152
vn 0.135467 -0.072143 0.988152
vn 0.135467 -0.072143 0.988152
vn -0.483015 0.802808 -0.349564
vn -0.483015 0.802808 -0.349564
vn -0.483015 0.802808 -0.349564
vn -0.847439 0.083109 -0.524347
vn -0.847439 0.083109 -0.524347
vn -0.847439 0.083109 -0.524347
vn -0.847439 0.083109 -0.524347
vn -0.747777 0.416594 -0.516990
vn -0.747777 0.416594 -0.516990
vn -0.747777 0.416594 -0.516990
vn -0.747777 0.416594 -0.516990
vn -0.539536 -0.783577 -0.308072
vn -0.539536 -0.783577 -0.308072
vn -0.539536 -0.783577 -0.308072
vn -0.652634 -0.637162 0.409992
vn -0.652634 -0.637162 0.409992
vn -0.652634 -0.637162 0.409992
vn -0.876570 0.101616 0.470425
vn -0.876570 0.101616 0.470425
vn -0.876570 0.101617 0.470425
vn -0.876570 0.101616 0.470425
vn -0.762141 0.542225 0.353742
vn -0.762141 0.542225 0.353742
vn -0.762141 0.542225 0.353742
vn -0.762141 0.542225 0.353742
vn -0.476503 0.850892 0.221197
vn -0.476503 0.850892 0.221197
vn -0.476503 0.850892 0.221197
s off
g Bushes:lil
usemtl initialShadingGroup
f 3/1/1 1/35/2 7/3/3 8/4/4
f 13/5/5 1/2/6 3/42/7 12/6/8
f 5/7/9 3/1/10 8/4/11 9/8/12
f 11/9/13 12/6/14 3/42/15 5/40/16
f 5/7/17 9/8/18 10/10/19
f 11/9/20 5/40/21 10/37/22
f 4/11/23 17/12/24 15/13/25 2/14/26
f 6/15/27 19/16/28 17/12/29 4/11/30
f 6/15/31 20/17/32 19/16/33
f 6/39/34 22/18/35 20/38/36
f 6/39/37 4/41/38 24/19/39 22/18/40
f 4/41/41 2/32/42 26/20/43 24/19/44
f 14/21/45 15/13/46 17/12/47 16/22/48
f 16/22/49 17/12/50 19/16/51 18/23/52
f 18/23/53 19/16/54 20/17/55 21/36/56
f 21/24/57 20/38/58 22/18/59 23/25/60
f 23/25/61 22/18/62 24/19/63 25/26/64
f 25/26/65 24/19/66 26/20/67 27/27/68
f 8/4/69 7/3/70 14/21/71 16/22/72
f 9/8/73 8/4/74 16/22/75 18/23/76
f 10/10/77 9/8/78 18/23/79 21/36/80
f 11/9/81 10/37/82 21/24/83 23/25/84
f 23/25/85 25/26/86 12/6/87 11/9/88
f 13/5/89 12/6/90 25/26/91 27/27/92
f 2/14/93 15/13/94 30/31/95
f 14/21/96 7/3/97 28/34/98 29/33/99
f 15/13/100 14/21/101 29/33/102 30/31/103
f 7/3/104 1/35/105 28/34/106
f 1/2/107 13/5/108 28/29/109
f 29/30/110 28/29/111 13/5/112 27/27/113
f 30/28/114 29/30/115 27/27/116 26/20/117
f 2/32/118 30/28/119 26/20/120
