# This file uses centimeters as units for non-parametric coordinates.

mtllib buisson_fleur.mtl
g default
v -0.444135 -0.074559 0.720635
v -0.539549 -0.074559 0.622545
v -0.507586 -0.074559 0.502741
v -0.600538 -0.028230 0.406367
v -0.728013 -0.074559 0.448744
v -0.786148 -0.074559 0.562136
v -0.884990 -0.074559 0.612641
v -0.921638 -0.028230 0.741623
v -0.821539 -0.074559 0.830535
v -0.715163 -0.074559 0.805901
v -0.601112 -0.074559 0.884532
v -0.470748 -0.028230 0.852075
v -0.444135 0.028230 0.720635
v -0.539549 0.028230 0.622545
v -0.507586 0.028230 0.502741
v -0.600538 0.074559 0.406367
v -0.728013 0.028230 0.448744
v -0.786148 0.028230 0.562136
v -0.884990 0.028230 0.612641
v -0.921638 0.074559 0.741623
v -0.821539 0.028230 0.830535
v -0.715163 0.028230 0.805901
v -0.601112 0.028230 0.884532
v -0.470748 0.074559 0.852075
v -0.661950 -0.074559 0.679332
v -0.664263 0.028230 0.678874
v -0.191239 -0.074559 -0.900925
v -0.327994 -0.074559 -0.905768
v -0.387779 -0.074559 -1.014398
v -0.521569 -0.028230 -1.019703
v -0.584319 -0.074559 -0.900925
v -0.547870 -0.074559 -0.778823
v -0.584319 -0.074559 -0.673981
v -0.521569 -0.028230 -0.555482
v -0.387779 -0.074559 -0.560508
v -0.327994 -0.074559 -0.651878
v -0.191239 -0.074559 -0.673981
v -0.119542 -0.028230 -0.787593
v -0.191239 0.028230 -0.900925
v -0.327994 0.028230 -0.905768
v -0.387779 0.028230 -1.014398
v -0.521569 0.074559 -1.019703
v -0.584319 0.028230 -0.900925
v -0.547870 0.028230 -0.778823
v -0.584319 0.028230 -0.673981
v -0.521569 0.074559 -0.555482
v -0.387779 0.028230 -0.560508
v -0.327994 0.028230 -0.651878
v -0.191239 0.028230 -0.673981
v -0.119542 0.074559 -0.787593
v -0.377112 -0.074559 -0.780093
v -0.379099 0.028230 -0.778823
v 0.833018 -0.074559 0.078055
v 0.737604 -0.074559 -0.020036
v 0.769567 -0.074559 -0.139840
v 0.676615 -0.028230 -0.236213
v 0.549140 -0.074559 -0.193837
v 0.491005 -0.074559 -0.080444
v 0.392163 -0.074559 -0.029940
v 0.355515 -0.028230 0.099042
v 0.455614 -0.074559 0.187955
v 0.561990 -0.074559 0.163321
v 0.676041 -0.074559 0.241952
v 0.806405 -0.028230 0.209495
v 0.833018 0.028230 0.078055
v 0.737604 0.028230 -0.020036
v 0.769567 0.028230 -0.139840
v 0.676615 0.074559 -0.236213
v 0.549140 0.028230 -0.193837
v 0.491005 0.028230 -0.080444
v 0.392163 0.028230 -0.029940
v 0.355515 0.074559 0.099042
v 0.455614 0.028230 0.187955
v 0.561990 0.028230 0.163321
v 0.676041 0.028230 0.241952
v 0.806405 0.074559 0.209495
v 0.615203 -0.074559 0.036751
v 0.612890 0.028230 0.036294
vt 0.792599 0.522336
vt 0.717123 0.495736
vt 0.706381 0.423635
vt 0.629441 0.392040
vt 0.570018 0.450565
vt 0.568664 0.525054
vt 0.527890 0.575487
vt 0.539367 0.657849
vt 0.619533 0.679522
vt 0.668720 0.638579
vt 0.747999 0.653846
vt 0.814238 0.603097
vt 0.001992 0.699083
vt 0.001992 0.648729
vt 0.020377 0.595160
vt 0.074421 0.547218
vt 0.105011 0.469663
vt 0.160712 0.412525
vt 0.212546 0.362127
vt 0.298243 0.323009
vt 0.341163 0.239561
vt 0.392134 0.189456
vt 0.454783 0.125500
vt 0.535477 0.084076
vt 0.571980 0.001936
vt 0.036172 0.703176
vt 0.041328 0.657991
vt 0.061010 0.615858
vt 0.116499 0.580292
vt 0.148538 0.511948
vt 0.205636 0.459192
vt 0.258748 0.411108
vt 0.345438 0.372665
vt 0.388805 0.288215
vt 0.440044 0.236735
vt 0.502645 0.171497
vt 0.583184 0.128945
vt 0.619728 0.046382
vt 0.266889 0.812080
vt 0.194547 0.776079
vt 0.180382 0.713743
vt 0.103531 0.682247
vt 0.044460 0.740708
vt 0.046167 0.805534
vt 0.001992 0.865442
vt 0.013630 0.948078
vt 0.093900 0.969701
vt 0.146336 0.919013
vt 0.222444 0.943716
vt 0.288568 0.892986
vt 0.665084 0.556929
vt 0.141278 0.837694
vt 0.154483 0.699081
vt 0.154483 0.648728
vt 0.193818 0.657990
vt 0.188663 0.703175
vt 0.172868 0.595159
vt 0.213500 0.615857
vt 0.226912 0.547218
vt 0.268989 0.580291
vt 0.257503 0.469663
vt 0.301028 0.511945
vt 0.313201 0.412522
vt 0.358128 0.459193
vt 0.365037 0.362128
vt 0.411236 0.411107
vt 0.450734 0.323007
vt 0.497929 0.372665
vt 0.493651 0.239558
vt 0.541296 0.288218
vt 0.544627 0.189460
vt 0.592532 0.236730
vt 0.607273 0.125497
vt 0.655137 0.171499
vt 0.687966 0.084076
vt 0.735674 0.128946
vt 0.724470 0.001936
vt 0.772218 0.046382
vt 0.531397 0.661912
vt 0.606872 0.688512
vt 0.479358 0.723104
vt 0.520655 0.589811
vt 0.443714 0.558216
vt 0.384291 0.616740
vt 0.382937 0.691230
vt 0.342163 0.741662
vt 0.353640 0.824025
vt 0.433807 0.845698
vt 0.482993 0.804754
vt 0.562272 0.820022
vt 0.628512 0.769272
vt 0.222478 0.353339
vt 0.146305 0.328619
vt 0.141304 0.247308
vt 0.093955 0.379354
vt 0.013637 0.357673
vt 0.001992 0.275090
vt 0.046237 0.215118
vt 0.044444 0.150314
vt 0.103572 0.091852
vt 0.180386 0.123331
vt 0.194610 0.185719
vt 0.266956 0.221793
vt 0.288575 0.302498
vt 0.273738 0.724496
vt 0.273738 0.674142
vt 0.313073 0.683404
vt 0.307918 0.728589
vt 0.292123 0.620573
vt 0.332756 0.641271
vt 0.346168 0.572631
vt 0.388245 0.605705
vt 0.376758 0.495075
vt 0.420282 0.537362
vt 0.432456 0.437940
vt 0.477383 0.484603
vt 0.484292 0.387540
vt 0.530492 0.436523
vt 0.569988 0.348421
vt 0.617183 0.398079
vt 0.612906 0.264974
vt 0.660550 0.313632
vt 0.663880 0.214874
vt 0.711787 0.262146
vt 0.726527 0.150913
vt 0.774391 0.196913
vt 0.807221 0.109491
vt 0.854928 0.154360
vt 0.843724 0.027351
vt 0.891472 0.071797
vt 0.900893 0.716652
vt 0.976368 0.743252
vt 0.848854 0.777845
vt 0.890151 0.644551
vt 0.813210 0.612956
vt 0.753788 0.671481
vt 0.752434 0.745970
vt 0.711660 0.796403
vt 0.723136 0.878765
vt 0.803303 0.900438
vt 0.852490 0.859495
vt 0.931769 0.874762
vt 0.998008 0.824013
vt 0.930190 0.445224
vt 0.854017 0.420504
vt 0.849017 0.339193
vt 0.801667 0.471240
vt 0.721350 0.449559
vt 0.709705 0.366976
vt 0.753949 0.307004
vt 0.752157 0.242200
vt 0.811285 0.183738
vt 0.888099 0.215217
vt 0.902322 0.277604
vt 0.974668 0.313679
vt 0.996288 0.394384
vn 0.716820 0.000000 -0.697258
vn 0.716820 0.000000 -0.697258
vn 0.716820 0.000000 -0.697258
vn 0.716820 0.000000 -0.697258
vn 0.966205 0.000000 0.257775
vn 0.966205 0.000000 0.257775
vn 0.966205 0.000000 0.257775
vn 0.966205 0.000000 0.257775
vn 0.719768 0.000000 -0.694214
vn 0.719768 0.000000 -0.694214
vn 0.719768 0.000000 -0.694214
vn 0.719768 0.000000 -0.694214
vn -0.315457 0.000000 -0.948940
vn -0.315457 0.000000 -0.948940
vn -0.315457 0.000000 -0.948940
vn -0.315457 0.000000 -0.948940
vn -0.889868 0.000000 -0.456219
vn -0.889868 0.000000 -0.456219
vn -0.889868 0.000000 -0.456219
vn -0.889868 0.000000 -0.456219
vn -0.455005 0.000000 -0.890489
vn -0.455005 0.000000 -0.890489
vn -0.455005 0.000000 -0.890489
vn -0.455005 0.000000 -0.890489
vn -0.961925 0.000000 -0.273313
vn -0.961925 0.000000 -0.273313
vn -0.961925 0.000000 -0.273313
vn -0.961925 0.000000 -0.273313
vn -0.664097 0.000000 0.747646
vn -0.664097 0.000000 0.747646
vn -0.664097 0.000000 0.747646
vn -0.664097 0.000000 0.747646
vn 0.225602 0.000000 0.974220
vn 0.225602 0.000000 0.974220
vn 0.225602 0.000000 0.974220
vn 0.225602 0.000000 0.974220
vn -0.567609 0.000000 0.823298
vn -0.567609 0.000000 0.823298
vn -0.567609 0.000000 0.823298
vn -0.567609 0.000000 0.823298
vn 0.241598 0.000000 0.970377
vn 0.241598 0.000000 0.970377
vn 0.241598 0.000000 0.970377
vn 0.241598 0.000000 0.970377
vn 0.980112 0.000000 0.198445
vn 0.980112 0.000000 0.198445
vn 0.980112 0.000000 0.198445
vn 0.980112 0.000000 0.198445
vn 0.000000 -1.000000 0.000000
vn 0.000000 -1.000000 0.000000
vn 0.000000 -1.000000 0.000000
vn 0.000000 -1.000000 0.000000
vn 0.000000 -1.000000 0.000000
vn 0.000000 -1.000000 0.000000
vn -0.246986 -0.944662 -0.215898
vn -0.246986 -0.944662 -0.215898
vn -0.246986 -0.944662 -0.215898
vn 0.313668 -0.945271 -0.089865
vn 0.313668 -0.945271 -0.089865
vn 0.313668 -0.945271 -0.089865
vn 0.000000 -1.000000 0.000000
vn 0.000000 -1.000000 0.000000
vn 0.000000 -1.000000 0.000000
vn 0.000000 -1.000000 0.000000
vn 0.000000 -1.000000 0.000000
vn 0.000000 -1.000000 0.000000
vn -0.093562 -0.945164 0.312907
vn -0.093562 -0.945164 0.312907
vn -0.093562 -0.945164 0.312907
vn -0.225655 -0.944645 -0.238170
vn -0.225655 -0.944645 -0.238170
vn -0.225655 -0.944645 -0.238170
vn 0.000000 -1.000000 0.000000
vn 0.000000 -1.000000 0.000000
vn 0.000000 -1.000000 0.000000
vn 0.000000 -1.000000 -0.000000
vn 0.000000 -1.000000 -0.000000
vn 0.000000 -1.000000 -0.000000
vn 0.312836 -0.945268 -0.092750
vn 0.312836 -0.945268 -0.092750
vn 0.312836 -0.945268 -0.092750
vn -0.060837 -0.945181 0.320829
vn -0.060837 -0.945181 0.320829
vn -0.060837 -0.945181 0.320829
vn 0.000000 1.000000 0.000000
vn 0.000000 1.000000 0.000000
vn 0.000000 1.000000 0.000000
vn 0.000000 1.000000 0.000000
vn 0.000000 1.000000 0.000000
vn 0.000000 1.000000 0.000000
vn 0.244953 0.944733 0.217894
vn 0.244953 0.944733 0.217894
vn 0.244953 0.944733 0.217894
vn -0.314560 0.945230 0.087139
vn -0.314560 0.945230 0.087139
vn -0.314560 0.945230 0.087139
vn 0.000000 1.000000 -0.000000
vn 0.000000 1.000000 -0.000000
vn 0.000000 1.000000 -0.000000
vn 0.000000 1.000000 0.000000
vn 0.000000 1.000000 0.000000
vn 0.000000 1.000000 0.000000
vn 0.093868 0.945163 -0.312819
vn 0.093868 0.945163 -0.312819
vn 0.093868 0.945163 -0.312819
vn 0.227596 0.944719 0.236023
vn 0.227596 0.944719 0.236023
vn 0.227596 0.944719 0.236023
vn 0.000000 1.000000 0.000001
vn 0.000000 1.000000 0.000001
vn 0.000000 1.000000 0.000001
vn 0.000000 1.000000 -0.000000
vn 0.000000 1.000000 -0.000000
vn 0.000000 1.000000 -0.000000
vn -0.312054 0.945220 0.095822
vn -0.312054 0.945220 0.095822
vn -0.312054 0.945220 0.095822
vn 0.060864 0.945181 -0.320824
vn 0.060864 0.945181 -0.320824
vn 0.060864 0.945181 -0.320824
vn 0.035390 0.000000 -0.999374
vn 0.035390 0.000000 -0.999374
vn 0.035390 0.000000 -0.999374
vn 0.035390 0.000000 -0.999374
vn 0.876086 0.000000 -0.482155
vn 0.876086 0.000000 -0.482155
vn 0.876086 0.000000 -0.482155
vn 0.876086 0.000000 -0.482155
vn 0.039623 0.000000 -0.999215
vn 0.039623 0.000000 -0.999215
vn 0.039623 0.000000 -0.999215
vn 0.039623 0.000000 -0.999215
vn -0.884197 0.000000 -0.467115
vn -0.884197 0.000000 -0.467115
vn -0.884197 0.000000 -0.467115
vn -0.884197 0.000000 -0.467115
vn -0.958218 0.000000 0.286041
vn -0.958218 0.000000 0.286041
vn -0.958218 0.000000 0.286041
vn -0.958218 0.000000 0.286041
vn -0.944547 0.000000 -0.328377
vn -0.944547 0.000000 -0.328377
vn -0.944547 0.000000 -0.328377
vn -0.944547 0.000000 -0.328377
vn -0.883742 0.000000 0.467974
vn -0.883742 0.000000 0.467974
vn -0.883742 0.000000 0.467974
vn -0.883742 0.000000 0.467974
vn 0.037538 0.000000 0.999295
vn 0.037538 0.000000 0.999295
vn 0.037538 0.000000 0.999295
vn 0.037538 0.000000 0.999295
vn 0.836791 0.000000 0.547522
vn 0.836791 0.000000 0.547522
vn 0.836791 0.000000 0.547522
vn 0.836791 0.000000 0.547522
vn 0.159551 0.000000 0.987190
vn 0.159551 0.000000 0.987190
vn 0.159551 0.000000 0.987190
vn 0.159551 0.000000 0.987190
vn 0.845683 0.000000 0.533685
vn 0.845684 0.000000 0.533685
vn 0.845683 0.000000 0.533685
vn 0.845684 0.000000 0.533685
vn 0.845090 0.000000 -0.534624
vn 0.845090 0.000000 -0.534624
vn 0.845090 0.000000 -0.534624
vn 0.845090 0.000000 -0.534624
vn 0.000000 -1.000000 0.000000
vn 0.000000 -1.000000 0.000000
vn 0.000000 -1.000000 0.000000
vn 0.000000 -1.000000 -0.000000
vn 0.000000 -1.000000 -0.000000
vn 0.000000 -1.000000 -0.000000
vn -0.327707 -0.944662 0.014919
vn -0.327707 -0.944662 0.014919
vn -0.327707 -0.944662 0.014919
vn 0.164369 -0.945271 -0.281863
vn 0.164369 -0.945271 -0.281863
vn 0.164369 -0.945271 -0.281863
vn 0.000000 -1.000000 0.000000
vn 0.000000 -1.000000 0.000000
vn 0.000000 -1.000000 0.000000
vn 0.000000 -1.000000 0.000000
vn 0.000000 -1.000000 0.000000
vn 0.000000 -1.000000 0.000000
vn 0.148866 -0.945164 0.290695
vn 0.148866 -0.945164 0.290695
vn 0.148866 -0.945164 0.290695
vn -0.327707 -0.944645 -0.015919
vn -0.327707 -0.944645 -0.015919
vn -0.327707 -0.944645 -0.015919
vn 0.000000 -1.000000 0.000000
vn 0.000000 -1.000000 0.000000
vn 0.000000 -1.000000 0.000000
vn 0.000000 -1.000000 0.000000
vn 0.000000 -1.000000 0.000000
vn 0.000000 -1.000000 0.000000
vn 0.161773 -0.945268 -0.283370
vn 0.161773 -0.945268 -0.283370
vn 0.161773 -0.945268 -0.283370
vn 0.177979 -0.945182 0.273780
vn 0.177979 -0.945182 0.273780
vn 0.177979 -0.945182 0.273780
vn 0.000000 1.000000 -0.000001
vn 0.000000 1.000000 -0.000001
vn 0.000000 1.000000 -0.000001
vn 0.000000 1.000000 0.000000
vn 0.000000 1.000000 0.000000
vn 0.000000 1.000000 0.000000
vn 0.327618 0.944733 -0.012072
vn 0.327618 0.944733 -0.012072
vn 0.327618 0.944733 -0.012072
vn -0.166899 0.945230 0.280510
vn -0.166899 0.945230 0.280510
vn -0.166899 0.945230 0.280510
vn 0.000000 1.000000 0.000000
vn 0.000000 1.000000 0.000000
vn 0.000000 1.000000 0.000000
vn 0.000000 1.000000 0.000000
vn 0.000000 1.000000 0.000000
vn 0.000000 1.000000 0.000000
vn -0.148585 0.945163 -0.290843
vn -0.148585 0.945163 -0.290843
vn -0.148585 0.945163 -0.290843
vn 0.327623 0.944719 0.013027
vn 0.327623 0.944719 0.013027
vn 0.327623 0.944719 0.013027
vn 0.000000 1.000000 -0.000000
vn 0.000000 1.000000 -0.000000
vn 0.000000 1.000000 -0.000000
vn 0.000000 1.000000 0.000001
vn 0.000000 1.000000 0.000001
vn 0.000000 1.000000 0.000001
vn -0.159082 0.945220 0.285048
vn -0.159082 0.945220 0.285048
vn -0.159082 0.945220 0.285048
vn -0.177958 0.945181 -0.273794
vn -0.177958 0.945181 -0.273794
vn -0.177958 0.945181 -0.273794
vn 0.716821 0.000000 -0.697257
vn 0.716821 0.000000 -0.697257
vn 0.716821 0.000000 -0.697257
vn 0.716821 0.000000 -0.697257
vn 0.966205 0.000000 0.257775
vn 0.966205 0.000000 0.257775
vn 0.966205 0.000000 0.257775
vn 0.966205 0.000000 0.257775
vn 0.719770 0.000000 -0.694213
vn 0.719770 0.000000 -0.694213
vn 0.719770 0.000000 -0.694213
vn 0.719770 0.000000 -0.694213
vn -0.315457 0.000000 -0.948940
vn -0.315457 0.000000 -0.948940
vn -0.315457 0.000000 -0.948940
vn -0.315457 0.000000 -0.948940
vn -0.889868 0.000000 -0.456218
vn -0.889868 0.000000 -0.456218
vn -0.889868 0.000000 -0.456218
vn -0.889868 0.000000 -0.456218
vn -0.455003 0.000000 -0.890490
vn -0.455003 0.000000 -0.890490
vn -0.455003 0.000000 -0.890490
vn -0.455003 0.000000 -0.890490
vn -0.961925 0.000000 -0.273313
vn -0.961925 0.000000 -0.273313
vn -0.961925 0.000000 -0.273313
vn -0.961925 0.000000 -0.273313
vn -0.664096 0.000000 0.747647
vn -0.664096 0.000000 0.747647
vn -0.664096 0.000000 0.747647
vn -0.664096 0.000000 0.747647
vn 0.225600 0.000000 0.974220
vn 0.225600 0.000000 0.974220
vn 0.225600 0.000000 0.974220
vn 0.225600 0.000000 0.974220
vn -0.567609 0.000000 0.823298
vn -0.567609 0.000000 0.823298
vn -0.567609 0.000000 0.823298
vn -0.567609 0.000000 0.823298
vn 0.241598 0.000000 0.970377
vn 0.241598 0.000000 0.970377
vn 0.241598 0.000000 0.970377
vn 0.241598 0.000000 0.970377
vn 0.980112 0.000000 0.198446
vn 0.980112 0.000000 0.198446
vn 0.980112 0.000000 0.198446
vn 0.980112 0.000000 0.198446
vn 0.000000 -1.000000 0.000000
vn 0.000000 -1.000000 0.000000
vn 0.000000 -1.000000 0.000000
vn 0.000000 -1.000000 0.000000
vn 0.000000 -1.000000 0.000000
vn 0.000000 -1.000000 0.000000
vn -0.246986 -0.944662 -0.215898
vn -0.246986 -0.944662 -0.215898
vn -0.246986 -0.944662 -0.215898
vn 0.313668 -0.945271 -0.089866
vn 0.313668 -0.945271 -0.089866
vn 0.313668 -0.945271 -0.089866
vn 0.000000 -1.000000 0.000000
vn 0.000000 -1.000000 0.000000
vn 0.000000 -1.000000 0.000000
vn 0.000000 -1.000000 0.000000
vn 0.000000 -1.000000 0.000000
vn 0.000000 -1.000000 0.000000
vn -0.093562 -0.945164 0.312906
vn -0.093562 -0.945164 0.312906
vn -0.093562 -0.945165 0.312906
vn -0.225655 -0.944645 -0.238170
vn -0.225655 -0.944645 -0.238170
vn -0.225655 -0.944645 -0.238170
vn 0.000000 -1.000000 0.000000
vn 0.000000 -1.000000 0.000000
vn 0.000000 -1.000000 0.000000
vn 0.000000 -1.000000 0.000000
vn 0.000000 -1.000000 0.000000
vn 0.000000 -1.000000 0.000000
vn 0.312836 -0.945268 -0.092750
vn 0.312836 -0.945268 -0.092750
vn 0.312836 -0.945268 -0.092750
vn -0.060837 -0.945181 0.320829
vn -0.060837 -0.945181 0.320829
vn -0.060837 -0.945181 0.320829
vn 0.000000 1.000000 0.000000
vn 0.000000 1.000000 0.000000
vn 0.000000 1.000000 0.000000
vn 0.000000 1.000000 0.000000
vn 0.000000 1.000000 0.000000
vn 0.000000 1.000000 0.000000
vn 0.244953 0.944733 0.217894
vn 0.244953 0.944733 0.217894
vn 0.244953 0.944733 0.217894
vn -0.314560 0.945230 0.087139
vn -0.314560 0.945230 0.087139
vn -0.314560 0.945230 0.087139
vn 0.000000 1.000000 -0.000000
vn 0.000000 1.000000 -0.000000
vn 0.000000 1.000000 -0.000000
vn 0.000000 1.000000 0.000000
vn 0.000000 1.000000 0.000000
vn 0.000000 1.000000 0.000000
vn 0.093868 0.945163 -0.312819
vn 0.093868 0.945163 -0.312819
vn 0.093868 0.945163 -0.312819
vn 0.227595 0.944719 0.236023
vn 0.227595 0.944719 0.236023
vn 0.227595 0.944719 0.236023
vn 0.000000 1.000000 0.000000
vn 0.000000 1.000000 0.000000
vn 0.000000 1.000000 0.000000
vn 0.000000 1.000000 0.000000
vn 0.000000 1.000000 0.000000
vn 0.000000 1.000000 0.000000
vn -0.312054 0.945220 0.095822
vn -0.312054 0.945220 0.095822
vn -0.312054 0.945220 0.095822
vn 0.060864 0.945181 -0.320824
vn 0.060864 0.945181 -0.320824
vn 0.060864 0.945181 -0.320824
s off
g Bushes:Fleur
usemtl initialShadingGroup
f 1/13/1 2/14/2 14/27/3 13/26/4
f 2/14/5 3/15/6 15/28/7 14/27/8
f 3/15/9 4/16/10 16/29/11 15/28/12
f 4/16/13 5/17/14 17/30/15 16/29/16
f 5/17/17 6/18/18 18/31/19 17/30/20
f 6/18/21 7/19/22 19/32/23 18/31/24
f 7/19/25 8/20/26 20/33/27 19/32/28
f 8/20/29 9/21/30 21/34/31 20/33/32
f 9/21/33 10/22/34 22/35/35 21/34/36
f 10/22/37 11/23/38 23/36/39 22/35/40
f 11/23/41 12/24/42 24/37/43 23/36/44
f 12/24/45 1/25/46 13/38/47 24/37/48
f 2/2/49 1/1/50 25/51/51
f 3/3/52 2/2/53 25/51/54
f 4/4/55 3/3/56 25/51/57
f 5/5/58 4/4/59 25/51/60
f 6/6/61 5/5/62 25/51/63
f 7/7/64 6/6/65 25/51/66
f 8/8/67 7/7/68 25/51/69
f 9/9/70 8/8/71 25/51/72
f 10/10/73 9/9/74 25/51/75
f 11/11/76 10/10/77 25/51/78
f 12/12/79 11/11/80 25/51/81
f 1/1/82 12/12/83 25/51/84
f 13/49/85 14/48/86 26/52/87
f 14/48/88 15/47/89 26/52/90
f 15/47/91 16/46/92 26/52/93
f 16/46/94 17/45/95 26/52/96
f 17/45/97 18/44/98 26/52/99
f 18/44/100 19/43/101 26/52/102
f 19/43/103 20/42/104 26/52/105
f 20/42/106 21/41/107 26/52/108
f 21/41/109 22/40/110 26/52/111
f 22/40/112 23/39/113 26/52/114
f 23/39/115 24/50/116 26/52/117
f 24/50/118 13/49/119 26/52/120
f 27/53/121 28/54/122 40/55/123 39/56/124
f 28/54/125 29/57/126 41/58/127 40/55/128
f 29/57/129 30/59/130 42/60/131 41/58/132
f 30/59/133 31/61/134 43/62/135 42/60/136
f 31/61/137 32/63/138 44/64/139 43/62/140
f 32/63/141 33/65/142 45/66/143 44/64/144
f 33/65/145 34/67/146 46/68/147 45/66/148
f 34/67/149 35/69/150 47/70/151 46/68/152
f 35/69/153 36/71/154 48/72/155 47/70/156
f 36/71/157 37/73/158 49/74/159 48/72/160
f 37/73/161 38/75/162 50/76/163 49/74/164
f 38/75/165 27/77/166 39/78/167 50/76/168
f 28/79/169 27/80/170 51/81/171
f 29/82/172 28/79/173 51/81/174
f 30/83/175 29/82/176 51/81/177
f 31/84/178 30/83/179 51/81/180
f 32/85/181 31/84/182 51/81/183
f 33/86/184 32/85/185 51/81/186
f 34/87/187 33/86/188 51/81/189
f 35/88/190 34/87/191 51/81/192
f 36/89/193 35/88/194 51/81/195
f 37/90/196 36/89/197 51/81/198
f 38/91/199 37/90/200 51/81/201
f 27/80/202 38/91/203 51/81/204
f 39/92/205 40/93/206 52/94/207
f 40/93/208 41/95/209 52/94/210
f 41/95/211 42/96/212 52/94/213
f 42/96/214 43/97/215 52/94/216
f 43/97/217 44/98/218 52/94/219
f 44/98/220 45/99/221 52/94/222
f 45/99/223 46/100/224 52/94/225
f 46/100/226 47/101/227 52/94/228
f 47/101/229 48/102/230 52/94/231
f 48/102/232 49/103/233 52/94/234
f 49/103/235 50/104/236 52/94/237
f 50/104/238 39/92/239 52/94/240
f 53/105/241 54/106/242 66/107/243 65/108/244
f 54/106/245 55/109/246 67/110/247 66/107/248
f 55/109/249 56/111/250 68/112/251 67/110/252
f 56/111/253 57/113/254 69/114/255 68/112/256
f 57/113/257 58/115/258 70/116/259 69/114/260
f 58/115/261 59/117/262 71/118/263 70/116/264
f 59/117/265 60/119/266 72/120/267 71/118/268
f 60/119/269 61/121/270 73/122/271 72/120/272
f 61/121/273 62/123/274 74/124/275 73/122/276
f 62/123/277 63/125/278 75/126/279 74/124/280
f 63/125/281 64/127/282 76/128/283 75/126/284
f 64/127/285 53/129/286 65/130/287 76/128/288
f 54/131/289 53/132/290 77/133/291
f 55/134/292 54/131/293 77/133/294
f 56/135/295 55/134/296 77/133/297
f 57/136/298 56/135/299 77/133/300
f 58/137/301 57/136/302 77/133/303
f 59/138/304 58/137/305 77/133/306
f 60/139/307 59/138/308 77/133/309
f 61/140/310 60/139/311 77/133/312
f 62/141/313 61/140/314 77/133/315
f 63/142/316 62/141/317 77/133/318
f 64/143/319 63/142/320 77/133/321
f 53/132/322 64/143/323 77/133/324
f 65/144/325 66/145/326 78/146/327
f 66/145/328 67/147/329 78/146/330
f 67/147/331 68/148/332 78/146/333
f 68/148/334 69/149/335 78/146/336
f 69/149/337 70/150/338 78/146/339
f 70/150/340 71/151/341 78/146/342
f 71/151/343 72/152/344 78/146/345
f 72/152/346 73/153/347 78/146/348
f 73/153/349 74/154/350 78/146/351
f 74/154/352 75/155/353 78/146/354
f 75/155/355 76/156/356 78/146/357
f 76/156/358 65/144/359 78/146/360
