# This file uses centimeters as units for non-parametric coordinates.

mtllib cailloux3.mtl
g default
v -0.932210 0.000001 0.335620
v -0.223199 0.074842 0.640032
v -0.152538 -0.000000 0.494329
v -1.041934 0.190719 0.338875
v -0.142808 0.449054 0.526187
v -0.216582 0.294838 0.726167
v -1.301248 0.260259 -0.422134
v 0.100189 0.469858 -0.348102
v -0.035221 0.552776 0.026756
v -1.208732 0.000001 -0.495159
v 0.028123 0.000000 -0.491234
v 0.080819 0.121887 -0.540754
v -0.595474 0.000000 0.494329
v -0.596711 0.078614 0.634046
v -0.553805 0.306315 0.651412
v -0.651222 0.429167 0.450226
v -0.684441 0.507003 -0.304472
v -0.582099 0.336175 -0.705922
v -0.607710 0.082053 -0.903740
v -0.554172 -0.000000 -0.808586
v 1.079498 0.256561 0.401610
v 0.947774 -0.000000 0.494329
v 0.854750 0.000000 -0.491234
v 1.013818 0.259752 -0.279445
v 0.850402 0.126007 0.640032
v 0.993053 0.382513 0.526187
v 0.793073 0.494519 0.726167
v 0.793073 0.752844 0.526187
v 1.048283 0.481222 -0.288531
v 0.845814 0.926588 0.026756
v 0.852924 0.787693 -0.272335
v 0.861746 0.204810 -0.540754
v -0.032310 -0.000000 0.494329
v -0.079118 0.126007 0.640032
v -0.014530 0.494519 0.726167
v 0.050996 0.752844 0.526187
v 0.183478 0.926588 0.026756
v 0.258643 0.787693 -0.272335
v 0.208121 0.204810 -0.540754
v 0.155425 0.000000 -0.491234
vt 0.111775 0.948424
vt 0.001851 0.613624
vt 0.836045 0.918325
vt 0.394834 0.980866
vt 0.803861 0.703395
vt 0.803685 0.222695
vt 0.389134 0.143510
vt 0.243649 0.245714
vt 0.577712 0.191094
vt 0.795209 0.304846
vt 0.081505 0.371501
vt 0.084118 0.445094
vt 0.537632 0.339107
vt 0.766953 0.541311
vt 0.762702 0.589337
vt 0.472797 0.589116
vt 0.448660 0.633869
vt 0.585358 0.151216
vt 0.567448 0.238926
vt 0.514715 0.483956
vt 0.927528 0.246904
vt 0.920814 0.287717
vt 0.332069 0.001992
vt 0.460148 0.092667
vt 0.432905 0.121273
vt 0.308627 0.047418
vt 0.604549 0.127425
vt 0.775215 0.245276
vt 0.775028 0.439894
vt 0.526224 0.108194
vt 0.238007 0.998008
vt 0.525381 0.134876
vt 0.520606 0.172046
vt 0.479416 0.191180
vt 0.377140 0.317407
vt 0.294071 0.437303
vt 0.257297 0.491338
vt 0.254980 0.524540
vt 0.748138 0.957496
vt 0.700576 0.646604
vt 0.728722 0.250263
vt 0.750886 0.198669
vt 0.706778 0.379836
vt 0.724592 0.300194
vt 0.695050 0.596189
vt 0.703461 0.472541
vt 0.775424 0.174959
vt 0.623794 0.134814
vt 0.435463 0.975806
vt 0.608585 0.163855
vt 0.607713 0.226123
vt 0.611238 0.275950
vt 0.609004 0.357041
vt 0.588480 0.452052
vt 0.520331 0.571415
vt 0.491883 0.637167
vn -0.000002 -1.000000 0.000000
vn -0.000002 -1.000000 0.000000
vn -0.000002 -1.000000 0.000000
vn -0.000002 -1.000000 0.000000
vn -0.224508 -0.850115 0.476341
vn -0.224508 -0.850115 0.476341
vn -0.224508 -0.850115 0.476341
vn -0.570515 -0.131063 0.810762
vn -0.570515 -0.131063 0.810762
vn -0.570515 -0.131063 0.810762
vn -0.570515 -0.131063 0.810762
vn 0.876398 -0.474140 -0.084363
vn 0.876398 -0.474140 -0.084363
vn 0.876398 -0.474140 -0.084363
vn 0.876398 -0.474140 -0.084363
vn 0.713730 -0.088554 0.694800
vn 0.713730 -0.088554 0.694800
vn 0.713730 -0.088554 0.694800
vn 0.713730 -0.088554 0.694800
vn -0.459017 0.871358 0.173315
vn -0.459017 0.871358 0.173315
vn -0.459017 0.871358 0.173315
vn -0.459017 0.871358 0.173315
vn -0.531294 0.583909 0.613822
vn -0.531294 0.583910 0.613822
vn -0.531294 0.583910 0.613822
vn 0.908412 0.388232 0.155125
vn 0.908412 0.388232 0.155125
vn 0.908412 0.388232 0.155125
vn 0.908412 0.388232 0.155125
vn -0.466393 0.363874 -0.806272
vn -0.466393 0.363874 -0.806272
vn -0.466393 0.363874 -0.806272
vn -0.466393 0.363874 -0.806272
vn -0.262141 0.862096 -0.433673
vn -0.262141 0.862096 -0.433673
vn -0.262141 0.862096 -0.433673
vn 0.660912 0.211118 -0.720156
vn 0.660912 0.211118 -0.720156
vn 0.660912 0.211118 -0.720156
vn 0.660912 0.211118 -0.720156
vn -0.259827 -0.798785 -0.542617
vn -0.259827 -0.798785 -0.542617
vn -0.259827 -0.798785 -0.542617
vn 0.989137 0.146964 0.003101
vn 0.989137 0.146964 0.003101
vn 0.989137 0.146964 0.003101
vn 0.989137 0.146964 0.003101
vn -0.860432 -0.431663 0.270785
vn -0.860432 -0.431663 0.270785
vn -0.860432 -0.431663 0.270785
vn -0.860432 -0.431663 0.270785
vn 0.753547 -0.156106 0.638590
vn 0.753547 -0.156106 0.638590
vn 0.753547 -0.156106 0.638590
vn 0.749914 0.404957 0.523105
vn 0.749914 0.404957 0.523105
vn 0.749914 0.404957 0.523105
vn 0.815611 0.531939 -0.227639
vn 0.815611 0.531939 -0.227639
vn 0.815611 0.531939 -0.227639
vn 0.868131 -0.144464 -0.474846
vn 0.868131 -0.144464 -0.474846
vn 0.868131 -0.144464 -0.474846
vn -0.007533 -0.881535 0.472059
vn -0.007533 -0.881535 0.472059
vn -0.007533 -0.881535 0.472059
vn -0.007533 -0.881535 0.472059
vn -0.114801 -0.211684 0.970572
vn -0.114801 -0.211684 0.970572
vn -0.114801 -0.211684 0.970572
vn -0.114801 -0.211684 0.970572
vn -0.109557 0.814843 0.569234
vn -0.109557 0.814843 0.569234
vn -0.109557 0.814843 0.569235
vn -0.109557 0.814843 0.569234
vn -0.103878 0.985184 0.136463
vn -0.103878 0.985184 0.136463
vn -0.103878 0.985184 0.136463
vn -0.103878 0.985184 0.136463
vn 0.028266 0.952657 -0.302731
vn 0.028266 0.952657 -0.302731
vn 0.028266 0.952657 -0.302731
vn 0.028266 0.952657 -0.302731
vn 0.356502 0.489471 -0.795817
vn 0.356502 0.489471 -0.795817
vn 0.356502 0.489471 -0.795817
vn 0.356502 0.489471 -0.795817
vn 0.414306 -0.525464 -0.743127
vn 0.414306 -0.525464 -0.743127
vn 0.414306 -0.525464 -0.743127
vn 0.414306 -0.525464 -0.743127
vn 0.000000 -1.000000 -0.000000
vn 0.000000 -1.000000 -0.000000
vn 0.000000 -1.000000 -0.000000
vn 0.000000 -1.000000 -0.000000
vn -0.000001 -1.000000 -0.000001
vn -0.000001 -1.000000 -0.000001
vn -0.000001 -1.000000 -0.000001
vn -0.000001 -1.000000 -0.000001
vn 0.216175 -0.298292 0.929672
vn 0.216175 -0.298292 0.929672
vn 0.216175 -0.298292 0.929672
vn 0.216175 -0.298292 0.929672
vn -0.852594 0.519033 -0.060736
vn -0.852594 0.519033 -0.060736
vn -0.852594 0.519033 -0.060736
vn -0.852594 0.519033 -0.060736
vn -0.390311 0.432017 -0.813030
vn -0.390311 0.432017 -0.813030
vn -0.390311 0.432017 -0.813030
vn -0.390311 0.432017 -0.813030
vn 0.151799 -0.784180 0.601680
vn 0.151799 -0.784180 0.601680
vn 0.151799 -0.784180 0.601680
vn 0.151799 -0.784180 0.601680
vn -0.738760 0.580853 0.341824
vn -0.738760 0.580853 0.341824
vn -0.738760 0.580853 0.341824
vn -0.738760 0.580853 0.341824
vn -0.785221 0.472076 -0.400715
vn -0.785221 0.472076 -0.400715
vn -0.785221 0.472076 -0.400715
vn -0.785221 0.472076 -0.400715
vn 0.103930 -0.319103 -0.942004
vn 0.103930 -0.319103 -0.942004
vn 0.103930 -0.319103 -0.942004
vn 0.103930 -0.319103 -0.942004
vn 0.000000 -0.756381 0.654132
vn 0.000000 -0.756381 0.654132
vn 0.000000 -0.756381 0.654132
vn 0.000000 -0.756381 0.654132
vn 0.000000 -0.227602 0.973754
vn 0.000000 -0.227602 0.973754
vn 0.000000 -0.227602 0.973754
vn 0.000000 -0.227602 0.973754
vn 0.000000 0.612148 0.790743
vn 0.000000 0.612148 0.790743
vn 0.000000 0.612148 0.790743
vn 0.000000 0.612148 0.790744
vn -0.000000 0.944480 0.328569
vn -0.000000 0.944480 0.328569
vn -0.000000 0.944480 0.328569
vn -0.000000 0.944480 0.328569
vn 0.000000 0.906973 -0.421189
vn 0.000000 0.906973 -0.421189
vn 0.000000 0.906973 -0.421189
vn 0.000000 0.906973 -0.421189
vn 0.000000 0.418283 -0.908317
vn 0.000000 0.418283 -0.908317
vn 0.000000 0.418283 -0.908317
vn 0.000000 0.418283 -0.908317
vn 0.000000 -0.235014 -0.971992
vn 0.000000 -0.235014 -0.971992
vn 0.000000 -0.235014 -0.971992
vn 0.000000 -0.235014 -0.971992
vn 0.000000 -1.000000 -0.000001
vn 0.000000 -1.000000 -0.000001
vn 0.000000 -1.000000 -0.000001
vn 0.000000 -1.000000 -0.000001
s off
g lilC:Rock3
usemtl initialShadingGroup
f 1/1/1 10/2/2 20/38/3 13/31/4
f 1/24/5 13/30/6 14/32/7
f 4/25/8 1/24/9 14/32/10 15/33/11
f 21/3/12 22/39/13 23/40/14 24/5/15
f 25/42/16 21/6/17 26/28/18 27/41/19
f 7/8/20 4/7/21 16/34/22 17/35/23
f 4/25/24 15/33/25 16/34/26
f 28/44/27 26/10/28 29/29/29 30/43/30
f 10/12/31 7/11/32 18/36/33 19/37/34
f 7/8/35 17/35/36 18/36/37
f 31/46/38 29/14/39 24/15/40 32/45/41
f 10/12/42 19/37/43 20/38/44
f 21/6/45 24/21/46 29/22/47 26/28/48
f 10/23/49 1/24/50 4/25/51 7/26/52
f 21/6/53 25/42/54 22/47/55
f 28/44/56 27/41/57 26/28/58
f 31/46/59 30/43/60 29/29/61
f 23/40/62 32/45/63 24/15/64
f 14/32/65 13/30/66 3/27/67 2/18/68
f 15/33/69 14/32/70 2/18/71 6/9/72
f 16/34/73 15/33/74 6/9/75 5/19/76
f 17/35/77 16/34/78 5/19/79 9/13/80
f 18/36/81 17/35/82 9/13/83 8/20/84
f 19/37/85 18/36/86 8/20/87 12/16/88
f 20/38/89 19/37/90 12/16/91 11/17/92
f 13/31/93 20/38/94 11/17/95 3/4/96
f 3/4/97 11/17/98 40/56/99 33/49/100
f 6/9/101 2/18/102 34/50/103 35/51/104
f 9/13/105 5/19/106 36/52/107 37/53/108
f 12/16/109 8/20/110 38/54/111 39/55/112
f 2/18/113 3/27/114 33/48/115 34/50/116
f 5/19/117 6/9/118 35/51/119 36/52/120
f 8/20/121 9/13/122 37/53/123 38/54/124
f 11/17/125 12/16/126 39/55/127 40/56/128
f 34/50/129 33/48/130 22/47/131 25/42/132
f 35/51/133 34/50/134 25/42/135 27/41/136
f 36/52/137 35/51/138 27/41/139 28/44/140
f 37/53/141 36/52/142 28/44/143 30/43/144
f 38/54/145 37/53/146 30/43/147 31/46/148
f 39/55/149 38/54/150 31/46/151 32/45/152
f 40/56/153 39/55/154 32/45/155 23/40/156
f 33/49/157 40/56/158 23/40/159 22/39/160
