# This file uses centimeters as units for non-parametric coordinates.

mtllib cailloux_sol3.mtl
g default
v -0.549568 -0.050600 -0.220164
v -0.520803 -0.050600 -0.074046
v -0.549568 0.032938 -0.220164
v -0.520803 0.051359 -0.074046
v -0.384683 0.032938 -0.339810
v -0.219601 0.051359 -0.347405
v -0.384683 -0.050600 -0.339810
v -0.219601 -0.050600 -0.347405
v -0.125077 -0.050600 -0.212679
v -0.229105 -0.050600 -0.044594
v -0.125077 0.032938 -0.212679
v -0.229105 0.032938 -0.044594
v 0.036699 -0.051359 -0.031444
v 0.181494 -0.051359 -0.177636
v 0.036699 0.031553 -0.031444
v 0.181494 0.031553 -0.177636
v -0.061737 0.031553 -0.164204
v 0.041991 0.031553 -0.212600
v -0.061737 -0.051359 -0.164204
v 0.041991 -0.051359 -0.212600
v 0.127080 -0.051359 -0.091999
v 0.127080 0.049228 -0.091999
v -0.016121 0.049228 -0.210407
v -0.016121 -0.051359 -0.210407
v -0.061570 -0.050600 0.434315
v 0.125622 -0.050600 0.491780
v -0.061570 0.032938 0.434315
v 0.125622 0.051359 0.491780
v 0.021011 0.032938 0.244449
v 0.178484 0.051359 0.151531
v 0.021011 -0.050600 0.244449
v 0.178484 -0.050600 0.151531
v 0.399951 -0.050600 0.233538
v 0.385496 -0.050600 0.518257
v 0.399951 0.032938 0.233538
v 0.385496 0.032938 0.518257
v 0.652131 -0.051359 0.064282
v 0.688721 -0.051359 -0.231103
v 0.652131 0.031553 0.064282
v 0.688721 0.031553 -0.231103
v 0.471741 0.031553 0.000712
v 0.427209 0.031553 -0.201091
v 0.471741 -0.051359 0.000712
v 0.427209 -0.051359 -0.201091
v 0.715364 -0.051359 -0.062909
v 0.715364 0.049973 -0.062909
v 0.383175 0.049973 -0.113705
v 0.383175 -0.051359 -0.113705
v -0.148296 -0.050600 -0.492546
v 0.266637 -0.050600 -0.449992
v -0.148296 0.032938 -0.492546
v 0.266637 0.051359 -0.449992
v -0.030458 0.032938 -0.743643
v 0.216576 0.051359 -0.764866
v -0.030458 -0.050600 -0.743643
v 0.216576 -0.050600 -0.764866
v 0.442790 -0.050600 -0.770852
v 0.551850 -0.050600 -0.566264
v 0.442790 0.032938 -0.770852
v 0.551850 0.032938 -0.566264
v -0.193356 -0.051359 0.225985
v -0.424292 -0.051359 0.234005
v -0.193356 0.031553 0.225985
v -0.424292 0.031553 0.234005
v -0.334394 -0.051359 0.184575
v -0.334394 0.031553 0.184575
v -0.331067 0.031553 0.460182
v -0.331067 -0.051359 0.460182
v -0.127943 0.031553 0.363312
v -0.127943 -0.051359 0.363312
v -0.305371 -0.051359 0.291528
v -0.459940 -0.051359 0.330309
v -0.459940 0.031553 0.330309
v -0.305371 0.050347 0.291528
vt 0.711888 0.435633
vt 0.632648 0.391075
vt 0.589610 0.346114
vt 0.925279 0.886882
vt 0.988557 0.680178
vt 0.742352 0.590896
vt 0.640185 0.639259
vt 0.702088 0.559605
vt 0.503363 0.514832
vt 0.540171 0.629749
vt 0.902151 0.627725
vt 0.468099 0.477993
vt 0.752321 0.747786
vt 0.685967 0.745173
vt 0.178900 0.823226
vt 0.169834 0.889742
vt 0.679782 0.906019
vt 0.761326 0.898617
vt 0.714057 0.855067
vt 0.753167 0.848669
vt 0.628336 0.767865
vt 0.684596 0.835260
vt 0.656344 0.877268
vt 0.210841 0.769239
vt 0.865327 0.326699
vt 0.860218 0.207294
vt 0.920645 0.192516
vt 0.782552 0.653726
vt 0.975315 0.534322
vt 0.706511 0.357023
vt 0.653603 0.246284
vt 0.739241 0.317963
vt 0.822409 0.052342
vt 0.655619 0.102107
vt 0.946187 0.392693
vt 0.871936 0.040270
vt 0.219085 0.522819
vt 0.132442 0.519460
vt 0.088544 0.751013
vt 0.001979 0.763059
vt 0.184601 0.778913
vt 0.273527 0.662960
vt 0.187332 0.717119
vt 0.228858 0.639164
vt 0.045472 0.576403
vt 0.127657 0.714483
vt 0.125424 0.765043
vt 0.181539 0.798716
vt 0.342870 0.416721
vt 0.270648 0.172549
vt 0.315058 0.128925
vt 0.405775 0.426192
vt 0.586083 0.214341
vt 0.128414 0.431763
vt 0.104470 0.273844
vt 0.173756 0.408399
vt 0.138864 0.038467
vt 0.048669 0.147519
vt 0.598683 0.076333
vt 0.175233 0.002724
vt 0.404693 0.831241
vt 0.468979 0.768651
vt 0.645699 0.902305
vt 0.601166 0.824070
vt 0.577452 0.900072
vt 0.510561 0.804361
vt 0.312044 0.824873
vt 0.403376 0.752031
vt 0.469642 0.706030
vt 0.429105 0.658204
vt 0.575082 0.998008
vt 0.628480 0.963773
vt 0.321401 0.687816
vt 0.480172 0.938136
vt 0.415681 0.609395
vt 0.270924 0.684369
vt 0.308591 0.875367
vt 0.519589 0.769166
vt 0.508241 0.673297
vt 0.440001 0.867502
vt 0.478271 0.001992
vt 0.001979 0.168116
vt 0.396244 0.171526
vt 0.049144 0.302334
vt 0.391770 0.402259
vt 0.563396 0.364394
vt 0.054228 0.953176
vt 0.114383 0.944621
vt 0.098559 0.467708
vt 0.001979 0.602290
vt 0.221045 0.472244
vt 0.003933 0.879749
vt 0.773040 0.375291
vt 0.604658 0.101429
vt 0.765133 0.534941
vt 0.613704 0.294004
vt 0.916276 0.324508
vt 0.904769 0.621537
vt 0.282182 0.869496
vt 0.268666 0.835038
vt 0.663468 0.688037
vt 0.589473 0.800297
vt 0.754315 0.697211
vt 0.268783 0.908232
vt 0.804168 0.698131
vt 0.535343 0.680515
vt 0.834481 0.874856
vt 0.689330 0.677450
vt 0.736883 0.391184
vt 0.991492 0.781629
vt 0.467716 0.625478
vt 0.261569 0.821433
vt 0.307995 0.639022
vt 0.504295 0.804904
vt 0.520244 0.706547
vt 0.401222 0.881736
vt 0.099579 0.005962
vt 0.009338 0.114978
vt 0.047554 0.299008
vt 0.171257 0.459355
vt 0.330359 0.154908
vt 0.340369 0.467654
vt 0.241926 0.746200
vt 0.134838 0.457650
vt 0.084165 0.740370
vt 0.279293 0.634927
vt 0.017748 0.534058
vt 0.269518 0.518582
vt 0.807810 0.003493
vt 0.641059 0.053281
vt 0.591425 0.245430
vt 0.735693 0.368787
vt 0.922372 0.204586
vt 0.861788 0.377572
vt 0.454798 0.530387
vt 0.491606 0.645304
vt 0.634294 0.701219
vt 0.752923 0.563624
vt 0.663155 0.336824
vt 0.762725 0.439653
vt 0.723957 0.915673
vt 0.688377 0.683814
vt 0.645725 0.867693
vt 0.803765 0.848252
vt 0.609786 0.720766
vt 0.802932 0.747364
vn -0.981168 0.000000 0.193155
vn -0.981168 0.000000 0.193155
vn -0.981168 0.000000 0.193155
vn -0.981168 0.000000 0.193155
vn -0.101584 0.987505 -0.120474
vn -0.101584 0.987505 -0.120474
vn -0.101584 0.987505 -0.120474
vn -0.101584 0.987505 -0.120474
vn -0.045960 0.000000 -0.998943
vn -0.045960 0.000000 -0.998943
vn -0.045960 0.000000 -0.998943
vn -0.045960 0.000000 -0.998943
vn 0.000000 -1.000000 0.000000
vn 0.000000 -1.000000 0.000000
vn 0.000000 -1.000000 0.000000
vn 0.000000 -1.000000 0.000000
vn 0.850321 0.000000 0.526265
vn 0.850321 0.000000 0.526265
vn 0.850321 0.000000 0.526265
vn 0.850321 0.000000 0.526265
vn -0.587302 0.000000 -0.809368
vn -0.587302 0.000000 -0.809368
vn -0.587302 0.000000 -0.809368
vn -0.587302 0.000000 -0.809368
vn 0.000000 -1.000000 0.000000
vn 0.000000 -1.000000 0.000000
vn 0.000000 -1.000000 0.000000
vn 0.000000 -1.000000 0.000000
vn 0.818614 0.000000 -0.574344
vn 0.818614 0.000000 -0.574344
vn 0.818614 0.000000 -0.574344
vn 0.818614 0.000000 -0.574344
vn 0.068317 0.995691 0.062713
vn 0.068317 0.995691 0.062713
vn 0.068317 0.995691 0.062713
vn 0.068317 0.995691 0.062713
vn -0.100458 0.000000 0.994941
vn -0.100458 0.000000 0.994941
vn -0.100458 0.000000 0.994941
vn -0.100458 0.000000 0.994941
vn 0.556615 0.000000 0.830771
vn 0.556615 0.000000 0.830771
vn 0.556615 0.000000 0.830771
vn 0.556615 0.000000 0.830771
vn -0.145067 0.979530 0.139562
vn -0.145067 0.979530 0.139562
vn -0.145067 0.979530 0.139562
vn -0.145067 0.979530 0.139562
vn -0.711611 0.000000 -0.702574
vn -0.711611 0.000000 -0.702574
vn -0.711611 0.000000 -0.702574
vn -0.711611 0.000000 -0.702574
vn 0.000000 -1.000000 0.000000
vn 0.000000 -1.000000 0.000000
vn 0.000000 -1.000000 0.000000
vn 0.000000 -1.000000 0.000000
vn 0.243114 0.000000 -0.969998
vn 0.243114 0.000000 -0.969998
vn 0.243114 0.000000 -0.969998
vn 0.243114 0.000000 -0.969998
vn -0.803282 0.000000 0.595599
vn -0.803282 0.000000 0.595599
vn -0.803282 0.000000 0.595599
vn -0.803282 0.000000 0.595599
vn 0.844028 0.000000 0.536300
vn 0.844028 0.000000 0.536300
vn 0.844028 0.000000 0.536300
vn 0.844028 0.000000 0.536300
vn 0.124364 0.965393 -0.229236
vn 0.124364 0.965393 -0.229236
vn 0.124364 0.965393 -0.229236
vn 0.124364 0.965393 -0.229236
vn -0.037717 0.000000 -0.999288
vn -0.037717 0.000000 -0.999288
vn -0.037717 0.000000 -0.999288
vn -0.037717 0.000000 -0.999288
vn 0.000000 -1.000000 0.000000
vn 0.000000 -1.000000 0.000000
vn 0.000000 -1.000000 0.000000
vn 0.000000 -1.000000 0.000000
vn -0.293465 0.000000 0.955970
vn -0.293465 0.000000 0.955970
vn -0.293465 0.000000 0.955970
vn -0.293465 0.000000 0.955970
vn -0.109075 0.993643 -0.027868
vn -0.109075 0.993643 -0.027868
vn -0.109075 0.993643 -0.027868
vn -0.109075 0.993643 -0.027868
vn -0.508185 0.000000 -0.861248
vn -0.508185 0.000000 -0.861248
vn -0.508185 0.000000 -0.861248
vn -0.508185 0.000000 -0.861248
vn 0.000000 -1.000000 0.000000
vn 0.000000 -1.000000 0.000000
vn 0.000000 -1.000000 0.000000
vn 0.000000 -1.000000 0.000000
vn 0.998714 0.000000 0.050705
vn 0.998714 0.000000 0.050705
vn 0.998714 0.000000 0.050705
vn 0.998714 0.000000 0.050705
vn -0.917016 0.000000 -0.398851
vn -0.917016 0.000000 -0.398851
vn -0.917016 0.000000 -0.398851
vn -0.917016 0.000000 -0.398851
vn 0.000000 -1.000000 0.000000
vn 0.000000 -1.000000 0.000000
vn 0.000000 -1.000000 0.000000
vn 0.000000 -1.000000 0.000000
vn 0.347246 0.000000 -0.937774
vn 0.347246 0.000000 -0.937774
vn 0.347246 0.000000 -0.937774
vn 0.347246 0.000000 -0.937774
vn 0.074513 0.997188 0.008026
vn 0.074513 0.997188 0.008026
vn 0.074513 0.997188 0.008026
vn 0.074513 0.997188 0.008026
vn -0.101361 0.000000 0.994850
vn -0.101361 0.000000 0.994850
vn -0.101361 0.000000 0.994850
vn -0.101361 0.000000 0.994850
vn 0.895446 0.000000 0.445171
vn 0.895446 0.000000 0.445171
vn 0.895446 0.000000 0.445171
vn 0.895446 0.000000 0.445171
vn -0.034399 0.987445 0.154173
vn -0.034399 0.987445 0.154173
vn -0.034399 0.987445 0.154173
vn -0.034399 0.987445 0.154173
vn -0.790773 0.000000 0.612109
vn -0.790773 0.000000 0.612109
vn -0.790773 0.000000 0.612109
vn -0.790773 0.000000 0.612109
vn 0.000000 -1.000000 0.000000
vn 0.000000 -1.000000 0.000000
vn 0.000000 -1.000000 0.000000
vn 0.000000 -1.000000 0.000000
vn -0.114014 0.000000 -0.993479
vn -0.114014 0.000000 -0.993479
vn -0.114014 0.000000 -0.993479
vn -0.114014 0.000000 -0.993479
vn -0.332371 0.000000 0.943149
vn -0.332371 0.000000 0.943149
vn -0.332371 0.000000 0.943149
vn -0.332371 0.000000 0.943149
vn 0.987685 0.000000 -0.156454
vn 0.987685 0.000000 -0.156454
vn 0.987685 0.000000 -0.156454
vn 0.987685 0.000000 -0.156454
vn 0.004983 0.989806 -0.142336
vn 0.004983 0.989806 -0.142336
vn 0.004983 0.989806 -0.142336
vn 0.004983 0.989806 -0.142336
vn -0.893026 0.000000 -0.450005
vn -0.893026 0.000000 -0.450005
vn -0.893026 0.000000 -0.450005
vn -0.893026 0.000000 -0.450005
vn 0.000000 -1.000000 -0.000000
vn 0.000000 -1.000000 -0.000000
vn 0.000000 -1.000000 -0.000000
vn 0.000000 -1.000000 -0.000000
vn -0.102021 0.000000 0.994782
vn -0.102021 0.000000 0.994782
vn -0.102021 0.000000 0.994782
vn -0.102021 0.000000 0.994782
vn -0.055353 0.998445 -0.006629
vn -0.055353 0.998445 -0.006629
vn -0.055353 0.998445 -0.006629
vn -0.055353 0.998445 -0.006629
vn -0.085599 0.000000 -0.996330
vn -0.085599 0.000000 -0.996330
vn -0.085599 0.000000 -0.996330
vn -0.085599 0.000000 -0.996330
vn 0.000000 -1.000000 0.000000
vn 0.000000 -1.000000 0.000000
vn 0.000000 -1.000000 0.000000
vn 0.000000 -1.000000 0.000000
vn 0.882449 0.000000 -0.470407
vn 0.882449 0.000000 -0.470407
vn 0.882449 0.000000 -0.470407
vn 0.882449 0.000000 -0.470407
vn -0.905270 0.000000 -0.424836
vn -0.905270 0.000000 -0.424836
vn -0.905270 0.000000 -0.424836
vn -0.905270 0.000000 -0.424836
vn 0.000000 -1.000000 0.000000
vn 0.000000 -1.000000 0.000000
vn 0.000000 -1.000000 0.000000
vn 0.000000 -1.000000 0.000000
vn -0.026452 0.000000 -0.999650
vn -0.026452 0.000000 -0.999650
vn -0.026452 0.000000 -0.999650
vn -0.026452 0.000000 -0.999650
vn 0.066955 0.997545 -0.020510
vn 0.066955 0.997545 -0.020510
vn 0.066955 0.997545 -0.020510
vn 0.066955 0.997545 -0.020510
vn 0.377502 0.000000 0.926009
vn 0.377502 0.000000 0.926009
vn 0.377502 0.000000 0.926009
vn 0.377502 0.000000 0.926009
vn 0.281715 0.000000 -0.959498
vn 0.281715 0.000000 -0.959498
vn 0.281715 0.000000 -0.959498
vn 0.281715 0.000000 -0.959498
vn 0.098967 0.988503 -0.114313
vn 0.098967 0.988503 -0.114313
vn 0.098967 0.988503 -0.114313
vn 0.098967 0.988503 -0.114313
vn 0.000000 -1.000000 -0.000000
vn 0.000000 -1.000000 -0.000000
vn 0.000000 -1.000000 -0.000000
vn 0.000000 -1.000000 -0.000000
vn -0.937812 0.000000 -0.347143
vn -0.937812 0.000000 -0.347143
vn -0.937812 0.000000 -0.347143
vn -0.937812 0.000000 -0.347143
vn 0.902811 0.000000 -0.430038
vn 0.902811 0.000000 -0.430038
vn 0.902811 0.000000 -0.430038
vn 0.902811 0.000000 -0.430038
vn -0.481815 0.000000 -0.876273
vn -0.481815 0.000000 -0.876273
vn -0.481815 0.000000 -0.876273
vn -0.481815 0.000000 -0.876273
vn -0.110365 0.989333 -0.095077
vn -0.110365 0.989333 -0.095077
vn -0.110365 0.989333 -0.095077
vn -0.110365 0.989333 -0.095077
vn -0.709835 0.000000 0.704368
vn -0.709835 0.000000 0.704368
vn -0.709835 0.000000 0.704368
vn -0.709835 0.000000 0.704368
vn 0.000000 -1.000000 0.000000
vn 0.000000 -1.000000 0.000000
vn 0.000000 -1.000000 0.000000
vn 0.000000 -1.000000 0.000000
vn 0.430457 0.000000 0.902611
vn 0.430457 0.000000 0.902611
vn 0.430457 0.000000 0.902611
vn 0.430457 0.000000 0.902611
vn 0.000000 -1.000000 0.000000
vn 0.000000 -1.000000 0.000000
vn 0.000000 -1.000000 0.000000
vn 0.000000 -1.000000 0.000000
vn 0.000000 -1.000000 0.000000
vn 0.000000 -1.000000 0.000000
vn -0.096451 0.990726 0.095708
vn -0.096451 0.990726 0.095708
vn -0.096451 0.990726 0.095708
vn 0.056808 0.991254 0.119118
vn 0.056808 0.991254 0.119118
vn 0.056808 0.991254 0.119118
s off
g lilC:Path3
usemtl initialShadingGroup
f 1/1/1 2/2/2 4/139/3 3/109/4
f 3/4/5 4/107/6 6/5/7 5/110/8
f 5/6/9 6/108/10 8/7/11 7/8/12
f 7/8/13 8/7/14 2/2/15 1/1/16
f 10/9/17 9/10/18 11/136/19 12/135/20
f 7/8/21 1/1/22 3/140/23 5/138/24
f 2/2/25 8/7/26 9/10/27 10/9/28
f 8/7/29 6/137/30 11/106/31 9/10/32
f 6/5/33 4/107/34 12/105/35 11/11/36
f 4/3/37 2/2/38 10/9/39 12/12/40
f 13/13/41 21/14/42 22/142/43 15/103/44
f 15/16/45 22/15/46 23/99/47 17/104/48
f 17/18/49 23/141/50 24/19/51 19/20/52
f 19/20/53 24/19/54 21/14/55 13/13/56
f 14/21/57 20/22/58 18/143/59 16/102/60
f 19/20/61 13/13/62 15/146/63 17/144/64
f 22/101/65 21/14/66 14/21/67 16/145/68
f 23/99/69 22/15/70 16/24/71 18/100/72
f 24/19/73 23/17/74 18/23/75 20/22/76
f 21/14/77 24/19/78 20/22/79 14/21/80
f 25/25/81 26/26/82 28/133/83 27/97/84
f 27/28/85 28/95/86 30/29/87 29/98/88
f 29/30/89 30/96/90 32/31/91 31/32/92
f 31/32/93 32/31/94 26/26/95 25/25/96
f 34/33/97 33/34/98 35/130/99 36/129/100
f 31/32/101 25/25/102 27/134/103 29/132/104
f 26/26/105 32/31/106 33/34/107 34/33/108
f 32/31/109 30/131/110 35/94/111 33/34/112
f 30/29/113 28/95/114 36/93/115 35/35/116
f 28/27/117 26/26/118 34/33/119 36/36/120
f 37/37/121 45/38/122 46/124/123 39/91/124
f 39/40/125 46/39/126 47/87/127 41/92/128
f 41/42/129 47/123/130 48/43/131 43/44/132
f 43/44/133 48/43/134 45/38/135 37/37/136
f 38/45/137 44/46/138 42/125/139 40/90/140
f 43/44/141 37/37/142 39/128/143 41/126/144
f 46/89/145 45/38/146 38/45/147 40/127/148
f 47/87/149 46/39/150 40/48/151 42/88/152
f 48/43/153 47/41/154 42/47/155 44/46/156
f 45/38/157 48/43/158 44/46/159 38/45/160
f 49/49/161 50/50/162 52/121/163 51/85/164
f 51/52/165 52/83/166 54/53/167 53/86/168
f 53/54/169 54/84/170 56/55/171 55/56/172
f 55/56/173 56/55/174 50/50/175 49/49/176
f 58/57/177 57/58/178 59/118/179 60/117/180
f 55/56/181 49/49/182 51/122/183 53/120/184
f 50/50/185 56/55/186 57/58/187 58/57/188
f 56/55/189 54/119/190 59/82/191 57/58/192
f 54/53/193 52/83/194 60/81/195 59/59/196
f 52/51/197 50/50/198 58/57/199 60/60/200
f 61/61/201 65/62/202 66/114/203 63/80/204
f 63/64/205 66/63/206 74/65/207 69/66/208
f 70/67/209 71/68/210 65/62/211 61/61/212
f 62/69/213 72/70/214 73/111/215 64/79/216
f 69/77/217 70/67/218 61/61/219 63/116/220
f 66/78/221 65/62/222 62/69/223 64/115/224
f 73/71/225 74/65/226 66/63/227 64/72/228
f 72/70/229 68/73/230 67/113/231 73/75/232
f 65/62/233 71/68/234 72/70/235 62/69/236
f 68/73/237 70/67/238 69/112/239 67/76/240
f 68/73/241 71/68/242 70/67/243
f 72/70/244 71/68/245 68/73/246
f 67/74/247 74/65/248 73/71/249
f 69/66/250 74/65/251 67/74/252
