# This file uses centimeters as units for non-parametric coordinates.

mtllib cepha_gros.mtl
g default
v 0.580420 0.000000 -0.498286
v 0.121197 0.000000 -0.763419
v -0.400584 0.000000 -0.670696
v -0.740777 0.000000 -0.264768
v -0.740777 0.000000 0.264768
v -0.400584 0.000000 0.670696
v 0.121197 0.000000 0.763419
v 0.580420 0.000000 0.498286
v 0.761879 0.000000 0.000000
v 1.219920 0.481360 -1.047658
v 0.251537 0.480054 -1.604181
v -0.845101 0.478300 -1.409600
v -1.559857 0.477006 -0.556375
v -1.559857 0.477006 0.556375
v -0.845101 0.478300 1.409599
v 0.253865 0.480054 1.604181
v 1.327472 0.481360 1.047658
v 1.706564 0.481360 0.000000
v 1.584491 1.531898 -1.287208
v 0.349477 1.521479 -1.969177
v -0.997937 1.510486 -1.728951
v -1.875156 1.481880 -0.682167
v -1.875157 1.481880 0.682167
v -0.997937 1.505257 1.728951
v 0.395765 1.521479 1.969177
v 1.905527 1.531898 1.287209
v 2.376068 1.536210 0.000000
v 2.483923 3.534218 -1.661018
v 0.817566 3.311983 -2.544824
v -1.077349 3.059267 -2.237880
v -2.314166 2.593721 -0.883808
v -2.314166 2.593721 0.883808
v -1.077349 2.758670 2.237879
v 0.817565 3.311983 2.544825
v 2.483923 3.534218 1.661018
v 3.142023 3.621986 0.000000
v 2.329586 5.246246 -1.530872
v 0.947658 5.195219 -2.314750
v -0.648077 5.189711 -2.035559
v -2.197835 4.958799 -0.803906
v -2.197835 4.958799 0.803905
v -0.648077 5.189712 2.035558
v 0.947658 5.195219 2.314750
v 2.330860 5.240034 1.493261
v 2.879833 5.244544 -0.019358
v 1.321576 7.339145 -1.512102
v 0.355110 6.826232 -1.861969
v -0.825401 6.677094 -1.590547
v -1.667943 6.661568 -0.627935
v -1.667944 6.661568 0.627934
v -0.825400 6.677093 1.590546
v 0.364755 6.790996 1.754812
v 1.321576 7.339147 0.835161
v 1.748743 7.339145 -0.338471
v 0.716120 9.023762 -0.682432
v 0.080339 8.887225 -0.983001
v -0.600751 8.693719 -0.821813
v -1.008462 8.533795 -0.274289
v -0.952020 8.482279 0.403377
v -0.457835 8.563275 0.894099
v 0.242857 8.738892 0.968262
v 0.822196 8.926946 0.591164
v 1.009102 9.039450 -0.060746
v 0.000000 0.000000 0.000000
v 0.000000 10.482707 0.000000
vt 0.022084 0.597996
vt 0.053285 0.603608
vt 0.364456 0.495797
vt 0.434128 0.509920
vt 0.080756 0.587824
vt 0.269898 0.497215
vt 0.091670 0.558101
vt 0.219569 0.507012
vt 0.080945 0.528315
vt 0.167028 0.527224
vt 0.053588 0.512372
vt 0.401325 0.597175
vt 0.022360 0.517725
vt 0.510778 0.583556
vt 0.001899 0.541939
vt 0.574525 0.561080
vt 0.001785 0.573643
vt 0.622607 0.525289
vt 0.357451 0.428979
vt 0.445751 0.424583
vt 0.274979 0.438891
vt 0.207814 0.454504
vt 0.142744 0.475737
vt 0.436396 0.686463
vt 0.531554 0.650653
vt 0.612906 0.612144
vt 0.667471 0.572345
vt 0.355763 0.326326
vt 0.452488 0.286214
vt 0.270358 0.361836
vt 0.196940 0.400660
vt 0.121910 0.420875
vt 0.486886 0.765332
vt 0.592196 0.731183
vt 0.668146 0.692414
vt 0.733158 0.652774
vt 0.331304 0.234523
vt 0.408050 0.192675
vt 0.256094 0.262618
vt 0.172631 0.299583
vt 0.101876 0.312860
vt 0.596673 0.858757
vt 0.654009 0.797060
vt 0.710561 0.751189
vt 0.770946 0.713793
vt 0.267213 0.167078
vt 0.298843 0.112773
vt 0.214934 0.200385
vt 0.155549 0.219404
vt 0.093888 0.227102
vt 0.660948 0.921078
vt 0.702662 0.870178
vt 0.773797 0.846651
vt 0.830046 0.813819
vt 0.190019 0.076215
vt 0.210148 0.041899
vt 0.163168 0.103773
vt 0.131016 0.121297
vt 0.095016 0.124354
vt 0.763490 0.966706
vt 0.788916 0.937776
vt 0.820218 0.919163
vt 0.853155 0.908217
vt 0.044640 0.558212
vt 0.876028 0.998008
vt 0.058990 0.110462
vt 0.116903 0.001992
vt 0.888775 0.902965
vt 0.026071 0.222262
vt 0.894095 0.796640
vt 0.001785 0.306654
vt 0.843222 0.683090
vt 0.030101 0.437808
vt 0.800341 0.598241
vt 0.072249 0.506949
vt 0.716309 0.507923
vt 0.113284 0.564927
vt 0.657514 0.467537
vt 0.171116 0.604030
vt 0.442450 0.504036
vt 0.593557 0.450080
vt 0.385951 0.581180
vt 0.573757 0.480377
vt 0.540441 0.501088
vt 0.496803 0.509714
vt 0.200089 0.580234
vt 0.238562 0.567446
vt 0.284580 0.564039
vt 0.341115 0.567186
vn 0.258836 -0.855556 -0.448361
vn 0.258836 -0.855556 -0.448361
vn 0.258836 -0.855557 -0.448360
vn 0.258836 -0.855556 -0.448360
vn -0.088492 -0.859316 -0.503731
vn -0.088492 -0.859316 -0.503731
vn -0.088492 -0.859316 -0.503731
vn -0.088492 -0.859316 -0.503731
vn -0.387083 -0.862795 -0.325194
vn -0.387083 -0.862795 -0.325194
vn -0.387083 -0.862795 -0.325194
vn -0.387083 -0.862795 -0.325194
vn -0.503248 -0.864142 -0.000000
vn -0.503249 -0.864142 -0.000000
vn -0.503249 -0.864142 -0.000000
vn -0.503249 -0.864142 -0.000000
vn -0.387083 -0.862795 0.325194
vn -0.387083 -0.862795 0.325194
vn -0.387083 -0.862795 0.325194
vn -0.387083 -0.862795 0.325194
vn -0.088386 -0.859259 0.503848
vn -0.088386 -0.859259 0.503848
vn -0.088386 -0.859259 0.503848
vn -0.088386 -0.859259 0.503848
vn 0.239395 -0.862822 0.445229
vn 0.239395 -0.862822 0.445229
vn 0.239395 -0.862822 0.445229
vn 0.239395 -0.862822 0.445229
vn 0.447688 -0.879332 0.162330
vn 0.447688 -0.879332 0.162330
vn 0.447688 -0.879332 0.162330
vn 0.447688 -0.879332 0.162330
vn 0.458014 -0.866628 -0.197937
vn 0.458014 -0.866628 -0.197937
vn 0.458014 -0.866628 -0.197937
vn 0.458014 -0.866628 -0.197937
vn 0.462342 -0.338997 -0.819342
vn 0.462342 -0.338997 -0.819342
vn 0.462342 -0.338997 -0.819342
vn 0.462342 -0.338997 -0.819342
vn -0.164768 -0.313048 -0.935336
vn -0.164768 -0.313048 -0.935335
vn -0.164768 -0.313048 -0.935336
vn -0.164768 -0.313048 -0.935336
vn -0.728419 -0.301806 -0.615076
vn -0.728419 -0.301806 -0.615076
vn -0.728419 -0.301806 -0.615076
vn -0.728419 -0.301806 -0.615076
vn -0.954134 -0.299379 -0.000000
vn -0.954134 -0.299379 -0.000000
vn -0.954134 -0.299379 -0.000000
vn -0.954134 -0.299379 -0.000000
vn -0.728657 -0.302500 0.614453
vn -0.728657 -0.302500 0.614453
vn -0.728657 -0.302500 0.614453
vn -0.728657 -0.302500 0.614453
vn -0.161156 -0.310777 0.936721
vn -0.161156 -0.310777 0.936721
vn -0.161156 -0.310777 0.936721
vn -0.161156 -0.310777 0.936721
vn 0.401429 -0.379095 0.833751
vn 0.401429 -0.379095 0.833751
vn 0.401429 -0.379095 0.833752
vn 0.401429 -0.379095 0.833751
vn 0.807582 -0.511866 0.292925
vn 0.807582 -0.511866 0.292925
vn 0.807582 -0.511866 0.292925
vn 0.807582 -0.511866 0.292925
vn 0.789397 -0.436796 -0.431348
vn 0.789397 -0.436796 -0.431348
vn 0.789397 -0.436796 -0.431348
vn 0.789397 -0.436796 -0.431348
vn 0.464157 -0.368935 -0.805261
vn 0.464157 -0.368935 -0.805261
vn 0.464157 -0.368935 -0.805261
vn 0.464157 -0.368935 -0.805261
vn -0.136056 -0.291675 -0.946792
vn -0.136056 -0.291675 -0.946792
vn -0.136056 -0.291675 -0.946792
vn -0.136056 -0.291675 -0.946792
vn -0.681030 -0.309886 -0.663452
vn -0.681030 -0.309886 -0.663452
vn -0.681030 -0.309886 -0.663452
vn -0.681030 -0.309886 -0.663452
vn -0.930119 -0.367257 -0.000000
vn -0.930119 -0.367257 -0.000000
vn -0.930119 -0.367257 -0.000000
vn -0.930119 -0.367257 -0.000000
vn -0.691600 -0.342609 0.635853
vn -0.691600 -0.342609 0.635853
vn -0.691600 -0.342609 0.635853
vn -0.691600 -0.342609 0.635853
vn -0.100430 -0.323900 0.940746
vn -0.100430 -0.323900 0.940746
vn -0.100430 -0.323900 0.940746
vn -0.100430 -0.323900 0.940746
vn 0.437195 -0.325197 0.838515
vn 0.437195 -0.325197 0.838515
vn 0.437195 -0.325197 0.838515
vn 0.437195 -0.325197 0.838515
vn 0.887483 -0.321991 0.329690
vn 0.887483 -0.321991 0.329690
vn 0.887483 -0.321991 0.329690
vn 0.887483 -0.321991 0.329690
vn 0.835784 -0.376978 -0.399190
vn 0.835784 -0.376978 -0.399190
vn 0.835784 -0.376978 -0.399190
vn 0.835784 -0.376979 -0.399190
vn 0.471669 0.091056 -0.877062
vn 0.471669 0.091056 -0.877062
vn 0.471669 0.091056 -0.877062
vn 0.471669 0.091056 -0.877062
vn -0.173506 0.129358 -0.976300
vn -0.173506 0.129358 -0.976300
vn -0.173506 0.129358 -0.976300
vn -0.173506 0.129358 -0.976300
vn -0.691626 0.128558 -0.710723
vn -0.691626 0.128558 -0.710723
vn -0.691626 0.128558 -0.710723
vn -0.691626 0.128558 -0.710723
vn -0.998793 0.049128 -0.000000
vn -0.998792 0.049128 -0.000000
vn -0.998793 0.049128 -0.000000
vn -0.998793 0.049128 -0.000000
vn -0.684386 0.120173 0.719149
vn -0.684386 0.120173 0.719149
vn -0.684386 0.120173 0.719149
vn -0.684386 0.120173 0.719149
vn -0.183262 0.121532 0.975523
vn -0.183262 0.121532 0.975523
vn -0.183262 0.121532 0.975523
vn -0.183262 0.121532 0.975523
vn 0.478966 0.099739 0.872149
vn 0.478966 0.099739 0.872149
vn 0.478966 0.099739 0.872149
vn 0.478966 0.099739 0.872149
vn 0.924759 0.135369 0.355662
vn 0.924759 0.135369 0.355662
vn 0.924759 0.135369 0.355662
vn 0.924759 0.135369 0.355662
vn 0.925733 0.127464 -0.356049
vn 0.925733 0.127464 -0.356049
vn 0.925733 0.127464 -0.356049
vn 0.925733 0.127464 -0.356049
vn 0.365317 0.269830 -0.890918
vn 0.365317 0.269830 -0.890918
vn 0.365317 0.269830 -0.890918
vn 0.365317 0.269830 -0.890918
vn -0.201594 0.224701 -0.953346
vn -0.201594 0.224701 -0.953346
vn -0.201594 0.224701 -0.953346
vn -0.201594 0.224701 -0.953346
vn -0.672321 0.212344 -0.709150
vn -0.672321 0.212344 -0.709150
vn -0.672321 0.212344 -0.709151
vn -0.672321 0.212344 -0.709150
vn -0.954834 0.297139 -0.000000
vn -0.954834 0.297139 -0.000000
vn -0.954834 0.297139 -0.000000
vn -0.954834 0.297139 -0.000000
vn -0.672321 0.212344 0.709151
vn -0.672321 0.212344 0.709151
vn -0.672321 0.212344 0.709151
vn -0.672321 0.212344 0.709151
vn -0.162640 0.269296 0.949225
vn -0.162640 0.269296 0.949225
vn -0.162640 0.269296 0.949225
vn -0.162640 0.269296 0.949225
vn 0.456957 0.449867 0.767339
vn 0.456957 0.449867 0.767339
vn 0.456957 0.449867 0.767339
vn 0.456957 0.449867 0.767339
vn 0.820020 0.488145 0.298801
vn 0.820020 0.488145 0.298801
vn 0.820020 0.488145 0.298801
vn 0.820020 0.488145 0.298801
vn 0.855215 0.414560 -0.311042
vn 0.855215 0.414560 -0.311042
vn 0.855215 0.414560 -0.311042
vn 0.855215 0.414560 -0.311042
vn 0.177399 0.442650 -0.878971
vn 0.177399 0.442650 -0.878971
vn 0.177399 0.442650 -0.878971
vn 0.177399 0.442650 -0.878971
vn -0.273327 0.357497 -0.893022
vn -0.273327 0.357497 -0.893022
vn -0.273327 0.357497 -0.893022
vn -0.273327 0.357497 -0.893022
vn -0.744336 0.335820 -0.577225
vn -0.744336 0.335820 -0.577225
vn -0.744336 0.335820 -0.577225
vn -0.744336 0.335820 -0.577226
vn -0.936905 0.347663 0.036612
vn -0.936905 0.347663 0.036612
vn -0.936904 0.347663 0.036612
vn -0.936904 0.347663 0.036612
vn -0.698934 0.358105 0.619074
vn -0.698934 0.358105 0.619074
vn -0.698934 0.358105 0.619073
vn -0.698934 0.358105 0.619074
vn -0.171275 0.364945 0.915140
vn -0.171275 0.364944 0.915139
vn -0.171275 0.364945 0.915140
vn -0.171275 0.364944 0.915140
vn 0.515816 0.322026 0.793872
vn 0.515816 0.322026 0.793872
vn 0.515816 0.322026 0.793872
vn 0.515816 0.322026 0.793872
vn 0.887924 0.331313 0.319097
vn 0.887924 0.331313 0.319097
vn 0.887924 0.331313 0.319097
vn 0.887924 0.331313 0.319097
vn 0.831697 0.440903 -0.337468
vn 0.831697 0.440903 -0.337468
vn 0.831697 0.440903 -0.337468
vn 0.831697 0.440903 -0.337468
vn 0.000000 -1.000000 -0.000000
vn 0.000000 -1.000000 -0.000000
vn 0.000000 -1.000000 -0.000000
vn -0.000000 -1.000000 -0.000000
vn -0.000000 -1.000000 -0.000000
vn -0.000000 -1.000000 -0.000000
vn -0.000000 -1.000000 0.000000
vn -0.000000 -1.000000 0.000000
vn -0.000000 -1.000000 0.000000
vn -0.000000 -1.000000 0.000000
vn -0.000000 -1.000000 0.000000
vn -0.000000 -1.000000 0.000000
vn -0.000000 -1.000000 0.000000
vn -0.000000 -1.000000 0.000000
vn -0.000000 -1.000000 0.000000
vn -0.000000 -1.000000 0.000000
vn -0.000000 -1.000000 0.000000
vn -0.000000 -1.000000 0.000000
vn 0.000000 -1.000000 0.000000
vn 0.000000 -1.000000 0.000000
vn 0.000000 -1.000000 0.000000
vn 0.000000 -1.000000 0.000000
vn 0.000000 -1.000000 0.000000
vn 0.000000 -1.000000 0.000000
vn 0.000000 -1.000000 0.000000
vn 0.000000 -1.000000 0.000000
vn 0.000000 -1.000000 0.000000
vn 0.273702 0.514470 -0.812655
vn 0.273702 0.514470 -0.812655
vn 0.273702 0.514470 -0.812655
vn -0.329274 0.483223 -0.811218
vn -0.329274 0.483223 -0.811218
vn -0.329274 0.483223 -0.811218
vn -0.771011 0.460819 -0.439531
vn -0.771011 0.460819 -0.439531
vn -0.771011 0.460819 -0.439531
vn -0.889075 0.444870 0.107869
vn -0.889075 0.444870 0.107869
vn -0.889075 0.444870 0.107869
vn -0.668262 0.439120 0.600500
vn -0.668262 0.439120 0.600500
vn -0.668262 0.439120 0.600500
vn -0.205374 0.453078 0.867492
vn -0.205374 0.453078 0.867492
vn -0.205374 0.453078 0.867492
vn 0.357724 0.490905 0.794384
vn 0.357724 0.490905 0.794384
vn 0.357724 0.490905 0.794384
vn 0.783523 0.534489 0.316882
vn 0.783523 0.534489 0.316882
vn 0.783523 0.534489 0.316882
vn 0.754286 0.542923 -0.369172
vn 0.754286 0.542923 -0.369172
vn 0.754286 0.542923 -0.369172
s off
g A_Cepha:Cepha2
usemtl initialShadingGroup
f 1/82/1 2/89/2 11/3/3 10/4/4
f 2/89/5 3/88/6 12/6/7 11/3/8
f 3/88/9 4/87/10 13/8/11 12/6/12
f 4/87/13 5/86/14 14/10/15 13/8/16
f 5/86/17 6/79/18 15/77/19 14/10/20
f 6/80/21 7/85/22 16/14/23 15/12/24
f 7/85/25 8/84/26 17/16/27 16/14/28
f 8/84/29 9/83/30 18/18/31 17/16/32
f 9/83/33 1/81/34 10/78/35 18/18/36
f 10/4/37 11/3/38 20/19/39 19/20/40
f 11/3/41 12/6/42 21/21/43 20/19/44
f 12/6/45 13/8/46 22/22/47 21/21/48
f 13/8/49 14/10/50 23/23/51 22/22/52
f 14/10/53 15/77/54 24/75/55 23/23/56
f 15/12/57 16/14/58 25/25/59 24/24/60
f 16/14/61 17/16/62 26/26/63 25/25/64
f 17/16/65 18/18/66 27/27/67 26/26/68
f 18/18/69 10/78/70 19/76/71 27/27/72
f 19/20/73 20/19/74 29/28/75 28/29/76
f 20/19/77 21/21/78 30/30/79 29/28/80
f 21/21/81 22/22/82 31/31/83 30/30/84
f 22/22/85 23/23/86 32/32/87 31/31/88
f 23/23/89 24/75/90 33/73/91 32/32/92
f 24/24/93 25/25/94 34/34/95 33/33/96
f 25/25/97 26/26/98 35/35/99 34/34/100
f 26/26/101 27/27/102 36/36/103 35/35/104
f 27/27/105 19/76/106 28/74/107 36/36/108
f 28/29/109 29/28/110 38/37/111 37/38/112
f 29/28/113 30/30/114 39/39/115 38/37/116
f 30/30/117 31/31/118 40/40/119 39/39/120
f 31/31/121 32/32/122 41/41/123 40/40/124
f 32/32/125 33/73/126 42/71/127 41/41/128
f 33/33/129 34/34/130 43/43/131 42/42/132
f 34/34/133 35/35/134 44/44/135 43/43/136
f 35/35/137 36/36/138 45/45/139 44/44/140
f 36/36/141 28/74/142 37/72/143 45/45/144
f 37/38/145 38/37/146 47/46/147 46/47/148
f 38/37/149 39/39/150 48/48/151 47/46/152
f 39/39/153 40/40/154 49/49/155 48/48/156
f 40/40/157 41/41/158 50/50/159 49/49/160
f 41/41/161 42/71/162 51/69/163 50/50/164
f 42/42/165 43/43/166 52/52/167 51/51/168
f 43/43/169 44/44/170 53/53/171 52/52/172
f 44/44/173 45/45/174 54/54/175 53/53/176
f 45/45/177 37/72/178 46/70/179 54/54/180
f 46/47/181 47/46/182 56/55/183 55/56/184
f 47/46/185 48/48/186 57/57/187 56/55/188
f 48/48/189 49/49/190 58/58/191 57/57/192
f 49/49/193 50/50/194 59/59/195 58/58/196
f 50/50/197 51/69/198 60/66/199 59/59/200
f 51/51/201 52/52/202 61/61/203 60/60/204
f 52/52/205 53/53/206 62/62/207 61/61/208
f 53/53/209 54/54/210 63/63/211 62/62/212
f 54/54/213 46/70/214 55/68/215 63/63/216
f 2/2/217 1/1/218 64/64/219
f 3/5/220 2/2/221 64/64/222
f 4/7/223 3/5/224 64/64/225
f 5/9/226 4/7/227 64/64/228
f 6/11/229 5/9/230 64/64/231
f 7/13/232 6/11/233 64/64/234
f 8/15/235 7/13/236 64/64/237
f 9/17/238 8/15/239 64/64/240
f 1/1/241 9/17/242 64/64/243
f 55/56/244 56/55/245 65/67/246
f 56/55/247 57/57/248 65/67/249
f 57/57/250 58/58/251 65/67/252
f 58/58/253 59/59/254 65/67/255
f 59/59/256 60/66/257 65/67/258
f 60/60/259 61/61/260 65/65/261
f 61/61/262 62/62/263 65/65/264
f 62/62/265 63/63/266 65/65/267
f 63/63/268 55/68/269 65/65/270
