# This file uses centimeters as units for non-parametric coordinates.

mtllib RockBig.mtl
g default
v -0.906241 0.000000 0.641023
v 1.465311 0.000000 0.641023
v -1.102614 0.685648 0.641023
v 1.703805 1.778137 0.111859
v -0.988867 0.828505 -1.004519
v 1.703805 1.778137 -0.805823
v -0.906241 0.000000 -0.358977
v 1.465311 0.000000 -1.122198
v -0.763262 3.020247 0.105174
v 1.358183 3.422378 0.114402
v 1.358183 3.422378 -0.805823
v -0.616573 3.071781 -0.805823
v -0.524110 3.763394 0.105174
v 1.176860 3.991979 0.050830
v 1.176860 3.991979 -0.619854
v -0.346349 3.787282 -0.619854
v 0.352816 4.481174 0.239627
v 1.024149 4.318940 -0.102646
v 1.024149 4.318940 -0.385161
v 0.253053 4.508017 -0.358977
v 0.389188 0.000000 0.641023
v 0.430356 1.282406 1.208217
v 0.395550 3.239906 0.641023
v 0.405023 3.888256 0.475336
v 0.104374 4.100834 -0.671604
v 0.532236 3.439662 -0.907965
v 0.071640 2.567095 -1.414673
v 0.430356 1.282406 -1.635840
v 0.389188 0.000000 -0.775877
v -0.388423 0.000000 -0.525623
v -0.144293 4.105712 -0.495518
v -0.118074 4.137700 0.003826
v -0.096795 3.797713 0.426364
v -0.300575 3.104190 0.995960
v -0.428451 0.916795 1.420717
v -0.483773 0.000000 0.641023
vt 0.425748 0.243961
vt 0.499925 0.619827
vt 0.456591 0.380975
vt 0.350635 0.280428
vt 0.396794 0.694023
vt 0.923861 0.559332
vt 0.789214 0.655319
vt 0.321403 0.647359
vt 0.362802 0.458738
vt 0.217072 0.582782
vt 0.665433 0.757546
vt 0.194696 0.353783
vt 0.446998 0.725097
vt 0.729652 0.003348
vt 0.524220 0.179610
vt 0.267400 0.110245
vt 0.200318 0.145036
vt 0.767572 0.904542
vt 0.102358 0.207172
vt 0.861137 0.763587
vt 0.961956 0.798324
vt 0.317515 0.022507
vt 0.196450 0.057210
vt 0.147423 0.094005
vt 0.806793 0.960816
vt 0.068744 0.153682
vt 0.851932 0.875037
vt 0.960184 0.886246
vt 0.227091 0.001992
vt 0.157802 0.005147
vt 0.836021 0.998008
vt 0.592178 0.601702
vt 0.920274 0.931723
vt 0.953478 0.931306
vt 0.649399 0.547223
vt 0.923109 0.989657
vt 0.529549 0.303938
vt 0.438511 0.547675
vt 0.831362 0.464390
vt 0.748775 0.502549
vt 0.890471 0.440313
vt 0.529648 0.654743
vt 0.650412 0.481774
vt 0.090975 0.043991
vt 0.603589 0.461770
vt 0.595549 0.517453
vt 0.565176 0.591787
vt 0.040069 0.120357
vt 0.602177 0.423500
vt 0.679467 0.428202
vt 0.594172 0.346233
vt 0.692516 0.343860
vt 0.577596 0.107185
vt 0.758197 0.084794
vt 0.637012 0.020185
vt 0.570132 0.264026
vt 0.001920 0.187008
vt 0.008498 0.135180
vt 0.017452 0.257821
vt 0.117394 0.411768
vt 0.640528 0.563483
vn 0.210976 -0.517237 0.829431
vn 0.210976 -0.517237 0.829431
vn 0.210976 -0.517237 0.829431
vn 0.210976 -0.517237 0.829431
vn -0.205229 -0.562406 -0.800987
vn -0.205229 -0.562406 -0.800987
vn -0.205229 -0.562406 -0.800987
vn -0.205229 -0.562406 -0.800987
vn 0.000000 -1.000000 0.000000
vn 0.000000 -1.000000 0.000000
vn 0.000000 -1.000000 0.000000
vn 0.000000 -1.000000 0.000000
vn 0.991125 -0.132935 0.000000
vn 0.991125 -0.132935 0.000000
vn 0.991125 -0.132935 0.000000
vn 0.991125 -0.132935 0.000000
vn -0.977794 -0.202760 -0.052990
vn -0.977794 -0.202760 -0.052990
vn -0.977794 -0.202760 -0.052990
vn -0.977794 -0.202760 -0.052990
vn 0.271697 0.218217 0.937317
vn 0.271697 0.218217 0.937317
vn 0.271697 0.218217 0.937316
vn 0.271697 0.218217 0.937317
vn 0.978614 0.205706 0.000000
vn 0.978614 0.205706 0.000000
vn 0.978614 0.205706 0.000000
vn 0.978614 0.205706 0.000000
vn -0.502554 0.104076 -0.858258
vn -0.502554 0.104076 -0.858258
vn -0.502554 0.104076 -0.858258
vn -0.502554 0.104076 -0.858258
vn -0.985168 0.146577 -0.089214
vn -0.985168 0.146577 -0.089214
vn -0.985168 0.146577 -0.089214
vn -0.985168 0.146577 -0.089214
vn 0.137461 0.459087 0.877692
vn 0.137461 0.459087 0.877692
vn 0.137461 0.459087 0.877692
vn 0.137461 0.459087 0.877692
vn 0.952884 0.303335 0.000000
vn 0.952884 0.303335 0.000000
vn 0.952884 0.303335 0.000000
vn 0.952884 0.303335 0.000000
vn -0.227808 0.475466 -0.849727
vn -0.227808 0.475466 -0.849727
vn -0.227808 0.475466 -0.849727
vn -0.227808 0.475466 -0.849727
vn -0.923936 0.343988 -0.167373
vn -0.923936 0.343988 -0.167373
vn -0.923936 0.343988 -0.167373
vn -0.923936 0.343988 -0.167373
vn -0.336709 0.725259 0.600521
vn -0.336709 0.725259 0.600521
vn -0.336709 0.725259 0.600521
vn -0.336709 0.725259 0.600521
vn 0.906046 0.423179 0.000000
vn 0.906046 0.423179 0.000000
vn 0.906046 0.423179 0.000000
vn 0.906046 0.423179 0.000000
vn -0.169978 0.455691 -0.873758
vn -0.293197 0.270101 -0.917105
vn -0.293197 0.270101 -0.917105
vn -0.197957 0.416716 -0.887221
vn -0.667705 0.740824 0.073144
vn -0.667705 0.740824 0.073144
vn -0.667705 0.740824 0.073144
vn -0.667705 0.740824 0.073144
vn 0.237294 0.971434 0.002727
vn 0.237294 0.971434 0.002727
vn 0.237294 0.971434 0.002727
vn 0.237294 0.971434 0.002727
vn 0.431054 -0.050583 0.900907
vn 0.431054 -0.050583 0.900907
vn 0.431054 -0.050583 0.900907
vn 0.431054 -0.050583 0.900907
vn 0.539661 0.185732 0.821139
vn 0.539661 0.185732 0.821139
vn 0.539661 0.185732 0.821139
vn 0.539661 0.185732 0.821139
vn 0.439525 0.225670 0.869420
vn 0.439525 0.225670 0.869420
vn 0.439525 0.225670 0.869420
vn 0.439525 0.225670 0.869420
vn 0.436892 0.431295 0.789373
vn 0.436892 0.431295 0.789373
vn 0.436892 0.431295 0.789373
vn 0.436892 0.431295 0.789373
vn 0.090165 0.471237 -0.877386
vn 0.090165 0.471237 -0.877386
vn 0.090165 0.471237 -0.877386
vn 0.090165 0.471237 -0.877386
vn 0.120361 0.410769 -0.903760
vn 0.120361 0.410769 -0.903760
vn 0.120361 0.410769 -0.903760
vn 0.120361 0.410769 -0.903760
vn 0.414528 0.167232 -0.894539
vn 0.414528 0.167232 -0.894539
vn 0.414528 0.167232 -0.894539
vn 0.414528 0.167232 -0.894539
vn 0.236396 -0.190818 -0.952736
vn 0.236396 -0.190818 -0.952736
vn 0.236396 -0.190818 -0.952736
vn 0.236396 -0.190818 -0.952736
vn 0.000000 -1.000000 0.000000
vn 0.000000 -1.000000 0.000000
vn 0.000000 -1.000000 0.000000
vn 0.000000 -1.000000 0.000000
vn -0.242466 -0.611213 -0.753412
vn -0.242466 -0.611212 -0.753412
vn -0.242466 -0.611213 -0.753412
vn -0.746409 0.658418 -0.096739
vn -0.746409 0.658418 -0.096739
vn -0.746409 0.658418 -0.096739
vn -0.746409 0.658418 -0.096739
vn -0.746854 0.431025 0.506385
vn -0.746854 0.431025 0.506385
vn -0.746855 0.431025 0.506385
vn -0.746854 0.431025 0.506385
vn -0.827382 0.197201 0.525881
vn -0.827382 0.197201 0.525881
vn -0.827382 0.197201 0.525881
vn -0.827382 0.197201 0.525881
vn -0.465388 -0.420042 0.779088
vn -0.465388 -0.420042 0.779088
vn -0.465388 -0.420042 0.779088
vn -0.465388 -0.420042 0.779088
vn 0.000000 -1.000000 0.000000
vn 0.000000 -1.000000 0.000000
vn 0.000000 -1.000000 0.000000
vn 0.000000 -1.000000 0.000000
vn -0.576276 0.257591 0.775598
vn -0.576276 0.257591 0.775598
vn -0.576276 0.257591 0.775598
vn -0.038442 0.617330 -0.785765
vn -0.038442 0.617330 -0.785765
s off
g Rock
usemtl initialShadingGroup
f 35/1/1 36/37/2 21/3/3 22/4/4
f 30/39/5 5/6/6 28/7/7 29/40/8
f 36/2/9 30/5/10 29/8/11 21/38/12
f 2/9/13 8/10/14 6/60/15 4/12/16
f 7/55/17 1/14/18 3/54/19 5/53/20
f 34/16/21 35/1/22 22/4/23 23/17/24
f 4/12/25 6/60/26 11/59/27 10/19/28
f 27/20/29 28/7/30 5/6/31 12/21/32
f 5/53/33 3/54/34 9/52/35 12/51/36
f 33/23/37 34/16/38 23/17/39 24/24/40
f 10/19/41 11/59/42 15/57/43 14/26/44
f 26/27/45 27/20/46 12/21/47 16/28/48
f 12/51/49 9/52/50 13/50/51 16/49/52
f 33/23/53 24/24/54 32/30/55 13/29/56
f 14/26/57 15/57/58 19/58/59 18/48/60
s 1
f 25/33/61 26/27/62 16/28/63 31/34/64
s off
f 31/45/65 32/43/66 17/35/67 20/46/68
f 18/32/69 19/47/70 20/46/71 17/35/72
f 22/4/73 21/3/74 2/9/75 4/12/76
f 23/17/77 22/4/78 4/12/79 10/19/80
f 24/24/81 23/17/82 10/19/83 14/26/84
f 17/44/85 24/24/86 14/26/87 18/48/88
f 15/25/89 26/27/90 25/33/91 19/31/92
f 11/18/93 27/20/94 26/27/95 15/25/96
f 6/11/97 28/7/98 27/20/99 11/18/100
f 29/40/101 28/7/102 6/11/103 8/61/104
f 21/38/105 29/8/106 8/10/107 2/9/108
f 5/6/109 30/39/110 7/41/111
f 16/49/112 13/50/113 32/43/114 31/45/115
f 9/22/116 34/16/117 33/23/118 13/29/119
f 3/15/120 35/1/121 34/16/122 9/22/123
f 1/56/124 36/37/125 35/1/126 3/15/127
f 7/13/128 30/5/129 36/2/130 1/42/131
f 32/30/132 24/24/133 17/44/134
s 1
f 25/33/61 31/34/64 20/36/135 19/31/136
