# This file uses centimeters as units for non-parametric coordinates.

mtllib Wall.mtl
g default
v -41.845523 0.017151 61.061984
v -40.951279 0.017151 61.061984
v -41.845523 7.405378 61.061984
v -40.951279 7.405378 61.061984
v -41.845523 7.405378 54.848570
v -40.951279 7.405378 54.848570
v -41.845523 0.017151 54.848570
v -40.951279 0.017151 54.848570
v -41.845523 0.541430 61.061984
v -41.845523 0.541427 54.848570
v -40.951279 0.541427 54.848570
v -40.951279 0.541430 61.061984
v -41.845523 6.616738 54.848570
v -41.845523 6.616738 61.061984
v -40.951279 6.616738 61.061984
v -40.951279 6.616738 54.848570
v -41.845523 7.405379 60.564527
v -41.845523 6.616738 60.564524
v -41.845523 0.541430 60.564527
v -41.845523 0.017151 60.564524
v -40.951279 0.017151 60.564524
v -40.951279 0.541430 60.564524
v -40.951279 6.616738 60.564527
v -40.951279 7.405379 60.564527
v -41.845523 0.017151 55.337148
v -41.845523 0.541427 55.337146
v -41.845523 6.616738 55.337148
v -41.845523 7.405379 55.337146
v -40.951279 7.405379 55.337146
v -40.951279 6.616738 55.337146
v -40.951279 0.541427 55.337148
v -40.951279 0.017151 55.337148
v -41.516294 0.975208 55.710384
v -41.516294 6.182958 55.710386
v -41.516294 0.975210 60.191289
v -41.516294 6.182958 60.191286
v -41.280508 0.975210 60.191286
v -41.280508 6.182958 60.191289
v -41.280508 0.975208 55.710386
v -41.280508 6.182958 55.710384
vt 0.052413 0.499723
vt 0.055292 0.464256
vt 0.597066 0.500016
vt 0.596909 0.463946
vt 0.599011 0.956722
vt 0.594825 0.008019
vt 0.018660 0.009844
vt 0.057455 0.995147
vt 0.019903 0.464477
vt 0.054757 0.009784
vt 0.057280 0.959069
vt 0.094181 0.501731
vt 0.095761 0.958864
vt 0.095917 0.994940
vt 0.093151 0.009774
vt 0.094106 0.465384
vt 0.541073 0.956934
vt 0.539159 0.500257
vt 0.539008 0.464177
vt 0.541230 0.993017
vt 0.537103 0.008361
vt 0.597271 0.536514
vt 0.632873 0.427297
vt 0.539296 0.536739
vt 0.093978 0.538300
vt 0.054962 0.538514
vt 0.019673 0.428721
vt 0.055662 0.428685
vt 0.094091 0.428815
vt 0.538843 0.427712
vt 0.596747 0.427455
vt 0.057044 0.923241
vt 0.018773 0.045669
vt 0.095614 0.923039
vt 0.540906 0.921101
vt 0.598887 0.920853
vt 0.631145 0.043642
vt 0.595046 0.043817
vt 0.537223 0.044078
vt 0.093265 0.045488
vt 0.054838 0.045582
vt 0.507903 0.892227
vt 0.128373 0.893856
vt 0.126983 0.567226
vt 0.506535 0.565873
vt 0.505883 0.398835
vt 0.126861 0.399792
vt 0.126117 0.074326
vt 0.504554 0.073139
vt 0.633033 0.463806
vt 0.630871 0.007779
vt 0.599145 0.992840
vn 0.000000 0.000000 1.000000
vn 0.000000 0.000000 1.000000
vn 0.000000 0.000000 1.000000
vn 0.000000 0.000000 1.000000
vn 0.000000 1.000000 0.000001
vn 0.000000 1.000000 0.000001
vn 0.000000 1.000000 0.000001
vn 0.000000 1.000000 0.000001
vn 0.000000 0.000000 -1.000000
vn 0.000000 0.000000 -1.000000
vn 0.000000 0.000000 -1.000000
vn 0.000000 0.000000 -1.000000
vn 0.000000 -1.000000 0.000000
vn 0.000000 -1.000000 0.000000
vn 0.000000 -1.000000 0.000000
vn 0.000000 -1.000000 0.000000
vn 1.000000 -0.000000 -0.000000
vn 1.000000 -0.000000 -0.000000
vn 1.000000 -0.000000 -0.000000
vn 1.000000 -0.000000 -0.000000
vn -1.000000 -0.000000 0.000000
vn -1.000000 -0.000000 0.000000
vn -1.000000 -0.000000 0.000000
vn -1.000000 -0.000000 0.000000
vn -1.000000 0.000000 0.000000
vn -1.000000 0.000000 0.000000
vn -1.000000 0.000000 0.000000
vn -1.000000 0.000000 0.000000
vn 0.000000 0.000000 -1.000000
vn 0.000000 0.000000 -1.000000
vn 0.000000 0.000000 -1.000000
vn 0.000000 0.000000 -1.000000
vn 1.000000 0.000000 0.000000
vn 1.000000 0.000000 0.000000
vn 1.000000 0.000000 0.000000
vn 1.000000 0.000000 0.000000
vn 0.000000 0.000000 1.000000
vn 0.000000 0.000000 1.000000
vn 0.000000 0.000000 1.000000
vn 0.000000 0.000000 1.000000
vn -1.000000 0.000000 -0.000000
vn -1.000000 0.000000 -0.000000
vn -1.000000 0.000000 -0.000000
vn -1.000000 0.000000 -0.000000
vn 0.000000 0.000000 1.000000
vn 0.000000 0.000000 1.000000
vn 0.000000 0.000000 1.000000
vn 0.000000 0.000000 1.000000
vn 1.000000 0.000000 -0.000000
vn 1.000000 0.000000 -0.000000
vn 1.000000 0.000000 -0.000000
vn 1.000000 0.000000 -0.000000
vn 0.000000 0.000000 -1.000000
vn 0.000000 0.000000 -1.000000
vn 0.000000 0.000000 -1.000000
vn 0.000000 0.000000 -1.000000
vn -1.000000 0.000000 0.000000
vn -1.000000 0.000000 0.000000
vn -1.000000 0.000000 0.000000
vn -1.000000 0.000000 0.000000
vn -1.000000 0.000000 0.000000
vn -1.000000 0.000000 0.000000
vn -1.000000 0.000000 0.000000
vn -1.000000 0.000000 0.000000
vn -1.000000 0.000000 0.000000
vn -1.000000 0.000000 0.000000
vn -1.000000 0.000000 0.000000
vn -1.000000 0.000000 0.000000
vn 0.000000 -1.000000 -0.000001
vn 0.000000 -1.000000 -0.000001
vn 0.000000 -1.000000 -0.000001
vn 0.000000 -1.000000 -0.000001
vn 1.000000 0.000000 0.000000
vn 1.000000 0.000000 0.000000
vn 1.000000 0.000000 0.000000
vn 1.000000 0.000000 0.000000
vn 1.000000 0.000000 0.000000
vn 1.000000 0.000000 0.000000
vn 1.000000 0.000000 0.000000
vn 1.000000 0.000000 0.000000
vn 1.000000 0.000000 0.000000
vn 1.000000 0.000000 0.000000
vn 1.000000 0.000000 0.000000
vn 1.000000 0.000000 0.000000
vn 0.000000 1.000000 -0.000001
vn 0.000000 1.000000 -0.000001
vn 0.000000 1.000000 -0.000001
vn 0.000000 1.000000 -0.000001
vn -1.000000 -0.000000 -0.000000
vn -1.000000 -0.000000 -0.000000
vn -1.000000 -0.000000 -0.000000
vn -1.000000 -0.000000 -0.000000
vn -1.000000 0.000000 -0.000000
vn -1.000000 0.000000 -0.000000
vn -1.000000 0.000000 -0.000000
vn -1.000000 0.000000 -0.000000
vn -1.000000 -0.000000 0.000000
vn -1.000000 -0.000000 0.000000
vn -1.000000 -0.000000 0.000000
vn -1.000000 -0.000000 0.000000
vn 0.000000 1.000000 0.000000
vn 0.000000 1.000000 0.000000
vn 0.000000 1.000000 0.000000
vn 0.000000 1.000000 0.000000
vn 1.000000 0.000000 0.000000
vn 1.000000 0.000000 0.000000
vn 1.000000 0.000000 0.000000
vn 1.000000 0.000000 0.000000
vn 1.000000 0.000000 0.000000
vn 1.000000 0.000000 0.000000
vn 1.000000 0.000000 0.000000
vn 1.000000 0.000000 0.000000
vn 1.000000 0.000000 0.000000
vn 1.000000 0.000000 0.000000
vn 1.000000 0.000000 0.000000
vn 1.000000 0.000000 0.000000
vn 0.000000 -1.000000 0.000000
vn 0.000000 -1.000000 0.000000
vn 0.000000 -1.000000 0.000000
vn 0.000000 -1.000000 0.000000
vn -0.749937 -0.000000 0.661509
vn -0.749937 -0.000000 0.661509
vn -0.749937 -0.000000 0.661509
vn -0.749937 -0.000000 0.661509
vn -0.796556 0.604565 -0.000000
vn -0.796556 0.604565 -0.000000
vn -0.796556 0.604565 -0.000000
vn -0.796556 0.604565 -0.000000
vn -0.749937 -0.000000 -0.661510
vn -0.749937 -0.000000 -0.661510
vn -0.749937 -0.000000 -0.661510
vn -0.749937 -0.000000 -0.661510
vn -0.796556 -0.604565 0.000000
vn -0.796556 -0.604565 0.000000
vn -0.796556 -0.604565 0.000000
vn -0.796556 -0.604565 0.000000
vn 0.749937 0.000000 -0.661509
vn 0.749937 0.000000 -0.661509
vn 0.749937 0.000000 -0.661509
vn 0.749937 0.000000 -0.661509
vn 0.796556 0.604565 -0.000000
vn 0.796556 0.604565 -0.000000
vn 0.796556 0.604565 -0.000000
vn 0.796556 0.604565 -0.000000
vn 0.749937 0.000000 0.661509
vn 0.749937 0.000000 0.661509
vn 0.749937 0.000000 0.661509
vn 0.749937 0.000000 0.661509
vn 0.796556 -0.604565 0.000000
vn 0.796556 -0.604565 0.000000
vn 0.796556 -0.604565 0.000000
vn 0.796556 -0.604565 0.000000
s off
g Wall_2 pan Base Tenple
usemtl Wall
f 1/1/1 2/2/2 12/16/3 9/12/4
f 3/50/5 4/4/6 24/31/7 17/23/8
f 10/13/9 11/14/10 8/8/11 7/11/12
f 20/27/13 21/28/14 2/2/15 1/9/16
f 2/2/17 21/28/18 22/29/19 12/16/20
f 19/25/21 20/26/22 1/1/23 9/12/24
f 17/22/25 18/24/26 14/18/27 3/3/28
f 5/5/29 6/52/30 16/20/31 13/17/32
f 15/19/33 23/30/34 24/31/35 4/4/36
f 14/18/37 15/19/38 4/4/39 3/3/40
f 18/24/41 19/25/42 9/12/43 14/18/44
f 9/12/45 12/16/46 15/19/47 14/18/48
f 12/16/49 22/29/50 23/30/51 15/19/52
f 13/17/53 16/20/54 11/14/55 10/13/56
f 13/17/57 27/35/58 28/36/59 5/5/60
f 10/13/61 26/34/62 27/35/63 13/17/64
f 7/11/65 25/32/66 26/34/67 10/13/68
f 7/7/69 8/10/70 32/41/71 25/33/72
f 31/40/73 32/41/74 8/10/75 11/15/76
f 30/39/77 31/40/78 11/15/79 16/21/80
f 29/38/81 30/39/82 16/21/83 6/6/84
f 28/37/85 29/38/86 6/6/87 5/51/88
f 26/34/89 25/32/90 20/26/91 19/25/92
f 34/42/93 33/43/94 35/44/95 36/45/96
f 28/36/97 27/35/98 18/24/99 17/22/100
f 17/23/101 24/31/102 29/38/103 28/37/104
f 24/31/105 23/30/106 30/39/107 29/38/108
f 38/46/109 37/47/110 39/48/111 40/49/112
f 22/29/113 21/28/114 32/41/115 31/40/116
f 25/33/117 32/41/118 21/28/119 20/27/120
f 27/35/121 26/34/122 33/43/123 34/42/124
f 26/34/125 19/25/126 35/44/127 33/43/128
f 19/25/129 18/24/130 36/45/131 35/44/132
f 18/24/133 27/35/134 34/42/135 36/45/136
f 23/30/137 22/29/138 37/47/139 38/46/140
f 22/29/141 31/40/142 39/48/143 37/47/144
f 31/40/145 30/39/146 40/49/147 39/48/148
f 30/39/149 23/30/150 38/46/151 40/49/152
