# This file uses centimeters as units for non-parametric coordinates.

mtllib Wall_Broken.mtl
g default
v -41.781815 0.017151 43.263899
v -40.887571 0.017151 43.263899
v -41.781815 7.405378 43.263899
v -40.887571 7.405378 43.263899
v -41.781815 7.405378 37.050486
v -40.887571 7.405378 37.050486
v -41.781815 0.017151 37.050486
v -40.887571 0.017151 37.050486
v -41.781815 0.541430 43.263899
v -41.781815 0.541427 37.050486
v -40.887571 0.541427 37.050486
v -40.887571 0.541430 43.263899
v -41.781815 6.616738 37.050486
v -41.781815 6.616738 43.263899
v -40.887571 6.616738 43.263899
v -40.887571 6.616738 37.050486
v -41.781815 7.405379 42.766442
v -41.781815 6.616738 42.766440
v -41.781815 0.541430 42.766442
v -41.781815 0.017151 42.766440
v -40.887571 0.017151 42.766440
v -40.887571 0.541430 42.766440
v -40.887571 6.616738 42.766442
v -40.887571 7.405379 42.766442
v -41.781815 0.017151 37.539063
v -41.781815 0.541427 37.539061
v -41.781815 6.616738 37.539063
v -41.781815 7.405379 37.539061
v -40.887571 7.405379 37.539061
v -40.887571 6.616738 37.539061
v -40.887571 0.541427 37.539063
v -40.887571 0.017151 37.539063
v -41.452586 0.975208 37.912300
v -41.452586 6.182958 37.912300
v -41.452586 0.975210 42.393204
v -41.452586 6.182958 42.393202
v -41.216800 0.975210 42.393202
v -41.216800 6.182958 42.393204
v -41.216800 0.975208 37.912300
v -41.216800 6.182958 37.912300
v -41.781815 7.405379 42.468907
v -41.781815 6.616738 42.075806
v -41.452586 6.182958 41.756096
v -41.452586 0.975209 39.160288
v -41.781815 0.541428 39.047560
v -41.781815 0.017151 38.786232
v -40.887571 0.017151 38.631371
v -40.887571 0.541428 38.892697
v -41.216800 0.975208 38.798561
v -41.216800 6.182958 41.095124
v -40.887571 6.616738 41.920946
v -40.887571 7.405379 42.314045
v -41.781815 0.017151 38.367998
v -41.781815 0.541428 38.541691
v -41.452586 0.975208 38.741780
v -41.452586 6.182958 40.467095
v -41.781815 6.616738 40.554428
v -41.781815 7.405379 40.815703
v -40.887571 7.405379 40.712775
v -40.887571 6.616738 40.451498
v -41.216800 6.182958 40.439955
v -41.216800 0.975208 38.714640
v -40.887571 0.541427 38.438761
v -40.887571 0.017151 38.265070
v -41.781815 2.169335 43.263899
v -41.781815 2.481321 42.766442
v -41.452586 2.652192 42.393204
v -41.452586 3.725820 40.531332
v -41.452586 4.296798 39.842215
v -41.452586 5.462429 37.912300
v -41.781815 5.759715 37.539063
v -41.781815 6.066131 37.050486
v -40.887571 6.058607 37.050486
v -40.887571 5.752191 37.539061
v -41.216800 5.460445 37.912300
v -41.216800 4.314657 39.820992
v -41.216800 3.751728 40.503414
v -41.216800 2.650208 42.393202
v -40.887571 2.473795 42.766440
v -40.887571 2.161811 43.263899
v -41.781815 6.182667 37.050486
v -41.781815 5.941105 37.539063
v -41.452586 5.614930 37.912300
v -41.452586 4.696005 39.974470
v -41.452586 4.245876 40.790556
v -41.452586 3.399482 42.393202
v -41.781815 3.356586 42.766442
v -41.781815 3.110632 43.263899
v -40.887571 3.104701 43.263899
v -40.887571 3.350653 42.766442
v -41.216800 3.397918 42.393202
v -41.216800 4.266301 40.759903
v -41.216800 4.710084 39.951996
v -41.216800 5.613365 37.912300
v -40.887571 5.935173 37.539061
v -40.887571 6.176736 37.050486
v -41.350777 4.322631 40.059403
v -41.350777 3.851749 40.309246
v -41.350777 1.858890 39.248949
v -41.350777 1.886986 39.171467
v -41.350777 4.221086 40.485615
v -41.350777 5.596774 40.801945
v -41.350777 4.611038 40.164545
v -41.350777 5.685286 40.556172
v -41.305945 3.485038 42.042204
v -41.369675 4.217377 40.664784
v -41.305945 2.934329 42.042204
v -41.369675 3.863281 40.448478
v -41.350777 4.179245 40.433467
v -41.350777 4.508106 40.162698
v -41.350777 4.034139 40.369992
v -41.350777 4.385090 40.089055
v -41.369675 4.555532 39.966535
v -41.305945 5.389508 38.280211
v -41.369675 4.349860 39.872967
v -41.305945 5.316145 38.263298
vt 0.042462 0.493651
vt 0.058350 0.422759
vt 0.563990 0.505605
vt 0.565045 0.445168
vt 0.561613 0.935305
vt 0.571671 0.026235
vt 0.025465 0.001992
vt 0.057637 0.995091
vt 0.001261 0.417934
vt 0.087105 0.007205
vt 0.057377 0.935136
vt 0.094675 0.496161
vt 0.093015 0.934256
vt 0.092790 0.994925
vt 0.122370 0.010828
vt 0.096927 0.428047
vt 0.506417 0.935072
vt 0.509383 0.505292
vt 0.510362 0.444053
vt 0.505980 0.997715
vt 0.519039 0.025143
vt 0.564760 0.539390
vt 0.628606 0.412803
vt 0.508544 0.539621
vt 0.092003 0.534443
vt 0.053298 0.534392
vt 0.003952 0.386177
vt 0.063396 0.389750
vt 0.099443 0.391828
vt 0.510511 0.409920
vt 0.566413 0.410901
vt 0.055700 0.902748
vt 0.022623 0.035677
vt 0.093185 0.900844
vt 0.507086 0.899358
vt 0.561685 0.901052
vt 0.631125 0.058890
vt 0.571343 0.058981
vt 0.518276 0.059334
vt 0.121291 0.042747
vt 0.084342 0.040407
vt 0.472603 0.871064
vt 0.123711 0.868305
vt 0.126845 0.564131
vt 0.477097 0.571025
vt 0.480215 0.377854
vt 0.135206 0.365717
vt 0.149354 0.074773
vt 0.484059 0.085910
vt 0.627343 0.447457
vt 0.631219 0.026354
vt 0.561284 0.998008
vt 0.565976 0.560258
vt 0.629291 0.391992
vt 0.512675 0.589462
vt 0.476686 0.612574
vt 0.123165 0.784969
vt 0.085337 0.792952
vt 0.048548 0.811056
vt 0.016922 0.122200
vt 0.077060 0.115334
vt 0.110641 0.135040
vt 0.146537 0.131780
vt 0.482002 0.294024
vt 0.516250 0.350115
vt 0.568019 0.379526
vt 0.049577 0.843026
vt 0.018156 0.093201
vt 0.085942 0.828282
vt 0.123271 0.813137
vt 0.476536 0.699089
vt 0.513728 0.693558
vt 0.568139 0.676317
vt 0.631684 0.277731
vt 0.571627 0.270127
vt 0.519460 0.251744
vt 0.483714 0.249847
vt 0.147503 0.125322
vt 0.112845 0.104879
vt 0.079332 0.090271
vt 0.208432 0.497716
vt 0.229672 0.531619
vt 0.240461 0.565772
vt 0.310812 0.692999
vt 0.348796 0.739805
vt 0.425965 0.870175
vt 0.446360 0.903568
vt 0.467444 0.936466
vt 0.466824 0.997287
vt 0.479205 0.022066
vt 0.457875 0.053056
vt 0.437002 0.084366
vt 0.359095 0.201570
vt 0.317766 0.250067
vt 0.245341 0.370334
vt 0.232738 0.403848
vt 0.209838 0.436022
vt 0.475703 0.936112
vt 0.458572 0.903372
vt 0.435895 0.870344
vt 0.375845 0.731145
vt 0.346114 0.675849
vt 0.290907 0.566803
vt 0.288711 0.533183
vt 0.272964 0.499320
vt 0.274302 0.439208
vt 0.291962 0.406520
vt 0.296621 0.373655
vt 0.357974 0.270684
vt 0.391266 0.215150
vt 0.448504 0.085858
vt 0.470125 0.053767
vt 0.475079 0.997473
vt 0.488001 0.022437
vt 0.327393 0.236368
vt 0.203260 0.161203
vt 0.204792 0.157225
vt 0.359332 0.220021
vt 0.444667 0.272331
vt 0.354305 0.250492
vt 0.381613 0.229355
vt 0.450704 0.257187
vt 0.350909 0.261987
vt 0.301578 0.349933
vt 0.266369 0.349235
vt 0.329541 0.248285
vt 0.374045 0.228640
vt 0.351098 0.246663
vt 0.340669 0.241823
vt 0.364440 0.222578
vt 0.432350 0.108376
vt 0.378120 0.214696
vt 0.365994 0.208498
vt 0.428409 0.107517
vn 0.000000 0.000000 1.000000
vn 0.000000 0.000000 1.000000
vn 0.000000 0.000000 1.000000
vn 0.000000 0.000000 1.000000
vn 0.000000 1.000000 0.000001
vn 0.000000 1.000000 0.000001
vn 0.000000 1.000000 0.000001
vn 0.000000 1.000000 0.000001
vn 0.000000 0.000000 -1.000000
vn 0.000000 0.000000 -1.000000
vn 0.000000 0.000000 -1.000000
vn 0.000000 0.000000 -1.000000
vn 0.000000 -1.000000 0.000000
vn 0.000000 -1.000000 0.000000
vn 0.000000 -1.000000 0.000000
vn 0.000000 -1.000000 0.000000
vn 1.000000 -0.000000 -0.000000
vn 1.000000 -0.000000 -0.000000
vn 1.000000 -0.000000 -0.000000
vn 1.000000 -0.000000 -0.000000
vn -1.000000 -0.000000 0.000000
vn -1.000000 -0.000000 0.000000
vn -1.000000 -0.000000 0.000000
vn -1.000000 -0.000000 0.000000
vn -1.000000 0.000000 0.000000
vn -1.000000 0.000000 0.000000
vn -1.000000 0.000000 0.000000
vn -1.000000 0.000000 0.000000
vn 0.000000 0.000000 -1.000000
vn 0.000000 0.000000 -1.000000
vn 0.000000 0.000000 -1.000000
vn 0.000000 0.000000 -1.000000
vn 1.000000 0.000000 0.000000
vn 1.000000 0.000000 0.000000
vn 1.000000 0.000000 0.000000
vn 1.000000 0.000000 0.000000
vn 0.000000 0.000000 1.000000
vn 0.000000 0.000000 1.000000
vn 0.000000 0.000000 1.000000
vn 0.000000 0.000000 1.000000
vn -1.000000 0.000000 -0.000000
vn -1.000000 0.000000 -0.000000
vn -1.000000 0.000000 -0.000000
vn -1.000000 0.000000 -0.000000
vn 0.000000 0.000000 1.000000
vn 0.000000 0.000000 1.000000
vn 0.000000 0.000000 1.000000
vn 0.000000 0.000000 1.000000
vn 1.000000 0.000000 -0.000000
vn 1.000000 0.000000 -0.000000
vn 1.000000 0.000000 -0.000000
vn 1.000000 0.000000 -0.000000
vn 0.000000 0.000000 -1.000000
vn 0.000000 0.000000 -1.000000
vn 0.000000 0.000000 -1.000000
vn 0.000000 0.000000 -1.000000
vn -1.000000 0.000000 0.000000
vn -1.000000 0.000000 0.000000
vn -1.000000 0.000000 0.000000
vn -1.000000 0.000000 0.000000
vn -1.000000 0.000000 0.000000
vn -1.000000 0.000000 0.000000
vn -1.000000 0.000000 0.000000
vn -1.000000 0.000000 0.000000
vn -1.000000 0.000000 0.000000
vn -1.000000 0.000000 0.000000
vn -1.000000 0.000000 0.000000
vn -1.000000 0.000000 0.000000
vn 0.000000 -1.000000 -0.000001
vn 0.000000 -1.000000 -0.000001
vn 0.000000 -1.000000 -0.000001
vn 0.000000 -1.000000 -0.000001
vn 1.000000 0.000000 0.000000
vn 1.000000 0.000000 0.000000
vn 1.000000 0.000000 0.000000
vn 1.000000 0.000000 0.000000
vn 1.000000 0.000000 0.000000
vn 1.000000 0.000000 0.000000
vn 1.000000 0.000000 0.000000
vn 1.000000 0.000000 0.000000
vn 1.000000 0.000000 0.000000
vn 1.000000 0.000000 0.000000
vn 1.000000 0.000000 0.000000
vn 1.000000 0.000000 0.000000
vn 0.000000 1.000000 -0.000001
vn 0.000000 1.000000 -0.000001
vn 0.000000 1.000000 -0.000001
vn 0.000000 1.000000 -0.000001
vn -1.000000 -0.000000 -0.000000
vn -1.000000 -0.000000 -0.000000
vn -1.000000 -0.000000 -0.000000
vn -1.000000 -0.000000 -0.000000
vn -1.000000 0.000000 -0.000000
vn -1.000000 0.000000 -0.000000
vn -1.000000 0.000000 -0.000000
vn -1.000000 0.000000 -0.000000
vn -1.000000 -0.000000 0.000000
vn -1.000000 -0.000000 0.000000
vn -1.000000 -0.000000 0.000000
vn -1.000000 -0.000000 0.000000
vn 0.000000 1.000000 0.000000
vn 0.000000 1.000000 0.000000
vn 0.000000 1.000000 0.000000
vn 0.000000 1.000000 0.000000
vn 1.000000 0.000000 0.000000
vn 1.000000 0.000000 0.000000
vn 1.000000 0.000000 0.000000
vn 1.000000 0.000000 0.000000
vn 1.000000 0.000000 -0.000000
vn 1.000000 0.000000 -0.000000
vn 1.000000 0.000000 -0.000000
vn 1.000000 0.000000 -0.000000
vn 1.000000 0.000000 0.000000
vn 1.000000 0.000000 0.000000
vn 1.000000 0.000000 0.000000
vn 1.000000 0.000000 0.000000
vn 0.000000 -1.000000 0.000000
vn 0.000000 -1.000000 0.000000
vn 0.000000 -1.000000 0.000000
vn 0.000000 -1.000000 0.000000
vn -0.749938 -0.000000 0.661509
vn -0.749937 -0.000000 0.661509
vn -0.749937 -0.000000 0.661509
vn -0.749937 -0.000000 0.661509
vn -0.796556 0.604565 -0.000000
vn -0.796555 0.604565 -0.000000
vn -0.796555 0.604565 -0.000000
vn -0.796556 0.604565 -0.000000
vn -0.749937 0.000000 -0.661510
vn -0.749937 0.000000 -0.661510
vn -0.749937 0.000000 -0.661510
vn -0.749937 0.000000 -0.661510
vn -0.796556 -0.604565 0.000000
vn -0.796556 -0.604565 0.000000
vn -0.796556 -0.604565 0.000000
vn -0.796556 -0.604565 0.000000
vn 0.749936 0.000000 -0.661510
vn 0.749936 0.000000 -0.661510
vn 0.749936 0.000000 -0.661510
vn 0.749936 0.000000 -0.661510
vn 0.796556 0.604565 -0.000000
vn 0.796556 0.604565 -0.000000
vn 0.796556 0.604565 -0.000000
vn 0.796556 0.604565 -0.000000
vn 0.749938 0.000000 0.661509
vn 0.749938 0.000000 0.661509
vn 0.749938 0.000000 0.661509
vn 0.749938 0.000000 0.661509
vn 0.796556 -0.604565 0.000000
vn 0.796556 -0.604565 0.000000
vn 0.796556 -0.604565 0.000000
vn 0.796556 -0.604565 0.000000
vn -1.000000 0.000000 0.000000
vn -1.000000 0.000000 0.000000
vn -1.000000 0.000000 0.000000
vn -1.000000 0.000000 0.000000
vn -0.796556 -0.604565 0.000000
vn -0.796556 -0.604565 0.000000
vn -0.796556 -0.604565 0.000000
vn -0.796556 -0.604565 0.000000
vn -1.000000 0.000000 -0.000000
vn -1.000000 0.000000 -0.000000
vn -1.000000 0.000000 -0.000000
vn -1.000000 0.000000 -0.000000
vn -0.796556 0.604565 -0.000000
vn -0.796556 0.604565 -0.000000
vn -0.796556 0.604565 -0.000000
vn -0.796556 0.604565 -0.000000
vn -1.000000 -0.000000 0.000000
vn -1.000000 -0.000000 0.000000
vn -1.000000 -0.000000 0.000000
vn -1.000000 -0.000000 0.000000
vn 0.000000 -1.000000 0.000000
vn 0.000000 -1.000000 0.000000
vn 0.000000 -1.000000 0.000000
vn 0.000000 -1.000000 0.000000
vn 1.000000 0.000000 0.000000
vn 1.000000 0.000000 0.000000
vn 1.000000 0.000000 0.000000
vn 1.000000 0.000000 0.000000
vn 0.796556 0.604565 -0.000000
vn 0.796556 0.604565 -0.000000
vn 0.796556 0.604565 -0.000000
vn 0.796556 0.604565 -0.000000
vn 1.000000 0.000000 0.000000
vn 1.000000 0.000000 0.000000
vn 1.000000 0.000000 0.000000
vn 1.000000 0.000000 0.000000
vn 0.796556 -0.604565 0.000000
vn 0.796556 -0.604565 0.000000
vn 0.796556 -0.604565 0.000000
vn 0.796556 -0.604565 0.000000
vn 1.000000 0.000000 -0.000000
vn 1.000000 0.000000 -0.000000
vn 1.000000 0.000000 -0.000000
vn 1.000000 0.000000 -0.000000
vn -0.000000 1.000000 -0.000000
vn -0.000000 1.000000 -0.000000
vn -0.000000 1.000000 -0.000000
vn -0.000000 1.000000 -0.000000
vn -1.000000 -0.000000 0.000000
vn -1.000000 -0.000000 0.000000
vn -1.000000 -0.000000 0.000000
vn -1.000000 -0.000000 0.000000
vn -0.796555 0.604565 -0.000000
vn -0.796555 0.604566 -0.000000
vn -0.796555 0.604565 -0.000000
vn -0.796555 0.604565 -0.000000
vn -1.000000 0.000000 0.000000
vn -1.000000 0.000000 0.000000
vn -1.000000 0.000000 0.000000
vn -1.000000 0.000000 0.000000
vn -0.796556 -0.604565 0.000000
vn -0.796556 -0.604565 0.000000
vn -0.796556 -0.604565 0.000000
vn -0.796556 -0.604565 0.000000
vn -1.000000 0.000000 0.000000
vn -1.000000 0.000000 0.000000
vn -1.000000 0.000000 0.000000
vn -1.000000 0.000000 0.000000
vn 0.000000 1.000000 0.000000
vn 0.000000 1.000000 0.000000
vn 0.000000 1.000000 0.000000
vn 0.000000 1.000000 0.000000
vn 1.000000 0.000000 0.000000
vn 1.000000 0.000000 0.000000
vn 1.000000 0.000000 0.000000
vn 1.000000 0.000000 0.000000
vn 0.796556 -0.604565 0.000000
vn 0.796556 -0.604565 0.000000
vn 0.796556 -0.604565 0.000000
vn 0.796556 -0.604565 0.000000
vn 1.000000 -0.000000 0.000000
vn 1.000000 -0.000000 0.000000
vn 1.000000 -0.000000 0.000000
vn 1.000000 -0.000000 0.000000
vn 0.796556 0.604565 -0.000000
vn 0.796556 0.604565 -0.000000
vn 0.796556 0.604565 -0.000000
vn 0.796556 0.604565 -0.000000
vn 1.000000 0.000000 0.000000
vn 1.000000 0.000000 0.000000
vn 1.000000 0.000000 0.000000
vn 1.000000 0.000000 0.000000
vn 0.000000 -1.000000 0.000000
vn 0.000000 -1.000000 0.000000
vn 0.000000 -1.000000 0.000000
vn 0.000000 -1.000000 0.000000
vn -1.000000 0.000000 -0.000000
vn -1.000000 0.000000 -0.000000
vn -1.000000 0.000000 -0.000000
vn -1.000000 0.000000 -0.000000
vn -0.749937 -0.000000 -0.661509
vn -0.749937 -0.000000 -0.661509
vn -0.749937 -0.000000 -0.661509
vn -0.749937 -0.000000 -0.661509
vn -1.000000 0.000000 -0.000000
vn -1.000000 0.000000 -0.000000
vn -1.000000 0.000000 -0.000000
vn -1.000000 0.000000 -0.000000
vn -1.000000 0.000000 0.000000
vn -1.000000 0.000000 0.000000
vn -1.000000 0.000000 0.000000
vn -1.000000 0.000000 0.000000
vn -1.000000 0.000000 0.000000
vn -1.000000 0.000000 0.000000
vn -1.000000 0.000000 0.000000
vn -1.000000 0.000000 0.000000
vn -0.749936 0.000000 0.661510
vn -0.749937 0.000000 0.661510
vn -0.749937 0.000000 0.661510
vn -0.749937 0.000000 0.661510
vn -1.000000 0.000000 0.000000
vn -1.000000 0.000000 0.000000
vn -1.000000 0.000000 0.000000
vn -1.000000 0.000000 0.000000
vn 0.000000 0.000000 -1.000000
vn 0.000000 0.000000 -1.000000
vn 0.000000 0.000000 -1.000000
vn 0.000000 0.000000 -1.000000
vn 1.000000 0.000000 0.000000
vn 1.000000 0.000000 0.000000
vn 1.000000 0.000000 0.000000
vn 1.000000 0.000000 0.000000
vn 0.749939 0.000000 0.661508
vn 0.749938 0.000000 0.661508
vn 0.749938 0.000000 0.661508
vn 0.749938 0.000000 0.661508
vn 1.000000 0.000000 0.000000
vn 1.000000 0.000000 0.000000
vn 1.000000 0.000000 0.000000
vn 1.000000 0.000000 0.000000
vn 1.000000 0.000000 0.000000
vn 1.000000 0.000000 0.000000
vn 1.000000 0.000000 0.000000
vn 1.000000 0.000000 0.000000
vn 1.000000 0.000000 -0.000000
vn 1.000000 0.000000 -0.000000
vn 1.000000 0.000000 -0.000000
vn 1.000000 0.000000 -0.000000
vn 0.749937 0.000000 -0.661509
vn 0.749937 0.000000 -0.661509
vn 0.749937 0.000000 -0.661509
vn 0.749937 0.000000 -0.661509
vn 1.000000 0.000000 -0.000000
vn 1.000000 0.000000 -0.000000
vn 1.000000 0.000000 -0.000000
vn 1.000000 0.000000 -0.000000
vn 0.000000 0.000000 1.000000
vn 0.000000 0.000000 1.000000
vn 0.000000 0.000000 1.000000
vn 0.000000 0.000000 1.000000
vn -1.000000 0.000000 0.000000
vn -1.000000 0.000000 0.000000
vn -1.000000 0.000000 0.000000
vn -1.000000 0.000000 0.000000
vn -0.749937 0.000000 0.661510
vn -0.749937 0.000000 0.661510
vn -0.749937 0.000000 0.661510
vn -0.749937 0.000000 0.661510
vn -1.000000 0.000000 0.000000
vn -1.000000 0.000000 0.000000
vn -1.000000 0.000000 0.000000
vn -1.000000 0.000000 0.000000
vn -1.000000 0.000000 0.000000
vn -1.000000 0.000000 0.000000
vn -1.000000 0.000000 0.000000
vn -1.000000 0.000000 0.000000
vn -1.000000 -0.000000 -0.000000
vn -1.000000 -0.000000 -0.000000
vn -1.000000 -0.000000 -0.000000
vn -1.000000 -0.000000 -0.000000
vn -0.749937 -0.000001 -0.661509
vn -0.749937 -0.000001 -0.661509
vn -0.749937 -0.000001 -0.661509
vn -0.749937 -0.000001 -0.661509
vn -1.000000 0.000000 -0.000000
vn -1.000000 0.000000 -0.000000
vn -1.000000 0.000000 -0.000000
vn -1.000000 0.000000 -0.000000
vn 0.000000 0.000000 1.000000
vn 0.000000 0.000000 1.000000
vn 0.000000 0.000000 1.000000
vn 0.000000 0.000000 1.000000
vn 1.000000 0.000000 -0.000000
vn 1.000000 0.000000 -0.000000
vn 1.000000 0.000000 -0.000000
vn 1.000000 0.000000 -0.000000
vn 0.749938 0.000001 -0.661509
vn 0.749938 0.000001 -0.661509
vn 0.749937 0.000001 -0.661509
vn 0.749937 0.000001 -0.661509
vn 0.999244 0.009040 -0.037812
vn 0.999244 0.009040 -0.037812
vn 0.999244 0.009040 -0.037812
vn 0.999244 0.009040 -0.037812
vn 1.000000 0.000000 0.000000
vn 1.000000 0.000000 0.000000
vn 1.000000 0.000000 0.000000
vn 1.000000 0.000000 0.000000
vn 0.999416 -0.012581 0.031776
vn 0.999416 -0.012581 0.031776
vn 0.999416 -0.012581 0.031776
vn 0.999416 -0.012581 0.031776
vn 0.749938 0.000000 0.661508
vn 0.749938 0.000000 0.661508
vn 0.749938 0.000000 0.661508
vn 0.749938 0.000000 0.661508
vn 1.000000 0.000000 0.000000
vn 1.000000 0.000000 0.000000
vn 1.000000 0.000000 0.000000
vn 1.000000 0.000000 0.000000
vn 0.000000 0.000000 -1.000000
vn 0.000000 0.000000 -1.000000
vn 0.000000 0.000000 -1.000000
vn 0.000000 0.000000 -1.000000
vn 0.712043 0.352170 -0.607430
vn 0.712043 0.352170 -0.607430
vn 0.712043 0.352170 -0.607430
vn 0.712043 0.352170 -0.607430
vn 0.990445 0.135864 0.023650
vn 0.990445 0.135864 0.023650
vn 0.990445 0.135864 0.023650
vn 0.990445 0.135864 0.023650
vn 0.799733 -0.195963 0.567473
vn 0.799733 -0.195963 0.567473
vn 0.799733 -0.195963 0.567473
vn 0.799733 -0.195963 0.567473
vn 0.850941 0.101971 -0.515268
vn 0.850941 0.101971 -0.515268
vn 0.850941 0.101971 -0.515268
vn 0.850941 0.101971 -0.515268
vn 0.883557 -0.152866 0.442672
vn 0.883557 -0.152866 0.442672
vn 0.883557 -0.152866 0.442672
vn 0.883557 -0.152866 0.442672
vn 0.971388 -0.236359 -0.023221
vn 0.971388 -0.236359 -0.023221
vn 0.971388 -0.236359 -0.023221
vn 0.971388 -0.236359 -0.023221
vn 0.993701 -0.054789 0.097758
vn 0.993701 -0.054789 0.097758
vn 0.993701 -0.054789 0.097758
vn 0.993701 -0.054789 0.097758
vn 0.994905 0.045715 -0.089862
vn 0.994904 0.045715 -0.089862
vn 0.994904 0.045715 -0.089862
vn 0.994904 0.045715 -0.089862
vn 0.599874 -0.701119 -0.385465
vn 0.599874 -0.701119 -0.385465
vn 0.599874 -0.701119 -0.385465
vn 0.599874 -0.701119 -0.385465
vn 0.969229 0.000000 -0.246162
vn 0.969229 0.000000 -0.246162
vn 0.969229 0.000000 -0.246162
vn 0.969229 0.000000 -0.246162
vn 0.507470 0.748445 0.426970
vn 0.507470 0.748445 0.426970
vn 0.507470 0.748445 0.426970
vn 0.507470 0.748445 0.426970
vn 1.000000 0.000001 0.000001
vn 1.000000 0.000001 0.000001
vn 1.000000 0.000001 0.000001
vn 1.000000 0.000001 0.000001
vn 1.000000 -0.000001 -0.000001
vn 1.000000 -0.000001 -0.000001
vn 1.000000 -0.000001 -0.000001
vn 1.000000 -0.000001 -0.000001
vn 0.612268 -0.720548 -0.325483
vn 0.612268 -0.720548 -0.325483
vn 0.612268 -0.720548 -0.325483
vn 0.612267 -0.720548 -0.325483
vn 0.434864 0.768569 0.469249
vn 0.434865 0.768569 0.469249
vn 0.434864 0.768569 0.469249
vn 0.434864 0.768569 0.469249
vn 0.972492 -0.017362 0.232289
vn 0.972492 -0.017362 0.232289
vn 0.972492 -0.017362 0.232289
vn 0.972492 -0.017362 0.232289
vn 0.884853 0.458576 0.082119
vn 0.884853 0.458576 0.082119
vn 0.884853 0.458576 0.082119
vn 0.884853 0.458576 0.082119
vn 0.486377 -0.873117 0.033227
vn 0.486377 -0.873117 0.033227
vn 0.486377 -0.873117 0.033227
vn 0.486377 -0.873117 0.033227
vn 0.859605 -0.507401 0.060196
vn 0.859605 -0.507401 0.060196
vn 0.859605 -0.507401 0.060196
vn 0.859605 -0.507401 0.060196
vn 0.561181 0.825242 0.063645
vn 0.561181 0.825242 0.063645
vn 0.561181 0.825242 0.063645
vn 0.561181 0.825242 0.063645
s off
g Wall_B pan Baseextra Tenple
usemtl Wall_Broken
f 1/1/1 2/2/2 12/16/3 9/12/4
f 3/50/5 4/4/6 24/31/7 17/23/8
f 10/13/9 11/14/10 8/8/11 7/11/12
f 20/27/13 21/28/14 2/2/15 1/9/16
f 2/2/17 21/28/18 22/29/19 12/16/20
f 19/25/21 20/26/22 1/1/23 9/12/24
f 17/22/25 18/24/26 14/18/27 3/3/28
f 5/5/29 6/52/30 16/20/31 13/17/32
f 15/19/33 23/30/34 24/31/35 4/4/36
f 14/18/37 15/19/38 4/4/39 3/3/40
f 65/81/41 66/82/42 19/25/43 9/12/44
f 9/12/45 12/16/46 80/97/47 65/81/48
f 12/16/49 22/29/50 79/96/51 80/97/52
f 72/88/53 73/89/54 11/14/55 10/13/56
f 13/17/57 27/35/58 28/36/59 5/5/60
f 10/13/61 26/34/62 71/87/63 72/88/64
f 7/11/65 25/32/66 26/34/67 10/13/68
f 7/7/69 8/10/70 32/41/71 25/33/72
f 31/40/73 32/41/74 8/10/75 11/15/76
f 73/90/77 74/91/78 31/40/79 11/15/80
f 29/38/81 30/39/82 16/21/83 6/6/84
f 28/37/85 29/38/86 6/6/87 5/51/88
f 45/58/89 46/59/90 20/26/91 19/25/92
f 67/83/93 68/84/94 44/57/95 35/44/96
f 41/53/97 42/55/98 18/24/99 17/22/100
f 17/23/101 24/31/102 52/66/103 41/54/104
f 24/31/105 23/30/106 51/65/107 52/66/108
f 77/94/109 78/95/110 37/47/111 49/63/112
f 22/29/113 21/28/114 47/61/115 48/62/116
f 46/60/117 47/61/118 21/28/119 20/27/120
f 70/86/121 71/87/122 26/34/123 33/43/124
f 44/57/125 45/58/126 19/25/127 35/44/128
f 19/25/129 66/82/130 67/83/131 35/44/132
f 18/24/133 42/55/134 43/56/135 36/45/136
f 78/95/137 79/96/138 22/29/139 37/47/140
f 22/29/141 48/62/142 49/63/143 37/47/144
f 31/40/145 74/91/146 75/92/147 39/48/148
f 50/64/149 51/65/150 23/30/151 38/46/152
f 28/36/153 27/35/154 57/72/155 58/73/156
f 56/71/157 57/72/158 27/35/159 34/42/160
f 69/85/161 70/86/162 33/43/163 55/70/164
f 26/34/165 54/69/166 55/70/167 33/43/168
f 26/34/169 25/32/170 53/67/171 54/69/172
f 25/33/173 32/41/174 64/80/175 53/68/176
f 63/79/177 64/80/178 32/41/179 31/40/180
f 62/78/181 63/79/182 31/40/183 39/48/184
f 75/92/185 76/93/186 62/78/187 39/48/188
f 30/39/189 60/76/190 61/77/191 40/49/192
f 59/75/193 60/76/194 30/39/195 29/38/196
f 58/74/197 59/75/198 29/38/199 28/37/200
f 54/69/201 53/67/202 46/59/203 45/58/204
f 55/70/205 54/69/206 45/58/207 44/57/208
f 68/84/209 69/85/210 55/70/211 44/57/212
f 43/56/213 42/55/214 57/72/215 56/71/216
f 58/73/217 57/72/218 42/55/219 41/53/220
f 41/54/221 52/66/222 59/75/223 58/74/224
f 52/66/225 51/65/226 60/76/227 59/75/228
f 61/77/229 60/76/230 51/65/231 50/64/232
f 97/118/233 98/115/234 99/116/235 100/117/236
f 49/63/237 48/62/238 63/79/239 62/78/240
f 48/62/241 47/61/242 64/80/243 63/79/244
f 53/68/245 64/80/246 47/61/247 46/60/248
f 18/24/249 87/104/250 88/105/251 14/18/252
f 86/103/253 87/104/254 18/24/255 36/45/256
f 43/56/257 85/102/258 86/103/259 36/45/260
f 56/71/261 84/101/262 85/102/263 43/56/264
f 34/42/265 83/100/266 84/101/267 56/71/268
f 27/35/269 82/99/270 83/100/271 34/42/272
f 81/98/273 82/99/274 27/35/275 13/17/276
f 13/17/277 16/20/278 96/113/279 81/98/280
f 30/39/281 95/112/282 96/114/283 16/21/284
f 94/111/285 95/112/286 30/39/287 40/49/288
f 61/77/289 93/110/290 94/111/291 40/49/292
f 102/119/293 101/120/294 103/121/295 104/122/296
f 38/46/297 91/108/298 92/109/299 50/64/300
f 23/30/301 90/107/302 91/108/303 38/46/304
f 89/106/305 90/107/306 23/30/307 15/19/308
f 88/105/309 89/106/310 15/19/311 14/18/312
f 72/88/313 71/87/314 82/99/315 81/98/316
f 83/100/317 82/99/318 71/87/319 70/86/320
f 84/101/321 83/100/322 70/86/323 69/85/324
f 85/102/325 84/101/326 69/85/327 68/84/328
f 86/103/329 85/102/330 68/84/331 67/83/332
f 67/83/333 66/82/334 87/104/335 86/103/336
f 88/105/337 87/104/338 66/82/339 65/81/340
f 65/81/341 80/97/342 89/106/343 88/105/344
f 80/97/345 79/96/346 90/107/347 89/106/348
f 91/108/349 90/107/350 79/96/351 78/95/352
f 106/123/353 105/124/354 107/125/355 108/126/356
f 110/127/357 109/128/358 111/129/359 112/130/360
f 114/131/361 113/132/362 115/133/363 116/134/364
f 75/92/365 74/91/366 95/112/367 94/111/368
f 96/114/369 95/112/370 74/91/371 73/90/372
f 81/98/373 96/113/374 73/89/375 72/88/376
f 77/94/377 49/63/378 99/116/379 98/115/380
f 49/63/381 62/78/382 100/117/383 99/116/384
f 62/78/385 76/93/386 97/118/387 100/117/388
f 50/64/389 92/109/390 101/120/391 102/119/392
f 93/110/393 61/77/394 104/122/395 103/121/396
f 61/77/397 50/64/398 102/119/399 104/122/400
f 106/123/401 108/126/402 111/129/403 109/128/404
f 115/133/405 113/132/406 110/127/407 112/130/408
f 92/109/409 91/108/410 105/124/411 106/123/412
f 91/108/413 78/95/414 107/125/415 105/124/416
f 78/95/417 77/94/418 108/126/419 107/125/420
f 103/121/421 101/120/422 109/128/423 110/127/424
f 98/115/425 97/118/426 112/130/427 111/129/428
f 94/111/429 93/110/430 113/132/431 114/131/432
f 76/93/433 75/92/434 116/134/435 115/133/436
f 75/92/437 94/111/438 114/131/439 116/134/440
f 77/94/441 98/115/442 111/129/443 108/126/444
f 101/120/445 92/109/446 106/123/447 109/128/448
f 93/110/449 103/121/450 110/127/451 113/132/452
f 97/118/453 76/93/454 115/133/455 112/130/456
