# Blender 4.5.2 LTS
# www.blender.org
mtllib Little.mtl
o Little
v 0.152244 -0.104010 -0.031883
v 0.111021 0.157117 0.009536
v -0.001152 -0.103520 -0.008564
v -0.079442 0.126709 0.010242
v -0.066268 -0.103312 -0.007839
v -0.107444 0.070437 0.008117
v 0.162621 -0.036577 0.087560
v 0.014809 -0.048146 0.085928
v -0.081633 -0.072308 0.086881
v -0.210064 -0.102852 -0.005359
v -0.085581 -0.077438 -0.075906
v -0.006438 -0.048078 -0.083788
v 0.133565 -0.036325 -0.099768
v 0.140951 0.048715 0.096460
v 0.121172 0.109439 0.079031
v -0.010711 0.027050 0.108817
v -0.025391 0.110800 0.086724
v -0.089708 -0.005924 0.109482
v -0.100353 0.059245 0.091582
v -0.250604 0.013634 0.007124
v -0.234831 -0.052537 -0.000625
v -0.100353 0.059245 -0.054014
v -0.092632 -0.005915 -0.074927
v -0.025442 0.110990 -0.055471
v -0.020782 0.027082 -0.077694
v 0.119112 0.109445 -0.071087
v 0.125678 0.048764 -0.109482
v 0.237970 -0.036694 -0.021880
v 0.228362 0.048435 -0.009371
v 0.192411 0.109211 0.000361
vn 0.0673 -0.8689 0.4905
vn -0.0572 -0.7615 -0.6456
vn 0.1379 -0.9012 0.4110
vn 0.1416 -0.8503 -0.5069
vn 0.0023 -0.9503 0.3114
vn -0.0091 -0.9356 -0.3531
vn -0.0673 0.9035 0.4232
vn -0.6686 0.6477 0.3653
vn -0.3653 0.9180 0.1541
vn -0.3597 0.9102 -0.2050
vn -0.6486 0.6207 -0.4406
vn -0.0983 0.8973 -0.4304
vn 0.0459 0.2738 0.9607
vn -0.0985 0.2424 0.9652
vn -0.5400 -0.0437 0.8405
vn -0.4468 0.1137 -0.8874
vn -0.1774 0.2599 -0.9492
vn -0.1742 0.3692 -0.9129
vn 0.0550 -0.1784 0.9824
vn 0.1008 -0.2826 0.9539
vn -0.5001 -0.3284 0.8013
vn -0.4594 -0.0785 -0.8848
vn -0.0849 0.0356 -0.9957
vn -0.1593 -0.0444 -0.9862
vn 0.4914 0.7500 0.4428
vn 0.7957 0.0705 0.6015
vn 0.7071 0.3628 0.6070
vn 0.5448 -0.7496 0.3759
vn 0.5023 -0.5393 -0.6759
vn 0.6499 0.0792 -0.7558
vn 0.6180 0.4670 -0.6324
vn 0.4215 0.7985 -0.4298
vt 0.505877 0.186213
vt 0.551195 0.415075
vt 0.314898 0.426744
vt 0.266485 0.314109
vt 0.769386 0.810804
vt 0.663273 0.984994
vt 0.518090 0.796872
vt 0.673558 0.722664
vt 0.419731 0.103362
vt 0.250312 0.224965
vt 0.619095 0.662608
vt 0.494232 0.704439
vt 0.233403 0.001968
vt 0.498096 0.519935
vt 0.001992 0.342786
vt 0.140816 0.352571
vt 0.209002 0.460878
vt 0.127924 0.549269
vt 0.003916 0.248845
vt 0.141567 0.276444
vt 0.076678 0.059903
vt 0.786297 0.470143
vt 0.736313 0.576785
vt 0.605487 0.409821
vt 0.865581 0.504969
vt 0.813007 0.628090
vt 0.998008 0.698399
vt 0.867351 0.752714
vt 0.253748 0.437961
vt 0.205177 0.326732
vt 0.199037 0.265229
vt 0.156516 0.019380
vt 0.541510 0.464818
vt 0.678495 0.627225
vt 0.736597 0.673763
vt 0.810562 0.773519
vt 0.256662 0.602508
vt 0.467299 0.550827
vt 0.354279 0.600034
vt 0.845196 0.985923
vt 0.938466 0.912176
vt 0.989635 0.827551
s 1
usemtl Little
f 3/1/1 1/2/1 7/3/1 8/4/1
f 13/5/2 1/6/2 3/7/2 12/8/2
f 5/9/3 3/1/3 8/4/3 9/10/3
f 11/11/4 12/8/4 3/7/4 5/12/4
f 5/9/5 9/10/5 10/13/5
f 11/11/6 5/12/6 10/14/6
f 4/15/7 17/16/7 15/17/7 2/18/7
f 6/19/8 19/20/8 17/16/8 4/15/8
f 6/19/9 20/21/9 19/20/9
f 6/22/10 22/23/10 20/24/10
f 6/22/11 4/25/11 24/26/11 22/23/11
f 4/25/12 2/27/12 26/28/12 24/26/12
f 14/29/13 15/17/13 17/16/13 16/30/13
f 16/30/14 17/16/14 19/20/14 18/31/14
f 18/31/15 19/20/15 20/21/15 21/32/15
f 21/33/16 20/24/16 22/23/16 23/34/16
f 23/34/17 22/23/17 24/26/17 25/35/17
f 25/35/18 24/26/18 26/28/18 27/36/18
f 8/4/19 7/3/19 14/29/19 16/30/19
f 9/10/20 8/4/20 16/30/20 18/31/20
f 10/13/21 9/10/21 18/31/21 21/32/21
f 11/11/22 10/14/22 21/33/22 23/34/22
f 23/34/23 25/35/23 12/8/23 11/11/23
f 13/5/24 12/8/24 25/35/24 27/36/24
f 2/18/25 15/17/25 30/37/25
f 14/29/26 7/3/26 28/38/26 29/39/26
f 15/17/27 14/29/27 29/39/27 30/37/27
f 7/3/28 1/2/28 28/38/28
f 1/6/29 13/5/29 28/40/29
f 29/41/30 28/40/30 13/5/30 27/36/30
f 30/42/31 29/41/31 27/36/31 26/28/31
f 2/27/32 30/42/32 26/28/32
