# Blender 4.5.2 LTS
# www.blender.org
mtllib MediumFL.mtl
o MediumFL
v -0.146819 0.032002 -0.064521
v -0.141072 0.043567 -0.069045
v -0.137561 0.052443 -0.061130
v -0.136122 0.065730 -0.065834
v -0.130430 0.064745 -0.078817
v -0.133094 0.057331 -0.088832
v -0.132557 0.056607 -0.099895
v -0.140473 0.049082 -0.108950
v -0.141815 0.036166 -0.103286
v -0.143452 0.034463 -0.092625
v -0.148946 0.023864 -0.085599
v -0.155059 0.023917 -0.072770
v -0.156112 0.036333 -0.065255
v -0.150365 0.047898 -0.069779
v -0.146854 0.056774 -0.061864
v -0.145415 0.070061 -0.066569
v -0.139723 0.069076 -0.079552
v -0.142387 0.061661 -0.089566
v -0.141850 0.060938 -0.100630
v -0.149766 0.053413 -0.109684
v -0.151108 0.040497 -0.104020
v -0.152745 0.038793 -0.093360
v -0.158239 0.028194 -0.086333
v -0.164352 0.028248 -0.073504
v -0.140202 0.043152 -0.082504
v -0.149424 0.047603 -0.083428
v -0.114218 0.116896 -0.003155
v -0.102308 0.123118 -0.005745
v -0.096502 0.129652 0.003050
v -0.087126 0.139568 -0.000757
v -0.080064 0.134281 -0.011896
v -0.083918 0.128296 -0.022466
v -0.081341 0.126154 -0.033047
v -0.089738 0.122945 -0.044022
v -0.099056 0.113398 -0.039252
v -0.103736 0.114026 -0.029407
v -0.115494 0.108769 -0.024306
v -0.123363 0.113476 -0.013449
v -0.119273 0.125348 -0.006097
v -0.107363 0.131570 -0.008687
v -0.101558 0.138104 0.000107
v -0.092182 0.148021 -0.003699
v -0.085119 0.142733 -0.014839
v -0.088973 0.136748 -0.025408
v -0.086396 0.134606 -0.035990
v -0.094793 0.131397 -0.046964
v -0.104111 0.121851 -0.042195
v -0.108792 0.122478 -0.032349
v -0.120550 0.117222 -0.027248
v -0.128419 0.121929 -0.016392
v -0.098747 0.120790 -0.018550
v -0.103637 0.129284 -0.021655
v -0.091658 0.054324 0.145030
v -0.088347 0.065178 0.137383
v -0.080231 0.073608 0.141484
v -0.080422 0.086652 0.135956
v -0.083011 0.085041 0.122078
v -0.091458 0.077968 0.115673
v -0.097220 0.077190 0.106218
v -0.109484 0.070592 0.103515
v -0.108647 0.057906 0.109764
v -0.104242 0.056395 0.119641
v -0.105866 0.046473 0.129171
v -0.103797 0.047206 0.143211
v -0.099348 0.059662 0.149277
v -0.096037 0.070516 0.141630
v -0.087921 0.078946 0.145730
v -0.088111 0.091990 0.140203
v -0.090701 0.090379 0.126324
v -0.099147 0.083306 0.119919
v -0.104909 0.082527 0.110464
v -0.117174 0.075930 0.107761
v -0.116337 0.063243 0.114011
v -0.111931 0.061732 0.123887
v -0.113556 0.051810 0.133417
v -0.111486 0.052544 0.147457
v -0.095134 0.064669 0.125733
v -0.102860 0.070118 0.129774
v 0.140485 -0.016821 -0.083995
v 0.133764 -0.005256 -0.086881
v 0.132417 0.003620 -0.078329
v 0.129811 0.016906 -0.082501
v 0.120960 0.015922 -0.093574
v 0.120947 0.008507 -0.103937
v 0.117571 0.007784 -0.114487
v 0.122880 0.000259 -0.125278
v 0.125640 -0.012657 -0.120153
v 0.129973 -0.014361 -0.110277
v 0.137096 -0.024960 -0.104907
v 0.146315 -0.024906 -0.094093
v 0.149273 -0.012491 -0.087105
v 0.142552 -0.000925 -0.089991
v 0.141205 0.007950 -0.081438
v 0.138599 0.021237 -0.085611
v 0.129748 0.020253 -0.096684
v 0.129735 0.012838 -0.107047
v 0.126359 0.012114 -0.117596
v 0.131668 0.004590 -0.128387
v 0.134428 -0.008327 -0.123262
v 0.138762 -0.010030 -0.113386
v 0.145884 -0.020629 -0.108017
v 0.155103 -0.020575 -0.097202
v 0.129448 -0.005671 -0.099659
v 0.138119 -0.001221 -0.102934
v 0.093609 0.109940 -0.022582
v 0.083016 0.118517 -0.023795
v 0.079440 0.125594 -0.014263
v 0.071955 0.137352 -0.016805
v 0.063021 0.134157 -0.027383
v 0.064647 0.128095 -0.038473
v 0.060771 0.127065 -0.048823
v 0.067353 0.122845 -0.060661
v 0.074941 0.111410 -0.057143
v 0.080499 0.110583 -0.047781
v 0.091360 0.102848 -0.044022
v 0.100938 0.105331 -0.033823
v 0.099984 0.117372 -0.025710
v 0.089390 0.125949 -0.026922
v 0.085815 0.133027 -0.017390
v 0.078330 0.144785 -0.019932
v 0.069396 0.141589 -0.030510
v 0.071022 0.135528 -0.041601
v 0.067146 0.134497 -0.051950
v 0.073728 0.130278 -0.063789
v 0.081315 0.118843 -0.060270
v 0.086873 0.118015 -0.050908
v 0.097734 0.110280 -0.047150
v 0.107313 0.112764 -0.036950
v 0.077948 0.117615 -0.036268
v 0.084155 0.125130 -0.039539
v 0.101077 0.054324 0.156373
v 0.099180 0.065178 0.148259
v 0.090464 0.073608 0.150850
v 0.091635 0.086652 0.145445
v 0.096653 0.085041 0.132249
v 0.106104 0.077968 0.127449
v 0.113456 0.077190 0.119170
v 0.126006 0.070592 0.118693
v 0.124070 0.057906 0.124693
v 0.117978 0.056395 0.133628
v 0.117881 0.046473 0.143295
v 0.113346 0.047206 0.156743
v 0.107889 0.059662 0.161920
v 0.105991 0.070516 0.153806
v 0.097275 0.078946 0.156397
v 0.098446 0.091990 0.150992
v 0.103464 0.090379 0.137796
v 0.112915 0.083306 0.132996
v 0.120268 0.082527 0.124717
v 0.132818 0.075930 0.124240
v 0.130882 0.063243 0.130240
v 0.124789 0.061732 0.139175
v 0.124692 0.051810 0.148842
v 0.120157 0.052544 0.162290
v 0.107932 0.064669 0.138002
v 0.114815 0.070118 0.143354
v -0.099039 -0.097830 0.149383
v 0.103594 -0.097830 0.132775
v -0.034080 0.131140 0.082170
v 0.045915 0.131140 0.087101
v -0.048842 -0.113842 0.059174
v 0.097584 -0.113842 0.043565
v -0.028436 0.158426 -0.009017
v 0.054364 0.158426 -0.004539
v -0.045707 -0.113842 -0.012595
v 0.085921 -0.113842 -0.022469
v -0.039149 0.116135 -0.108373
v 0.059306 0.116135 -0.103049
v -0.033880 -0.113842 -0.084026
v 0.088247 -0.113842 -0.087554
v -0.049031 0.059774 -0.136770
v 0.064298 0.059774 -0.130642
v -0.024788 -0.113842 -0.135535
v 0.074361 -0.113842 -0.130174
v -0.013119 0.034469 -0.198284
v 0.070307 0.034469 -0.193773
v -0.121553 -0.038642 0.136464
v -0.139660 -0.060609 0.071234
v -0.130046 -0.058417 -0.010950
v -0.126407 -0.082888 -0.107258
v -0.036668 -0.113842 -0.184390
v 0.091938 -0.113842 -0.177436
v 0.141132 -0.088030 -0.096727
v 0.149808 -0.058417 -0.017094
v 0.167122 -0.060777 0.058725
v 0.149703 -0.038502 0.124085
v -0.133336 0.036123 0.113763
v -0.107281 0.089341 0.095367
v -0.168504 0.040157 0.046727
v -0.138853 0.124121 0.034538
v -0.166243 0.016696 -0.038705
v -0.129154 0.100400 -0.051669
v -0.163074 -0.016530 -0.117541
v -0.133093 0.048606 -0.126788
v -0.027265 -0.063573 -0.208846
v -0.013677 0.002514 -0.224119
v 0.073649 0.002514 -0.219397
v 0.085510 -0.063606 -0.202747
v 0.106002 0.048606 -0.113858
v 0.139917 -0.016530 -0.104084
v 0.104359 0.100589 -0.039093
v 0.140587 0.016696 -0.032198
v 0.109614 0.124121 0.047974
v 0.164198 0.040157 0.053047
v 0.109090 0.089341 0.106641
v 0.164085 0.036123 0.116801
v -0.101310 -0.046353 0.225127
v -0.078183 0.038846 0.204924
v -0.059655 0.099507 0.163831
v 0.094888 -0.046252 0.217272
v 0.074879 0.038846 0.206296
v 0.060849 0.099507 0.169339
vn 0.0790 0.3289 0.9411
vn -0.3201 -0.5569 0.7665
vn 0.0771 0.3253 0.9424
vn 0.4125 0.9040 0.1122
vn 0.3727 0.6956 -0.6142
vn 0.4246 0.9046 -0.0385
vn 0.3246 0.5683 -0.7561
vn -0.1094 -0.3896 -0.9144
vn -0.4002 -0.8934 -0.2042
vn -0.1590 -0.4869 -0.8588
vn -0.4026 -0.8958 -0.1881
vn -0.3022 -0.5122 0.8039
vn 0.9041 -0.4213 0.0714
vn 0.9893 -0.1304 -0.0656
vn 0.8125 -0.4341 0.3891
vn 0.9041 -0.4213 0.0715
vn 0.7652 -0.6265 -0.1483
vn 0.9922 -0.1193 -0.0369
vn 0.9041 -0.4214 0.0714
vn 0.9040 -0.4214 0.0715
vn 0.8137 -0.4314 0.3895
vn 0.7547 -0.6447 -0.1220
vn -0.9041 0.4213 -0.0714
vn -0.9896 0.1294 0.0629
vn -0.8113 0.4367 -0.3888
vn -0.9041 0.4213 -0.0715
vn -0.9041 0.4214 -0.0714
vn -0.7653 0.6263 0.1486
vn -0.9919 0.1204 0.0396
vn -0.9041 0.4214 -0.0715
vn -0.8150 0.4285 -0.3901
vn -0.7547 0.6446 0.1220
vn 0.0255 0.3422 0.9393
vn -0.7341 -0.2148 0.6442
vn 0.0218 0.3403 0.9401
vn 0.7945 0.5583 0.2387
vn 0.8165 0.3213 -0.4797
vn 0.8392 0.5353 0.0960
vn 0.7415 0.2232 -0.6327
vn -0.0888 -0.3744 -0.9230
vn -0.7579 -0.5661 -0.3242
vn -0.1942 -0.4240 -0.8846
vn -0.7648 -0.5651 -0.3093
vn -0.7042 -0.1823 0.6862
vn 0.4918 -0.8223 0.2863
vn 0.7485 -0.6372 0.1836
vn 0.3380 -0.7491 0.5698
vn 0.4918 -0.8223 0.2862
vn 0.3192 -0.9471 0.0327
vn 0.7502 -0.6261 0.2124
vn 0.4919 -0.8223 0.2863
vn 0.3403 -0.7474 0.5707
vn 0.2948 -0.9540 0.0550
vn -0.4918 0.8223 -0.2863
vn -0.4919 0.8223 -0.2863
vn -0.7486 0.6363 -0.1864
vn -0.3357 0.7506 -0.5691
vn -0.4918 0.8223 -0.2862
vn -0.3194 0.9471 -0.0325
vn -0.7500 0.6273 -0.2097
vn -0.4919 0.8223 -0.2862
vn -0.3427 0.7455 -0.5716
vn -0.2948 0.9540 -0.0549
vn 0.6179 0.3181 0.7190
vn 0.1091 -0.5178 0.8485
vn 0.6169 0.3147 0.7214
vn 0.4870 0.8525 -0.1898
vn 0.0317 0.6498 -0.7594
vn 0.4134 0.8517 -0.3221
vn -0.0986 0.5287 -0.8431
vn -0.6339 -0.3750 -0.6764
vn -0.5268 -0.8433 0.1060
vn -0.6531 -0.4662 -0.5967
vn -0.5201 -0.8455 0.1208
vn 0.1488 -0.4754 0.8671
vn 0.7481 -0.5193 -0.4131
vn 0.7695 -0.2396 -0.5920
vn 0.8475 -0.5218 -0.0975
vn 0.7481 -0.5193 -0.4132
vn 0.4924 -0.7077 -0.5067
vn 0.7888 -0.2290 -0.5705
vn 0.8490 -0.5192 -0.0980
vn 0.4965 -0.7246 -0.4779
vn -0.7481 0.5193 0.4131
vn -0.7713 0.2388 0.5900
vn -0.8460 0.5242 0.0970
vn -0.4923 0.7076 0.5069
vn -0.7870 0.2301 0.5725
vn -0.7481 0.5192 0.4132
vn -0.7481 0.5192 0.4131
vn -0.8506 0.5165 0.0984
vn -0.4966 0.7246 0.4779
vn 0.1669 0.3289 0.9295
vn 0.5072 -0.5569 0.6578
vn 0.1689 0.3253 0.9304
vn -0.3695 0.9040 0.2150
vn -0.5187 0.6956 -0.4971
vn -0.4201 0.9046 0.0724
vn -0.5088 0.5683 -0.6466
vn -0.1305 -0.3896 -0.9117
vn 0.3339 -0.8934 -0.3006
vn -0.0681 -0.4869 -0.8708
vn 0.3404 -0.8958 -0.2857
vn 0.4996 -0.5122 0.6986
vn -0.8550 -0.4213 0.3025
vn -0.8550 -0.4214 0.3025
vn -0.8550 -0.4212 0.3025
vn -0.9727 -0.1304 0.1922
vn -0.6845 -0.4341 0.5857
vn -0.7775 -0.6265 0.0543
vn -0.9680 -0.1193 0.2206
vn -0.6855 -0.4314 0.5865
vn -0.7606 -0.6447 0.0770
vn 0.8550 0.4214 -0.3025
vn 0.8550 0.4213 -0.3025
vn 0.9723 0.1295 -0.1948
vn 0.6834 0.4367 -0.5851
vn 0.7777 0.6263 -0.0541
vn 0.9685 0.1205 -0.2180
vn 0.8549 0.4214 -0.3025
vn 0.6866 0.4285 -0.5874
vn 0.7606 0.6447 -0.0770
vn 0.1266 0.2905 0.9485
vn 0.7295 -0.3890 0.5625
vn 0.1299 0.2878 0.9488
vn -0.6417 0.6907 0.3334
vn -0.7740 0.5009 -0.3873
vn -0.7024 0.6845 0.1949
vn -0.7341 0.3982 -0.5501
vn -0.0698 -0.3354 -0.9395
vn 0.5969 -0.6866 -0.4151
vn 0.0263 -0.4068 -0.9131
vn 0.6052 -0.6878 -0.4009
vn 0.7106 -0.3536 0.6083
vn -0.6202 -0.7231 0.3043
vn -0.6202 -0.7230 0.3043
vn -0.6201 -0.7231 0.3042
vn -0.8424 -0.4858 0.2333
vn -0.4304 -0.6967 0.5739
vn -0.6202 -0.7231 0.3042
vn -0.4992 -0.8659 0.0312
vn -0.8393 -0.4762 0.2624
vn -0.6201 -0.7231 0.3043
vn -0.6202 -0.7230 0.3042
vn -0.4323 -0.6946 0.5751
vn -0.4748 -0.8786 0.0507
vn 0.6202 0.7230 -0.3043
vn 0.8421 0.4850 -0.2360
vn 0.4285 0.6986 -0.5730
vn 0.6202 0.7230 -0.3042
vn 0.4994 0.8658 -0.0309
vn 0.8396 0.4771 -0.2597
vn 0.6202 0.7231 -0.3042
vn 0.4341 0.6924 -0.5763
vn 0.4748 0.8786 -0.0506
vn -0.7360 0.3181 0.5976
vn -0.2584 -0.5178 0.8155
vn -0.7354 0.3147 0.6001
vn -0.4454 0.8525 -0.2735
vn 0.1039 0.6498 -0.7529
vn -0.3495 0.8517 -0.3904
vn 0.2471 0.5287 -0.8121
vn 0.7441 -0.3750 -0.5529
vn 0.4995 -0.8434 0.1980
vn 0.7489 -0.4662 -0.4710
vn 0.4903 -0.8455 0.2115
vn -0.3007 -0.4754 0.8268
vn -0.6627 -0.5193 -0.5397
vn -0.6518 -0.2396 -0.7195
vn -0.8166 -0.5218 -0.2468
vn -0.6627 -0.5193 -0.5396
vn -0.6626 -0.5193 -0.5397
vn -0.3943 -0.7077 -0.5862
vn -0.6747 -0.2289 -0.7017
vn -0.8180 -0.5193 -0.2475
vn -0.4036 -0.7246 -0.5586
vn 0.6626 0.5193 0.5397
vn 0.6627 0.5193 0.5397
vn 0.6540 0.2387 0.7179
vn 0.8153 0.5242 0.2460
vn 0.6627 0.5193 0.5396
vn 0.3942 0.7076 0.5865
vn 0.6725 0.2300 0.7034
vn 0.6627 0.5192 0.5397
vn 0.8195 0.5165 0.2482
vn 0.4036 0.7246 0.5586
vn -0.0000 -1.0000 -0.0000
vn 0.0166 -0.9836 0.1796
vn -0.7041 -0.7096 0.0280
vn -0.0165 0.9584 0.2848
vn 0.6727 -0.7051 0.2243
vn -0.5295 -0.8465 -0.0559
vn 0.0213 0.9191 -0.3935
vn 0.6376 -0.7571 -0.1428
vn -0.4458 -0.8907 0.0888
vn 0.0484 0.4426 -0.8954
vn 0.5685 -0.8105 0.1409
vn -0.2893 -0.9572 0.0080
vn 0.0200 0.9287 -0.3703
vn 0.3542 -0.9351 0.0145
vn -0.2419 0.8832 0.4018
vn -0.3731 0.8748 -0.3092
vn -0.3536 0.6700 -0.6528
vn -0.2702 0.7514 -0.6019
vn 0.0420 0.6277 -0.7773
vn 0.5956 0.7021 -0.3902
vn 0.6569 0.5387 -0.5276
vn 0.6511 0.7150 -0.2547
vn 0.3272 0.8664 0.3773
vn -0.7468 0.4185 0.5168
vn -0.9252 0.3444 -0.1591
vn -0.9036 0.3768 -0.2036
vn -0.5838 0.0423 -0.8108
vn 0.0524 -0.2350 -0.9706
vn 0.8625 0.2079 -0.4613
vn 0.8913 0.3945 -0.2233
vn 0.8560 0.4442 -0.2645
vn 0.7542 0.6248 0.2020
vn -0.9169 -0.1089 0.3841
vn -0.9356 -0.3524 -0.0216
vn -0.8953 -0.4322 0.1076
vn -0.6351 -0.3531 -0.6870
vn 0.0483 -0.4444 -0.8945
vn 0.8762 -0.0728 -0.4765
vn 0.9947 0.0577 -0.0853
vn 0.9674 0.0371 -0.2507
vn 0.9884 -0.0540 0.1418
vn -0.4604 0.8668 0.1916
vn -0.9075 0.1677 0.3851
vn -0.7386 0.5159 0.4339
vn -0.9312 -0.3138 0.1853
vn 0.0335 -0.8396 0.5422
vn 0.0182 0.1797 0.9835
vn -0.0211 0.5415 0.8405
vn -0.0187 0.9332 0.3590
vn 0.7516 -0.5258 0.3984
vn 0.7802 0.0981 0.6178
vn 0.6234 0.5901 0.5130
vn 0.4844 0.8424 0.2361
vt 0.015277 0.487619
vt 0.028873 0.489212
vt 0.026215 0.499532
vt 0.014139 0.495484
vt 0.043346 0.492970
vt 0.039432 0.504176
vt 0.056747 0.504632
vt 0.051286 0.514356
vt 0.070958 0.511462
vt 0.064329 0.516723
vt 0.075352 0.522771
vt 0.068302 0.522498
vt 0.050750 0.573995
vt 0.037689 0.558345
vt 0.051674 0.546364
vt 0.065072 0.561807
vt 0.029100 0.534727
vt 0.041868 0.524002
vt 0.012157 0.522200
vt 0.022637 0.514061
vt 0.005801 0.510730
vt 0.013921 0.505419
vt 0.001992 0.499762
vt 0.007466 0.497906
vt 0.006330 0.492765
vt 0.008226 0.495973
vt 0.100200 0.260471
vt 0.099428 0.275823
vt 0.086089 0.254233
vt 0.112892 0.254551
vt 0.114503 0.238657
vt 0.100479 0.230913
vt 0.086689 0.234737
vt 0.075173 0.229984
vt 0.060635 0.236599
vt 0.061024 0.252546
vt 0.071254 0.259364
vt 0.072775 0.274799
vt 0.085740 0.284221
vt 0.042875 0.296608
vt 0.057132 0.302612
vt 0.056493 0.318267
vt 0.068245 0.293875
vt 0.083098 0.299707
vt 0.083616 0.315701
vt 0.073972 0.326281
vt 0.073102 0.338688
vt 0.060640 0.348760
vt 0.046552 0.341251
vt 0.045106 0.329055
vt 0.032049 0.320932
vt 0.029359 0.305204
vt 0.045600 0.442333
vt 0.056462 0.449075
vt 0.050568 0.457976
vt 0.040507 0.448401
vt 0.068438 0.455716
vt 0.063342 0.466364
vt 0.079961 0.465999
vt 0.078087 0.476707
vt 0.090089 0.462122
vt 0.094065 0.470936
vt 0.096849 0.455395
vt 0.107344 0.461568
vt 0.081295 0.514010
vt 0.069115 0.497176
vt 0.084074 0.485862
vt 0.096725 0.502558
vt 0.061952 0.472891
vt 0.075047 0.462615
vt 0.046068 0.460691
vt 0.055710 0.452547
vt 0.040052 0.450929
vt 0.046169 0.445121
vt 0.035712 0.443636
vt 0.038220 0.440799
vt 0.037192 0.441079
vt 0.035223 0.442733
vt 0.046223 0.375472
vt 0.049263 0.390539
vt 0.031010 0.372907
vt 0.057063 0.366604
vt 0.054704 0.350804
vt 0.039202 0.346758
vt 0.026782 0.353865
vt 0.014449 0.352101
vt 0.001992 0.362099
vt 0.006303 0.377456
vt 0.017900 0.381539
vt 0.023180 0.396122
vt 0.038070 0.402055
vt 0.919984 0.362867
vt 0.934353 0.368109
vt 0.934603 0.383812
vt 0.945290 0.358477
vt 0.960743 0.363775
vt 0.961933 0.380080
vt 0.952446 0.391170
vt 0.951887 0.403469
vt 0.939884 0.413814
vt 0.925751 0.406886
vt 0.923882 0.394910
vt 0.910548 0.387553
vt 0.907054 0.372068
vt 0.953489 0.445460
vt 0.970612 0.453767
vt 0.964016 0.466173
vt 0.947688 0.456398
vt 0.985893 0.462645
vt 0.979838 0.473734
vt 0.995175 0.476728
vt 0.990385 0.481881
vt 0.997357 0.487164
vt 0.994670 0.481648
vt 0.983993 0.494855
vt 0.983609 0.477886
vt 0.944444 0.522783
vt 0.937725 0.504035
vt 0.954376 0.497618
vt 0.961683 0.516327
vt 0.937734 0.479871
vt 0.952236 0.474312
vt 0.927480 0.464024
vt 0.938120 0.460540
vt 0.926602 0.453437
vt 0.933187 0.452273
vt 0.928929 0.445478
vt 0.931601 0.447737
vt 0.937524 0.445463
vt 0.935119 0.452402
vt 0.919707 0.299963
vt 0.907054 0.291237
vt 0.932432 0.291238
vt 0.918072 0.313872
vt 0.930745 0.323598
vt 0.944706 0.315737
vt 0.948702 0.301997
vt 0.958798 0.294697
vt 0.960812 0.278852
vt 0.947042 0.270801
vt 0.935865 0.275920
vt 0.921935 0.269101
vt 0.907104 0.275177
vt 0.093379 0.412029
vt 0.082883 0.422798
vt 0.068496 0.416589
vt 0.086805 0.437820
vt 0.075278 0.449372
vt 0.059994 0.443205
vt 0.054129 0.429786
vt 0.043279 0.423939
vt 0.039133 0.408736
vt 0.051455 0.398984
vt 0.063035 0.402316
vt 0.075119 0.393545
vt 0.090406 0.396723
vt 0.970597 0.407101
vt 0.984160 0.403274
vt 0.989301 0.423169
vt 0.974987 0.426878
vt 0.992945 0.440717
vt 0.980845 0.444144
vt 0.998008 0.452622
vt 0.992278 0.454682
vt 0.994758 0.456502
vt 0.996879 0.456309
vt 0.990568 0.450678
vt 0.997696 0.449029
vt 0.986802 0.440364
vt 0.996688 0.438303
vt 0.979638 0.428087
vt 0.988921 0.424832
vt 0.979354 0.416717
vt 0.984793 0.410548
vt 0.974038 0.413730
vt 0.974206 0.404925
vt 0.964505 0.417858
vt 0.956208 0.407093
vt 0.965965 0.444563
vt 0.938330 0.431895
vt 0.971826 0.389397
vt 0.983574 0.385329
vt 0.985477 0.339495
vt 0.971835 0.332271
vt 0.997064 0.329372
vt 0.988680 0.353136
vt 0.977183 0.364241
vt 0.962414 0.358011
vt 0.956885 0.344804
vt 0.946027 0.338687
vt 0.942240 0.323169
vt 0.955018 0.313615
vt 0.966702 0.317442
vt 0.979778 0.309110
vt 0.995189 0.313488
vt 0.198545 0.292442
vt 0.173061 0.295492
vt 0.184922 0.285273
vt 0.184864 0.271261
vt 0.171104 0.263128
vt 0.158183 0.272616
vt 0.155878 0.286747
vt 0.146738 0.295209
vt 0.146645 0.311179
vt 0.161288 0.317504
vt 0.171763 0.311079
vt 0.186416 0.316167
vt 0.200395 0.308333
vt 0.111878 0.403332
vt 0.124963 0.407321
vt 0.119549 0.424509
vt 0.107354 0.421627
vt 0.115671 0.437739
vt 0.106320 0.436192
vt 0.114704 0.446390
vt 0.111365 0.445987
vt 0.111377 0.445762
vt 0.114740 0.445956
vt 0.109865 0.437967
vt 0.117061 0.438824
vt 0.110479 0.427562
vt 0.119383 0.429505
vt 0.110546 0.414403
vt 0.118159 0.416314
vt 0.117353 0.407895
vt 0.119846 0.407483
vt 0.119423 0.408981
vt 0.114869 0.405560
vt 0.117851 0.421704
vt 0.102836 0.414473
vt 0.125949 0.460663
vt 0.089957 0.446527
vt 0.123697 0.387954
vt 0.136638 0.392475
vt 0.114921 0.374465
vt 0.104654 0.362938
vt 0.129311 0.369018
vt 0.113166 0.388367
vt 0.098520 0.394766
vt 0.086849 0.383778
vt 0.086272 0.369471
vt 0.078228 0.359953
vt 0.080090 0.344087
vt 0.095397 0.339588
vt 0.105014 0.347250
vt 0.120175 0.344000
vt 0.133092 0.353477
vt 0.169947 0.317837
vt 0.164011 0.342807
vt 0.158515 0.328147
vt 0.145346 0.323364
vt 0.132962 0.333469
vt 0.137406 0.348872
vt 0.149871 0.355914
vt 0.154657 0.367414
vt 0.169613 0.373014
vt 0.180605 0.361457
vt 0.178191 0.349407
vt 0.188025 0.337411
vt 0.185499 0.321588
vt 0.468325 0.503341
vt 0.468761 0.504225
vt 0.471449 0.506166
vt 0.467228 0.508223
vt 0.477441 0.512066
vt 0.470107 0.517003
vt 0.491791 0.519262
vt 0.481570 0.527593
vt 0.500247 0.537319
vt 0.488598 0.547797
vt 0.514047 0.552255
vt 0.501824 0.563171
vt 0.515222 0.589237
vt 0.500587 0.594256
vt 0.495284 0.578256
vt 0.509904 0.573387
vt 0.482647 0.561740
vt 0.496589 0.556776
vt 0.483134 0.541897
vt 0.495618 0.537377
vt 0.479422 0.529011
vt 0.490127 0.524887
vt 0.475415 0.515569
vt 0.483557 0.511856
vt 0.470607 0.508919
vt 0.473994 0.505543
vt 0.113731 0.290613
vt 0.112889 0.306027
vt 0.099683 0.284334
vt 0.124774 0.281988
vt 0.139674 0.287772
vt 0.140208 0.303793
vt 0.130534 0.314348
vt 0.129531 0.326770
vt 0.117027 0.336713
vt 0.102997 0.329115
vt 0.101576 0.316902
vt 0.088531 0.308521
vt 0.086047 0.292694
vt 0.025078 0.248224
vt 0.038438 0.270138
vt 0.024215 0.263594
vt 0.011494 0.269467
vt 0.009811 0.285362
vt 0.023809 0.293174
vt 0.037621 0.289402
vt 0.049115 0.294201
vt 0.063681 0.287651
vt 0.063352 0.271704
vt 0.053156 0.264844
vt 0.051697 0.249402
vt 0.038764 0.239941
vt 0.418969 0.438236
vt 0.306540 0.435627
vt 0.291386 0.380736
vt 0.437217 0.384120
vt 0.461451 0.736481
vt 0.232655 0.762440
vt 0.286099 0.656925
vt 0.451346 0.634080
vt 0.617632 0.067627
vt 0.685144 0.113339
vt 0.637798 0.180350
vt 0.511457 0.150993
vt 0.196496 0.347955
vt 0.273095 0.389331
vt 0.230196 0.481460
vt 0.147510 0.443023
vt 0.706650 0.761750
vt 0.692495 0.835010
vt 0.592334 0.817361
vt 0.624373 0.701333
vt 0.287169 0.575500
vt 0.435796 0.559803
vt 0.604896 0.267527
vt 0.478661 0.240314
vt 0.185674 0.587481
vt 0.082083 0.548798
vt 0.743789 0.687191
vt 0.661884 0.625373
vt 0.298030 0.494264
vt 0.436175 0.485973
vt 0.570464 0.375467
vt 0.439861 0.334504
vt 0.168454 0.652770
vt 0.044393 0.614800
vt 0.767235 0.595269
vt 0.709685 0.561089
vt 0.446334 0.467323
vt 0.499998 0.516862
vt 0.154703 0.724997
vt 0.056808 0.705602
vt 0.737183 0.512403
vt 0.793145 0.489164
vt 0.902520 0.244371
vt 0.891475 0.352518
vt 0.795571 0.278601
vt 0.812469 0.210201
vt 0.815325 0.452977
vt 0.764366 0.351540
vt 0.745218 0.488834
vt 0.702391 0.409148
vt 0.693242 0.563687
vt 0.645415 0.576646
vt 0.152305 0.770686
vt 0.043288 0.758627
vt 0.957464 0.560093
vt 0.968059 0.639615
vt 0.915618 0.654505
vt 0.936703 0.516964
vt 0.997372 0.709537
vt 0.919106 0.759595
vt 0.979364 0.837307
vt 0.887123 0.852010
vt 0.912276 0.933088
vt 0.829150 0.896067
vt 0.753565 0.173911
vt 0.727177 0.244399
vt 0.684258 0.314895
vt 0.643830 0.377976
vt 0.566796 0.549054
vt 0.016859 0.849104
vt 0.165815 0.854409
vt 0.859176 0.494644
vt 0.836025 0.630003
vt 0.826828 0.715582
vt 0.796640 0.806023
vt 0.764895 0.854568
vt 0.177674 0.926117
vt 0.001992 0.927439
vt 0.874936 0.135761
vt 0.716830 0.004937
vt 0.813760 0.064505
vt 0.530506 0.116634
vt 0.460747 0.198230
vt 0.283635 0.081287
vt 0.343021 0.001971
vt 0.252995 0.174454
vt 0.392161 0.263976
vt 0.226215 0.252225
vt 0.337959 0.319660
vt 0.626213 0.946304
vt 0.727199 0.985402
vt 0.815230 0.987405
s 1
usemtl MediumFL
f 1/1/1 2/2/1 14/3/1 13/4/1
f 2/2/2 3/5/2 15/6/2 14/3/2
f 3/5/3 4/7/3 16/8/3 15/6/3
f 4/7/4 5/9/4 17/10/4 16/8/4
f 5/9/5 6/11/5 18/12/5 17/10/5
f 6/13/6 7/14/6 19/15/6 18/16/6
f 7/14/7 8/17/7 20/18/7 19/15/7
f 8/17/8 9/19/8 21/20/8 20/18/8
f 9/19/9 10/21/9 22/22/9 21/20/9
f 10/21/10 11/23/10 23/24/10 22/22/10
f 11/23/11 12/25/11 24/26/11 23/24/11
f 12/25/12 1/1/12 13/4/12 24/26/12
f 2/27/13 1/28/13 25/29/13
f 3/30/13 2/27/13 25/29/13
f 4/31/14 3/30/14 25/29/14
f 5/32/15 4/31/15 25/29/15
f 6/33/13 5/32/13 25/29/13
f 7/34/16 6/33/13 25/29/13
f 8/35/17 7/34/17 25/29/17
f 9/36/18 8/35/18 25/29/18
f 10/37/19 9/36/20 25/29/19
f 11/38/13 10/37/19 25/29/19
f 12/39/21 11/38/21 25/29/21
f 1/28/22 12/39/22 25/29/22
f 13/40/23 14/41/23 26/42/23
f 14/41/23 15/43/23 26/42/23
f 15/43/24 16/44/24 26/42/24
f 16/44/25 17/45/25 26/42/25
f 17/45/26 18/46/27 26/42/27
f 18/46/27 19/47/27 26/42/27
f 19/47/28 20/48/28 26/42/28
f 20/48/29 21/49/29 26/42/29
f 21/49/30 22/50/23 26/42/23
f 22/50/23 23/51/23 26/42/23
f 23/51/31 24/52/31 26/42/31
f 24/52/32 13/40/32 26/42/32
f 27/53/33 28/54/33 40/55/33 39/56/33
f 28/54/34 29/57/34 41/58/34 40/55/34
f 29/57/35 30/59/35 42/60/35 41/58/35
f 30/59/36 31/61/36 43/62/36 42/60/36
f 31/61/37 32/63/37 44/64/37 43/62/37
f 32/65/38 33/66/38 45/67/38 44/68/38
f 33/66/39 34/69/39 46/70/39 45/67/39
f 34/69/40 35/71/40 47/72/40 46/70/40
f 35/71/41 36/73/41 48/74/41 47/72/41
f 36/73/42 37/75/42 49/76/42 48/74/42
f 37/75/43 38/77/43 50/78/43 49/76/43
f 38/77/44 27/53/44 39/56/44 50/78/44
f 28/79/45 27/80/45 51/81/45
f 29/82/45 28/79/45 51/81/45
f 30/83/46 29/82/46 51/81/46
f 31/84/47 30/83/47 51/81/47
f 32/85/45 31/84/45 51/81/45
f 33/86/48 32/85/45 51/81/45
f 34/87/49 33/86/49 51/81/49
f 35/88/50 34/87/50 51/81/50
f 36/89/45 35/88/51 51/81/45
f 37/90/45 36/89/45 51/81/45
f 38/91/52 37/90/52 51/81/52
f 27/80/53 38/91/53 51/81/53
f 39/92/54 40/93/54 52/94/54
f 40/93/54 41/95/55 52/94/54
f 41/95/56 42/96/56 52/94/56
f 42/96/57 43/97/57 52/94/57
f 43/97/54 44/98/54 52/94/54
f 44/98/54 45/99/58 52/94/54
f 45/99/59 46/100/59 52/94/59
f 46/100/60 47/101/60 52/94/60
f 47/101/61 48/102/58 52/94/54
f 48/102/58 49/103/54 52/94/54
f 49/103/62 50/104/62 52/94/62
f 50/104/63 39/92/63 52/94/63
f 53/105/64 54/106/64 66/107/64 65/108/64
f 54/106/65 55/109/65 67/110/65 66/107/65
f 55/109/66 56/111/66 68/112/66 67/110/66
f 56/111/67 57/113/67 69/114/67 68/112/67
f 57/113/68 58/115/68 70/116/68 69/114/68
f 58/117/69 59/118/69 71/119/69 70/120/69
f 59/118/70 60/121/70 72/122/70 71/119/70
f 60/121/71 61/123/71 73/124/71 72/122/71
f 61/123/72 62/125/72 74/126/72 73/124/72
f 62/125/73 63/127/73 75/128/73 74/126/73
f 63/127/74 64/129/74 76/130/74 75/128/74
f 64/129/75 53/105/75 65/108/75 76/130/75
f 54/131/76 53/132/76 77/133/76
f 55/134/76 54/131/76 77/133/76
f 56/135/77 55/134/77 77/133/77
f 57/136/78 56/135/78 77/133/78
f 58/137/76 57/136/76 77/133/76
f 59/138/79 58/137/76 77/133/76
f 60/139/80 59/138/80 77/133/80
f 61/140/81 60/139/81 77/133/81
f 62/141/76 61/140/76 77/133/76
f 63/142/79 62/141/76 77/133/76
f 64/143/82 63/142/82 77/133/82
f 53/132/83 64/143/83 77/133/83
f 65/144/84 66/145/84 78/146/84
f 66/145/84 67/147/84 78/146/84
f 67/147/85 68/148/85 78/146/85
f 68/148/86 69/149/86 78/146/86
f 69/149/84 70/150/84 78/146/84
f 70/150/84 71/151/84 78/146/84
f 71/151/87 72/152/87 78/146/87
f 72/152/88 73/153/88 78/146/88
f 73/153/89 74/154/90 78/146/90
f 74/154/90 75/155/84 78/146/90
f 75/155/91 76/156/91 78/146/91
f 76/156/92 65/144/92 78/146/92
f 79/157/93 91/158/93 92/159/93 80/160/93
f 80/160/94 92/159/94 93/161/94 81/162/94
f 81/162/95 93/161/95 94/163/95 82/164/95
f 82/164/96 94/163/96 95/165/96 83/166/96
f 83/166/97 95/165/97 96/167/97 84/168/97
f 84/168/98 96/167/98 97/169/98 85/170/98
f 85/170/99 97/169/99 98/171/99 86/172/99
f 86/172/100 98/171/100 99/173/100 87/174/100
f 87/174/101 99/173/101 100/175/101 88/176/101
f 88/176/102 100/175/102 101/177/102 89/178/102
f 89/178/103 101/177/103 102/179/103 90/180/103
f 90/181/104 102/182/104 91/158/104 79/157/104
f 80/183/105 103/184/105 79/185/106
f 81/186/107 103/184/105 80/183/105
f 82/187/108 103/184/108 81/186/108
f 83/188/109 103/184/109 82/187/109
f 84/189/105 103/184/105 83/188/105
f 85/190/106 103/184/105 84/189/105
f 86/191/110 103/184/110 85/190/110
f 87/192/111 103/184/111 86/191/111
f 88/193/105 103/184/105 87/192/107
f 89/194/105 103/184/105 88/193/105
f 90/195/112 103/184/112 89/194/112
f 79/185/113 103/184/113 90/195/113
f 91/196/114 104/197/115 92/198/115
f 92/198/115 104/197/115 93/199/115
f 93/199/116 104/197/116 94/200/116
f 94/200/117 104/197/117 95/201/117
f 95/201/115 104/197/115 96/202/115
f 96/202/115 104/197/115 97/203/115
f 97/203/118 104/197/118 98/204/118
f 98/204/119 104/197/119 99/205/119
f 99/205/120 104/197/115 100/206/115
f 100/206/115 104/197/115 101/207/115
f 101/207/121 104/197/121 102/208/121
f 102/208/122 104/197/122 91/196/122
f 105/209/123 117/210/123 118/211/123 106/212/123
f 106/212/124 118/211/124 119/213/124 107/214/124
f 107/214/125 119/213/125 120/215/125 108/216/125
f 108/216/126 120/215/126 121/217/126 109/218/126
f 109/218/127 121/217/127 122/219/127 110/220/127
f 110/220/128 122/219/128 123/221/128 111/222/128
f 111/222/129 123/221/129 124/223/129 112/224/129
f 112/224/130 124/223/130 125/225/130 113/226/130
f 113/226/131 125/225/131 126/227/131 114/228/131
f 114/228/132 126/227/132 127/229/132 115/230/132
f 115/230/133 127/229/133 128/231/133 116/232/133
f 116/233/134 128/234/134 117/210/134 105/209/134
f 106/235/135 129/236/136 105/237/136
f 107/238/137 129/236/136 106/235/135
f 108/239/138 129/236/138 107/238/138
f 109/240/139 129/236/139 108/239/139
f 110/241/135 129/236/135 109/240/135
f 111/242/140 129/236/135 110/241/135
f 112/243/141 129/236/141 111/242/141
f 113/244/142 129/236/142 112/243/142
f 114/245/140 129/236/140 113/244/143
f 115/246/144 129/236/140 114/245/140
f 116/247/145 129/236/145 115/246/145
f 105/237/146 129/236/146 116/247/146
f 117/248/147 130/249/147 118/250/147
f 118/250/147 130/249/147 119/251/147
f 119/251/148 130/249/148 120/252/148
f 120/252/149 130/249/149 121/253/149
f 121/253/150 130/249/147 122/254/147
f 122/254/147 130/249/147 123/255/147
f 123/255/151 130/249/151 124/256/151
f 124/256/152 130/249/152 125/257/152
f 125/257/153 130/249/150 126/258/153
f 126/258/153 130/249/150 127/259/150
f 127/259/154 130/249/154 128/260/154
f 128/260/155 130/249/155 117/248/155
f 131/261/156 143/262/156 144/263/156 132/264/156
f 132/264/157 144/263/157 145/265/157 133/266/157
f 133/266/158 145/265/158 146/267/158 134/268/158
f 134/268/159 146/267/159 147/269/159 135/270/159
f 135/270/160 147/269/160 148/271/160 136/272/160
f 136/273/161 148/274/161 149/275/161 137/276/161
f 137/276/162 149/275/162 150/277/162 138/278/162
f 138/278/163 150/277/163 151/279/163 139/280/163
f 139/280/164 151/279/164 152/281/164 140/282/164
f 140/282/165 152/281/165 153/283/165 141/284/165
f 141/284/166 153/283/166 154/285/166 142/286/166
f 142/286/167 154/285/167 143/262/167 131/261/167
f 132/287/168 155/288/168 131/289/168
f 133/290/168 155/288/168 132/287/168
f 134/291/169 155/288/169 133/290/169
f 135/292/170 155/288/170 134/291/170
f 136/293/171 155/288/171 135/292/171
f 137/294/172 155/288/171 136/293/171
f 138/295/173 155/288/173 137/294/173
f 139/296/174 155/288/174 138/295/174
f 140/297/171 155/288/171 139/296/171
f 141/298/171 155/288/171 140/297/171
f 142/299/175 155/288/175 141/298/175
f 131/289/176 155/288/176 142/299/176
f 143/300/177 156/301/178 144/302/178
f 144/302/178 156/301/178 145/303/178
f 145/303/179 156/301/179 146/304/179
f 146/304/180 156/301/180 147/305/180
f 147/305/181 156/301/181 148/306/181
f 148/306/181 156/301/181 149/307/177
f 149/307/182 156/301/182 150/308/182
f 150/308/183 156/301/183 151/309/183
f 151/309/184 156/301/178 152/310/184
f 152/310/184 156/301/178 153/311/181
f 153/311/185 156/301/185 154/312/185
f 154/312/186 156/301/186 143/300/186
f 174/313/187 173/314/187 181/315/187 182/316/187
f 158/317/188 157/318/188 161/319/188 162/320/188
f 157/321/189 177/322/189 178/323/189 161/324/189
f 159/325/190 160/326/190 164/327/190 163/328/190
f 185/329/191 186/330/191 158/331/191 162/332/191
f 162/320/187 161/319/187 165/333/187 166/334/187
f 161/324/192 178/323/192 179/335/192 165/336/192
f 163/328/193 164/327/193 168/337/193 167/338/193
f 184/339/194 185/329/194 162/332/194 166/340/194
f 166/334/187 165/333/187 169/341/187 170/342/187
f 165/336/195 179/335/195 180/343/195 169/344/195
f 167/338/196 168/337/196 172/345/196 171/346/196
f 183/347/197 184/339/197 166/340/197 170/348/197
f 170/342/187 169/341/187 173/314/187 174/313/187
f 173/349/198 169/344/198 180/343/198 181/350/198
f 171/346/199 172/345/199 176/351/199 175/352/199
f 183/347/200 170/348/200 174/353/200 182/354/200
f 159/355/201 163/356/201 190/357/201 188/358/201
f 163/356/202 167/359/202 192/360/202 190/357/202
f 167/359/203 171/361/203 194/362/203 192/360/203
f 171/361/204 175/363/204 196/364/204 194/362/204
f 175/352/205 176/351/205 197/365/205 196/366/205
f 176/367/206 172/368/206 199/369/206 197/370/206
f 172/368/207 168/371/207 201/372/207 199/369/207
f 168/371/208 164/373/208 203/374/208 201/372/208
f 164/373/209 160/375/209 205/376/209 203/374/209
f 187/377/210 188/358/210 190/357/210 189/378/210
f 189/378/211 190/357/211 192/360/211 191/379/211
f 191/379/212 192/360/212 194/362/212 193/380/212
f 193/380/213 194/362/213 196/364/213 195/381/213
f 195/382/214 196/366/214 197/365/214 198/383/214
f 198/384/215 197/370/215 199/369/215 200/385/215
f 200/385/216 199/369/216 201/372/216 202/386/216
f 202/386/217 201/372/217 203/374/217 204/387/217
f 204/387/218 203/374/218 205/376/218 206/388/218
f 178/323/219 177/322/219 187/377/219 189/378/219
f 179/335/220 178/323/220 189/378/220 191/379/220
f 180/343/221 179/335/221 191/379/221 193/380/221
f 181/350/222 180/343/222 193/380/222 195/381/222
f 182/389/223 181/390/223 195/382/223 198/383/223
f 183/347/224 182/354/224 198/384/224 200/385/224
f 200/385/225 202/386/225 184/339/225 183/347/225
f 202/386/226 204/387/226 185/329/226 184/339/226
f 204/387/227 206/388/227 186/330/227 185/329/227
f 188/358/228 209/391/228 159/355/228
f 177/322/229 207/392/229 208/393/229 187/377/229
f 187/377/230 208/393/230 209/391/230 188/358/230
f 157/321/231 207/392/231 177/322/231
f 158/394/232 210/395/232 207/396/232 157/397/232
f 208/398/233 207/396/233 210/395/233 211/399/233
f 209/400/234 208/398/234 211/399/234 212/401/234
f 159/325/235 209/400/235 212/401/235 160/326/235
f 158/331/236 186/330/236 210/402/236
f 211/403/237 210/402/237 186/330/237 206/388/237
f 212/404/238 211/403/238 206/388/238 205/376/238
f 160/375/239 212/404/239 205/376/239
